<svg width="54" height="50" viewBox="0 0 54 50" fill="none" xmlns="http://www.w3.org/2000/svg">
<g clip-path="url(#clip0)">
<path d="M7.75665 36.3791V2.56044C7.75665 2.08189 7.33168 1.69507 6.80806 1.69507C6.28444 1.69507 5.85948 2.08189 5.85948 2.56044V36.3791C2.64662 36.8014 0.167969 39.3222 0.167969 42.3674C0.167969 45.7069 3.14652 48.425 6.80806 48.425C10.4696 48.425 13.4482 45.7069 13.4482 42.3674C13.4482 39.3222 10.9695 36.8014 7.75665 36.3791ZM6.80806 46.6943C4.19281 46.6943 2.06514 44.7533 2.06514 42.3674C2.06514 39.9816 4.19281 38.0406 6.80806 38.0406C9.42331 38.0406 11.551 39.9816 11.551 42.3674C11.551 44.7533 9.42331 46.6943 6.80806 46.6943Z" fill="#49326C"/>
<path d="M27.6769 18.7385V2.56044C27.6769 2.08189 27.252 1.69507 26.7284 1.69507C26.2047 1.69507 25.7798 2.08189 25.7798 2.56044V18.684C22.363 19.0267 19.6956 21.6747 19.6956 24.8809C19.6956 28.0871 22.363 30.7351 25.7798 31.0778V47.5597C25.7798 48.0382 26.2047 48.425 26.7284 48.425C27.252 48.425 27.6769 48.0382 27.6769 47.5597V31.0233C30.9021 30.524 33.3685 27.9634 33.3685 24.8809C33.3685 21.7985 30.9021 19.2378 27.6769 18.7385ZM26.532 29.3869C23.8086 29.3869 21.5927 27.3654 21.5927 24.8809C21.5927 22.3964 23.8077 20.3749 26.532 20.3749C29.2563 20.3749 31.4713 22.3964 31.4713 24.8809C31.4713 27.3654 29.2554 29.3869 26.532 29.3869Z" fill="#49326C"/>
<path d="M53.2887 7.75266C53.2887 4.41319 50.3102 1.69507 46.6486 1.69507C42.9871 1.69507 40.0085 4.41319 40.0085 7.75266C40.0085 10.7979 42.4872 13.3187 45.7001 13.741V47.5597C45.7001 48.0382 46.125 48.425 46.6486 48.425C47.1723 48.425 47.5972 48.0382 47.5972 47.5597V13.741C50.8101 13.3187 53.2887 10.7979 53.2887 7.75266ZM46.6486 12.0795C44.0334 12.0795 41.9057 10.1385 41.9057 7.75266C41.9057 5.36683 44.0334 3.42581 46.6486 3.42581C49.2639 3.42581 51.3916 5.36683 51.3916 7.75266C51.3916 10.1385 49.2639 12.0795 46.6486 12.0795Z" fill="#49326C"/>
</g>
<defs>
<clipPath id="clip0">
<rect width="53.1207" height="48.4607" fill="white" transform="translate(0.167969 0.829712)"/>
</clipPath>
</defs>
</svg>
