<svg width="53" height="53" viewBox="0 0 53 53" fill="none" xmlns="http://www.w3.org/2000/svg">
<path d="M49.9381 16.1882C49.5116 14.517 48.8483 12.9204 47.9605 11.4265L49.1514 9.44891L43.5507 3.84912L41.5732 5.03997C40.0792 4.15222 38.4818 3.48889 36.8115 3.06241L36.2575 0.828125H28.3373L27.7824 3.06241C26.1121 3.48889 24.5146 4.15139 23.0207 5.03997L21.0431 3.84912L15.4425 9.44891L16.6334 11.4265C15.7456 12.9204 15.0823 14.517 14.6558 16.1882L12.4224 16.743V24.6632L14.6492 25.2164C14.7154 25.5071 14.7908 25.8135 14.8645 26.1174C14.6185 26.6739 14.4107 27.2511 14.2832 27.8565C13.9453 29.4572 14.0339 31.0944 14.5357 32.6298L2.70846 42.7321C1.51347 43.7523 0.828613 45.2388 0.828613 46.8089C0.828613 49.7662 3.23432 52.1719 6.19155 52.1719C7.7625 52.1719 9.24899 51.487 10.2684 50.292L20.3699 38.4639C21.9036 38.9641 23.5416 39.0544 25.1432 38.7173C25.7494 38.5898 26.3266 38.3819 26.8831 38.136C27.1862 38.2097 27.4934 38.2842 27.7832 38.3513L28.3373 40.5781H36.2575L36.8123 38.3438C38.4826 37.9174 40.0801 37.2549 41.574 36.3663L43.5516 37.5571L49.1522 31.9565L47.9613 29.9798C48.8491 28.4858 49.5124 26.8892 49.9389 25.2181L52.1724 24.6632V16.743L49.9381 16.1882ZM24.802 37.0967C23.3255 37.4064 21.8092 37.278 20.4204 36.7215L19.868 36.4996L9.00883 49.2171C8.3041 50.0428 7.27722 50.5156 6.19155 50.5156C4.14774 50.5156 2.48486 48.8527 2.48486 46.8089C2.48486 45.7233 2.95855 44.6956 3.78419 43.9908L16.5 33.1308L16.2789 32.5793C15.7224 31.1905 15.5924 29.6759 15.9038 28.1985C16.4355 25.6752 18.3037 23.5925 20.779 22.7627C21.5831 22.4927 22.388 22.3585 23.1905 22.3585C23.5954 22.3585 23.9987 22.3925 24.4004 22.4612L21.2585 25.6031C20.4842 26.3766 20.0022 27.3414 19.8995 28.3194C19.762 29.6361 20.2167 30.9247 21.1475 31.8547C22.0775 32.7846 23.3635 33.2467 24.6811 33.101C25.6591 32.9991 26.6239 32.5172 27.3982 31.7429L30.5401 28.601C30.7446 29.8001 30.6436 31.0125 30.2378 32.2215C29.408 34.696 27.3253 36.5642 24.802 37.0967ZM19.0474 20.7031C19.0474 13.3974 24.9916 7.45312 32.2974 7.45312C39.6031 7.45312 45.5474 13.3974 45.5474 20.7031C45.5474 28.0088 39.6031 33.9531 32.2974 33.9531C31.9769 33.9531 31.6514 33.9324 31.3243 33.9067C31.5098 33.5341 31.6746 33.149 31.8096 32.7482C32.4771 30.759 32.4555 28.6738 31.7483 26.7195L31.3053 25.4947L26.228 30.5719C25.722 31.077 25.1117 31.3909 24.5097 31.4538C23.6907 31.5367 22.8948 31.2584 22.3185 30.6829C21.7429 30.1073 21.4613 29.3082 21.5466 28.4908C21.6096 27.8896 21.9226 27.2801 22.4286 26.7741L27.5058 21.6969L26.281 21.2538C24.3267 20.5466 22.2414 20.5251 20.2515 21.1925C19.8506 21.3267 19.4656 21.4915 19.0929 21.6778C19.0681 21.3482 19.0474 21.0228 19.0474 20.7031ZM50.5161 23.368L48.5551 23.8558L48.4425 24.3543C48.0292 26.1878 47.3063 27.9293 46.2918 29.5343L46.0186 29.9657L47.0645 31.7015L43.2957 35.4711L41.5591 34.4252L41.1268 34.6984C39.5227 35.7129 37.7804 36.4367 35.9477 36.8491L35.4492 36.9617L34.9623 38.9219H29.6325L29.1455 36.9609L28.8987 36.9054C29.4271 36.4772 29.9057 35.9928 30.3281 35.4553C30.9989 35.5481 31.6547 35.6094 32.2974 35.6094C40.5165 35.6094 47.2036 28.9223 47.2036 20.7031C47.2036 12.484 40.5165 5.79688 32.2974 5.79688C24.0782 5.79688 17.3911 12.484 17.3911 20.7031C17.3911 21.3441 17.4524 22 17.5451 22.6732C17.0077 23.0956 16.5232 23.5742 16.0959 24.1026L16.0404 23.8558L14.0786 23.368V18.0382L16.0396 17.5505L16.1522 17.0519C16.5655 15.2185 17.2884 13.4769 18.3029 11.872L18.5762 11.4405L17.5302 9.70397L21.299 5.93517L23.0356 6.98109L23.4679 6.70781C25.072 5.69336 26.8143 4.96958 28.647 4.55717L29.1455 4.44455L29.6325 2.48438H34.9623L35.4492 4.44537L35.9477 4.558C37.7804 4.97041 39.5227 5.69419 41.1268 6.70864L41.5591 6.98192L43.2957 5.936L47.0645 9.7048L46.0186 11.4414L46.2918 11.8728C47.3063 13.4777 48.0301 15.2193 48.4425 17.0527L48.5551 17.5513L50.5161 18.0382V23.368Z" fill="#49326C"/>
<path d="M30.6406 24.0156H42.2344V12.4219H37.2656V14.0781H33.9531V17.3906H30.6406V24.0156ZM38.9219 14.0781H40.5781V22.3594H38.9219V14.0781ZM37.2656 15.7344V22.3594H35.6094V15.7344H37.2656ZM32.2969 19.0469H33.9531V22.3594H32.2969V19.0469Z" fill="#49326C"/>
<path d="M29.2394 11.2443L28.7302 9.66919C25.1957 10.8112 22.4049 13.602 21.2629 17.1364L22.8389 17.6457C23.8169 14.6156 26.2093 12.224 29.2394 11.2443Z" fill="#49326C"/>
<path d="M32.2967 10.7656V9.10938C31.6955 9.10938 31.0959 9.15575 30.5129 9.24602L30.768 10.8832C31.2665 10.8054 31.7808 10.7656 32.2967 10.7656Z" fill="#49326C"/>
<path d="M6.625 43.8906C5.25528 43.8906 4.14062 45.0053 4.14062 46.375C4.14062 47.7447 5.25528 48.8594 6.625 48.8594C7.99472 48.8594 9.10937 47.7447 9.10937 46.375C9.10937 45.0053 7.99472 43.8906 6.625 43.8906ZM6.625 47.2031C6.1687 47.2031 5.79687 46.8321 5.79687 46.375C5.79687 45.9179 6.1687 45.5469 6.625 45.5469C7.0813 45.5469 7.45312 45.9179 7.45312 46.375C7.45312 46.8321 7.0813 47.2031 6.625 47.2031Z" fill="#49326C"/>
<path d="M11.6887 40.1316L12.8601 38.9602L14.0314 40.1316L12.8601 41.303L11.6887 40.1316Z" fill="#49326C"/>
<path d="M14.0312 37.7894L15.1435 36.6772L16.3148 37.8486L15.2026 38.9608L14.0312 37.7894Z" fill="#49326C"/>
<path d="M9.34619 42.4739L10.5175 41.3025L11.6889 42.4739L10.5175 43.6452L9.34619 42.4739Z" fill="#49326C"/>
<path d="M36.7283 29.6005L37.4678 31.082C37.9978 30.8187 38.5121 30.5106 38.9957 30.167L38.0384 28.8163C37.6226 29.1094 37.1821 29.3744 36.7283 29.6005Z" fill="#49326C"/>
<path d="M39.2134 27.8391L40.3661 29.0283C40.7926 28.615 41.1901 28.167 41.547 27.695L40.2262 26.6954C39.9189 27.0996 39.5786 27.4838 39.2134 27.8391Z" fill="#49326C"/>
<path d="M33.8274 30.523L34.0791 32.1602C34.6688 32.0699 35.2534 31.9325 35.8166 31.7519L35.3122 30.1752C34.8311 30.3284 34.3317 30.446 33.8274 30.523Z" fill="#49326C"/>
</svg>
