<svg width="54" height="50" viewBox="0 0 54 50" fill="none" xmlns="http://www.w3.org/2000/svg">
<g clip-path="url(#clip0)">
<path d="M17.0457 19.6312C16.9041 19.3776 16.627 19.2112 16.3163 19.1927L8.86844 18.7396C8.48249 18.7049 8.12569 18.9229 7.9849 19.2508L2.61571 31.7689C2.4714 32.1049 2.58915 32.4869 2.90435 32.7057C3.06194 32.8155 3.25139 32.8705 3.43991 32.8705C3.62666 32.8705 3.81351 32.8172 3.97111 32.709L8.42761 29.6603L11.0224 30.1335C11.4456 30.2103 11.8687 29.9986 12.0228 29.6296C13.4162 26.2998 15.0938 23.2034 17.0068 20.4277C17.1724 20.1868 17.1875 19.8839 17.0457 19.6312ZM10.6399 28.4164L8.386 28.0053C8.13991 27.9609 7.88312 28.0142 7.68133 28.1515L5.3982 29.7134L9.39695 20.3903L14.7423 20.7149C13.2019 23.0934 11.8262 25.6761 10.6399 28.4164Z" fill="#49326C"/>
<path d="M33.5572 41.2633L33.0605 34.468C33.0392 34.1837 32.8568 33.931 32.5789 33.8017C32.3018 33.6725 31.9698 33.6853 31.706 33.8372C28.6624 35.5824 25.2692 37.1129 21.6192 38.384C21.2155 38.5237 20.9818 38.9098 21.0669 39.2966L21.5856 41.6638L18.2437 45.7285C18.0064 46.0176 18.0074 46.415 18.2472 46.7025C18.4181 46.9076 18.681 47.0215 18.9519 47.0215C19.0599 47.0215 19.1688 47.0029 19.275 46.9673L32.9968 42.0692C33.3562 41.9409 33.5828 41.6146 33.5572 41.2633ZM21.5271 44.4268L23.2392 42.3439C23.3897 42.1606 23.4481 41.9264 23.3985 41.7011L22.948 39.6457C25.9526 38.5635 28.7828 37.3084 31.3899 35.9032L31.7467 40.7787L21.5271 44.4268Z" fill="#49326C"/>
<path d="M25.841 24.9696H19.876C19.5547 24.9696 19.259 25.1287 19.1022 25.3847L11.6154 37.6573C11.4206 37.9771 11.4861 38.3777 11.7747 38.6313C11.9438 38.7799 12.166 38.8574 12.3891 38.8574C12.5467 38.8574 12.7052 38.8195 12.8468 38.7404L26.2995 31.3135C26.5641 31.1674 26.7262 30.9057 26.7262 30.6231V25.7772C26.7263 25.3314 26.3297 24.9696 25.841 24.9696ZM24.9558 30.1683L14.7848 35.7836L20.3958 26.5856V26.5848H24.9558V30.1683Z" fill="#49326C"/>
<path d="M53.244 1.51715C53.2077 1.12388 52.866 0.812109 52.4348 0.778982C52.1409 0.75797 22.9879 -1.09876 10.3691 29.0529C10.2443 29.3509 10.3231 29.6868 10.5701 29.9122L14.7796 33.7524C14.977 33.9325 15.2532 34.0149 15.5303 33.981C15.8056 33.9446 16.0465 33.7928 16.181 33.5707L20.3985 26.5848H24.9559V30.1779L17.2522 34.6149C17.0247 34.7466 16.8751 34.9647 16.845 35.2086C16.8149 35.4525 16.9087 35.6955 17.0991 35.8692L21.3086 39.7094C21.4777 39.8637 21.7034 39.946 21.9345 39.946C22.0407 39.946 22.1478 39.9291 22.2505 39.8927C55.3031 28.3801 53.2688 1.78453 53.244 1.51715ZM48.5998 15.846C45.4933 22.8576 38.3845 32.39 22.153 38.196L19.1342 35.442L26.3138 31.3069C26.5705 31.1583 26.7263 30.9007 26.7263 30.6237V25.7779C26.7263 25.3321 26.3297 24.9703 25.841 24.9703H19.8742C19.5511 24.9703 19.2545 25.131 19.0987 25.3886L15.1973 31.8512L12.229 29.1424C23.3065 3.36176 46.9186 2.30699 51.5088 2.36596C51.5415 4.24938 51.3521 9.63292 48.5998 15.846Z" fill="#49326C"/>
<path d="M15.3328 36.4095C15.1406 36.177 14.8343 36.0639 14.5342 36.0929C14.5652 35.8183 14.4412 35.5397 14.1871 35.3644C12.8522 34.4438 11.1294 34.1377 9.45893 34.5236C7.68573 34.9347 6.23561 36.0379 5.48135 37.5522L0.247654 48.0569C0.0945184 48.3638 0.16621 48.7249 0.42735 48.9622C0.596463 49.1173 0.823054 49.1989 1.05328 49.1989C1.17726 49.1989 1.30207 49.1746 1.41983 49.1262L12.9347 44.3507C14.5936 43.6635 15.803 42.3406 16.2535 40.723C16.6776 39.2006 16.342 37.6282 15.3328 36.4095ZM14.5378 40.3256C14.2209 41.4652 13.3693 42.3963 12.2025 42.8809L2.83623 46.7648L7.09352 38.2194C7.62379 37.155 8.64542 36.378 9.89458 36.0889C10.2231 36.013 10.5532 35.9758 10.879 35.9758C11.4305 35.9758 11.9696 36.0833 12.4609 36.2924L11.6182 37.6533C11.4225 37.9691 11.4819 38.3656 11.7633 38.6217C12.0448 38.8793 12.4795 38.9326 12.8248 38.7541L14.3165 37.9844C14.6794 38.6967 14.7618 39.5196 14.5378 40.3256Z" fill="#49326C"/>
<path d="M53.2439 1.51801C53.2076 1.12474 52.8659 0.81297 52.4348 0.779843C52.0895 0.754761 43.8829 0.187814 34.2316 4.24371C33.9687 4.3535 33.7819 4.57479 33.7305 4.83489C33.6792 5.09498 33.7713 5.36142 33.9758 5.54797L48.0163 18.3568C48.1837 18.5095 48.4095 18.5934 48.6423 18.5934C48.6945 18.5934 48.7467 18.5894 48.7989 18.5813C49.084 18.5345 49.3257 18.3641 49.447 18.1242C53.8937 9.31954 53.2722 1.83215 53.2439 1.51801ZM48.3554 16.3805L36.1421 5.23866C43.2075 2.51779 49.3947 2.33038 51.5096 2.36275C51.545 4.29378 51.3458 9.92047 48.3554 16.3805Z" fill="#49326C"/>
<path d="M39.2654 13.5313C36.2882 10.8153 31.4449 10.8153 28.4677 13.5313C25.4904 16.2473 25.4904 20.6657 28.4677 23.3818C29.9559 24.7402 31.9114 25.4186 33.8661 25.4186C35.8217 25.4186 37.7764 24.7394 39.2654 23.3818C42.2426 20.6657 42.2426 16.2472 39.2654 13.5313ZM38.0136 22.2397C35.727 24.3258 32.0062 24.3258 29.7195 22.2397C27.4329 20.1537 27.4329 16.7593 29.7195 14.6732C30.8624 13.6306 32.3647 13.1089 33.8662 13.1089C35.3677 13.1089 36.87 13.6306 38.0137 14.6732C40.3003 16.7593 40.3003 20.1537 38.0136 22.2397Z" fill="#49326C"/>
<path d="M35.6261 20.0625C34.6558 20.9493 33.0765 20.9484 32.1053 20.0625C31.135 19.1766 31.135 17.7366 32.1053 16.8506C33.0756 15.9655 34.6548 15.9647 35.6261 16.8506C35.9713 17.1664 36.5326 17.1664 36.8778 16.8506C37.2239 16.5349 37.2239 16.0244 36.8778 15.7087C35.2179 14.1936 32.5143 14.1936 30.8535 15.7087C29.1927 17.2237 29.1927 19.6894 30.8535 21.2045C31.684 21.962 32.7755 22.3408 33.8661 22.3408C34.9577 22.3408 36.0483 21.962 36.8778 21.2045C37.2239 20.8887 37.2239 20.3783 36.8778 20.0625C36.5325 19.7468 35.9713 19.7468 35.6261 20.0625Z" fill="#49326C"/>
</g>
<defs>
<clipPath id="clip0">
<rect width="53.1207" height="48.4607" fill="white" transform="translate(0.167969 0.73877)"/>
</clipPath>
</defs>
</svg>
