<svg width="54" height="49" viewBox="0 0 54 49" fill="none" xmlns="http://www.w3.org/2000/svg">
<g clip-path="url(#clip0)">
<path d="M16.3576 9.79289C15.8983 9.79289 15.5258 10.1326 15.5258 10.5517C15.5258 11.4722 14.7049 12.221 13.6959 12.221C12.687 12.221 11.8661 11.4722 11.8661 10.5517C11.8661 9.63123 12.687 8.88236 13.6959 8.88236C14.1553 8.88236 14.5277 8.54266 14.5277 8.12355C14.5277 7.70444 14.1554 7.36475 13.6959 7.36475C11.7697 7.36475 10.2026 8.79443 10.2026 10.5516C10.2026 12.3088 11.7698 13.7385 13.6959 13.7385C15.6221 13.7385 17.1893 12.3088 17.1893 10.5516C17.1894 10.1326 16.8169 9.79289 16.3576 9.79289Z" fill="#49326C"/>
<path d="M16.3576 18.6958C15.8983 18.6958 15.5258 19.0355 15.5258 19.4547C15.5258 20.3751 14.7049 21.124 13.6959 21.124C12.687 21.124 11.8661 20.3751 11.8661 19.4547C11.8661 18.5342 12.687 17.7853 13.6959 17.7853C14.1553 17.7853 14.5277 17.4456 14.5277 17.0265C14.5277 16.6074 14.1554 16.2677 13.6959 16.2677C11.7697 16.2677 10.2026 17.6974 10.2026 19.4546C10.2026 21.2117 11.7698 22.6414 13.6959 22.6414C15.6221 22.6414 17.1893 21.2117 17.1893 19.4546C17.1894 19.0356 16.8169 18.6958 16.3576 18.6958Z" fill="#49326C"/>
<path d="M26.1168 20.3146H19.9065C19.4472 20.3146 19.0747 20.6543 19.0747 21.0734C19.0747 21.4925 19.4471 21.8322 19.9065 21.8322H26.1168C26.5761 21.8322 26.9486 21.4925 26.9486 21.0734C26.9486 20.6543 26.5762 20.3146 26.1168 20.3146Z" fill="#49326C"/>
<path d="M26.1168 17.0771H19.9065C19.4472 17.0771 19.0747 17.4168 19.0747 17.836C19.0747 18.2551 19.4471 18.5948 19.9065 18.5948H26.1168C26.5761 18.5948 26.9486 18.2551 26.9486 17.836C26.9486 17.4168 26.5762 17.0771 26.1168 17.0771Z" fill="#49326C"/>
<path d="M24.3425 29.2175H19.9065C19.4472 29.2175 19.0747 29.5572 19.0747 29.9763C19.0747 30.3954 19.4471 30.7351 19.9065 30.7351H24.3425C24.8018 30.7351 25.1743 30.3954 25.1743 29.9763C25.1743 29.5572 24.8018 29.2175 24.3425 29.2175Z" fill="#49326C"/>
<path d="M26.1168 25.9801H19.9065C19.4472 25.9801 19.0747 26.3198 19.0747 26.7389C19.0747 27.158 19.4471 27.4977 19.9065 27.4977H26.1168C26.5761 27.4977 26.9486 27.158 26.9486 26.7389C26.9486 26.3198 26.5762 25.9801 26.1168 25.9801Z" fill="#49326C"/>
<path d="M34.1016 11.4116H19.9065C19.4472 11.4116 19.0747 11.7513 19.0747 12.1704C19.0747 12.5895 19.4471 12.9292 19.9065 12.9292H34.1015C34.5608 12.9292 34.9333 12.5895 34.9333 12.1704C34.9333 11.7513 34.5609 11.4116 34.1016 11.4116Z" fill="#49326C"/>
<path d="M30.5528 8.17407H19.9065C19.4472 8.17407 19.0747 8.51377 19.0747 8.93288C19.0747 9.35199 19.4471 9.69169 19.9065 9.69169H30.5528C31.0121 9.69169 31.3846 9.35199 31.3846 8.93288C31.3846 8.51377 31.0123 8.17407 30.5528 8.17407Z" fill="#49326C"/>
<path d="M16.3576 27.5988C15.8983 27.5988 15.5258 27.9385 15.5258 28.3576C15.5258 29.2781 14.7049 30.0269 13.6959 30.0269C12.687 30.0269 11.8661 29.2781 11.8661 28.3576C11.8661 27.4371 12.687 26.6883 13.6959 26.6883C14.1553 26.6883 14.5277 26.3486 14.5277 25.9295C14.5277 25.5104 14.1554 25.1707 13.6959 25.1707C11.7697 25.1707 10.2026 26.6003 10.2026 28.3575C10.2026 30.1147 11.7698 31.5444 13.6959 31.5444C15.6221 31.5444 17.1893 30.1147 17.1893 28.3575C17.1894 27.9385 16.8169 27.5988 16.3576 27.5988Z" fill="#49326C"/>
<path d="M37.6504 0.0804443H7.48577C6.04881 0.0804443 4.87964 1.14696 4.87964 2.45795V36.4513C4.87964 37.7622 6.04871 38.8288 7.48577 38.8288H22.5681C23.0274 38.8288 23.3999 38.4891 23.3999 38.07C23.3999 37.6509 23.0275 37.3111 22.5681 37.3111H7.48577C6.96598 37.3111 6.54309 36.9254 6.54309 36.4512V2.45795C6.54309 1.98376 6.96598 1.59797 7.48577 1.59797H37.6504C38.1702 1.59797 38.5931 1.98376 38.5931 2.45795V27.5484C38.5931 27.9674 38.9654 28.3072 39.4248 28.3072C39.8841 28.3072 40.2566 27.9675 40.2566 27.5484V2.45795C40.2565 1.14696 39.0874 0.0804443 37.6504 0.0804443Z" fill="#49326C"/>
<path d="M45.5032 30.8504C44.7301 30.7801 43.9575 30.98 43.346 31.4036C42.8589 30.6579 42.0282 30.1289 41.0672 30.0411C40.2939 29.9709 39.5214 30.1708 38.91 30.5942C38.4229 29.8486 37.5922 29.3196 36.6312 29.2317C36.0408 29.178 35.4513 29.2817 34.9333 29.5222V19.8592C34.9333 19.0747 34.5675 18.3226 33.9293 17.7959C33.2917 17.2696 32.4326 17.0127 31.5719 17.0913C30.0365 17.2316 28.8338 18.4981 28.8338 19.9747V29.6621L26.3888 31.8926C25.0895 33.0779 24.5651 34.7597 24.986 36.3914L26.8422 43.5883C27.5943 46.5046 30.4131 48.5413 33.6971 48.5413H41.199C45.082 48.5413 48.2412 45.6594 48.2412 42.1169V33.734C48.2413 32.2572 47.0386 30.9907 45.5032 30.8504ZM46.5777 42.1167C46.5777 44.8223 44.1649 47.0235 41.1991 47.0235H33.6972C31.189 47.0235 29.0359 45.4679 28.4615 43.2405L26.6053 36.0436C26.3172 34.9272 26.6761 33.7765 27.5651 32.9655L28.8338 31.808V34.4277C28.8338 34.8468 29.2062 35.1865 29.6656 35.1865C30.125 35.1865 30.4974 34.8468 30.4974 34.4277V19.9746C30.4974 19.2681 31.0422 18.6648 31.7378 18.6013C32.1374 18.5647 32.5195 18.6785 32.8133 18.9212C33.1035 19.1607 33.2699 19.5027 33.2699 19.8593V33.2139C33.2699 33.6329 33.6423 33.9727 34.1017 33.9727C34.5611 33.9727 34.9335 33.633 34.9335 33.2139V31.9998C34.9335 31.6431 35.0998 31.3012 35.3901 31.0616C35.6841 30.8189 36.066 30.7051 36.4656 30.7418C37.1611 30.8053 37.706 31.4086 37.706 32.1152V34.023C37.706 34.442 38.0784 34.7818 38.5378 34.7818C38.9971 34.7818 39.3696 34.4421 39.3696 34.023V32.8089C39.3696 32.4523 39.5359 32.1103 39.8262 31.8708C40.1202 31.6281 40.5022 31.5143 40.9017 31.551C41.5972 31.6145 42.1421 32.2178 42.1421 32.9243V34.8323C42.1421 35.2513 42.5145 35.5911 42.9739 35.5911C43.4332 35.5911 43.8057 35.2514 43.8057 34.8323V33.6182C43.8057 33.2616 43.972 32.9196 44.2623 32.68C44.5563 32.4374 44.938 32.3235 45.3378 32.3603C46.0333 32.4237 46.5782 33.027 46.5782 33.7336V42.1167H46.5777Z" fill="#49326C"/>
</g>
<defs>
<clipPath id="clip0">
<rect width="53.1207" height="48.4607" fill="white" transform="translate(0 0.0804443)"/>
</clipPath>
</defs>
</svg>
