<svg width="47" height="49" viewBox="0 0 47 49" fill="none" xmlns="http://www.w3.org/2000/svg">
<path d="M45.7414 47.086H43.6423V16.608C43.6423 15.1894 42.4882 14.0353 41.0697 14.0353H36.3779C34.9593 14.0353 33.8052 15.1895 33.8052 16.608V47.086H28.4753V30.4169C28.4753 28.9983 27.3212 27.8442 25.9026 27.8442H21.2109C19.7923 27.8442 18.6382 28.9984 18.6382 30.4169V47.086H13.3083V38.4532C13.3083 37.0346 12.1541 35.8805 10.7356 35.8805H6.04375C4.62515 35.8805 3.47106 37.0346 3.47106 38.4532V47.086H1.25879C0.730221 47.086 0.301758 47.5144 0.301758 48.043C0.301758 48.5716 0.730221 49 1.25879 49H45.7414C46.27 49 46.6984 48.5716 46.6984 48.043C46.6984 47.5144 46.27 47.086 45.7414 47.086ZM11.394 47.086H5.38503V38.4532C5.38503 38.09 5.68046 37.7945 6.04366 37.7945H10.7354C11.0986 37.7945 11.394 38.09 11.394 38.4532V47.086ZM26.5612 47.086H20.5522V30.4169C20.5522 30.0537 20.8476 29.7582 21.2108 29.7582H25.9025C26.2656 29.7582 26.5612 30.0537 26.5612 30.4169V47.086ZM41.7283 47.086H35.7193V16.608C35.7193 16.2448 36.0147 15.9493 36.3779 15.9493H41.0697C41.4328 15.9493 41.7283 16.2448 41.7283 16.608V47.086Z" fill="#49326C"/>
<path d="M43.64 1.00641C43.6534 0.74524 43.5615 0.479664 43.3621 0.280219C43.1627 0.0807734 42.8971 -0.0111973 42.6359 0.00229687C42.6205 0.00162695 42.6053 0 42.5896 0H36.7995C36.271 0 35.8425 0.428463 35.8425 0.957031C35.8425 1.4856 36.271 1.91406 36.7995 1.91406H40.3747L30.9138 11.3751L27.346 7.80727C27.1665 7.62783 26.9231 7.52696 26.6693 7.52696C26.4155 7.52696 26.172 7.62783 25.9926 7.80727L8.7881 25.0118C8.41438 25.3855 8.41438 25.9915 8.7881 26.3653C8.97501 26.5521 9.21992 26.6455 9.46482 26.6455C9.70972 26.6455 9.95472 26.5521 10.1415 26.3652L26.6693 9.83732L30.2371 13.4051C30.6108 13.7789 31.2168 13.7789 31.5906 13.4051L41.7283 3.26759V6.50331C41.7283 7.03188 42.1567 7.46035 42.6853 7.46035C43.2139 7.46035 43.6423 7.03188 43.6423 6.50331V1.05273C43.6423 1.03713 43.6407 1.02192 43.64 1.00641Z" fill="#49326C"/>
</svg>
