<svg width="54" height="49" viewBox="0 0 54 49" fill="none" xmlns="http://www.w3.org/2000/svg">
<path d="M27.3902 14.0586H25.7302V15.573H27.3902V14.0586Z" fill="#49326C"/>
<path d="M24.0702 14.0586H22.4102V15.573H24.0702V14.0586Z" fill="#49326C"/>
<path d="M30.7103 14.0586H29.0503V15.573H30.7103V14.0586Z" fill="#49326C"/>
<path d="M10.7902 42.832H9.13013V44.3464H10.7902V42.832Z" fill="#49326C"/>
<path d="M14.11 42.832H12.45V44.3464H14.11V42.832Z" fill="#49326C"/>
<path d="M17.43 42.832H15.77V44.3464H17.43V42.832Z" fill="#49326C"/>
<path d="M48.9706 1.94336H4.14995C3.48955 1.94336 2.8562 2.18269 2.38923 2.60869C1.92225 3.0347 1.65991 3.61249 1.65991 4.21496V43.5893C1.66123 44.593 2.09889 45.5553 2.87689 46.2651C3.65489 46.9748 4.70971 47.3741 5.80997 47.3753H20.7502C21.8504 47.3741 22.9053 46.9748 23.6833 46.2651C24.4613 45.5553 24.8989 44.593 24.9002 43.5893V42.8321H34.8604V43.5893C34.8617 44.593 35.2994 45.5553 36.0774 46.2651C36.8554 46.9748 37.9102 47.3741 39.0104 47.3753H47.3106C48.4108 47.3741 49.4656 46.9748 50.2436 46.2651C51.0216 45.5553 51.4593 44.593 51.4606 43.5893V4.21496C51.4606 3.61249 51.1983 3.0347 50.7313 2.60869C50.2643 2.18269 49.631 1.94336 48.9706 1.94336ZM3.31994 4.21496C3.31994 4.01413 3.40738 3.82154 3.56304 3.67954C3.7187 3.53753 3.92981 3.45776 4.14995 3.45776H48.9706C49.1907 3.45776 49.4018 3.53753 49.5575 3.67954C49.7131 3.82154 49.8006 4.01413 49.8006 4.21496V23.8976C49.5429 23.7268 49.2644 23.584 48.9706 23.472V4.21496H4.14995V17.4069C4.11841 17.419 4.08853 17.4334 4.05782 17.4462C3.98062 17.4788 3.34816 17.8248 3.31994 17.843V4.21496ZM41.5005 24.6593H44.8205V25.4165H41.5005V24.6593ZM5.80997 17.0873V5.72935H47.3106V23.1449H39.0104C38.0541 23.146 37.1274 23.4479 36.3866 23.9996C35.6457 24.5513 35.136 25.3191 34.9434 26.1737H24.9002V20.8733C24.8989 19.8696 24.4613 18.9073 23.6833 18.1975C22.9053 17.4878 21.8504 17.0885 20.7502 17.0873H5.80997ZM16.6001 18.6017V19.3589C16.6001 19.5597 16.5127 19.7523 16.357 19.8943C16.2014 20.0364 15.9902 20.1161 15.7701 20.1161H10.79C10.5699 20.1161 10.3588 20.0364 10.2031 19.8943C10.0475 19.7523 9.96003 19.5597 9.96003 19.3589V18.6017H16.6001ZM24.9002 27.6881H34.8604V32.2313H24.9002V27.6881ZM23.2402 43.5893C23.2402 44.1917 22.9779 44.7695 22.5109 45.1955C22.0439 45.6215 21.4106 45.8609 20.7502 45.8609H5.80997C5.14957 45.8609 4.51622 45.6215 4.04925 45.1955C3.58228 44.7695 3.31994 44.1917 3.31994 43.5893V20.8733C3.31964 20.3671 3.50507 19.8754 3.84668 19.4764C4.18828 19.0775 4.66642 18.7944 5.20489 18.6721C5.40199 18.623 5.60566 18.5993 5.80997 18.6017H8.3V19.3589C8.3 19.9614 8.56235 20.5392 9.02932 20.9652C9.49629 21.3912 10.1296 21.6305 10.79 21.6305H15.7701C16.4305 21.6305 17.0639 21.3912 17.5308 20.9652C17.9978 20.5392 18.2601 19.9614 18.2601 19.3589V18.6017H20.7502C21.4106 18.6017 22.0439 18.8411 22.5109 19.2671C22.9779 19.6931 23.2402 20.2709 23.2402 20.8733V43.5893ZM24.9002 41.3177V33.7457H30.1567L33.6154 41.3177H24.9002ZM31.9553 33.7457H34.8604V40.1062L31.9553 33.7457ZM49.8006 43.5893C49.8006 44.1917 49.5382 44.7695 49.0713 45.1955C48.6043 45.6215 47.9709 45.8609 47.3106 45.8609H39.0104C38.35 45.8609 37.7167 45.6215 37.2497 45.1955C36.7827 44.7695 36.5204 44.1917 36.5204 43.5893V26.9309C36.5204 26.3284 36.7827 25.7507 37.2497 25.3247C37.7167 24.8986 38.35 24.6593 39.0104 24.6593H39.8404V25.4165C39.8404 25.8182 40.0153 26.2034 40.3267 26.4874C40.638 26.7714 41.0602 26.9309 41.5005 26.9309H44.8205C45.2608 26.9309 45.683 26.7714 45.9943 26.4874C46.3056 26.2034 46.4805 25.8182 46.4805 25.4165V24.6593H47.3106C47.5101 24.6577 47.7089 24.6808 47.9015 24.7282L47.9306 24.7335H47.9422C48.4757 24.8591 48.9481 25.1434 49.2846 25.5414C49.6212 25.9393 49.8027 26.4283 49.8006 26.9309V43.5893Z" fill="#49326C"/>
<path d="M43.9906 42.832H42.3306V44.3464H43.9906V42.832Z" fill="#49326C"/>
<path d="M47.3107 42.832H45.6506V44.3464H47.3107V42.832Z" fill="#49326C"/>
<path d="M40.6705 42.832H39.0105V44.3464H40.6705V42.832Z" fill="#49326C"/>
</svg>
