<svg width="58" height="58" viewBox="0 0 58 58" fill="none" xmlns="http://www.w3.org/2000/svg">
<g clip-path="url(#clip0)">
<path d="M28.5396 16.3125C33.1087 16.3125 36.8253 12.6531 36.8253 8.15625C36.8253 3.65944 33.1087 0 28.5396 0C23.9705 0 20.2539 3.65944 20.2539 8.15625C20.2539 12.6531 23.9705 16.3125 28.5396 16.3125ZM28.5396 1.8125C32.0924 1.8125 34.9841 4.65812 34.9841 8.15625C34.9841 11.6544 32.0924 14.5 28.5396 14.5C24.9869 14.5 22.0952 11.6544 22.0952 8.15625C22.0952 4.65812 24.9869 1.8125 28.5396 1.8125Z" fill="#49326C"/>
<path d="M18.2865 46.6764C18.4522 46.3981 18.4549 46.0547 18.2938 45.7746L10.0081 31.2746C9.68222 30.7037 8.72936 30.7037 8.40438 31.2746L0.118662 45.7746C-0.0424488 46.0556 -0.0396869 46.3981 0.126027 46.6764C0.291742 46.9546 0.59371 47.125 0.920535 47.125H17.492C17.8197 47.125 18.1217 46.9546 18.2865 46.6764ZM2.49482 45.3125L9.20625 33.5675L15.9177 45.3125H2.49482Z" fill="#49326C"/>
<path d="M57.9999 31.7188C57.9999 31.2185 57.5875 30.8125 57.0793 30.8125H42.3491C41.8409 30.8125 41.4285 31.2185 41.4285 31.7188V46.2188C41.4285 46.719 41.8409 47.125 42.3491 47.125H57.0793C57.5875 47.125 57.9999 46.719 57.9999 46.2188V31.7188ZM56.1586 45.3125H43.2697V32.625H56.1586V45.3125Z" fill="#49326C"/>
<path d="M28.5396 51.6562C24.265 51.6562 20.1194 50.4527 16.5483 48.1771L15.5466 49.6987C19.417 52.1656 23.9097 53.4687 28.5396 53.4687C33.3453 53.4687 37.9807 52.0722 41.9449 49.4296L40.9129 47.9288C37.2543 50.3676 32.9761 51.6562 28.5396 51.6562Z" fill="#49326C"/>
<path d="M50.6182 29.0354L52.4576 28.9647C52.1124 20.3118 46.9826 12.5634 39.0716 8.7417L38.2605 10.3693C45.563 13.8964 50.2987 21.0495 50.6182 29.0354Z" fill="#49326C"/>
<path d="M6.51427 31.6472C6.46823 31.0753 6.4443 30.4899 6.4443 29.9063C6.4443 21.5425 11.1856 14.0559 18.8176 10.3693L18.0075 8.7417C9.73925 12.7364 4.60303 20.8456 4.60303 29.9063C4.60303 30.5379 4.62788 31.1714 4.67852 31.7913L6.51427 31.6472Z" fill="#49326C"/>
<path d="M14.9999 6.60925L16.3017 7.89069L19.0636 5.17194C19.4235 4.8176 19.4235 4.24485 19.0636 3.8905L16.3017 1.17175L14.9999 2.45319L16.1903 3.62497H10.127V5.43747H16.1903L14.9999 6.60925Z" fill="#49326C"/>
<path d="M54.3173 20.8437C54.553 20.8437 54.7887 20.7549 54.9682 20.5782L57.7301 17.8595L56.4284 16.578L55.238 17.7498V11.7812H53.3967V17.7498L52.2063 16.578L50.9045 17.8595L53.6664 20.5782C53.846 20.7549 54.0817 20.8437 54.3173 20.8437Z" fill="#49326C"/>
<path d="M8.55536 49.203L5.79346 51.9218L7.09523 53.2032L8.28562 52.0314V58H10.1269V52.0314L11.3173 53.2032L12.619 51.9218L9.85714 49.203C9.49809 48.8487 8.91533 48.8487 8.55536 49.203Z" fill="#49326C"/>
<path d="M36.8254 29C36.8254 26.0973 35.2382 23.3903 32.6834 21.9358L31.761 23.5045C33.7486 24.6364 34.9841 26.7416 34.9841 29C34.9841 31.9553 32.9164 34.4384 30.1333 35.1399L31.2049 33.031L29.5579 32.2199L27.7166 35.8449C27.5398 36.1938 27.6089 36.6152 27.8897 36.8907L30.6516 39.6095L31.9534 38.328L30.5153 36.9125C34.1316 36.037 36.8254 32.8262 36.8254 29Z" fill="#49326C"/>
<path d="M24.3986 36.066L25.3192 34.4973C23.3307 33.3654 22.0952 31.2593 22.0952 29C22.0952 26.0447 24.1629 23.5616 26.946 22.8601L25.8744 24.969L27.5214 25.7801L29.3627 22.1551C29.5394 21.8062 29.4704 21.3848 29.1896 21.1093L26.4277 18.3905L25.1259 19.6719L26.5639 21.0875C22.9486 21.9629 20.2539 25.1738 20.2539 29C20.2539 31.9045 21.842 34.6115 24.3986 36.066Z" fill="#49326C"/>
</g>
<defs>
<clipPath id="clip0">
<rect width="58" height="58" fill="white"/>
</clipPath>
</defs>
</svg>
