<svg width="63" height="63" viewBox="0 0 63 63" fill="none" xmlns="http://www.w3.org/2000/svg">
<g clip-path="url(#clip0)">
<path d="M62.1387 46.6378H57.1553V16.9854C57.1553 16.8236 57.1097 16.665 57.0237 16.5279C56.9377 16.3908 56.8147 16.2807 56.669 16.2102L51.5783 13.7493C51.4614 13.6926 51.3332 13.6631 51.2032 13.6632H45.1582V7.10231C45.1582 6.87387 45.0675 6.65479 44.9059 6.49326C44.7444 6.33173 44.5253 6.24098 44.2969 6.24098H31.5984L29.3915 4.03106C29.23 3.8695 29.011 3.77868 28.7826 3.77856H18.7031C18.4747 3.77856 18.2556 3.86931 18.0941 4.03084C17.9325 4.19237 17.8418 4.41145 17.8418 4.63989V13.6612H11.7968C11.6668 13.6612 11.5386 13.6906 11.4217 13.7473L6.33101 16.2083C6.18527 16.2787 6.06234 16.3888 5.97633 16.5259C5.89032 16.663 5.8447 16.8216 5.84473 16.9835V46.6378H0.861328C0.63289 46.6378 0.413808 46.7285 0.252277 46.89C0.0907468 47.0516 1.08255e-08 47.2706 1.08255e-08 47.4991V51.6413C-2.10757e-05 51.7743 0.0307632 51.9056 0.0899401 52.0247C0.149117 52.1438 0.235078 52.2476 0.341086 52.3279L5.26641 56.0602C5.4161 56.1737 5.59881 56.235 5.78665 56.2349H57.2129C57.4007 56.235 57.5834 56.1737 57.7331 56.0602L62.6589 52.3274C62.7649 52.2471 62.8509 52.1433 62.9101 52.0242C62.9692 51.9051 63 51.7739 63 51.6408V47.4991C63 47.2706 62.9093 47.0516 62.7477 46.89C62.5862 46.7285 62.3671 46.6378 62.1387 46.6378ZM18.7031 24.9121H30.6387V32.6936L28.4578 31.5384C28.2558 31.4315 28.0197 31.4091 27.8013 31.4762C27.5828 31.5434 27.4 31.6946 27.293 31.8965C27.1861 32.0984 27.1637 32.3346 27.2308 32.553C27.298 32.7715 27.4492 32.9543 27.6511 33.0613L31.0964 34.8863C31.1053 34.8912 31.1151 34.8927 31.1245 34.8971C31.1625 34.9153 31.2018 34.9306 31.2421 34.9429C31.2559 34.9473 31.2687 34.9537 31.2829 34.9572L31.3085 34.9636C31.3694 34.9777 31.4316 34.9851 31.4941 34.9857H31.5059C31.5684 34.9851 31.6306 34.9777 31.6915 34.9636L31.7171 34.9572C31.7313 34.9537 31.7441 34.9473 31.7579 34.9429C31.7982 34.9306 31.8375 34.9153 31.8755 34.8971C31.8849 34.8927 31.8942 34.8912 31.9036 34.8868L35.3489 33.0617C35.5508 32.9548 35.702 32.772 35.7692 32.5535C35.8363 32.3351 35.8139 32.0989 35.707 31.897C35.6 31.6951 35.4172 31.5439 35.1987 31.4767C34.9803 31.4096 34.7442 31.4319 34.5422 31.5389L32.3613 32.6936V24.9121H44.2969C44.5253 24.9121 44.7444 24.8214 44.9059 24.6598C45.0675 24.4983 45.1582 24.2792 45.1582 24.0508V20.3052H50.5107V41.7154H12.4893V20.3052H17.8418V24.0508C17.8418 24.2792 17.9325 24.4983 18.0941 24.6598C18.2556 24.8214 18.4747 24.9121 18.7031 24.9121ZM33.3236 7.96363H43.4355V9.21478H34.5762L33.3236 7.96363ZM19.5645 5.5027H28.4238L33.6066 10.6859C33.768 10.8475 33.987 10.9383 34.2154 10.9384H43.4355V23.1895H19.5645V5.50171V5.5027ZM7.56738 17.5254L11.9941 15.3834H17.8418V18.5826H11.6279C11.3995 18.5826 11.1804 18.6733 11.0189 18.8349C10.8573 18.9964 10.7666 19.2155 10.7666 19.4439V42.5767C10.7666 42.8052 10.8573 43.0242 11.0189 43.1858C11.1804 43.3473 11.3995 43.438 11.6279 43.438H51.3721C51.6005 43.438 51.8196 43.3473 51.9811 43.1858C52.1427 43.0242 52.2334 42.8052 52.2334 42.5767V19.4439C52.2334 19.2155 52.1427 18.9964 51.9811 18.8349C51.8196 18.6733 51.6005 18.5826 51.3721 18.5826H45.1582V15.3834H51.0059L55.4326 17.5254V46.6378H7.56738V17.5254ZM41.3905 48.3599L40.0055 50.5748H22.995L21.61 48.3599H41.3905ZM61.2773 51.2146L56.9235 54.5123H6.07655L1.72266 51.2146V48.3599H19.5777L21.7877 51.8928C21.865 52.0167 21.9726 52.1188 22.1003 52.1896C22.228 52.2603 22.3716 52.2975 22.5176 52.2974H40.4824C40.6284 52.2975 40.772 52.2603 40.8997 52.1896C41.0274 52.1188 41.135 52.0167 41.2123 51.8928L43.4223 48.3599H61.2773V51.2146Z" fill="#49326C"/>
</g>
<defs>
<clipPath id="clip0">
<rect width="63" height="63" fill="white"/>
</clipPath>
</defs>
</svg>
