<svg width="60" height="60" viewBox="0 0 60 60" fill="none" xmlns="http://www.w3.org/2000/svg">
<g clip-path="url(#clip0)">
<path d="M23.3971 42.6593C23.4477 41.8208 23.8153 41.0193 24.4322 40.4025L28.8833 35.9505C28.1643 35.723 27.5154 35.3314 26.9869 34.8031L26.8737 34.6897C24.9121 32.7281 25.0695 29.3793 27.2244 27.2242C28.2498 26.1989 29.5761 25.5884 30.9592 25.5048C32.3964 25.418 33.7206 25.9042 34.6898 26.8736L34.803 26.9868C35.3318 27.5154 35.7234 28.1645 35.9509 28.8838L40.4026 24.432C41.7144 23.1202 43.7696 23.041 44.9844 24.2554L49.019 28.2901C49.5127 28.7838 49.7181 29.5015 49.5683 30.2097C49.4054 30.9797 48.8683 31.6093 48.1316 31.894C47.6665 32.0738 47.2447 32.3507 46.8783 32.7171L46.7504 32.845C46.1305 33.4649 45.7621 34.2529 45.7132 35.0638C45.6674 35.8213 45.9112 36.5075 46.3997 36.996C46.8881 37.4844 47.5746 37.7289 48.3319 37.6823C49.1428 37.6335 49.9309 37.265 50.5507 36.6451L50.6785 36.5173C51.045 36.1508 51.3219 35.7291 51.5017 35.2641C51.7863 34.5272 52.4159 33.9901 53.1861 33.8272C53.8943 33.6775 54.6119 33.8828 55.1057 34.3765L59.1358 38.4068C60.3502 39.6213 60.2711 41.6766 58.9592 42.9885L54.5075 47.4403C55.2268 47.6679 55.8759 48.0595 56.4045 48.588L56.5179 48.7013C58.4793 50.6629 58.322 54.0118 56.167 56.1669C55.0229 57.3109 53.5428 57.892 52.1121 57.8918C50.8476 57.8918 49.6217 57.4378 48.7016 56.5175L48.5883 56.4043C48.0596 55.8757 47.6681 55.2267 47.4405 54.5072L42.9888 58.959C42.3719 59.5759 41.5704 59.9434 40.7319 59.9941C40.6677 59.998 40.6036 60 40.5397 60C39.7304 60 38.9618 59.6905 38.4069 59.1356L34.5694 55.298C34.2713 56.023 33.8325 56.6778 33.2643 57.2463L33.1364 57.3741C30.9815 59.529 27.6325 59.6864 25.6709 57.7249C23.7093 55.7633 23.8667 52.4143 26.0216 50.2594L26.1495 50.1315C26.7178 49.5631 27.3727 49.1245 28.0977 48.8264L24.2556 44.9843C23.6569 44.3855 23.344 43.5382 23.3971 42.6593ZM25.9128 43.327L29.9474 47.3617C30.441 47.8554 30.6464 48.5729 30.4967 49.2811C30.3339 50.0512 29.7968 50.6809 29.0599 50.9656C28.5948 51.1454 28.1731 51.4223 27.8066 51.7889L27.6788 51.9167C26.4376 53.1579 26.2803 55.0198 27.328 56.0676C28.3757 57.1154 30.238 56.958 31.4789 55.7169L31.6068 55.589C31.9732 55.2226 32.2502 54.8008 32.43 54.3358C32.7147 53.599 33.3444 53.0619 34.1146 52.8991C34.8229 52.7493 35.5404 52.9548 36.034 53.4484L40.0641 57.4786C40.2262 57.6407 40.4398 57.6644 40.5905 57.6548C40.8528 57.639 41.1228 57.5103 41.3313 57.302L43.1171 55.5161L39.2282 51.6272C38.7705 51.1695 38.7705 50.4275 39.2282 49.9698C39.6858 49.512 40.4278 49.5122 40.8855 49.9698L44.7745 53.8588L45.988 52.6453C46.4318 52.2015 47.0163 51.9614 47.6054 51.9614C47.8091 51.9614 48.0135 51.9902 48.2127 52.0492C48.9331 52.2625 49.4569 52.8296 49.6135 53.5661C49.712 54.0287 49.9247 54.4259 50.2458 54.747L50.3591 54.8602C51.4067 55.908 53.2691 55.7506 54.51 54.5095C55.7511 53.2684 55.9085 51.4064 54.8608 50.3586L54.7475 50.2453C54.4264 49.9242 54.0291 49.7115 53.5666 49.6131C52.83 49.4564 52.2629 48.9326 52.0495 48.212C51.8201 47.437 52.0486 46.5847 52.6456 45.9876L57.302 41.331C57.5104 41.1226 57.639 40.8525 57.6549 40.5901C57.6641 40.4395 57.6407 40.226 57.4787 40.0637L53.6411 36.2262C53.343 36.9511 52.9043 37.6059 52.336 38.1744L52.2082 38.3023C50.0531 40.4572 46.7042 40.6145 44.7425 38.653C42.781 36.6914 42.9383 33.3425 45.0934 31.1875L45.2212 31.0596C45.7896 30.4913 46.4444 30.0526 47.1695 29.7545L43.3274 25.9124C43.0316 25.6169 42.4513 25.6977 42.0601 26.089L37.4036 30.7454C36.8065 31.3426 35.9542 31.571 35.1791 31.3416C34.4586 31.1283 33.9349 30.5611 33.7781 29.8245C33.6798 29.362 33.4671 28.9648 33.1459 28.6437L33.0326 28.5304C32.5441 28.042 31.8581 27.7983 31.1004 27.844C30.2895 27.8929 29.5014 28.2613 28.8816 28.8812C27.6404 30.1225 27.4831 31.9846 28.5308 33.0321L28.644 33.1454C28.9651 33.4665 29.3624 33.6792 29.8248 33.7777C30.5615 33.9343 31.1286 34.458 31.342 35.1786C31.5715 35.9536 31.3431 36.806 30.7459 37.4032L26.0894 42.0598C25.881 42.2681 25.7523 42.5381 25.7365 42.8005C25.7274 42.9512 25.7506 43.1647 25.9128 43.327Z" fill="#49326C"/>
<path d="M36.2218 46.9641C36.4398 46.7461 36.7421 46.6207 37.0503 46.6207C37.3585 46.6207 37.6608 46.7461 37.8788 46.9641C38.0968 47.1821 38.2222 47.4844 38.2222 47.7926C38.2222 48.1008 38.0968 48.4032 37.8788 48.6211C37.6608 48.8391 37.3597 48.9645 37.0503 48.9645C36.7421 48.9645 36.4398 48.8391 36.2218 48.6211C36.0038 48.4032 35.8784 48.1008 35.8784 47.7926C35.8784 47.4844 36.0038 47.1821 36.2218 46.9641Z" fill="#49326C"/>
<path d="M11.3365 14.8822C11.5545 14.6642 11.8568 14.5388 12.165 14.5388C12.4732 14.5388 12.7756 14.6642 12.9936 14.8822C13.2115 15.1001 13.3369 15.4025 13.3369 15.7107C13.3369 16.0189 13.2115 16.3212 12.9936 16.5392C12.7756 16.7572 12.4732 16.8826 12.165 16.8826C11.8568 16.8826 11.5545 16.7572 11.3365 16.5392C11.1186 16.3212 10.9932 16.0189 10.9932 15.7107C10.9932 15.4025 11.1186 15.1001 11.3365 14.8822Z" fill="#49326C"/>
<path d="M2.56052 26.9332C3.1972 26.2966 3.96746 25.8095 4.79551 25.5189L0.866928 21.5903C0.268215 20.9917 -0.0446739 20.1442 0.00841141 19.2653C0.0590363 18.4269 0.426651 17.6253 1.04353 17.0084L5.40735 12.6439C4.79211 12.4089 4.23266 12.0485 3.77118 11.5869L3.65786 11.4736C1.69638 9.51196 1.85364 6.16309 4.00872 4.00802C6.16356 1.85318 9.51254 1.6958 11.4743 3.65728L11.5876 3.7706C12.0492 4.23232 12.4098 4.79189 12.6447 5.40735L17.014 1.03814C18.326 -0.273768 20.3812 -0.352987 21.5958 0.861542L25.5244 4.79013C25.815 3.96208 26.3021 3.19181 26.9388 2.55513L27.0666 2.42728C29.2216 0.272324 32.5705 0.115059 34.5321 2.07654C36.4936 4.03814 36.3364 7.38712 34.1815 9.54184L34.0534 9.66992C33.4169 10.3065 32.6466 10.7935 31.8184 11.0843L35.7471 15.0128C36.9617 16.2274 36.8824 18.2826 35.5702 19.5949L30.9095 24.252C30.3122 24.8492 29.4596 25.0775 28.685 24.8481C27.9645 24.6347 27.4408 24.0676 27.284 23.331C27.1857 22.8686 26.973 22.4713 26.6518 22.1503L26.5384 22.0369C26.05 21.5485 25.3626 21.3044 24.6063 21.3504C23.7953 21.3994 23.0074 21.7679 22.3874 22.3878C21.7675 23.0077 21.3992 23.7957 21.3502 24.6066C21.3044 25.3642 21.5483 26.0505 22.0367 26.5389L22.1499 26.6521C22.471 26.9732 22.8683 27.1859 23.3307 27.2843C24.0673 27.441 24.6344 27.9647 24.8478 28.6852C25.0772 29.46 24.849 30.3122 24.252 30.9094L19.5998 35.5653C18.9106 36.2544 18.0163 36.6034 17.1465 36.6034C16.3605 36.6034 15.5944 36.3184 15.0179 35.7419L11.0893 31.8133C10.7987 32.6412 10.3116 33.4116 9.67508 34.0482L9.54711 34.1761C7.39203 36.3311 4.04317 36.4883 2.08157 34.5269C0.12009 32.5653 0.277359 29.2163 2.43232 27.0613L2.56052 26.9332ZM3.7393 32.8693C4.78696 33.917 6.64918 33.7596 7.89019 32.5185L8.01805 32.3907C8.42633 31.9825 8.73231 31.489 8.90281 30.9637C9.15066 30.2006 9.78957 29.61 10.5703 29.4225C11.2991 29.2476 12.039 29.4477 12.5494 29.9582L16.6755 34.0843C16.8378 34.2464 17.0515 34.2699 17.2019 34.2605C17.4643 34.2447 17.7343 34.116 17.9424 33.9079L22.3901 29.4568C21.6707 29.2292 21.0216 28.8375 20.493 28.309L20.3798 28.1957C19.4104 27.2263 18.9243 25.9013 19.011 24.465C19.0946 23.0819 19.7051 21.7554 20.7304 20.7303C21.7557 19.7051 23.082 19.0944 24.4652 19.0108C25.9021 18.9246 27.2266 19.4102 28.1958 20.3794L28.3091 20.4928C28.8378 21.0215 29.2294 21.6706 29.4569 22.3899L33.913 17.9371C34.1215 17.7288 34.2501 17.4587 34.266 17.1963C34.2751 17.0457 34.2518 16.8321 34.0898 16.6699L29.9636 12.5438C29.4531 12.0334 29.253 11.2934 29.4279 10.5645C29.6155 9.78383 30.2061 9.14492 30.9691 8.89719C31.4943 8.72657 31.9878 8.42059 32.3958 8.01254L32.5239 7.88446C33.765 6.64333 33.9224 4.78134 32.8746 3.73357C31.8271 2.6858 29.9648 2.84306 28.7237 4.08431L28.5959 4.21216C28.1876 4.62032 27.8816 5.1138 27.711 5.63915C27.4632 6.40227 26.8243 6.99278 26.0436 7.18016C25.3148 7.35512 24.5749 7.15485 24.0644 6.6445L19.9385 2.51845C19.6427 2.22302 19.0625 2.30377 18.6712 2.69505L14.118 7.24837C13.5408 7.82551 12.7123 8.06094 11.9561 7.86219C11.2543 7.67797 10.719 7.15145 10.5244 6.45384C10.4135 6.05634 10.2136 5.7111 9.93019 5.42774L9.81687 5.31442C8.76933 4.26665 6.90699 4.42392 5.66598 5.66517C4.42485 6.9063 4.26746 8.76828 5.31524 9.81606L5.42856 9.92938C5.71192 10.2129 6.05715 10.4128 6.45453 10.5236C7.15215 10.7183 7.67867 11.2535 7.86289 11.9553C8.06141 12.7116 7.82621 13.54 7.24907 14.1173L2.70091 18.6655C2.49243 18.8738 2.36388 19.1439 2.34794 19.4063C2.3388 19.5569 2.36212 19.7705 2.5243 19.9327L4.40493 21.8133L8.28852 17.9296C8.74625 17.472 9.48816 17.472 9.94578 17.9296C10.4034 18.3872 10.4035 19.1293 9.94578 19.5869L6.06219 23.4706L6.65047 24.0589C7.16082 24.5693 7.36109 25.3093 7.18613 26.0381C6.99863 26.8188 6.40813 27.4577 5.64512 27.7055C5.11977 27.8761 4.62641 28.1821 4.21813 28.5904L4.09028 28.7182C2.8488 29.9595 2.69153 31.8217 3.7393 32.8693Z" fill="#49326C"/>
</g>
<defs>
<clipPath id="clip0">
<rect width="60" height="60" fill="white" transform="matrix(-1 0 0 1 60 0)"/>
</clipPath>
</defs>
</svg>
