<svg width="60" height="60" viewBox="0 0 60 60" fill="none" xmlns="http://www.w3.org/2000/svg">
<path d="M59.0625 14.7787V9.59719L56.6016 8.92406C56.5209 8.70937 56.4309 8.49469 56.3334 8.28187L57.6 6.06469L53.9363 2.40094L51.7191 3.6675C51.5062 3.57 51.2925 3.48 51.0769 3.39937L50.4038 0.9375H45.2222L44.5491 3.39844C44.3344 3.47906 44.1197 3.56906 43.9069 3.66656L41.6897 2.4L38.0259 6.06375L39.2925 8.28094C39.2391 8.39625 39.1997 8.51437 39.1519 8.63156C38.2003 8.7975 37.2694 9.06469 36.3741 9.45844C33.3759 5.28187 28.6003 2.8125 23.4375 2.8125C14.6494 2.8125 7.5 9.96187 7.5 18.75C7.5 18.7716 7.50187 18.7931 7.50187 18.8147C3.80719 19.2778 0.9375 22.4316 0.9375 26.25C0.9375 30.3853 4.30219 33.75 8.4375 33.75H8.98688L21.5625 46.3256V59.0625H38.4375V46.3256L51.0131 33.75H51.5625C55.6978 33.75 59.0625 30.3853 59.0625 26.25C59.0625 23.6972 57.7781 21.4416 55.8244 20.0859L57.6 18.3103L56.3334 16.0931C56.4309 15.8803 56.5209 15.6666 56.6016 15.4509L59.0625 14.7787ZM36.5625 45.5494V57.1875H23.4375V45.5494L9.87656 31.9884C9.55781 31.6697 9.375 31.2281 9.375 30.7762C9.375 29.8312 10.1438 29.0625 11.0887 29.0625C11.5397 29.0625 11.9822 29.2453 12.3009 29.5641L19.6266 36.8897C21.1941 38.4572 23.265 39.4922 25.4606 39.8072L27.9 40.1559L27.1538 49.1044L30 51.9506L32.8453 49.1053L32.0991 40.1503L34.5394 39.8081C36.735 39.4931 38.8059 38.4581 40.3734 36.8906L47.6991 29.565C48.0178 29.2453 48.4594 29.0625 48.9113 29.0625C49.8563 29.0625 50.625 29.8312 50.625 30.7762C50.625 31.2272 50.4422 31.6697 50.1234 31.9884L36.5625 45.5494ZM22.5647 33.75C22.7456 35.1947 23.3334 36.5138 24.2175 37.5834C22.995 37.1681 21.8681 36.4791 20.9522 35.5641L19.1381 33.75H22.5647ZM37.4353 33.75H40.8619L39.0469 35.565C38.1309 36.48 37.0041 37.1681 35.7816 37.5844C36.6666 36.5138 37.2534 35.1947 37.4353 33.75ZM30.9047 48.3947L30 49.2994L29.0953 48.3947L29.7684 40.3069L29.9072 40.3078C29.9381 40.3078 29.9691 40.3125 30 40.3125H30.2316L30.9047 48.3947ZM30 38.4375C26.8978 38.4375 24.375 35.9147 24.375 32.8125C24.375 29.7103 26.8978 27.1875 30 27.1875C33.1022 27.1875 35.625 29.7103 35.625 32.8125C35.625 35.9147 33.1022 38.4375 30 38.4375ZM57.1875 26.25C57.1875 29.0906 55.0688 31.44 52.3294 31.8169C52.4316 31.4822 52.5 31.1362 52.5 30.7762C52.5 28.7981 50.8894 27.1875 48.9113 27.1875C47.9531 27.1875 47.0513 27.5606 46.3734 28.2384L42.7369 31.875H37.4353C36.9712 28.1812 33.8175 25.3125 30 25.3125C26.1825 25.3125 23.0287 28.1812 22.5647 31.875H17.2631L13.6266 28.2384C12.9487 27.5606 12.0478 27.1875 11.0887 27.1875C9.11063 27.1875 7.5 28.7981 7.5 30.7762C7.5 31.1353 7.56844 31.4813 7.67063 31.8159C4.93125 31.44 2.8125 29.0906 2.8125 26.25C2.8125 23.1478 5.33531 20.625 8.4375 20.625C10.2741 20.625 12.0009 21.5259 13.0538 23.0344L14.5922 21.9609C13.3687 20.2097 11.4656 19.0744 9.37781 18.81C9.37687 18.7903 9.375 18.7706 9.375 18.75C9.375 10.9959 15.6834 4.6875 23.4375 4.6875C28.2356 4.6875 32.6569 7.10719 35.2631 11.16L35.7262 11.88L36.4856 11.4844C37.9753 10.7072 39.5784 10.3125 41.25 10.3125C46.2431 10.3125 50.5031 13.9453 51.39 18.7584C47.3344 18.8522 44.0625 22.1728 44.0625 26.25H45.9375C45.9375 23.1478 48.4603 20.625 51.5625 20.625C54.6647 20.625 57.1875 23.1478 57.1875 26.25ZM51.24 13.6866C49.8319 11.6728 47.8387 10.1044 45.5175 9.22594C46.1653 8.72344 46.9641 8.4375 47.8125 8.4375C49.8806 8.4375 51.5625 10.1194 51.5625 12.1875C51.5625 12.7116 51.4453 13.2178 51.24 13.6866ZM55.2609 17.9972L54.0684 19.1897C53.8209 19.1016 53.5688 19.0256 53.3109 18.9638C53.145 17.7534 52.8028 16.6003 52.3059 15.5316C53.0269 14.565 53.4375 13.4072 53.4375 12.1875C53.4375 9.08531 50.9147 6.5625 47.8125 6.5625C46.0969 6.5625 44.5097 7.33219 43.4475 8.64469C42.7528 8.51625 42.0403 8.445 41.3138 8.44125L41.4234 8.235L40.3641 6.37875L42.0028 4.74L43.8591 5.79938L44.3138 5.5575C44.7328 5.33531 45.165 5.15438 45.5981 5.02125L46.0894 4.87031L46.6538 2.8125H48.9722L49.5356 4.86844L50.0269 5.01937C50.46 5.15344 50.8922 5.33344 51.3112 5.55562L51.7659 5.7975L53.6222 4.73812L55.2609 6.37687L54.2016 8.23312L54.4434 8.68781C54.6656 9.10688 54.8466 9.53906 54.9797 9.97219L55.1306 10.4634L57.1875 11.0287V13.3472L55.1316 13.9106L54.9806 14.4019C54.8466 14.835 54.6666 15.2672 54.4444 15.6863L54.2025 16.1409L55.2609 17.9972Z" fill="#49326C"/>
<path d="M38.7121 20.3503L39.9243 21.5625H20.0756L21.2878 20.3503L19.9621 19.0247L16.4868 22.5L19.9621 25.9753L21.2878 24.6497L20.0756 23.4375H39.9243L38.7121 24.6497L40.0378 25.9753L43.5131 22.5L40.0378 19.0247L38.7121 20.3503Z" fill="#49326C"/>
<path d="M27.4996 7.25641C26.8415 7.02297 26.1571 6.84578 25.4671 6.73047L25.1577 8.58016C25.7408 8.67766 26.3183 8.82766 26.8752 9.02359L27.4996 7.25641Z" fill="#49326C"/>
<path d="M23.4374 6.5625C17.4609 6.5625 12.4059 10.8347 11.4187 16.7203L13.2684 17.0297C14.1028 12.0506 18.3796 8.4375 23.4374 8.4375V6.5625Z" fill="#49326C"/>
</svg>
