<svg width="57" height="57" viewBox="0 0 57 57" fill="none" xmlns="http://www.w3.org/2000/svg">
<g clip-path="url(#clip0)">
<path d="M17.1259 57.0001C21.3357 56.9982 25.3952 55.4346 28.5189 52.6118C33.7703 57.332 41.386 58.3315 47.6782 55.1268C53.9704 51.922 57.6401 45.1746 56.9104 38.1513C56.1808 31.1276 51.2028 25.2786 44.3863 23.4354C47.2392 16.3018 44.9811 8.14141 38.8665 3.48891C32.7523 -1.16313 24.285 -1.16313 18.1708 3.48891C12.0566 8.14141 9.79805 16.3018 12.6514 23.4354C4.38388 25.6731 -0.946841 33.6884 0.184761 42.178C1.31636 50.6676 8.56121 57.0057 17.1259 57.0001ZM25.9209 33.9949C27.6404 34.2869 29.3969 34.2869 31.1163 33.9949C33.3916 39.3613 32.381 45.558 28.5189 49.924C24.6563 45.558 23.6462 39.3613 25.9209 33.9949ZM28.5189 29.8968C29.1512 30.6168 29.7144 31.3946 30.2012 32.2203C29.0835 32.3519 27.9542 32.3519 26.8365 32.2203C27.3228 31.3946 27.8861 30.6168 28.5189 29.8968ZM24.8501 31.849C20.8999 30.8569 17.512 28.3234 15.4435 24.815C19.709 24.3227 23.9813 25.6819 27.1782 28.5487C26.2747 29.5533 25.4935 30.6613 24.8501 31.849ZM29.8595 28.5529C33.0555 25.6842 37.3278 24.3236 41.5942 24.815C39.5247 28.322 36.1369 30.8536 32.1872 31.8452C31.5437 30.6599 30.7621 29.5547 29.8595 28.5529ZM55.1025 39.9106C55.1127 45.8876 51.6108 51.3133 46.16 53.7661C40.7087 56.219 34.3257 55.2408 29.8595 51.2684C34.1889 46.4587 35.4044 39.6047 32.9924 33.5999C37.5248 32.3635 41.3517 29.322 43.5792 25.1859C50.3406 26.8738 55.089 32.9416 55.1025 39.9106ZM13.3282 17.1247C13.3273 10.9665 17.0443 5.4174 22.7394 3.07446C28.434 0.731525 34.9803 2.05876 39.3129 6.4345C43.646 10.8102 44.9083 17.369 42.5093 23.0404C37.4535 22.2125 32.297 23.7493 28.5189 27.2094C24.7407 23.7493 19.5843 22.2125 14.528 23.0404C13.7339 21.1694 13.3259 19.157 13.3282 17.1247ZM13.4571 25.1859C15.6851 29.322 19.5119 32.3635 24.0444 33.5999C21.6319 39.6047 22.8474 46.4587 27.1772 51.2684C22.4612 55.4499 15.6512 56.2811 10.0683 53.3559C4.48494 50.4311 1.29133 44.3596 2.04419 38.1017C2.79704 31.8439 7.33968 26.7032 13.4571 25.1859Z" fill="#49326C"/>
</g>
<defs>
<clipPath id="clip0">
<rect width="57" height="57" fill="white"/>
</clipPath>
</defs>
</svg>
