<svg width="68" height="64" viewBox="0 0 68 64" fill="none" xmlns="http://www.w3.org/2000/svg">
<g clip-path="url(#clip0)">
<g clip-path="url(#clip1)">
<path d="M7.25344 31.4552C7.49625 31.4568 7.69199 31.6546 7.69108 31.8974C7.68944 32.1402 7.49163 32.336 7.24882 32.3351C7.00601 32.3334 6.81027 32.1356 6.81118 31.8928C6.81282 31.65 7.01063 31.4542 7.25344 31.4552Z" fill="#49326C"/>
<path d="M4.92824 29.1038C6.83939 27.3532 9.93492 26.0107 13.253 25.8057C14.146 24.4274 15.6905 23.5853 17.3407 23.594C18.0679 23.5977 18.6565 24.1924 18.6527 24.9198L18.6421 26.9405C21.12 28.1585 23.2015 30.0164 24.2172 31.0104C24.4092 30.0908 24.8659 29.2469 25.5489 28.571C26.4673 27.6623 27.6842 27.1656 28.9761 27.1724C29.2188 27.1737 29.4147 27.3716 29.4134 27.6143C29.4065 28.9061 28.8972 30.1179 27.9789 31.0266C27.5646 31.4366 27.0894 31.7623 26.5741 31.996C27.0869 32.2353 27.5587 32.566 27.9687 32.9803C28.8773 33.8985 29.374 35.1156 29.3673 36.4072C29.3666 36.5287 29.3168 36.6384 29.2369 36.7175C29.1569 36.7967 29.0467 36.8453 28.9252 36.8447C27.6336 36.8379 26.4217 36.3285 25.513 35.4103C24.837 34.7271 24.3892 33.8785 24.207 32.9568C23.1808 33.9404 21.08 35.7766 18.5895 36.9685L18.5789 38.989C18.5751 39.7161 17.9803 40.3046 17.2532 40.3008C15.603 40.2921 14.0675 39.434 13.189 38.0466C10.2688 37.834 7.02025 36.6628 4.86658 34.6283C3.90143 33.7164 3.32766 32.6868 3.33205 31.874C3.33637 31.0512 3.93299 30.0157 4.92824 29.1038ZM17.3362 24.4733C16.2008 24.4673 15.1265 24.9537 14.3788 25.7792C15.442 25.8032 16.5778 26.0604 17.7647 26.5455L17.7734 24.915C17.7747 24.6728 17.5784 24.4745 17.3362 24.4733ZM28.5046 28.0765C27.6239 28.1746 26.807 28.5632 26.1674 29.1961C25.5279 29.829 25.1308 30.6417 25.0234 31.5213C25.9041 31.4232 26.7208 31.0345 27.3604 30.4016C28 29.7687 28.3971 28.956 28.5046 28.0765ZM28.4633 35.9358C28.3652 35.0551 27.9765 34.2384 27.3436 33.5988C26.7107 32.9592 25.8981 32.562 25.0185 32.4546C25.1167 33.3355 25.5052 34.1522 26.1381 34.7918C26.771 35.4313 27.5837 35.8284 28.4633 35.9358ZM17.2577 39.4215C17.5 39.4229 17.6983 39.2267 17.6995 38.9843L17.7081 37.3539C16.516 37.8265 15.3776 38.0718 14.3142 38.0847C15.0532 38.918 16.1223 39.4157 17.2577 39.4215ZM5.47048 33.9891C6.35489 34.8247 7.5707 35.5835 8.91087 36.1399C9.99573 35.4898 10.7813 34.3775 11.0792 33.0563C11.1326 32.8196 11.3679 32.6708 11.605 32.7242C11.8417 32.7776 11.9905 33.0129 11.9371 33.2499C11.6433 34.5521 10.9375 35.7082 9.91578 36.5126C11.0663 36.8897 12.2593 37.1152 13.4733 37.1843L13.4734 37.1845C13.7111 37.1981 13.9528 37.2057 14.1915 37.2068C17.6297 37.2249 21.5022 34.4172 23.9432 31.9822C21.5307 29.5233 17.6923 26.6737 14.2469 26.6558C14.0062 26.6544 13.7649 26.6596 13.5284 26.6709C12.3127 26.727 11.1168 26.9399 9.96215 27.3045C10.6722 27.8779 11.2451 28.6411 11.6148 29.5192C11.7092 29.7433 11.6035 30.0009 11.3802 30.095C11.1564 30.1891 10.8985 30.0842 10.8044 29.8603C10.4148 28.935 9.76207 28.1632 8.95399 27.6666C7.6234 28.2027 6.41079 28.9384 5.52222 29.7522C4.61986 30.5786 4.21389 31.4159 4.21134 31.8788C4.20895 32.3348 4.59743 33.1642 5.47048 33.9891Z" fill="#49326C"/>
<path d="M11.6304 30.9587C11.8732 30.9603 12.0689 31.1581 12.068 31.4009C12.0664 31.6438 11.8686 31.8395 11.6258 31.8386C11.383 31.837 11.1872 31.6391 11.1881 31.3963C11.1898 31.1535 11.3876 30.9578 11.6304 30.9587Z" fill="#49326C"/>
</g>
<path d="M62.9492 34.0105C62.7099 34.0088 62.517 33.8013 62.5179 33.5465C62.5195 33.2918 62.7144 33.0864 62.9537 33.0873C63.193 33.0891 63.3859 33.2966 63.385 33.5513C63.3834 33.8061 63.1885 34.0115 62.9492 34.0105Z" fill="#49326C"/>
<path d="M65.2405 36.4774C63.3571 38.314 60.3064 39.7226 57.0364 39.9376C56.1564 41.3838 54.6342 42.2673 53.0079 42.2582C52.2912 42.2543 51.7112 41.6303 51.715 40.8672L51.7254 38.7471C49.2834 37.4692 47.2321 35.5198 46.2311 34.477C46.0419 35.4418 45.5918 36.3272 44.9187 37.0364C44.0137 37.9898 42.8144 38.5109 41.5412 38.5037C41.302 38.5024 41.109 38.2947 41.1102 38.0401C41.117 36.6848 41.6189 35.4134 42.5239 34.46C42.9322 34.0298 43.4005 33.6881 43.9083 33.4429C43.403 33.1918 42.9381 32.8449 42.534 32.4102C41.6386 31.4468 41.149 30.1699 41.1557 28.8147C41.1563 28.6873 41.2054 28.5722 41.2842 28.4892C41.363 28.4062 41.4716 28.3552 41.5913 28.3558C42.8643 28.3629 44.0586 28.8974 44.9541 29.8607C45.6203 30.5775 46.0616 31.4679 46.2412 32.4349C47.2525 31.4029 49.3228 29.4764 51.7773 28.2259L51.7877 26.1061C51.7915 25.3432 52.3776 24.7257 53.0942 24.7297C54.7205 24.7388 56.2337 25.6391 57.0995 27.0947C59.9774 27.3178 63.1788 28.5466 65.3013 30.6812C66.2524 31.6379 66.8179 32.7182 66.8136 33.5709C66.8093 34.4342 66.2213 35.5207 65.2405 36.4774ZM53.0123 41.3356C54.1314 41.3419 55.1901 40.8315 55.927 39.9655C54.8791 39.9402 53.7598 39.6704 52.5901 39.1615L52.5815 40.8721C52.5803 41.1263 52.7737 41.3343 53.0123 41.3356ZM42.0059 37.5552C42.8738 37.4523 43.6788 37.0446 44.3091 36.3806C44.9394 35.7165 45.3308 34.8638 45.4366 33.941C44.5687 34.0439 43.7638 34.4517 43.1335 35.1158C42.5032 35.7798 42.1118 36.6325 42.0059 37.5552ZM42.0465 29.3093C42.1432 30.2333 42.5263 31.0902 43.15 31.7613C43.7737 32.4323 44.5746 32.8491 45.4414 32.9617C45.3446 32.0376 44.9618 31.1807 44.3381 30.5097C43.7143 29.8386 42.9134 29.422 42.0465 29.3093ZM53.0898 25.6522C52.8509 25.6508 52.6555 25.8567 52.6544 26.1109L52.6458 27.8215C53.8207 27.3257 54.9426 27.0683 55.9906 27.0548C55.2623 26.1805 54.2086 25.6584 53.0898 25.6522ZM64.7061 31.3518C63.8345 30.4751 62.6363 29.679 61.3156 29.0952C60.2465 29.7773 59.4723 30.9443 59.1786 32.3305C59.1261 32.5789 58.8941 32.735 58.6605 32.6789C58.4272 32.6229 58.2806 32.376 58.3332 32.1274C58.6228 30.7611 59.3183 29.5482 60.3253 28.7042C59.1914 28.3086 58.0157 28.072 56.8193 27.9994C56.585 27.9851 56.3467 27.977 56.1115 27.9759C64.7061 27.9759 61.3156 29.0952 60.3253 33.2786C61.3156 37.7704 63.5652 39.3442 56.0569 39.0458C56.2941 39.0473 56.532 39.0418 56.765 39.0299C57.9631 38.9711 59.1416 38.7477 60.2796 38.3651C59.5798 37.7635 59.0152 36.9628 58.6509 36.0415C58.5578 35.8064 58.662 35.5362 58.882 35.4375C59.1027 35.3387 59.3567 35.4488 59.4495 35.6837C59.8335 36.6545 60.4767 37.4642 61.2731 37.9853C62.5844 37.4228 63.7794 36.651 64.6551 35.7971C65.5444 34.93 65.9445 34.0516 65.947 33.5659C65.9494 33.0875 65.5665 32.2172 64.7061 31.3518Z" fill="#49326C"/>
<path d="M25.9034 14.0847C26.1426 14.0864 26.3356 14.294 26.3347 14.5487C26.333 14.8035 26.1381 15.0088 25.8988 15.0079C25.6595 15.0062 25.4666 14.7986 25.4675 14.5439C25.4691 14.2891 25.6641 14.0837 25.9034 14.0847Z" fill="#49326C"/>
<path d="M23.612 11.6178C25.4955 9.7812 28.5461 8.37266 31.8161 8.15758C32.6961 6.71142 34.2183 5.82795 35.8446 5.83703C36.5613 5.84091 37.1413 6.46493 37.1376 7.22804L37.1271 9.34813C39.5691 10.626 41.6204 12.5754 42.6214 13.6182C42.8107 12.6534 43.2607 11.768 43.9338 11.0589C44.8389 10.1054 46.0382 9.58436 47.3114 9.59147C47.5505 9.59281 47.7436 9.80047 47.7423 10.0551C47.7355 11.4104 47.2337 12.6818 46.3286 13.6352C45.9203 14.0654 45.452 14.4071 44.9442 14.6523C45.4496 14.9034 45.9145 15.2503 46.3185 15.685C47.214 16.6484 47.7035 17.9253 47.6968 19.2805C47.6962 19.4079 47.6472 19.523 47.5683 19.606C47.4895 19.6891 47.3809 19.7401 47.2612 19.7394C45.9883 19.7323 44.7939 19.1979 43.8985 18.2345C43.2322 17.5177 42.791 16.6274 42.6114 15.6603C41.6 16.6923 39.5297 18.6188 37.0753 19.8693L37.0648 21.9892C37.0611 22.752 36.4749 23.3695 35.7584 23.3655C34.132 23.3564 32.6188 22.4561 31.753 21.0005C28.8751 20.7774 25.6737 19.5486 23.5513 17.414C22.6001 16.4573 22.0346 15.377 22.039 14.5243C22.0432 13.661 22.6312 12.5746 23.612 11.6178ZM35.8402 6.75957C34.7212 6.75332 33.6625 7.26368 32.9256 8.12975C33.9734 8.15497 35.0928 8.42478 36.2625 8.9337L36.271 7.22307C36.2723 6.96895 36.0789 6.76091 35.8402 6.75957ZM46.8467 10.54C45.9787 10.643 45.1737 11.0506 44.5434 11.7146C43.9131 12.3787 43.5218 13.2314 43.4159 14.1542C44.2839 14.0513 45.0888 13.6435 45.7191 12.9795C46.3494 12.3154 46.7407 11.4627 46.8467 10.54ZM46.806 18.7859C46.7093 17.8619 46.3263 17.005 45.7025 16.3339C45.0788 15.6629 44.278 15.2461 43.4111 15.1335C43.5079 16.0576 43.8907 16.9145 44.5145 17.5855C45.1382 18.2566 45.9392 18.6732 46.806 18.7859ZM35.7628 22.443C36.0016 22.4444 36.197 22.2386 36.1981 21.9843L36.2067 20.2737C35.0318 20.7695 33.91 21.0269 32.862 21.0404C33.5903 21.9147 34.6439 22.4368 35.7628 22.443ZM24.1464 16.7434C25.018 17.6201 26.2162 18.4162 27.5369 19C28.6061 18.3179 29.3802 17.1509 29.6739 15.7647C29.7265 15.5163 29.9584 15.3602 30.192 15.4163C30.4253 15.4723 30.5719 15.7192 30.5193 15.9678C30.2297 17.3341 29.5342 18.547 28.5273 19.3911C29.6611 19.7866 30.8368 20.0232 32.0332 20.0958L32.0333 20.0959C32.2676 20.1102 32.5058 20.1182 32.741 20.1194C36.1294 20.1383 39.9458 17.1926 42.3514 14.6378C39.9739 12.0579 36.1911 9.06826 32.7956 9.04942C32.5585 9.04796 32.3206 9.05339 32.0876 9.06534C30.8895 9.12416 29.7109 9.34748 28.573 9.73008C29.2727 10.3317 29.8374 11.1324 30.2017 12.0537C30.2947 12.2888 30.1905 12.5591 29.9705 12.6577C29.7499 12.7566 29.4958 12.6464 29.403 12.4115C29.0191 11.4407 28.3758 10.631 27.5794 10.1099C26.2681 10.6724 25.0731 11.4443 24.1974 12.2981C23.3081 13.1652 22.908 14.0436 22.9055 14.5293C22.9032 15.0077 23.286 15.878 24.1464 16.7434Z" fill="#49326C"/>
<path d="M30.2168 13.5639C30.4561 13.5657 30.649 13.7732 30.6481 14.028C30.6465 14.2827 30.4516 14.4881 30.2123 14.4871C29.973 14.4854 29.7801 14.2779 29.781 14.0231C29.7826 13.7684 29.9775 13.563 30.2168 13.5639Z" fill="#49326C"/>
<path d="M25.6233 51.1057C25.8626 51.1074 26.0555 51.315 26.0546 51.5697C26.053 51.8245 25.8581 52.0298 25.6188 52.0289C25.3795 52.0272 25.1866 51.8196 25.1875 51.5649C25.1891 51.3101 25.384 51.1047 25.6233 51.1057Z" fill="#49326C"/>
<path d="M23.332 48.6388C25.2155 46.8022 28.2661 45.3937 31.5361 45.1786C32.4161 43.7324 33.9383 42.8489 35.5646 42.858C36.2813 42.8619 36.8613 43.4859 36.8575 44.249L36.8471 46.3691C39.2891 47.647 41.3404 49.5964 42.3414 50.6392C42.5306 49.6744 42.9807 48.789 43.6538 48.0798C44.5588 47.1264 45.7581 46.6054 47.0313 46.6125C47.2705 46.6138 47.4635 46.8215 47.4623 47.0761C47.4555 48.4314 46.9536 49.7028 46.0486 50.6562C45.6403 51.0864 45.172 51.4281 44.6642 51.6733C45.1695 51.9244 45.6345 52.2713 46.0385 52.706C46.934 53.6694 47.4235 54.9463 47.4168 56.3015C47.4162 56.4289 47.3671 56.544 47.2883 56.627C47.2095 56.71 47.1009 56.7611 46.9812 56.7604C45.7083 56.7533 44.5139 56.2189 43.6185 55.2555C42.9522 54.5387 42.5109 53.6484 42.3313 52.6813C41.32 53.7133 39.2497 55.6398 36.7952 56.8903L36.7848 59.0101C36.781 59.773 36.1949 60.3905 35.4783 60.3865C33.852 60.3774 32.3388 59.4771 31.473 58.0215C28.5951 57.7984 25.3937 56.5696 23.2712 54.435C22.3201 53.4783 21.7546 52.398 21.7589 51.5453C21.7632 50.682 22.3512 49.5956 23.332 48.6388ZM35.5602 43.7806C34.4412 43.7743 33.3824 44.2847 32.6456 45.1507C33.6934 45.176 34.8128 45.4458 35.9824 45.9547L35.991 44.2441C35.9922 43.9899 35.7989 43.7819 35.5602 43.7806ZM46.5666 47.561C45.6987 47.664 44.8937 48.0716 44.2634 48.7356C43.6331 49.3997 43.2417 50.2524 43.1359 51.1752C44.0038 51.0723 44.8087 50.6645 45.439 50.0005C46.0693 49.3364 46.4607 48.4837 46.5666 47.561ZM46.526 55.8069C46.4293 54.8829 46.0462 54.026 45.4225 53.3549C44.7988 52.6839 43.9979 52.2671 43.1311 52.1545C43.2279 53.0786 43.6107 53.9355 44.2344 54.6065C44.8582 55.2776 45.6591 55.6942 46.526 55.8069ZM35.4828 59.464C35.7216 59.4654 35.917 59.2596 35.9181 59.0053L35.9267 57.2947C34.7518 57.7905 33.6299 58.0479 32.5819 58.0614C33.3102 58.9357 34.3639 59.4578 35.4828 59.464ZM23.8664 53.7644C24.738 54.6411 25.9362 55.4372 27.2569 56.021C28.326 55.3389 29.1002 54.1719 29.3939 52.7857C29.4464 52.5373 29.6784 52.3812 29.912 52.4373C30.1453 52.4933 30.2919 52.7402 30.2393 52.9888C29.9497 54.3551 29.2542 55.568 28.2473 56.4121C29.3811 56.8076 30.5568 57.0442 31.7532 57.1168L31.7533 57.1169C31.9876 57.1312 32.2258 57.1392 32.461 57.1404C35.8494 57.1593 39.6658 54.2136 42.0713 51.6588C39.6938 49.0789 35.911 46.0893 32.5156 46.0704C32.2784 46.069 32.0405 46.0744 31.8075 46.0863C30.6094 46.1452 29.4309 46.3685 28.2929 46.7511C28.9927 47.3527 29.5573 48.1534 29.9216 49.0747C30.0147 49.3098 29.9105 49.5801 29.6905 49.6787C29.4699 49.7775 29.2158 49.6674 29.123 49.4325C28.7391 48.4617 28.0958 47.652 27.2994 47.1309C25.9881 47.6934 24.7931 48.4653 23.9174 49.3191C23.0281 50.1862 22.628 51.0646 22.6255 51.5503C22.6231 52.0287 23.006 52.899 23.8664 53.7644Z" fill="#49326C"/>
<path d="M29.9368 50.5849C30.1761 50.5867 30.369 50.7942 30.3681 51.049C30.3665 51.3037 30.1715 51.5091 29.9322 51.5081C29.693 51.5064 29.5001 51.2989 29.501 51.0441C29.5026 50.7894 29.6975 50.584 29.9368 50.5849Z" fill="#49326C"/>
</g>
<defs>
<clipPath id="clip0">
<rect width="68" height="64" fill="white" transform="matrix(-1 0 0 1 68 0)"/>
</clipPath>
<clipPath id="clip1">
<rect width="22.5157" height="22.5157" fill="white" transform="matrix(-0.710807 0.703387 0.703387 0.710807 18.1626 16)"/>
</clipPath>
</defs>
</svg>
