<?xml version="1.0" encoding="utf-8"?>
<!-- Generator: Adobe Illustrator 23.0.1, SVG Export Plug-In . SVG Version: 6.00 Build 0)  -->
<svg version="1.1" id="element" xmlns="http://www.w3.org/2000/svg" xmlns:xlink="http://www.w3.org/1999/xlink" x="0px" y="0px"
	 viewBox="0 0 1922 540" style="enable-background:new 0 0 1922 540;" xml:space="preserve">
<style type="text/css">
	.st0{fill:#EFEFEF;stroke:#000000;}
	.st1{opacity:0.1;fill:#28296B;enable-background:new    ;}
	.st2{fill:#D8D8D8;}
	.st3{fill:#C97E79;}
	.st4{fill:#FFFFFF;}
	.st5{fill:#E2978D;}
	.st6{fill:#212356;}
	.st7{fill:#131535;}
	.st8{fill:#EE4574;}
	.st9{fill:#BABABA;}
	.st10{fill:#6F367B;}
	.st11{fill:#F5A99C;}
	.st12{fill:#402C61;}
	.st13{fill:#1C2044;}
	.st14{opacity:0.5;fill:#6F367B;enable-background:new    ;}
	.st15{fill:#28296B;}
	.st16{fill:#0E1026;}
	.st17{fill:#C4C4C4;}
	.st18{fill:#F3F3F3;}
	.st19{fill:#CE7E74;}
</style>
<path id="kontur" class="st0" d="M1921.5,539H1L1309,1l612,261L1921.5,539z"/>
<g id="group">
	<g id="groups">
		<path class="st1" d="M1257.5,359.4c44,0,79.6-11.9,79.6-26.6c0-14.7-35.6-26.6-79.6-26.6c-44,0-79.6,11.9-79.6,26.6
			C1177.9,347.5,1213.6,359.4,1257.5,359.4z"/>
		<path class="st2" d="M1204.1-167.4h-0.6v17.5h0.6V-167.4z"/>
		<path class="st3" d="M1181.7-169.2c0,1.8,0,3.6,0,5.4c0,3,0.4,5.6,1.6,8.3c2.6,6,7.9,8.5,13.7,10.9c3.6,1.4,9.9,1.8,13.1-0.6
			c2.4-2,2.2-4,1.8-6.8c-1,5-6.9,2-20.2-4.4c-4.6-2.2-2.8-10.1-3.4-14.5c-0.4-2.8-4.4-3.6-6.6-4.4
			C1181.1-173.2,1181.7-171.4,1181.7-169.2z"/>
		<path class="st4" d="M1178.9-177.1l-0.8,1.8l40.6,16.7l0.8-1.8L1178.9-177.1z"/>
		<path class="st5" d="M1235.1-154.1c2.8,1.2,10.5,5,13.1,6.8c6.2,4.6,5.6,35.4,5.6,35.4s-13.9-3.4-16.1-4.4
			c-2.6-1.2-3-9.5-4.8-13.3"/>
		<path class="st3" d="M1253.8-111.9c0.2-0.5-3.5-2.1-8.1-3.4c-4.6-1.4-8.5-2-8.7-1.5c-0.2,0.5,3.5,2.1,8.1,3.4
			C1249.7-112,1253.6-111.3,1253.8-111.9z"/>
		<path class="st5" d="M1211.9-163.7c-0.8,0-0.8,1-0.8,1.8v10.1c0,3.8-3,5.8-6.5,4.4l-13.5-5.6c-3.6-1.4-6.5-5.8-6.5-9.7v-10.1
			c0-0.4-0.2-1.6,0.8-1.8l-25-10.3V-57c0,21.1,74.6,50.5,74.6,27.8v-125L1211.9-163.7z"/>
		<path class="st5" d="M1161.5-184.5c-4.8-2.4-16.7-3.4-16.7,4.4c0,5.8-1.8,27.8-1.8,27.8l16.7,5c0.6-2.2,0.6-11.9,3.2-13.3"/>
		<path class="st2" d="M1202.4-132.7h-0.6v-33c0-1,0.2-1.8,0.4-2.2c0.4-0.6,0.8-0.8,1.2-0.8s1,0.4,1,1.4h-0.6c0-0.4-0.2-0.8-0.4-0.8
			c-0.2,0-0.4,0.2-0.6,0.6c-0.2,0.4-0.4,1-0.4,2V-132.7z"/>
		<path class="st4" d="M1207.3-102.7l-10.7-4v-28.8l10.7,4.2V-102.7z"/>
		<path class="st2" d="M1206.7-113.2l-9.5-3.4v-1.8l9.5,3.4V-113.2z"/>
		<path class="st2" d="M1204.9-110.4l-5.8-2.2v-1.8l5.8,2.2V-110.4z"/>
		<path class="st2" d="M1203.8-120.6c1.7-0.8,2.2-3.2,1.2-5.2c-1-2.1-3.2-3.1-4.9-2.3c-1.7,0.8-2.2,3.2-1.2,5.2
			C1199.9-120.7,1202.1-119.7,1203.8-120.6z"/>
		<path class="st3" d="M1159.7-147.4c0.2-0.5-3.5-2.1-8.1-3.4c-4.6-1.4-8.5-2-8.7-1.5c-0.2,0.5,3.5,2.1,8.1,3.4
			C1155.7-147.6,1159.6-146.9,1159.7-147.4z"/>
		<path class="st2" d="M1146.2-142.6h-0.6v17.5h0.6V-142.6z"/>
		<path class="st6" d="M1123.6-144.2c0,1.8,0,3.6,0,5.4c0,3,0.4,5.6,1.6,8.3c2.6,6,7.9,8.5,13.7,10.9c3.6,1.4,9.9,1.8,13.1-0.6
			c2.4-2,2.2-4,1.8-6.8c-1,5-6.9,2-20.2-4.4c-4.6-2.2-2.8-10.1-3.4-14.5c-0.4-2.8-4.4-3.6-6.6-4.4
			C1123-148.4,1123.6-146.4,1123.6-144.2z"/>
		<path class="st4" d="M1120.9-152.1l-0.8,1.8l40.6,16.7l0.8-1.8L1120.9-152.1z"/>
		<path class="st6" d="M1172.4-130.9c2.8,1.2,11.3,3.6,12.5,6.4c19.5,49.5,1.2,111.4,1.2,111.4s-10.9-2.6-12.7-4.2
			c-7.5-7.2-1.6-75.1-2.2-80.5"/>
		<path class="st6" d="M1186.1-13.1c0.2-0.5-3.5-2.1-8.1-3.4c-4.6-1.4-8.5-2-8.7-1.5c-0.2,0.5,3.5,2.1,8.1,3.4
			C1182.1-13.3,1186-12.6,1186.1-13.1z"/>
		<path class="st6" d="M1106.7-158.1c-4.8-2.4-10.5-5-12.9,2.4c-5.4,16.7,0,115.2,0,115.2l15.7,5.8c2.6-1.2-1.6-97.1,0.8-98.5"/>
		<path class="st7" d="M1153.9-138.6c-0.8,0-0.8,1-0.8,1.8v10.1c0,3.8-3,5.8-6.6,4.4l-13.5-5.6c-3.6-1.4-6.5-5.8-6.5-9.7v-10.1
			c0-0.4-0.2-1.6,0.8-1.8l-25-10.3c0.8,0.4,7.9,76.1,0,127.9c-3.2,20.7,77.8,50.3,74.6,27.8c-8.7-60.8,0.4-124.8,0-125
			C1177.1-129.1,1153.9-138.6,1153.9-138.6z"/>
		<path class="st6" d="M1148.2-46.3c12.6-4.4,17.4-23.6,10.8-42.9c-6.7-19.3-22.4-31.3-35-26.9c-12.6,4.4-17.4,23.6-10.8,42.9
			C1119.9-54,1135.6-41.9,1148.2-46.3z"/>
		<path class="st2" d="M1144.2-75.5h-0.6v-65.2c0-1,0.2-1.8,0.4-2.2c0.4-0.6,0.8-0.8,1.2-0.8c0.4,0,1,0.4,1,1.4h-0.6
			c0-0.4-0.2-0.8-0.4-0.8c-0.2,0-0.4,0.2-0.6,0.6c-0.2,0.4-0.4,1-0.4,2V-75.5z"/>
		<path class="st4" d="M1149.4-45.5l-10.9-4v-28.8l10.9,4.2V-45.5z"/>
		<path class="st2" d="M1148.8-56l-9.5-3.4v-1.8l9.5,3.4V-56z"/>
		<path class="st2" d="M1146.8-53.2l-5.8-2.2v-1.8l5.8,2.2V-53.2z"/>
		<path class="st2" d="M1145.8-63.4c1.7-0.8,2.2-3.2,1.2-5.2c-1-2.1-3.2-3.1-4.9-2.3c-1.7,0.8-2.2,3.2-1.2,5.2
			C1142-63.6,1144.2-62.6,1145.8-63.4z"/>
		<path class="st8" d="M1269.6,101.5c0,24.2,0,48.5,0,72.5c0,6.4,9.9,6.4,9.9,0c0-24.2,0-48.5,0-72.5
			C1279.6,95.2,1269.6,95.2,1269.6,101.5z"/>
		<path class="st9" d="M1012,290.9c0-33.2,0-66.2,0-99.3c0-3.2-4.8-3.2-4.8,0c0,33.2,0,66.2,0,99.3C1007.2,294,1012,294,1012,290.9z
			"/>
		<path class="st7" d="M1492.3-170.4L1357-229.8c-3.6-1.6-6.9-1.4-9.5-0.2l-11.7,5.2l14.5,47.7l1.6,0.2l8.1,296.4
			c0,8.7,6.5,18.9,14.7,22.2l98.4,50.3l16.1,22.4l11.1-5c4.2-1.2,6.9-5,6.9-10.7v-346.9C1507.2-157.1,1500.5-167,1492.3-170.4z"/>
		<path class="st10" d="M1495.3,203.9c0,8.7-6.5,13.3-14.7,9.9l-135.4-59.4c-8.1-3.4-14.7-13.3-14.7-22.2v-347
			c0-8.7,6.5-13.3,14.7-9.9l135.4,59.4c8.1,3.4,14.7,13.3,14.7,22.2V203.9z"/>
		<path class="st11" d="M1382.4,20.1c-11.3-2.4-47.6-16.7-60.5-17.9c-7.3-0.6-7.1,16.1,1,18.1c6.2,1.6,47.2,6.4,62.3,7.4
			C1395.5,28.2,1391.7,22.1,1382.4,20.1z"/>
		<path class="st4" d="M1471.1-133.9c0,1.6-1.6,2.2-3.6,1.4l-121.7-53.4c-2-0.8-3.6-3-3.6-4.6c0-1.6,1.6-2.2,3.6-1.4l121.7,53.4
			C1469.5-137.4,1471.1-135.4,1471.1-133.9z"/>
		<path class="st12" d="M1015.8,225.1c4,1.8,10.3,1.8,14.1,0l285.4-126.3c4-1.8,4-4.6,0-6.4l-51.4-23.2c-4-1.8-10.3-1.8-14.1,0
			L963.6,191.3c-4,1.8-3,8.7,0.8,10.5L1015.8,225.1z"/>
		<path class="st10" d="M1015.8,220.5c4,1.8,10.3,1.8,14.1,0l285.4-126.3c4-1.8,4-4.6,0-6.4l-51.4-23.2c-4-1.8-10.3-1.8-14.1,0
			L964.4,190.9c-4,1.8-4,4.6,0,6.4L1015.8,220.5z"/>
		<path class="st9" d="M1009.8,198.9c3.7,0,6.7-1,6.7-2.2c0-1.2-3-2.2-6.7-2.2c-3.7,0-6.7,1-6.7,2.2
			C1003.1,197.9,1006.1,198.9,1009.8,198.9z"/>
		<path class="st4" d="M1433.6-130.9c0,1.6-1.6,2.2-3.6,1.4l-84.4-36.9c-2-0.8-3.6-3-3.6-4.6c0-1.6,1.6-2.2,3.6-1.4l84.4,36.9
			C1432-134.5,1433.6-132.5,1433.6-130.9z"/>
		<path class="st4" d="M1473.1,141.1c0,1.6-1.6,2.2-3.6,1.4l-121.7-53.2c-2-0.8-3.6-3-3.6-4.6c0-1.6,1.6-2.2,3.6-1.4l121.7,53.2
			C1471.3,137.5,1473.1,139.5,1473.1,141.1z"/>
		<path class="st4" d="M1436.2,142.9c0,1.6-1.6,2.2-3.6,1.4l-85-37.3c-2-0.8-3.6-3-3.6-4.6c0-1.6,1.6-2.2,3.6-1.4l85,37.3
			C1434.6,139.3,1436.2,141.3,1436.2,142.9z"/>
		<path class="st2" d="M1419.5,25.5c0-1.8,0.2-3.6,0-5.4c-0.2-2-1-4-1.6-5.8c-1-2.4-2.4-3.4-4.8-4.2c-2.4-0.8-4.6,0.4-5.2,2.8
			c-0.4,1.8-0.2,4.6,0.2,6.2c0.4,2,4.4,13.1,7.7,10.3"/>
		<path class="st4" d="M1418.3,26.3c1.6-5.4,1.2-13.1-5.2-14.7l82.2-39.3v18.7L1418.3,26.3z"/>
		<path class="st4" d="M1428.4,23.7c1.6-5.4,1.2-17.9-5-19.5l-13.3,6c6.4,1.6,6.7,14.3,5.2,19.7L1428.4,23.7z"/>
		<path class="st7" d="M1413.1,70.2l-39.9-21.9V20.1l39.9,17.3V70.2z"/>
		<path class="st6" d="M1452.6,19.3l-40.1-16.9l-39.3,17.7l39.9,17.3L1452.6,19.3z"/>
		<path class="st13" d="M1413.1,70.2l39.5-18.3V19.3l-39.5,18.1V70.2z"/>
		<path class="st2" d="M1463.2,47.7c0-1.6,0.2-3.2,0-4.8c-0.2-1.8-0.8-3.6-1.4-5.2c-0.8-2-2.2-3.2-4.4-3.8c-2-0.6-4.2,0.4-4.6,2.6
			c-0.4,1.6-0.2,4,0.2,5.6c0.4,1.8,4,11.7,6.9,9.3"/>
		<path class="st11" d="M1481.6,30.8c1.6,3.6,0,7.9-3.6,9.5l-35.5,16.1c-4,1.8-5,1.4-5.2,0.6c-0.2-1,6.2-4,6.4-4.4
			c0,0-11.3,5.4-11.9,3.4c-0.6-2.2,10.3-6,11.1-6.6c0,0-13.1,5.6-13.7,3.2c-0.6-2,12.7-7,12.7-7c-0.8,0-12.9,4.8-13.5,3.4
			c-0.8-2,14.9-7.7,14.9-7.7c-1.6-0.4-5.8-2.4-6.4-3.4c-1-1.4-0.6-2.8,0.6-2.4c1.6,0.4,4.8,0.8,6.4,1.4c0.4,0.2,0.8,0.2,1.2,0.4
			c0.8,0.2,5.2,2.4,6.4,2.8l24-10.9C1479,27.4,1479.8,27.3,1481.6,30.8z"/>
		<path class="st4" d="M1462,49.3c1.6-5.4,1.2-13.1-5.2-14.7l38.5-17.5v17.7L1462,49.3z"/>
		<path class="st4" d="M1471.1,46.1c1.4-4.8,1.2-15.9-4.6-17.5l-11.9,5.4c5.8,1.6,6,12.7,4.6,17.5L1471.1,46.1z"/>
		<path class="st14" d="M1495.3-31.9c-10.9-1.4-23-0.2-33.5-0.2c-12.9,0-26-0.2-38.9,0c-8.3,0.2-20,2.4-25.4,9.5
			c-5.4,7.4-9.7,24.2-4.4,32.2l40.5,18.9c0,0-0.4,27.2-0.4,35.4c0,9.3-0.2,18.7,0.2,28c0-1,14.5,2,15.5,2.2c7.9,0.4,7.7,0.8,14.1-5
			c1-0.8,1.8-1.8,2.6-2.8c8.3-9.3,17.3-16.9,25.4-25.4c1.4-1.4,2.8-3,4.2-4.6v-88.2H1495.3z"/>
		<path class="st2" d="M1087.4-116.2h-0.6v17.5h0.6V-116.2z"/>
		<path class="st3" d="M1064.8-117.8c0,1.8,0,3.6,0,5.4c0,3,0.4,5.6,1.6,8.3c2.6,6,7.9,8.5,13.7,10.9c3.6,1.4,9.9,1.8,13.1-0.6
			c2.4-2,2.2-4,1.8-6.8c-1,5-6.9,2-20.2-4.4c-4.6-2.2-2.8-10.1-3.4-14.5c-0.4-2.8-4.4-3.6-6.6-4.4
			C1064.2-121.9,1064.8-120,1064.8-117.8z"/>
		<path class="st4" d="M1062.2-125.8l-0.8,1.8l40.6,16.7l0.8-1.8L1062.2-125.8z"/>
		<path class="st11" d="M1095-112.4c-0.8,0-0.8,1-0.8,1.8v10.1c0,3.8-3,5.8-6.5,4.4l-13.5-5.6c-3.6-1.4-6.6-5.8-6.6-9.7v-10.1
			c0-0.4-0.2-1.6,0.8-1.8c-4.8-2-13.7-7.9-18.9-4.8c-5.8,3.4-8.7,11.5-8.7,17.3c0,11.1,2.6,21.9,2.6,33c0,21.1,0,42.1,0,63.4
			c0,3,0,6,0,8.9c0,21.1,74.6,50.5,74.6,27.8c0-6.6,0-13.1,0-19.7c0-14.3-0.4-28.8-0.4-43.1c0-14.3,5.4-22.2,5.4-42.9
			c0-6.6,0.6-17.9-6.7-21.5C1110.9-107.8,1100.9-110,1095-112.4z"/>
		<path class="st3" d="M1076.5,22.9c0.8,0.4,1.6,0.6,2.4,1c0-7.2,0-14.1,0-21.3c0-15.1,0-30.4,0-45.5c0-14.3,0-28.4,0-42.7
			c0-3.4-0.2-6.8,1.4-9.7c0.6-1.4,1.4-2.6,2.6-3.6c-0.8-1.2-3.2-2-4.4-2.6c-1.6-0.8-3.8-2-5.6-2.2c4.4,5,3.6,11.7,3.6,17.9
			c0,6.2,0,12.3,0,18.7c0,15.1,0,30.2,0,45.3c0,12.1,0,24.4,0,36.6C1076.5,15.3,1075.9,22.7,1076.5,22.9z"/>
		<path class="st2" d="M1085.4-81.2h-0.6v-33c0-1,0.2-1.8,0.4-2.2c0.4-0.6,0.8-0.8,1.2-0.8s1,0.4,1,1.4h-0.6c0-0.4-0.2-0.8-0.4-0.8
			c-0.2,0-0.4,0.2-0.6,0.6c-0.2,0.4-0.4,1-0.4,2V-81.2z"/>
		<path class="st4" d="M1090.6-51.4l-10.9-4V-84l10.9,4V-51.4z"/>
		<path class="st2" d="M1089.8-61.7l-9.5-3.6v-1.8l9.5,3.6V-61.7z"/>
		<path class="st2" d="M1088-59.2l-5.8-2v-1.8l5.8,2V-59.2z"/>
		<path class="st2" d="M1086.9-69.3c1.7-0.8,2.2-3.2,1.2-5.2c-1-2.1-3.2-3.1-4.9-2.3c-1.7,0.8-2.2,3.2-1.2,5.2
			C1083-69.5,1085.2-68.5,1086.9-69.3z"/>
		<path class="st15" d="M1161.5,159.4l-50.8-22.1V96l50.8,22.1V159.4z"/>
		<path class="st6" d="M1211.5,95l-50.8-21.5l-50,22.4l50.8,22.1L1211.5,95z"/>
		<path class="st15" d="M1184.3,83.3h-1.2l-50,22.4l1.2,0.6L1184.3,83.3z"/>
		<path class="st6" d="M1161.5,159.4l50-23V95l-50,23V159.4z"/>
		<path class="st9" d="M1007.2,87.6l4.8-2c0-4.6,0-8.9,0-13.5c0-51.6,0-103.1,0-154.8c0-8.1,0.8-14.9,7.1-21.5
			c3.4-3.4,9.1-5.2,13.5-7.2c20.8-9.1,41.7-18.5,62.5-27.6c51.4-22.6,102.8-45.3,154.2-67.9c4.2-1.8,8.5-3.8,12.7-5.6
			c9.1-4,9.9,5,9.9,11.1c0,18.5,0,37.1,0,55.6c0,54.6,0,109.3,0,163.9l4.8,2c0-13.7,0-27.2,0-40.9c0-55.8,0-111.6,0-167.5
			c0-5.4,0-10.9,0-16.3c0-9.9-7.1-16.5-17.1-12.1c-13.5,6-27,11.9-40.7,17.9c-54.2,23.8-108.6,47.9-162.8,71.7
			c-8.5,3.8-17.3,7.5-25.8,11.3c-4.2,1.8-8.5,3.4-12.3,6c-14.7,9.9-11.1,30.4-11.1,45.5C1007.2-13.3,1007.2,37.2,1007.2,87.6z"/>
		<path class="st9" d="M1012,195.5c0-36.6,0-73.1,0-109.9l-4.8,2c0,7.5,0,15.3,0,22.8c0,28.2,0,56.6,0,84.8
			C1007.2,198.7,1012,198.7,1012,195.5z"/>
		<path class="st10" d="M1272.2,18.5c0,6.4,0,12.5,0,18.9c0,20.3,0,40.7,0,61c0,3.2,4.8,3.2,4.8,0c0-26,0-51.8,0-77.9L1272.2,18.5z"
			/>
		<path class="st4" d="M1139.4-164.5c-3.4-1.4-6.6,0-6.9,4.2l1.4-0.6c0.2-2.4,2.8-3.4,5.6-2.2c2.8,1.2,5.8,4.2,6,7.4
			c0.2,3.8-2.6,4.8-5.4,5.6c-0.4,0.2-0.8,0.2-1.2,0.4l-0.2,0.2v6.2l1.6,0.6v-5.4c0.4-0.2,0.6-0.2,1-0.4c3-1,6-2,5.8-6.6
			C1146.8-159.1,1142.8-162.9,1139.4-164.5z"/>
		<path class="st4" d="M1197.4-190.1c-3.4-1.4-6.6,0-6.9,4.2l1.4-0.6c0.2-2.4,2.8-3.4,5.6-2.2c2.8,1.2,5.8,4.2,6,7.4
			c0.2,3.8-2.6,4.8-5.4,5.6c-0.4,0.2-0.8,0.2-1.2,0.4l-0.2,0.2v6.2l1.6,0.6v-5.4c0.4-0.2,0.6-0.2,1-0.4c3-1,6-2,5.8-6.6
			C1204.7-184.7,1201-188.5,1197.4-190.1z"/>
		<path class="st4" d="M1080.7-138.4c-3.4-1.4-6.6,0-6.9,4.2l1.4-0.6c0.2-2.4,2.8-3.4,5.6-2.2c2.8,1.2,5.8,4.2,6,7.4
			c0.2,3.8-2.6,4.8-5.4,5.6c-0.4,0.2-0.8,0.2-1.2,0.4l-0.2,0.2v6.2l1.6,0.6v-5.4c0.4-0.2,0.6-0.2,1-0.4c3-1,6-2,5.8-6.6
			C1088-133.1,1084.3-136.8,1080.7-138.4z"/>
		<path class="st5" d="M1110.5,179.8l-40.1-17.5v-32.6l40.1,17.3V179.8z"/>
		<path class="st11" d="M1150.2,129l-40.1-17.1l-39.7,17.9l40.1,17.3L1150.2,129z"/>
		<path class="st3" d="M1128.3,128l-18.3-7.5l-17.7,7.9l18.1,7.9L1128.3,128z"/>
		<path class="st3" d="M1110.5,179.8l39.7-18.3V129l-39.7,18.1V179.8z"/>
		<path class="st11" d="M1176.6,107.3l-40.3-17.5v-33l40.3,17.5V107.3z"/>
		<path class="st3" d="M1216.4,56.1L1176,39l-39.7,17.9l40.3,17.5L1216.4,56.1z"/>
		<path class="st3" d="M1181.3,33l-5.4,6l-39.7,17.9l5.2-5.6L1181.3,33z"/>
		<path class="st3" d="M1176.6,107.3l39.9-18.3v-33l-39.9,18.3V107.3z"/>
		<path class="st11" d="M1396.7,54.7c1.6-0.6,4.6-0.4,6.4-0.2c3.2,0.2,6.2,1.8,9.3,2.6c1,0.2,6,1,4.4,3.2c-0.6,1-1.6,0.6-2.4,0.4
			c-1-0.2-1.4-0.2-2.6-0.2c2.2,1.6,5,2.4,7.3,4c0.8,0.6,3,1.8,2.6,3c-0.4,1.8-2.4,0.6-3.2-0.2c1.2,0.8,0.6,2-0.8,2.2
			c-0.8,0.2-1.8-0.8-2.6-0.8c1.2,2.6-2.8,1-3.4,1c0.2,0.2,0,0.6,0.2,1c-7.9,1.4-14.3-6.2-17.7-12.5"/>
		<path class="st11" d="M1404.8,56.5c-10.7-4.6-43.5-25.8-55.8-29.4c-7.1-2-10.1,14.3-2.6,17.9c5.8,2.8,45.1,15.5,59.7,19.5
			C1415.9,67.2,1413.5,60.2,1404.8,56.5z"/>
		<path class="st16" d="M1204.1,285.3c-1.4-1.6-3.4-3.8-1.6-5.8c1-1.2,4.2-2.6,5.6-2c2.2,0.8,4.6,2.6,5.6,4.6
			c0.8,1.8,0.8,5.4-1.6,6.4C1209.9,289.5,1205.5,286.9,1204.1,285.3z"/>
		<path class="st4" d="M1207.9,295.8c-1.6,2.4-4.8,3-7.1,1.4c-2.4-1.6-3-4.8-1.4-7.2l11.9-17.5c1.6-2.4-0.4,4.4,2,5.8
			c2.4,1.6,3,4.8,1.4,7.2L1207.9,295.8z"/>
		<path class="st6" d="M1207.1,304.2c0-4.4,1-7.5,2.6-10.9c-3.4-0.2-5.8-3.4-7.9-6.4c-2.6,1-5,2.8-5,2.8c-0.8,1.8,0.6,5.4,0,7.2"/>
		<path class="st6" d="M1206.7,299.2c1.4,10.1-0.2,19.1-3.4,19.1c-1.6,0-5.4-7.2-6.6-17.3c-1.4-10.1-1.2-11.7,2-12.1
			C1201.8,288.5,1205.3,289.1,1206.7,299.2z"/>
		<path class="st16" d="M1204.1,301.2c1.6,10.1,2.4,16.9-0.8,17.3c-3.2,0.4-6.7-7.5-8.1-17.7c-1.4-10.1,0.2-10.7,2-11.3
			C1199,288.7,1203.2,294.2,1204.1,301.2z"/>
		<path class="st7" d="M1269.8,73.5c-13.5,25.4-21.2,73.9-7.5,120.2c0,0-42.7,37.7-60.1,86.4c4.6-3.4,12.7,3.6,10.5,8.5
			c0.2-0.2,76-87.6,76-87.6l25.4-128.9"/>
		<path class="st16" d="M1315.3,336.2c0,0.4,0,0.6,0,1c0,0.4,0,0.6-0.2,1c-0.4,1-1.2,1.8-1.8,2.6c-1.4,1.4-3,2.4-4.8,3.4
			c-2.8,1.6-5.6,3-8.5,4.2c-6.9,3-9.1,2-10.1,0.2c-0.4-0.6-0.4-2,0-2.6c0.2-0.2,0.4-0.2,0.6-0.4c0.2-0.2,0.6-0.6,0.8-0.8
			c0.6-0.6,1-1,1.6-1.4c1.2-1,2.4-1.8,3.8-2.6c0.6-0.4,1.2-0.6,1.8-1c0.2,0,0.4-0.2,0.6-0.2c2.8-1.4,6-2.4,8.9-3.2
			c1.2-0.4,2.6-0.6,3.8-0.8c0.6,0,1,0,1.6,0c0.4,0,1.2,0.2,1.4-0.4c0.2-0.2,0-0.6,0-0.8C1315.1,334.8,1315.3,335.6,1315.3,336.2z"/>
		<path class="st6" d="M1314.7,334.6c1,1.8-0.2,6-14.7,12.1c-6.9,3-9.1,2-10.1,0.2c-1-1.8,1.6-5.4,8.3-8.7
			C1305.2,334.8,1313.9,332.6,1314.7,334.6z"/>
		<path class="st4" d="M1300.4,336.6c0,2.8-2.4,5.2-5.2,5.2c-2.8,0-5.2-2.4-5.2-5.2v-12.3c0-2.8,2.4-5.2,5.2-5.2
			c2.8,0,5.2,2.4,5.2,5.2V336.6z"/>
		<path class="st13" d="M1291.9,75.9c-11.9,9.1-27,32.2-11.1,65.4c10.9,22.8,11.1,46.1,9.5,63c-4.6,48.3-11.9,67.5-2.4,126.3
			c0.8,4.6,12.5-0.4,12.7-1c4.6-34,16.1-117.4,19.8-146.6c4.4-33.4,1.8-79.1-2.6-105.3"/>
		<path class="st7" d="M1262.9,98.4c0.4-1.2,1-2.2,1.8-3c4.8-4.8,14.3-3.2,20-2.2c3.8,0.6,7.3,1.4,11.1,2.4c1.4,0.4,2.8,1,4.4,1.2
			c1,0.2,2,0,3,0c1.4,0.2,2.6,1.2,3.8,1.6c2.4,0.6,4.6,1.2,6.7,2.4c2.4,1.2,5.8,1.8,7.5,4.6c-2.8-1-6.2-0.4-8.9-0.2
			c-3.8,0.2-7.3,1-10.9,2.2c-6.7,2-13.3,4.6-20.4,5.6c-2,0.2-4,0.4-6.2,0.4c-3.6-0.2-6.7-2.4-9.7-4.8
			C1261.9,105.7,1261.9,101.7,1262.9,98.4z"/>
		<path class="st11" d="M1298.8-48.8l-11.3,0.4l-3.6,16.7l14.9,5.4V-48.8z"/>
		<path class="st6" d="M1263.7-14.1c-1,4.6-4.4,9.1-5.8,13.7c-1.6,4.8-1.2,10.3-1,15.5c0.6,15.3,6.2,27.8,6.9,51.8
			c0.2,4.2-8.7,14.9-8.5,26.8c0.2,18.5,22.8,14.9,35.1,13.3c12.1-1.6,18.3-5.6,30.8-2c0.6-3.6,1-11.3,1.2-12.7
			c0.8-7.7,0-15.7-3-22.8c-2.8-7-7.3-13.1-8.3-20.7c-1.4-10.3,3.6-16.9,5.8-26c2.4-9.3,3.8-21.5,4-31.2c0.2-5.6-2.6-10.5-6.7-14.3
			c-2.2-2-4.6-3.4-7.1-4.6c-2-1-4.2-1.6-6.4-2.2c-1.8-0.4-3.6-1.6-5.4-2c-2.2-0.6-4.6-0.4-6.7-0.8c-3.8-0.6-7.9-1.4-11.7-0.6
			c-3,0.6-5.2,4.4-6,7.2"/>
		<path class="st11" d="M1306.4-65.9c0,11.3-0.4,22.4-7.5,22.4c-7.1,0-18.5-11.1-18.7-22.4c0-11.3,6.4-12.9,13.5-12.9
			C1301-79,1306.4-77.2,1306.4-65.9z"/>
		<path class="st7" d="M1292.1-65.7c4.6,0.6,13.7,0.8,17.1-3.2c3.6-4,1.4-9.9-2.8-14.1c-4-4-11.7-4.8-16.9-2.2
			c-3.8,1.8-11.5,7.4-10.5,12.5C1280-68.3,1288.3-66.3,1292.1-65.7z"/>
		<path class="st7" d="M1319.5,21.5c3.8,3.8,7.3,7.7,11.3,11.3c1,1,9.5,9.7,10.9,8.9c-2,1.2-3.8,1.8-6,2c4.6,2.8,9.5,5.2,15.3,4.2
			c7.1-1.4,10.1-10.1,7.3-16.3c-2.6-5.8-6.6-11.1-11.5-16.3c-6.9-7.3-35.7-56.4-47.2-29.4c-2,4.6,0,8.5,2.2,12.7
			C1306.2,7,1312.7,14.7,1319.5,21.5z"/>
		<path class="st7" d="M1257.1-71.3c-3,4.4-5.2,9.1-6.7,13.9c-2.8,8.5-2.4,18.1-1.6,27.2c0.8,8.7,1.4,18.5,0.4,27.4
			c-0.6,6.4-5.8,18.5-12.1,20.3c9.7,3.8,21.6,5.4,31.6,1.4c14.1-5.8,21-24.6,22.4-38.5c1-9.1-2.8-18.1,3.2-25.6
			c12.5-15.7,12.5-38.5-12.3-39.9C1271.2-86,1262.9-79.6,1257.1-71.3z"/>
		<path class="st6" d="M1289.9,346.3c0-2.6,0.2-7,0.2-9.7c1.6,1.4,3.8,2,5.6,1.4c1.6-0.6,4.2-1.8,4.8-3.6c1,1.6,3.2,1.2,4.8,1
			c0.4,0,1-0.2,1.4-0.2c0.6,0.2,0.6,0,0.6,0.8c0,1-1,2.2-1.4,3c-0.8,1-1.6,1.8-2.6,2.6c-1,0.8-1.6,1.6-2.4,2.8
			c-0.6,0.8-1.4,2-2.4,2.4"/>
		<path class="st9" d="M1010,298.4c6.6,0,11.9-1.7,11.9-3.8c0-2.1-5.3-3.8-11.9-3.8c-6.6,0-11.9,1.7-11.9,3.8
			C998.1,296.7,1003.4,298.4,1010,298.4z"/>
		<path class="st4" d="M1482-37.7c0,2.2-1.6,3.2-3.6,2.4l-59.9-26.2c-2-0.8-3.6-3.4-3.6-5.6v-41.1c0-2.2,1.6-3.2,3.6-2.4l59.9,26.2
			c2,0.8,3.6,3.4,3.6,5.6V-37.7z"/>
		<path class="st17" d="M1471.1-78v29.4l-46.8-18.9c0-3,2.2-6.6,4.6-8.1c1.8-1.2,6.2-0.8,8.5-0.6c6.5,0.6,13.1,1,17.1-6.2"/>
		<path class="st6" d="M1470.3-49.6c0.8,0.2,1.2,1,1,1.6c-0.2,0.6-1,0.8-1.8,0.4c-6.7-2.6-13.5-5.2-20.2-7.9c-5-2-10.1-4-15.1-6
			c-3-1.2-6.4-2-9.1-3.6c-1.8-1-2.8-5.6,0.2-5.6c1.4,0,1.6,1.6,2,2.6c1.2,2.6,4.2,3.2,6.7,4.2c2.8,1,5.6,2.2,8.3,3.2
			c6,2.4,11.9,4.6,17.9,7C1463.2-52.2,1466.7-50.8,1470.3-49.6z"/>
		<path class="st6" d="M1471.2-77.8c0.3-1.2-3.2-3.2-7.8-4.5c-4.6-1.3-8.7-1.5-9-0.3c-0.3,1.2,3.2,3.2,7.8,4.5
			C1466.9-76.8,1470.9-76.7,1471.2-77.8z"/>
		<path class="st3" d="M1118-64.3c2,0,3.6-8.1,3.6-18.1c0-10-1.6-18.1-3.6-18.1s-3.6,8.1-3.6,18.1C1114.4-72.4,1116-64.3,1118-64.3z
			"/>
		<path class="st1" d="M1656.3,434.8c3.7-14.6-28.7-35.4-72.3-46.6c-43.7-11.1-82.1-8.4-85.8,6.2c-3.7,14.6,28.7,35.4,72.3,46.6
			C1614.2,452.2,1652.6,449.4,1656.3,434.8z"/>
		<path class="st7" d="M1573.1,10c17.5,4.2-5,33-7.1,44.5c-2.4,12.5-2,54.8-18.3,52.2c-22.2-3.6-20.6-44.1-20.4-48.7
			c0.2-7,4.8-3.4,11.9-2.2c6.4,1,7.9,7,9.5,11.9c0.6,2,1.8,4,2.6,1c1-4.2-2-7.5-4.6-10.1c-2.6-2.8-5.8-5.8-7.5-9.3
			c-1.8-4,1-9.1,2.2-13.1C1545.5,24.1,1559,6.6,1573.1,10z"/>
		<path class="st16" d="M1530.8,413.6c1.6,2,5.4,0.8,7.3,0.4c3.2-0.8,6-1.8,8.9-3.2c2.2-1,4.2-2.4,6.2-3.8c1.2-0.8,2.4-1.6,3.6-2.6
			c1.2-1,1.8-1.2,1.4-4c-0.2-1.8-0.4-2.6-0.6-4.2c-0.6-4-4-3.2-6-3.2c-1.2,0-2.2,0-3.2-0.2c-1.8-0.4-3-0.6-4.2,1.2
			c-0.6,1-1,2.2-1.6,3.2c-1.8,2.8-5.2,5.2-7.5,7.5c-1.8,1.6-6.2,2.8-5,7.5C1530.3,412.8,1530.6,413.2,1530.8,413.6z"/>
		<path class="st6" d="M1530.8,410.9c1.6,2,5.4,0.8,7.3,0.4c3.2-0.8,6-1.8,8.9-3.2c2.2-1,4.2-2.4,6.2-3.8c1.2-0.8,2.4-1.6,3.6-2.6
			c1.2-1,1.6-2.2,1.4-3.6c-0.2-1.6-0.4-3-0.6-4.8c-0.6-4-4-3.2-6-3.2c-1.2,0-2.2,0-3.2-0.2c-1.8-0.4-3-0.6-4.2,1.2
			c-0.6,1-1,2.2-1.6,3.2c-1.8,2.8-5.2,5.2-7.5,7.5c-1.8,1.6-5.8,4.8-5,7.5C1530.5,410.3,1530.6,410.7,1530.8,410.9z"/>
		<path class="st7" d="M1557,384.2l-10.5-1c0,0-0.8,7.7-0.8,8.3c0.2,1.4,1,2.4,2.4,3c2,1,4.6,1.4,6.6,0.6c1.8-0.8,2-3,2.2-4.8
			C1556.8,390,1557.2,384.2,1557,384.2z"/>
		<path class="st7" d="M1558.6,130c0,0,41.1-9.1,41.3-9.1c4.8-0.4,1.6,57.8-14.1,147.6c-6.2,35.6,9.5,75.5-18.3,126.5
			c-4.4,7.2-25.6,2.4-25.4-5.2C1542.8,380.3,1547.9,324.4,1558.6,130z"/>
		<path class="st16" d="M1593,437.5c1.6,2,5.4,0.8,7.3,0.4c3.2-0.8,6-1.8,8.9-3.2c2.2-1,4.2-2.4,6.2-3.8c1.2-0.8,2.4-1.6,3.6-2.6
			c1.2-1,1.8-1.2,1.4-4c-0.2-1.8-0.4-2.6-0.6-4.2c-0.6-4-4-3.2-6-3.2c-1.2,0-2.2,0-3.2-0.2c-1.8-0.4-3-0.6-4.2,1.2
			c-0.6,1-1,2.2-1.6,3.2c-1.8,2.8-5.2,5.2-7.5,7.5c-1.8,1.6-6.2,2.8-5,7.5C1592.4,436.7,1592.6,437.1,1593,437.5z"/>
		<path class="st6" d="M1593,434.9c1.6,2,5.4,0.8,7.3,0.4c3.2-0.8,6-1.8,8.9-3.2c2.2-1,4.2-2.4,6.2-3.8c1.2-0.8,2.4-1.6,3.6-2.6
			c1.2-1,1.6-2.2,1.4-3.6c-0.2-1.6-0.4-3-0.6-4.8c-0.6-4-4-3.2-6-3.2c-1.2,0-2.2,0-3.2-0.2c-1.8-0.4-3-0.6-4.2,1.2
			c-0.6,1-1,2.2-1.6,3.2c-1.8,2.8-5.2,5.2-7.5,7.5c-1.8,1.6-5.8,4.8-5,7.5C1592.4,434.1,1592.6,434.5,1593,434.9z"/>
		<path class="st7" d="M1619.2,408.3l-10.5-1c0,0-0.8,7.7-0.8,8.3c0.2,1.4,1,2.4,2.4,3c2,1,4.6,1.4,6.6,0.6c1.8-0.8,2-3,2.2-4.8
			C1619,413.8,1619.4,408.3,1619.2,408.3z"/>
		<path class="st13" d="M1580.7,121.2l59.1,32c0,0-18.1,61.4-7.7,135.5c11.9,85-5.6,123-7.1,127.5c-2.8,7.9-24,8.1-25.2-2.6
			C1584.2,258.7,1580.7,138.7,1580.7,121.2z"/>
		<path class="st7" d="M1578.1,153c4.4,1.6,8.3,1.4,12.9,1.4c7.1,0,13.9,0,21-1c6.2-0.8,12.3-1.6,18.5-1.4c2.6,0.2,8.7-0.4,8.5,3.4
			c-0.2,2-1.2,4.2-2.4,6c-3,4.2-8.5,5.6-13.1,7c-4.2,1.4-9.7,0.6-14.1,0.6c-4.4,0-8.5-0.2-12.9-0.8c-4.8-0.6-11.5-0.8-15.7-3.6
			c-1.6-1-3-3.4-4-5c-1-1.6-1.8-3-2.2-4.8c-0.2-1-0.4-2.6-0.8-3.4"/>
		<path class="st10" d="M1654.7,41c3-20.1-92.7-44.7-97.1-24.6c-1.2,5.8-0.2,12.9-0.2,18.9c0.2,12.5,6,57,6,70.1
			c0,6-4.8,18.5-5,24.4c-0.4,13.1,2.8,22.4,14.5,28.4c11.9,6,25.6,8.1,38.9,8.9c10.7,0.8,24.8-0.4,28.2-13.7
			c1.2-4.8,1.4-13.1,0-17.7c-2.2-7.5-5.2-12.7-4-20.3c1-6.6,10.7-48.5,13.5-62.6C1649.9,49.3,1653.9,44.3,1654.7,41z"/>
		<path class="st18" d="M1628.1,68.4l-20-7.2V42.5l20,7.2V68.4z"/>
		<path class="st7" d="M1593,6.4c-0.2-4.8,2.2-3.6,6.2-3.8c4-0.2,6.7-0.6,10.3,0.8c3.4,1.4,3.8,1.2,5.8,4.6c3.2,5.8-16.3,8.9-21,4.4
			c-0.2-0.2-0.2-0.2-0.4-0.4"/>
		<path class="st11" d="M1612.6-11.9c0.2-2-22.4,11.5-20.8,17.3l4.6,17.3l2.6-1.2l12.7-3.2L1612.6-11.9z"/>
		<path class="st11" d="M1612.8-29.8c2.6,10.1-5,39.5-23,35.2c-6.9-1.6-9.1-35-4-41.9"/>
		<path class="st3" d="M1595.4-9.9c-1.4-1.4-3-2-4.4-0.2L1595.4-9.9z"/>
		<path class="st16" d="M1597.7-14.9c0.5,0,1-0.4,1-1c0-0.5-0.4-1-1-1c-0.5,0-1,0.4-1,1C1596.7-15.3,1597.2-14.9,1597.7-14.9z"/>
		<path class="st16" d="M1584.4-14.7c0.5,0,1-0.4,1-1c0-0.5-0.4-1-1-1c-0.5,0-1,0.4-1,1C1583.4-15.1,1583.9-14.7,1584.4-14.7z"/>
		<path class="st11" d="M1612.4-17.8c5.8-0.8,3.8,9.1-1.6,6.6L1612.4-17.8z"/>
		<path class="st16" d="M1583-21.8c0,0.2,0,0.4,0,0.6c1.8-0.2,3.2,0,5.4,0.4l0.2-0.6C1586.4-21.8,1584.8-22,1583-21.8z"/>
		<path class="st16" d="M1602.3-20.8l0.2-0.6c-3.4-0.8-6.2-0.6-9.3,0l0.2,0.6C1596.5-21.2,1598.9-21.4,1602.3-20.8z"/>
		<path class="st16" d="M1594.2-12.9c-0.6-0.8-1.4-2.6-1.2-3.8c0.2-1.2,1-1.8,2-2c0.8,0,3-0.2,4.8-0.2c1,0,1.8,0,2,0
			c0.4,0,1.6,0.2,1.8,1.4c0.6,3.2-1.6,5.6-4.2,6.4c-0.4,0.2-0.8,0.2-1.2,0.2C1596.5-10.7,1595-11.5,1594.2-12.9z M1595-17.8
			c-0.8,0-1.2,0.8-1.4,1.4c-0.2,1,0.6,2.6,1,3.4c0.8,1,2,1.8,3.6,1.8c0.4,0,0.8,0,1-0.2c2.2-0.6,4.2-2.8,3.6-5.6
			c-0.2-0.6-0.4-0.8-1.4-1c-0.2,0-1,0-2,0C1597.9-18,1595.8-18,1595-17.8z"/>
		<path class="st16" d="M1584.2-10.9c-2.6-0.6-4.8-3.2-4.2-6.4c0.2-1.2,1.4-1.4,1.8-1.4c0.2,0,1,0,2,0c1.8,0,4,0,4.8,0.2
			c1,0,1.8,0.8,2,2c0.2,1.2-0.6,3-1.2,3.8c-0.8,1.2-2.4,2-4,2C1585-10.7,1584.6-10.9,1584.2-10.9z M1582.1-18
			c-0.8,0.2-1.2,0.4-1.4,1c-0.6,2.6,1.4,5,3.6,5.6c0.4,0,0.8,0.2,1,0.2c1.4,0,2.8-0.6,3.6-1.8c0.6-0.8,1.2-2.4,1-3.4
			c-0.2-0.6-0.6-1.4-1.4-1.4c-0.8,0-3-0.2-4.6-0.2C1583-18,1582.3-18,1582.1-18z"/>
		<path class="st4" d="M1596.9-6.9c-4,4-6.2,1.8-7.3-0.2L1596.9-6.9z"/>
		<path class="st16" d="M1613.6-27.8c-15.5-0.4-4.6,13.1-3.2,15.5c1.2-0.6,2.4-2.4,3.2-3.6c1.2-1.6,2-3.2,2.4-5.2
			C1616.2-23.2,1616-27,1613.6-27.8z"/>
		<path class="st16" d="M1586.4-44.5c-2.2,1.4-4.6,3.2-5.4,5.6c-1.6,4.6-0.2,9.7,4,11.3c3.6,1.2,9.9-0.2,13.7,0.2
			c3.2,0.4,6,2.2,9.1,2.2c2.8,0,5.8-2.2,5.8-2.2c-0.2-2.2-0.4-6.4-1.8-8.1c-0.8-1.2-1.8-2.4-3-3c-2-1.2-4.4-1-6.4-2.2
			c-1.8-1-3.6-2.4-5.2-3.6C1594.4-46.3,1589.8-46.4,1586.4-44.5z"/>
		<path class="st16" d="M1593.2-16.9h-3v0.6h3V-16.9z"/>
		<path class="st16" d="M1603.1-17.4h6.9l-0.2-0.6h-7.3L1603.1-17.4z"/>
		<path class="st19" d="M1591.4,5.8l11.9-2.2l-9.9,6.2"/>
		<path class="st7" d="M1596.1,22.9l20.6-6.2l-1.6-8.7c-1.6,3-9.1,5-12.9,5L1596.1,22.9z"/>
		<path class="st7" d="M1594,9.6c-1.6-1.2-2.4-2.2-2.4-4l-0.2,7.7l5,9.3L1594,9.6z"/>
		<path class="st7" d="M1666.6,101c0,0-11.9,6-33.1,2.4c-13.9-2.4-50.4-23.6-32.6-40.3c12.3-11.5,29.6,0.6,40.1,8.3
			c8.5,6.2,23.8,10.5,26.6,22.3C1668.2,95.8,1666.6,101,1666.6,101z"/>
		<path class="st16" d="M1610.4,74.8c1.8-5.3,0.7-10.5-2.4-11.5c-3.1-1.1-7.1,2.4-8.9,7.7c-1.8,5.3-0.7,10.5,2.4,11.5
			C1604.6,83.5,1608.6,80.1,1610.4,74.8z"/>
		<path class="st11" d="M1583.6,64.6v0.2c0.4,1.4,1,1.4,2.4,1.6c0,1.6,0.4,2.8,1.8,3.4c0.6,0.2,1.2,0,1.8,0.4c0,0,0,0.8,0.2,1
			c1.8,1.4,4,1.4,6.2,2c2.2,0.6,4.6,1.6,6.7,0.2c1.8-1,2.8-3.4,3-5.4c0.4-3.2-1.4-3.8-4-5.2c-4.6-2.2-9.5-2.8-14.1-4.4
			c-2-0.6-4.4-2.2-6.7-2c-1.4,0-3.8,1.2-2.4,2.8c0.4,0.4,1.8,0.6,2.4,0.8c1,0.4,1.8,0.8,2.8,1.2
			C1583.6,62.2,1583.4,63.6,1583.6,64.6z"/>
		<path class="st7" d="M1666.8,75.7c0.8,6.6,2.4,18.9-0.2,25.2c0,0-19.7-6.6-21.4-10.1c-6.7-13.3-10.3-29.4-10.9-44.5
			c-0.2-6.6,8.7-13.9,13.9-13.9c4.6,0,6.7,5.2,8.5,8.7C1662,51.9,1665.2,63.8,1666.8,75.7z"/>
		<path class="st9" d="M1603.3,95.4c0.8,2.6-0.8,4.8-3.6,4.8L1542,82.7c-3.4-1-5.6-2.2-6.4-4.8l-12.3-40.7c-0.8-2.6,0.8-4.8,3.6-4.8
			l57.8,17.5c3,0.8,5.6,2.2,6.4,4.8L1603.3,95.4z"/>
		<path class="st11" d="M1529.5,63.4c-4-3.4-6.9-12.5-3.8-17.5c1.2,4,1.4,5,2.6,8.1c1.6-0.6,6.9-1.8,8.5-1.4c4.4,0.8,3,4.2-1,4
			c1.6,0,3.6-0.4,4.8,1c2,2.2-1.8,2.4-3,2.2c3-0.8,7.5,2,2.6,3.6c1,0,2-0.2,2.4,0.8c0.8,2.2-4.6,2-5.8,2
			C1534,65.8,1531.6,65.2,1529.5,63.4z"/>
		<path class="st11" d="M1608.3,63.2c-0.4,0-1-0.2-1.2-0.2c-2.6-0.6-9.3-1.6-9.3-1.6c-0.2,0.2,4.2,2.6,4,2.8l-1.6,2.6
			c-0.4,0.6-0.6,1.4-1,2.2c-0.4,1-0.6,1.8-0.6,2.6c1.4,2,0.2,2.4,2.8,2.4c1,0,2.6-0.8,3.6-0.4c0.6,0.2,5.6,1.2,5.6,1.2
			C1612.2,69.6,1611.4,64.2,1608.3,63.2z"/>
		<path class="st4" d="M1105.9,130.4c1.4,0,2.6-0.4,2.6-1c0-0.5-1.2-1-2.6-1c-1.4,0-2.6,0.4-2.6,1
			C1103.3,129.9,1104.5,130.4,1105.9,130.4z"/>
		<path class="st4" d="M1109.5,128.8c1.4,0,2.6-0.4,2.6-1c0-0.5-1.2-1-2.6-1c-1.4,0-2.6,0.4-2.6,1
			C1106.9,128.3,1108,128.8,1109.5,128.8z"/>
		<path class="st4" d="M1112.8,127.2c1.4,0,2.6-0.4,2.6-1c0-0.5-1.2-1-2.6-1c-1.4,0-2.6,0.4-2.6,1
			C1110.3,126.7,1111.4,127.2,1112.8,127.2z"/>
		<path class="st4" d="M1083.1,155.2c1.7-0.8,2.1-3.4,1-5.9c-1.2-2.5-3.5-3.9-5.1-3.1c-1.7,0.8-2.1,3.4-1,5.9
			C1079.1,154.6,1081.4,156,1083.1,155.2z"/>
		<path class="st4" d="M1090.7,158.7c1.7-0.8,2.1-3.4,1-5.9c-1.2-2.5-3.5-3.9-5.1-3.1c-1.7,0.8-2.1,3.4-1,5.9
			C1086.7,158.1,1089,159.5,1090.7,158.7z"/>
		<path class="st4" d="M1098.3,161.9c1.7-0.8,2.1-3.4,1-5.9c-1.2-2.5-3.5-3.9-5.1-3.1c-1.7,0.8-2.1,3.4-1,5.9
			C1094.3,161.3,1096.6,162.6,1098.3,161.9z"/>
		<path class="st4" d="M1368.1-61l-11.1-4.6v-10.5l11.1,4.6V-61z"/>
		<path class="st11" d="M1352.2-68.1l-11.1-4.6v-10.5l11.1,4.6V-68.1z"/>
		<path class="st4" d="M1188.9,93.4v-1.6c-0.2-4.2,0.8-7.9,2-11.5c-0.8,1.2-1.8,2.6-2.6,4.4l-1.2-0.6c1.6-3.2,3.4-5.6,5.2-7.5
			l2.2-2.2l-1,2.8c-1.6,4.2-3,8.1-3.2,12.5c1-1.6,1.8-3.6,2.6-5.6c1.2-2.8,2.4-5.6,4-7.4l1.6-1.8l-0.4,2.4c-0.2,1.2-0.4,2.8-0.6,4.2
			c0-0.2,0-0.2,0.2-0.4c1-2.2,2-4.6,3.2-6.8l1.2-2l0.2,2.2c0,1.2,0,2.2,0,3.4c0,0.6,0,1.2,0,2c0.4-0.8,0.8-1.6,1.4-2.4l1-1.4
			l0.2,1.6c0.2,1.4,0.4,1.6,0.4,1.6s0.4,0.2,2-1.8l0.6-0.8l0.4,0.8c0.2,0.4,0.6,0.6,1,0.8c0.2,0,0.4,0.2,0.4,0.2l-0.6,1.2
			c-0.2,0-0.2-0.2-0.4-0.2c-0.2-0.2-0.6-0.4-1-0.6c-1,1-2,2-3,1.6c-0.6-0.2-0.8-0.6-1-1c-0.2,0.2-0.2,0.6-0.4,0.8
			c-0.4,0.8-0.8,1.4-1.2,2.2l-1,1.4l-0.2-1.8c-0.2-1.4-0.2-3-0.2-4.4c0-0.2,0-0.4,0-0.6c-0.6,1.4-1.2,2.8-1.8,4.2
			c-0.4,1.2-1,2.4-1.6,3.4l-1,2.4l-0.2-2.6c-0.2-1.6,0-3.2,0.2-4.8c-0.8,1.4-1.4,3-2,4.4c-1.2,2.8-2.4,5.6-4,7.3L1188.9,93.4z"/>
		<path class="st4" d="M1202,71.9l-1.2-0.6c0-0.2,0.2-0.2,0.2-0.4c0.2-0.4,0.4-0.8,0.4-1.2h1.4c0,0.8-0.4,1.4-0.6,2
			C1202.2,71.5,1202,71.7,1202,71.9z"/>
		<path class="st4" d="M1409.2-69.1c0,2.2-1.6,3.2-3.6,2.4l-59.9-26.2c-2-0.8-3.6-3.4-3.6-5.6v-41.1c0-2.2,1.6-3.2,3.6-2.4
			l59.9,26.2c2,0.8,3.6,3.4,3.6,5.6V-69.1z"/>
		<path class="st15" d="M1398.3-109.2v29.4l-46.8-18.9c0-3,2.2-6.6,4.6-8.1c1.8-1.2,6.2-0.8,8.5-0.6c6.5,0.6,13.1,1,17.1-6.2"/>
		<path class="st17" d="M1397.5-80.8c0.8,0.2,1.2,1,1,1.6c-0.2,0.6-1,0.8-1.8,0.4c-6.7-2.6-13.5-5.2-20.2-7.9c-5-2-10.1-4-15.1-6
			c-3-1.2-6.4-2-9.1-3.6c-1.8-1-2.8-5.6,0.2-5.6c1.4,0,1.6,1.6,2,2.6c1.2,2.6,4.2,3.2,6.7,4.2c2.8,1,5.6,2.2,8.3,3.2
			c6,2.4,11.9,4.6,17.9,7C1390.3-83.6,1393.9-82.2,1397.5-80.8z"/>
		<path class="st17" d="M1398.3-109.2c0.3-1.2-3.2-3.2-7.8-4.5c-4.6-1.3-8.7-1.5-9-0.3c-0.3,1.2,3.2,3.2,7.8,4.5
			C1393.9-108.2,1398-108,1398.3-109.2z"/>
		<path class="st11" d="M1303-59.2c-2,0-4.2-3.6-5.2,0.4c-0.6,2.4,1.8,5,4,5.4"/>
	</g>
</g>
</svg>
