<svg width="238" height="290" viewBox="0 0 238 290" fill="none" xmlns="http://www.w3.org/2000/svg">
<g clip-path="url(#clip0)">
<g opacity="0.2">
<path opacity="0.2" d="M192.443 290C217.604 290 238 287.524 238 284.471C238 281.417 217.604 278.941 192.443 278.941C167.283 278.941 146.887 281.417 146.887 284.471C146.887 287.524 167.283 290 192.443 290Z" fill="#0E1026"/>
</g>
<path d="M9.50037 284.43C9.50037 278.348 14.4348 273.412 20.5159 273.412H102.907C108.988 273.412 113.922 278.348 113.922 284.43" fill="#D8D6D6"/>
<path d="M100.941 174.09H21.2325V280.293H100.941V174.09Z" fill="#D8D6D6"/>
<path d="M0 185.374C0 188.22 2.31366 190.535 5.15967 190.535H112.673C115.519 190.535 117.833 188.22 117.833 185.374V5.16065C117.833 2.3141 115.519 0 112.673 0L5.15967 0C2.31366 0 0 2.3141 0 5.16065V185.374Z" fill="#3A1E6B"/>
<path opacity="0.3" d="M112.673 190.535C115.519 190.535 117.833 188.22 117.833 185.374V5.16065C117.833 2.3141 115.519 0 112.673 0L5.15967 0" fill="url(#paint0_linear)"/>
<g opacity="0.3">
<path opacity="0.3" d="M52.0266 40.2408C52.0266 41.3057 51.1667 42.1863 50.0815 42.1863H20.3725C19.3078 42.1863 18.4274 41.3262 18.4274 40.2408V22.6086C18.4274 21.5437 19.2873 20.6631 20.3725 20.6631H50.102C51.1667 20.6631 52.0471 21.5232 52.0471 22.6086V40.2408H52.0266Z" fill="white"/>
</g>
<g opacity="0.3">
<path opacity="0.3" d="M100.409 40.2408C100.409 41.3057 99.5488 42.1863 98.4636 42.1863H68.7546C67.6899 42.1863 66.8094 41.3262 66.8094 40.2408V22.6086C66.8094 21.5437 67.6694 20.6631 68.7546 20.6631H98.4841C99.5488 20.6631 100.429 21.5232 100.429 22.6086V40.2408H100.409Z" fill="white"/>
</g>
<g opacity="0.3">
<path opacity="0.3" d="M52.0266 72.5768C52.0266 73.6417 51.1667 74.5223 50.0815 74.5223H20.3725C19.3078 74.5223 18.4274 73.6622 18.4274 72.5768V54.9446C18.4274 53.8797 19.2873 52.9991 20.3725 52.9991H50.102C51.1667 52.9991 52.0471 53.8592 52.0471 54.9446V72.5768H52.0266Z" fill="white"/>
</g>
<g opacity="0.3">
<path opacity="0.3" d="M100.409 72.5768C100.409 73.6417 99.5488 74.5223 98.4636 74.5223H68.7546C67.6899 74.5223 66.8094 73.6622 66.8094 72.5768V54.9446C66.8094 53.8797 67.6694 52.9991 68.7546 52.9991H98.4841C99.5488 52.9991 100.429 53.8592 100.429 54.9446V72.5768H100.409Z" fill="white"/>
</g>
<g opacity="0.3">
<path opacity="0.3" d="M55.3845 156.908C55.3845 157.932 54.5655 158.751 53.5418 158.751H20.2701C19.2464 158.751 18.4274 157.932 18.4274 156.908V116.36C18.4274 115.336 19.2464 114.517 20.2701 114.517H53.5418C54.5655 114.517 55.3845 115.336 55.3845 116.36V156.908Z" fill="white"/>
</g>
<g opacity="0.3">
<path opacity="0.3" d="M23.1366 80.1539H18.4274V84.8641H23.1366V80.1539Z" fill="white"/>
</g>
<g opacity="0.5">
<path opacity="0.5" d="M31.8589 80.1539H27.1497V84.8641H31.8589V80.1539Z" fill="white"/>
</g>
<g opacity="0.7">
<path opacity="0.7" d="M23.1366 88.755H18.4274V93.4651H23.1366V88.755Z" fill="white"/>
</g>
<g opacity="0.3">
<path opacity="0.3" d="M23.1366 167.701H18.4274V172.411H23.1366V167.701Z" fill="white"/>
</g>
<g opacity="0.5">
<path opacity="0.5" d="M30.7123 167.701H26.0031V172.411H30.7123V167.701Z" fill="white"/>
</g>
<g opacity="0.7">
<path opacity="0.7" d="M38.37 167.701H33.6608V172.411H38.37V167.701Z" fill="white"/>
</g>
<g opacity="0.3">
<path opacity="0.3" d="M42.731 23.653H26.0644C25.7573 23.653 25.5116 23.8987 25.5116 24.2059V33.9947C25.5116 34.3019 25.7573 34.5477 26.0644 34.5477H31.2855L30.5484 37.8447H29.8113V38.3158H38.8612V37.8447H38.206L37.4689 34.5477H42.7719C43.079 34.5477 43.3247 34.3019 43.3247 33.9947V24.2059C43.3043 23.8987 43.0586 23.653 42.731 23.653Z" fill="white"/>
</g>
<g opacity="0.3">
<path opacity="0.3" d="M42.6696 24.3903H26.0645V33.5443H42.6696V24.3903Z" fill="white"/>
</g>
<g opacity="0.3">
<path opacity="0.3" d="M95.0445 22.8543H72.1945C71.7645 22.8543 71.4369 23.2024 71.4369 23.612V37.0256C71.4369 37.4557 71.785 37.7833 72.1945 37.7833H79.3402L78.3165 39.2988H77.2927V39.9336H89.7005V39.3192H88.7996L87.7759 37.8038H95.024C95.454 37.8038 95.7815 37.4557 95.7815 37.0461V23.6325C95.802 23.2024 95.454 22.8543 95.0445 22.8543Z" fill="white"/>
</g>
<g opacity="0.3">
<path opacity="0.3" d="M94.9215 23.8782H72.1943V36.4317H94.9215V23.8782Z" fill="white"/>
</g>
<g opacity="0.3">
<path opacity="0.3" d="M96.621 54.535H70.5155C70.0651 54.535 69.6965 54.9036 69.6965 55.3542V69.5869C69.6965 70.0374 70.0651 70.4061 70.5155 70.4061H80.8963L80.9372 72.0034H76.8423V72.6792H90.0076V72.0034H86.6293L86.6702 70.4061H96.621C97.0714 70.4061 97.44 70.0374 97.44 69.5869V55.3542C97.44 54.9036 97.0714 54.535 96.621 54.535Z" fill="white"/>
</g>
<g opacity="0.3">
<path opacity="0.3" d="M97.4603 55.6204H69.7783V68.9316H97.4603V55.6204Z" fill="white"/>
</g>
<g opacity="0.3">
<path opacity="0.3" d="M46.2324 56.2347H24.2219C23.8329 56.2347 23.5258 56.5419 23.5258 56.931V68.9316C23.5258 69.3207 23.8329 69.6279 24.2219 69.6279H32.9851L33.0261 70.9795H29.5863V71.5529H40.6837V70.9795H37.8172L37.8582 69.6279H46.2529C46.6419 69.6279 46.949 69.3207 46.949 68.9316V56.931C46.9081 56.5419 46.6009 56.2347 46.2324 56.2347Z" fill="white"/>
</g>
<g opacity="0.3">
<path opacity="0.3" d="M46.9284 57.1563H23.587V68.3786H46.9284V57.1563Z" fill="white"/>
</g>
<g opacity="0.3">
<path opacity="0.3" d="M44.2462 127.972C44.2462 127.583 43.9391 127.276 43.55 127.276H29.8933C29.5043 127.276 29.1971 127.583 29.1971 127.972V155.884C29.1971 156.274 29.5043 156.581 29.8933 156.581H43.5296C43.9186 156.581 44.2257 156.274 44.2257 155.884V127.972H44.2462Z" fill="white"/>
</g>
<g opacity="0.3">
<path opacity="0.3" d="M36.7114 153.755C39.9794 153.755 42.6287 151.105 42.6287 147.836C42.6287 144.568 39.9794 141.918 36.7114 141.918C33.4434 141.918 30.7942 144.568 30.7942 147.836C30.7942 151.105 33.4434 153.755 36.7114 153.755Z" fill="white"/>
</g>
<g opacity="0.3">
<path opacity="0.3" d="M36.7115 149.413C37.5822 149.413 38.288 148.707 38.288 147.836C38.288 146.965 37.5822 146.259 36.7115 146.259C35.8407 146.259 35.1349 146.965 35.1349 147.836C35.1349 148.707 35.8407 149.413 36.7115 149.413Z" fill="white"/>
</g>
<g opacity="0.3">
<path opacity="0.3" d="M36.7115 138.744C39.1766 138.744 41.175 136.745 41.175 134.279C41.175 131.814 39.1766 129.815 36.7115 129.815C34.2463 129.815 32.2479 131.814 32.2479 134.279C32.2479 136.745 34.2463 138.744 36.7115 138.744Z" fill="white"/>
</g>
<g opacity="0.3">
<path opacity="0.3" d="M36.7115 135.467C37.3673 135.467 37.899 134.935 37.899 134.279C37.899 133.623 37.3673 133.092 36.7115 133.092C36.0556 133.092 35.5239 133.623 35.5239 134.279C35.5239 134.935 36.0556 135.467 36.7115 135.467Z" fill="white"/>
</g>
<g opacity="0.3">
<path opacity="0.3" d="M102.088 156.908C102.088 157.932 101.269 158.751 100.245 158.751H66.9939C65.9701 158.751 65.1511 157.932 65.1511 156.908V116.36C65.1511 115.336 65.9701 114.517 66.9939 114.517H100.266C101.289 114.517 102.108 115.336 102.108 116.36V156.908H102.088Z" fill="white"/>
</g>
<g opacity="0.3">
<path opacity="0.3" d="M93.2426 119.268C93.2426 118.756 92.8331 118.347 92.3212 118.347H74.5285C74.0167 118.347 73.6072 118.756 73.6072 119.268V155.659C73.6072 156.171 74.0167 156.581 74.5285 156.581H92.3212C92.8331 156.581 93.2426 156.171 93.2426 155.659V119.268Z" fill="white"/>
</g>
<g opacity="0.3">
<path opacity="0.3" d="M83.4351 152.915C87.6982 152.915 91.1541 149.458 91.1541 145.195C91.1541 140.931 87.6982 137.474 83.4351 137.474C79.172 137.474 75.7161 140.931 75.7161 145.195C75.7161 149.458 79.172 152.915 83.4351 152.915Z" fill="white"/>
</g>
<g opacity="0.3">
<path opacity="0.3" d="M83.4351 147.263C84.5772 147.263 85.5031 146.337 85.5031 145.194C85.5031 144.052 84.5772 143.126 83.4351 143.126C82.293 143.126 81.3672 144.052 81.3672 145.194C81.3672 146.337 82.293 147.263 83.4351 147.263Z" fill="white"/>
</g>
<g opacity="0.3">
<path opacity="0.3" d="M83.4351 133.317C86.6466 133.317 89.25 130.713 89.25 127.501C89.25 124.289 86.6466 121.685 83.4351 121.685C80.2236 121.685 77.6202 124.289 77.6202 127.501C77.6202 130.713 80.2236 133.317 83.4351 133.317Z" fill="white"/>
</g>
<g opacity="0.3">
<path opacity="0.3" d="M83.4353 129.057C84.2947 129.057 84.9914 128.36 84.9914 127.501C84.9914 126.641 84.2947 125.944 83.4353 125.944C82.5758 125.944 81.8792 126.641 81.8792 127.501C81.8792 128.36 82.5758 129.057 83.4353 129.057Z" fill="white"/>
</g>
<g opacity="0.3">
<path opacity="0.3" d="M44.2462 124.45C44.2462 124.839 43.9391 125.146 43.55 125.146H29.8933C29.5043 125.146 29.1971 124.839 29.1971 124.45V117.876C29.1971 117.487 29.5043 117.18 29.8933 117.18H43.5296C43.9186 117.18 44.2257 117.487 44.2257 117.876V124.45H44.2462Z" fill="white"/>
</g>
<g opacity="0.3">
<path opacity="0.3" d="M36.5271 124.163C38.1328 124.163 39.4345 122.861 39.4345 121.255C39.4345 119.649 38.1328 118.347 36.5271 118.347C34.9213 118.347 33.6196 119.649 33.6196 121.255C33.6196 122.861 34.9213 124.163 36.5271 124.163Z" fill="white"/>
</g>
<path d="M179.544 34.5682C178.848 37.6605 179.401 40.6914 180.179 43.8042C181.182 47.8794 182.615 52.5077 186.158 52.2414C189.577 51.9752 187.632 55.8867 189.024 59.88C190.703 64.754 196.764 59.1633 201.227 58.9175C198.422 51.197 196.845 44.2957 194.634 36.4113" fill="#F5A99C"/>
<path d="M195.187 33.749C194.757 33.1552 194.163 32.7046 193.385 32.3974C192.628 32.0903 191.931 31.7012 191.44 31.0049C190.928 30.2472 190.519 29.6123 189.495 29.5304C188.348 29.428 187.263 29.9605 186.219 30.3291C184.888 30.8001 183.271 30.6158 181.94 30.2267C179.974 29.6533 176.657 30.0424 175.695 32.3155C174.896 34.1586 176.227 37.21 177.476 38.6025C178.398 39.606 178.807 40.4456 181.162 40.2613C182.083 40.1794 182.452 39.6265 183.291 40.1384C183.987 40.5685 184.151 42.2273 184.581 42.8416C185.502 44.1932 186.772 45.3605 189.638 44.7462C191.481 44.3571 194.736 43.9884 195.944 42.3297C197.132 40.7118 196.436 37.6195 195.985 35.6331C195.842 34.8959 195.576 34.2815 195.187 33.749Z" fill="#1C2044"/>
<path d="M180.568 42.002L179.605 45.9544L181.366 46.5278" fill="#F5A99C"/>
<path d="M183.967 41.5514C184.745 41.3466 185.932 41.3057 186.403 42.3911C186.854 43.4765 186.158 44.0089 185.216 44.2547" fill="#F5A99C"/>
<path d="M205.752 59.5114H187.673L187.059 53.6339H202.21L205.752 59.5114Z" fill="#6F367B"/>
<path d="M150.142 83.8196C150.122 83.3281 149.487 77.7784 149.323 77.1436C149.16 76.4678 147.829 76.8159 147.563 76.1606C146.232 77.1845 143.816 77.8808 143.038 79.4781C142.587 80.3997 143.672 81.526 144.143 82.3247C144.942 83.7172 146.006 84.905 147.03 86.1542" fill="#F5A99C"/>
<path d="M150.122 75.9149C150.306 76.1401 151.33 76.3244 151.146 76.4883L144.307 82.038C144.123 82.1814 143.816 82.1404 143.652 81.9151L132.718 68.2558C132.534 68.0305 132.78 67.0066 132.943 66.8428L138.472 64.8563C138.656 64.713 138.963 64.7539 139.127 64.9792L150.122 75.9149Z" fill="#212356"/>
<path d="M152.456 77.4713C152.64 77.6965 152.64 77.9832 152.476 78.1266L144.983 81.5056C144.819 81.6489 144.532 81.5875 144.348 81.3622L132.984 67.4571C132.8 67.2319 132.8 66.9247 132.964 66.8018L140.458 63.4228C140.621 63.2795 140.908 63.3409 141.092 63.5662L152.456 77.4713Z" fill="#0E1026"/>
<path d="M152.456 77.4712C152.64 77.6965 152.64 77.9832 152.476 78.1266L144.983 81.5056C144.819 81.6489 144.532 81.5875 144.348 81.3622L132.984 67.4571C132.8 67.2319 132.8 66.9247 132.964 66.8018L140.458 63.4228C140.744 63.2999 140.908 63.3409 141.092 63.5662L152.456 77.4712Z" fill="#0E1026"/>
<g opacity="0.5">
<path opacity="0.5" d="M139.802 68.993L137.612 70.0784L136.445 68.6449L138.635 67.5595L139.802 68.993Z" fill="white"/>
</g>
<g opacity="0.5">
<path opacity="0.5" d="M142.956 67.3752L140.765 68.4606L139.598 67.0271L141.789 65.9417L142.956 67.3752Z" fill="white"/>
</g>
<g opacity="0.5">
<path opacity="0.5" d="M142.3 71.983L140.11 73.0684L138.943 71.6143L141.133 70.5494L142.3 71.983Z" fill="white"/>
</g>
<path d="M145.31 70.447L143.119 71.5119L141.973 70.0784L144.143 69.0135L145.31 70.447Z" fill="white"/>
<g opacity="0.5">
<path opacity="0.5" d="M146.436 77.1846L144.246 78.2699L141.543 74.9319L143.734 73.8465L146.436 77.1846Z" fill="white"/>
</g>
<g opacity="0.5">
<path opacity="0.5" d="M149.528 75.5053L147.337 76.5702L144.635 73.2321L146.825 72.1672L149.528 75.5053Z" fill="white"/>
</g>
<path d="M146.948 83.1643C146.846 82.98 146.764 82.7752 146.682 82.5909C145.781 80.5431 144.45 78.659 142.71 77.2255C141.297 76.0582 139.516 75.5462 138.144 74.2766C137.018 73.2321 136.322 71.0409 134.295 71.7167C132.882 72.1877 135.216 74.7066 135.707 75.321C136.342 76.0992 136.936 76.7545 137.243 77.676C137.714 79.0686 137.816 80.2154 138.779 81.4032C140.499 83.5125 142.894 84.5774 144.88 86.3181L146.948 83.1643Z" fill="#F5A99C"/>
<path d="M223.729 278.348C222.767 279.74 223.442 283.385 222.501 284.225C222.173 284.532 211.424 284.778 208.168 284.655C208.475 282.28 212.243 282.669 213.799 281.358C215.58 279.863 217.464 276.361 217.177 273.842" fill="#0E1026"/>
<path d="M207.759 284.204C207.759 284.532 208.025 284.798 208.352 284.798H222.398C222.726 284.798 222.992 284.532 222.992 284.204C222.992 283.877 222.726 283.611 222.398 283.611H208.352C208.025 283.611 207.759 283.877 207.759 284.204Z" fill="#6F367B"/>
<path d="M210.727 127.542C219.081 138.478 217.238 166.759 216.624 200.426C216.297 218.365 227.455 233.581 224.179 278.266C223.872 282.321 215.171 281.809 214.618 277.59C205.445 241.998 192.546 161.844 187.57 133.563" fill="#131535"/>
<path d="M161.813 70.2013C158.844 69.8326 155.261 68.0715 152.538 67.9691C150.593 67.9076 145.228 68.7473 144.389 69.1773C143.386 69.6893 142.915 70.6518 144.061 70.9999C144.757 71.2047 148.873 70.7951 149.856 70.7747C148.832 72.7611 151.473 74.6656 153.193 75.0957C155.609 75.6896 158.148 75.321 160.584 75.1571" fill="#F5A99C"/>
<path d="M174.18 66.556C168.815 65.9826 160.892 66.3308 159.192 72.2696C157.82 77.0617 163.492 77.8194 166.809 78.9047C171.58 80.4407 191.522 86.6252 189.945 75.9558C189.536 73.1707 187.018 69.8326 184.458 68.6654C182.001 67.539 178.541 67.1909 175.859 66.7813C175.326 66.6994 174.774 66.6175 174.18 66.556Z" fill="#53285E"/>
<path d="M176.207 284.491C176.289 284.266 176.35 284 176.371 283.672C176.473 282.423 176.35 280.518 176.616 279.351L169.552 279.167C167.136 281.583 164.352 281.849 161.915 282.075C158.394 282.382 157.779 283.385 157.698 284.512H176.207V284.491Z" fill="#0E1026"/>
<path d="M157.493 284.204C157.493 284.532 157.759 284.798 158.087 284.798H176.023C176.35 284.798 176.616 284.532 176.616 284.204C176.616 283.877 176.35 283.611 176.023 283.611H158.087C157.759 283.611 157.493 283.877 157.493 284.204Z" fill="#6F367B"/>
<path d="M197.214 132.15C202.722 145.563 196.784 171.53 188.43 203.477C183.967 220.495 189.086 235.957 178.459 278.43C177.497 282.259 168.774 282.075 168.672 277.569C168.078 240.298 174.221 158.035 175.961 129.242" fill="#1C2044"/>
<path d="M210.768 59.6137C205.261 55.2108 177.313 57.1358 174.098 58.5488C172.644 59.1837 172.624 62.9313 172.48 64.16C172.01 68.522 171.989 72.9454 171.969 77.3279C171.969 81.5875 173.443 84.8026 173.852 88.8984C174.385 94.1 174.139 99.404 173.873 104.626C173.648 109.377 172.542 113.76 172.214 118.367C171.989 121.521 171.928 127.951 173.054 130.839C175.695 137.679 181.182 139.01 188.082 140.71C191.891 141.652 195.003 141.283 198.77 141.058C204.749 140.71 213.307 140.689 216.01 134.075C218.61 127.747 215.969 119.105 214.372 112.756C212.714 106.162 213.205 78.9457 213.348 72.4949C213.43 68.9521 213.799 64.1191 211.854 60.9449C211.546 60.4329 211.219 59.9824 210.768 59.6137Z" fill="#0E1026"/>
<path d="M175.531 58.385C169.942 57.1973 168.959 68.9111 168.406 72.4335C167.218 79.8468 167.321 87.6083 169.716 94.7963C169.655 93.6905 164.782 89.2875 162.448 87.5059C158.271 84.2907 150.04 79.4372 145.208 84.2907C141.707 87.8131 146.293 91.233 148.689 93.7724C150.859 96.0865 162.448 106.387 168.201 109.418C175.511 113.268 181.305 109.152 183.742 101.575C185.523 96.0455 185.011 75.8944 183.762 69.9351C182.39 63.4433 179.196 59.1632 175.531 58.385Z" fill="#6F367B"/>
<path d="M141.584 64.16L141.092 63.5457C140.908 63.3204 140.744 63.2794 140.458 63.4023L132.964 66.7813C132.78 66.8837 132.8 67.2114 132.984 67.4366L133.476 68.051L141.584 64.16Z" fill="#212356"/>
<path d="M136.547 66.1669L138.492 65.2659L138.267 64.8972L136.301 65.8188L136.547 66.1669Z" fill="#0E1026"/>
</g>
<defs>
<linearGradient id="paint0_linear" x1="6.834" y1="129.599" x2="78.7161" y2="82.9149" gradientUnits="userSpaceOnUse">
<stop stop-color="white"/>
<stop offset="1" stop-color="#3A1E6B"/>
</linearGradient>
<clipPath id="clip0">
<rect width="238" height="290" fill="white"/>
</clipPath>
</defs>
</svg>
