<svg width="262" height="299" viewBox="0 0 262 299" fill="none" xmlns="http://www.w3.org/2000/svg">
<g clip-path="url(#clip0)">
<path d="M0 81.0265C0 88.0535 5.68089 93.7615 12.6745 93.7615H174.682C181.675 93.7615 187.356 88.0535 187.356 81.0265V48.9843C187.356 41.9573 181.675 36.2493 174.682 36.2493H12.6745C5.68089 36.2493 0 41.9573 0 48.9843V81.0265Z" fill="white"/>
<path d="M97.141 174.879H96.4393C96.4393 173.81 98.001 172.946 99.0421 172.946H160.695C161.758 172.946 162.618 173.81 162.618 174.879" fill="#3A1E6B"/>
<path d="M55.4284 172.923C55.6321 173.901 56.6053 174.697 57.6011 174.697H82.2485C83.2444 174.697 83.9007 173.901 83.697 172.923L73.4669 122.711C73.2632 121.733 72.29 120.937 71.2941 120.937H46.6467C45.6509 120.937 44.9945 121.733 45.1982 122.711L55.4284 172.923Z" fill="#3A1E6B"/>
<path d="M24.8964 156.891C25.0095 157.891 25.8922 158.71 26.8881 158.71H106.986C107.982 158.71 108.707 157.891 108.616 156.891L103.478 106.724C103.365 105.723 102.482 104.905 101.487 104.905H21.3656C20.3698 104.905 19.6455 105.723 19.736 106.724L24.8964 156.891Z" fill="#3A1E6B"/>
<path d="M29.423 156.891C29.5361 157.891 30.4188 158.71 31.4147 158.71H108.095C109.091 158.71 109.816 157.891 109.725 156.891L104.587 106.724C104.474 105.723 103.591 104.905 102.596 104.905H25.8922C24.8964 104.905 24.1721 105.723 24.2626 106.724L29.423 156.891Z" fill="#0E1026"/>
<g opacity="0.3">
<path opacity="0.3" d="M102.573 104.905H25.8922C24.8964 104.905 24.1721 105.723 24.2626 106.724L29.423 156.891C29.5361 157.891 30.4188 158.71 31.4147 158.71" fill="url(#paint0_linear)"/>
</g>
<path d="M50.5848 174.879C50.5848 173.81 51.4449 172.946 52.5086 172.946H88.4046C89.4684 172.946 90.3284 173.81 90.3284 174.879" fill="#3A1E6B"/>
<path d="M227.281 174.856H7.46887V298.841H227.281V174.856Z" fill="#D8D6D6"/>
<path d="M43.976 241.306C43.976 248.333 49.6568 254.041 56.6504 254.041H235.7C242.694 254.041 248.375 248.333 248.375 241.306V209.264C248.375 202.237 242.694 196.529 235.7 196.529H56.6504C49.6568 196.529 43.976 202.237 43.976 209.264V241.306Z" fill="white"/>
<g opacity="0.3">
<path opacity="0.3" d="M151.822 91.8058C151.822 92.8064 152.615 93.6024 153.61 93.6024H158.363C159.359 93.6024 160.151 92.8064 160.151 91.8058V60.3321C160.151 59.3315 159.359 58.5356 158.363 58.5356H153.61C152.615 58.5356 151.822 59.3315 151.822 60.3321V91.8058Z" fill="#6F367B"/>
</g>
<g opacity="0.4">
<path opacity="0.4" d="M141.389 91.8058C141.389 92.8064 142.181 93.6024 143.177 93.6024H147.929C148.925 93.6024 149.718 92.8064 149.718 91.8058V60.3321C149.718 59.3315 148.925 58.5356 147.929 58.5356H143.177C142.181 58.5356 141.389 59.3315 141.389 60.3321V91.8058Z" fill="#6F367B"/>
</g>
<g opacity="0.3">
<path opacity="0.3" d="M130.977 91.8058C130.977 92.8064 131.77 93.6024 132.765 93.6024H137.518C138.514 93.6024 139.306 92.8064 139.306 91.8058V60.3321C139.306 59.3315 138.514 58.5356 137.518 58.5356H132.765C131.77 58.5356 130.977 59.3315 130.977 60.3321V91.8058Z" fill="#6F367B"/>
</g>
<g opacity="0.5">
<path opacity="0.5" d="M120.566 91.8058C120.566 92.8064 121.358 93.6024 122.354 93.6024H127.107C128.103 93.6024 128.895 92.8064 128.895 91.8058V60.3321C128.895 59.3315 128.103 58.5356 127.107 58.5356H122.354C121.358 58.5356 120.566 59.3315 120.566 60.3321V91.8058Z" fill="#6F367B"/>
</g>
<g opacity="0.3">
<path opacity="0.3" d="M103.184 93.7616C104.18 93.7616 104.972 92.9656 104.972 91.965V87.1894C104.972 86.1888 104.18 85.3928 103.184 85.3928H73.9873C72.9915 85.3928 72.1993 86.1888 72.1993 87.1894V91.965C72.1993 92.9656 72.9915 93.7616 73.9873 93.7616H103.184Z" fill="#6F367B"/>
</g>
<g opacity="0.4">
<path opacity="0.4" d="M104.995 85.3928C105.991 85.3928 106.783 84.5969 106.783 83.5963V78.8206C106.783 77.82 105.991 77.0241 104.995 77.0241H75.798C74.8022 77.0241 74.01 77.82 74.01 78.8206V83.5963C74.01 84.5969 74.8022 85.3928 75.798 85.3928H104.995Z" fill="#6F367B"/>
</g>
<g opacity="0.5">
<path opacity="0.5" d="M103.184 77.0241C104.18 77.0241 104.972 76.2282 104.972 75.2275V70.4519C104.972 69.4513 104.18 68.6554 103.184 68.6554H73.9873C72.9915 68.6554 72.1993 69.4513 72.1993 70.4519V75.2275C72.1993 76.2282 72.9915 77.0241 73.9873 77.0241H103.184Z" fill="#6F367B"/>
</g>
<g opacity="0.3">
<path opacity="0.3" d="M106.126 90.737C105.945 91.7149 106.579 92.6472 107.552 92.8292L112.215 93.7388C113.188 93.9207 114.116 93.284 114.297 92.3061L120.227 61.401C120.408 60.4231 119.774 59.4907 118.801 59.3088L114.138 58.3991C113.165 58.2172 112.237 58.854 112.056 59.8318L106.126 90.737Z" fill="#6F367B"/>
</g>
<g opacity="0.2">
<g opacity="0.2">
<path opacity="0.2" d="M214.018 84.3013C223.368 84.3013 230.948 76.6855 230.948 67.2909C230.948 57.8964 223.368 50.2806 214.018 50.2806C204.668 50.2806 197.089 57.8964 197.089 67.2909C197.089 76.6855 204.668 84.3013 214.018 84.3013Z" fill="#9C91C1"/>
</g>
<g opacity="0.2">
<path opacity="0.2" d="M214.539 0H213.633V57.626H214.539V0Z" fill="#9C91C1"/>
</g>
</g>
<g opacity="0.3">
<g opacity="0.3">
<path opacity="0.3" d="M245.546 0H244.64V81.1402H245.546V0Z" fill="#9C91C1"/>
</g>
<g opacity="0.3">
<path opacity="0.3" d="M245.093 112.932C254.443 112.932 262.023 105.317 262.023 95.922C262.023 86.5274 254.443 78.9116 245.093 78.9116C235.743 78.9116 228.164 86.5274 228.164 95.922C228.164 105.317 235.743 112.932 245.093 112.932Z" fill="#9C91C1"/>
</g>
</g>
<path d="M187.945 131.444L200.959 131.807L204.738 102.449L191.068 112.932L187.945 131.444Z" fill="#F5A99C"/>
<path d="M186.111 129.874H204.602L205.576 122.211H187.085L186.111 129.874Z" fill="#0E1026"/>
<path d="M202.52 96.4678C204.354 103.154 206.345 118.345 190.57 117.185C183.35 116.662 184.572 96.4905 188.126 91.8286" fill="#F5A99C"/>
<path d="M185.659 100.698L184.391 105.61L185.795 105.792" fill="#F5A99C"/>
<path d="M202.634 92.3971C202.588 92.3971 202.566 92.3743 202.52 92.3743C201.411 92.1697 201.162 90.5778 199.985 90.3049C198.175 89.8728 196.319 90.2367 194.486 90.0775C193.399 89.9865 192.29 90.0547 191.227 90.0775C189.439 90.1002 187.379 89.9183 185.704 90.646C182.558 91.9877 183.079 97.2637 185.138 99.3786C186.338 100.607 187.65 99.5605 188.669 100.561C189.642 101.516 189.19 103.404 189.303 104.609C189.665 104.655 190.095 104.655 190.457 104.609C190.48 104.063 190.548 103.085 191.023 102.699C191.996 101.857 193.218 102.699 193.49 103.699C193.784 104.791 193.807 104.7 194.35 105.883C194.984 107.27 203.878 108.475 204.399 106.451C205.304 103.063 206.164 99.2194 205.576 95.7173C205.395 94.6712 205.033 93.5114 204.105 92.8519C203.629 92.4653 203.177 92.488 202.634 92.3971Z" fill="#0E1026"/>
<path d="M99.7899 298.454C99.8804 298.204 99.9483 297.908 99.971 297.545L99.9031 291.973L93.0679 291.859C90.3972 294.543 86.5496 294.861 83.8336 295.089C79.9407 295.43 79.3975 297.203 79.307 298.454H99.7899Z" fill="#0E1026"/>
<path d="M79.1024 298.136C79.1024 298.5 79.3966 298.795 79.7588 298.795H99.5853C99.9474 298.795 100.242 298.5 100.242 298.136C100.242 297.772 99.9474 297.476 99.5853 297.476H79.7588C79.3966 297.454 79.1024 297.772 79.1024 298.136Z" fill="#6F367B"/>
<path d="M149.583 298.454C149.673 298.204 149.741 297.908 149.764 297.545L149.696 291.973L142.861 291.859C140.19 294.543 136.342 294.861 133.626 295.089C129.733 295.43 129.19 297.203 129.1 298.454H149.583Z" fill="#0E1026"/>
<path d="M128.895 298.136C128.895 298.5 129.189 298.795 129.552 298.795H149.378C149.74 298.795 150.034 298.5 150.034 298.136C150.034 297.772 149.74 297.476 149.378 297.476H129.552C129.189 297.454 128.895 297.772 128.895 298.136Z" fill="#6F367B"/>
<path d="M205.395 192.936L134.327 196.574V292.314H152.433L152.275 214.312H204.489" fill="#131535"/>
<path d="M209.899 209.15C213.226 203.828 221.057 168.421 223.841 155.435C225.267 148.75 223.728 126.827 215.353 126.986C204.942 127.168 177.171 127.032 177.171 127.032C161.215 126.736 170.291 182.293 145.87 210.128" fill="#1C2044"/>
<path d="M177.33 193.163C177.33 193.163 118.144 192.935 118.031 192.935C108.299 192.708 105.357 197.711 102.935 204.852L83.4932 292.542H101.305L123.486 214.312H176.447" fill="#131535"/>
<path d="M219.088 220.225L242.966 138.084C243.667 135.673 242.196 133.718 239.706 133.718H193.875C191.385 133.718 188.782 135.673 188.08 138.084L164.203 220.225" fill="#6F367B"/>
<path d="M122.399 222.613C122.399 225.114 124.436 227.161 126.926 227.161H212.999C215.489 227.161 218.024 225.182 218.658 222.749L220.536 215.404C221.147 212.97 219.631 210.992 217.141 210.992H126.926C124.436 210.992 122.399 213.039 122.399 215.54V222.613Z" fill="#5B2C66"/>
<path d="M121.177 174.856L124.097 170.513C140.755 171.764 158.974 149.455 154.063 174.856H121.177Z" fill="#F5A99C"/>
<path d="M112.033 174.856C111.807 172.855 116.039 169.58 117.714 169.08C119.231 168.625 123.803 168.898 126.519 170.899L128.646 174.879H112.033V174.856Z" fill="#F5A99C"/>
<path d="M175.406 127.145C169.318 126.85 155.828 156.322 153.791 161.121C152.343 164.509 153.905 163.895 153.588 167.625C153.384 170.103 153.701 172.65 153.814 175.129C168.118 178.995 176.628 159.165 180.114 149.045C180.114 149.045 188.669 127.759 175.406 127.145Z" fill="#0E1026"/>
<path d="M214.765 226.524C203.539 226.524 192.29 226.524 181.064 226.524C178.461 226.524 175.836 226.524 173.233 226.524C171.49 226.524 169.816 226.501 168.096 226.752C163.184 227.479 158.816 230.64 156.258 234.87C154.538 237.713 153.882 240.965 153.882 244.239C153.882 256.178 153.882 268.14 153.882 280.079C153.882 282.444 153.972 284.741 154.674 287.038C156.145 291.768 159.789 295.702 164.316 297.613C168.571 299.387 173.392 298.932 177.918 298.932C191.023 298.932 204.105 298.932 217.209 298.932C218.25 298.932 219.269 298.932 220.31 298.932C221.758 298.932 221.758 296.658 220.31 296.658C209.401 296.658 198.492 296.658 187.583 296.658C182.354 296.658 177.126 296.658 171.898 296.658C169.295 296.658 166.783 296.317 164.406 295.157C159.902 292.951 156.779 288.448 156.236 283.445C156.077 281.876 156.168 280.239 156.168 278.669C156.168 275.69 156.168 272.711 156.168 269.732C156.168 262.705 156.168 255.701 156.168 248.674C156.168 247.014 156.168 245.331 156.168 243.671C156.168 239.327 158.001 235.302 161.215 232.391C163.954 229.913 167.575 228.775 171.196 228.775C172.939 228.775 174.704 228.775 176.447 228.775C188.895 228.775 201.321 228.775 213.769 228.775C214.108 228.775 214.425 228.775 214.765 228.775C216.213 228.798 216.213 226.524 214.765 226.524Z" fill="#8C8C8C"/>
<path d="M181.268 226.524C170.042 226.524 158.793 226.524 147.567 226.524C144.965 226.524 142.339 226.524 139.736 226.524C137.994 226.524 136.319 226.501 134.599 226.752C129.687 227.479 125.319 230.64 122.762 234.87C121.041 237.713 120.385 240.965 120.385 244.239C120.385 256.179 120.385 268.14 120.385 280.079C120.385 282.444 120.476 284.741 121.177 287.038C122.648 291.768 126.292 295.703 130.819 297.613C134.553 299.182 138.469 298.932 142.407 298.932C155.557 298.932 168.684 298.932 181.834 298.932C191.476 298.932 201.095 298.932 210.736 298.932C210.759 298.932 210.782 298.932 210.804 298.932C212.253 298.932 212.253 296.658 210.804 296.658C201.819 296.658 192.811 296.658 183.826 296.658C170.404 296.658 156.983 296.658 143.561 296.658C140.257 296.658 136.636 296.976 133.399 296.112C128.556 294.816 124.731 290.904 123.26 286.151C122.603 284.059 122.626 281.944 122.626 279.784C122.626 267.89 122.626 255.974 122.626 244.08C122.626 240.533 123.622 237.144 125.862 234.324C128.646 230.822 132.946 228.798 137.405 228.798C141.796 228.798 146.187 228.798 150.578 228.798C160.808 228.798 171.015 228.798 181.245 228.798C182.717 228.798 182.717 226.524 181.268 226.524Z" fill="#8C8C8C"/>
<path d="M153.135 179.382L160.4 176.858L152.931 159.984L145.779 163.531L153.135 179.382Z" fill="#0E1026"/>
<path d="M93.016 128.816C97.2463 127.647 99.655 122.969 98.3958 118.367C97.1365 113.765 92.6863 110.982 88.4559 112.151C84.2256 113.32 81.8169 117.998 83.0762 122.599C84.3354 127.201 88.7856 129.984 93.016 128.816Z" fill="white"/>
<path d="M90.7358 120.482L83.0859 122.575C82.1806 119.186 83.2443 115.775 85.5529 113.751L90.7358 120.482Z" fill="#8C8C8C"/>
<path d="M77.6767 114.774H59.1854V115.229H77.6767V114.774Z" fill="white"/>
<path d="M77.6539 117.048H65.9979V117.503H77.6539V117.048Z" fill="white"/>
<path d="M77.6766 119.55H70.4114V120.005H77.6766V119.55Z" fill="white"/>
<path d="M92.1391 151.774H98.929L98.2047 145.702H91.4148L92.1391 151.774Z" fill="#8C8C8C"/>
<path d="M83.0859 151.774H89.8758L88.6763 141.836H81.8864L83.0859 151.774Z" fill="white"/>
<path d="M74.0779 151.774H80.8678L80.1436 145.702H73.3536L74.0779 151.774Z" fill="#8C8C8C"/>
<path d="M65.0247 151.774H71.8146L70.0719 137.515H63.282L65.0247 151.774Z" fill="#8C8C8C"/>
<path d="M56.0393 151.774H62.8292L60.2264 130.466H53.4365L56.0393 151.774Z" fill="white"/>
<path d="M47.0315 151.774H53.8214L52.6218 141.95H45.8319L47.0315 151.774Z" fill="white"/>
<path d="M37.9783 151.774H44.7682L42.7312 135.128H35.9413L37.9783 151.774Z" fill="white"/>
</g>
<defs>
<linearGradient id="paint0_linear" x1="106.948" y1="169.758" x2="49.6587" y2="116.362" gradientUnits="userSpaceOnUse">
<stop stop-color="white"/>
<stop offset="1" stop-color="#0E1026"/>
</linearGradient>
<clipPath id="clip0">
<rect width="262" height="299" fill="white"/>
</clipPath>
</defs>
</svg>
