<svg width="241" height="268" viewBox="0 0 241 268" fill="none" xmlns="http://www.w3.org/2000/svg">
<g clip-path="url(#clip0)">
<path opacity="0.2" d="M131.269 268C191.872 268 241 265.636 241 262.72C241 259.804 191.872 257.44 131.269 257.44C70.6665 257.44 21.5383 259.804 21.5383 262.72C21.5383 265.636 70.6665 268 131.269 268Z" fill="#0E1026"/>
<path d="M199.671 262.761L166.688 140.32L163.816 141.837L196.259 262.761H199.671Z" fill="#9B9B9B"/>
<path d="M141.466 138.469H138.324V262.761H141.466V138.469Z" fill="#9B9B9B"/>
<path d="M78.4327 259.394L110.022 140.32L112.915 141.837L81.3045 260.89L78.4327 259.394Z" fill="#9B9B9B"/>
<path d="M240.875 5.46727H42.3899V142.378H240.875V5.46727Z" fill="#D8D6D6"/>
<path d="M240.875 0H42.3899V5.46727H240.875V0Z" fill="#9B9B9B"/>
<path d="M240.875 137.887H60.7443V142.378H240.875V137.887Z" fill="#9B9B9B"/>
<path d="M95.4413 51.0984C105.705 50.6089 113.623 41.7984 113.127 31.4196C112.631 21.0408 103.908 13.0239 93.645 13.5133C83.3816 14.0028 75.4635 22.8133 75.9595 33.1921C76.4555 43.5709 85.1778 51.5879 95.4413 51.0984Z" fill="#3A1E6B"/>
<path d="M94.5396 32.3047L113.102 31.3484C112.707 23.74 107.879 17.3996 101.282 14.8011L94.5396 32.3047Z" fill="white"/>
<path opacity="0.2" d="M104.05 114.002H86.2988V132.711H104.05V114.002Z" fill="#3A1E6B"/>
<path opacity="0.4" d="M130.791 102.215H113.04V132.69H130.791V102.215Z" fill="#3A1E6B"/>
<path opacity="0.6" d="M157.739 92.6941H139.989V132.69H157.739V92.6941Z" fill="#3A1E6B"/>
<path opacity="0.8" d="M184.584 82.5079H166.833V132.69H184.584V82.5079Z" fill="#3A1E6B"/>
<path d="M211.304 68.663H193.553V132.711H211.304V68.663Z" fill="#3A1E6B"/>
<path d="M214.238 18.8964H118.846V20.6633H214.238V18.8964Z" fill="#6F367B"/>
<path d="M180.714 23.5529H118.846V25.3199H180.714V23.5529Z" fill="#6F367B"/>
<path d="M150.602 28.6876H118.846V30.4545H150.602V28.6876Z" fill="#6F367B"/>
<path d="M87.5059 109.054L109.003 91.426L115.662 97.9742L139.51 78.184L145.566 85.7716L167.25 68.081L173.617 74.6084L207.933 46.4614" stroke="#6F367B" stroke-width="9" stroke-miterlimit="10"/>
<path d="M200.254 44.9854L212.324 43.1145L207.038 53.6956" stroke="#6F367B" stroke-width="9" stroke-miterlimit="10"/>
<path d="M56.6239 54.6311C56.6031 58.3521 90.6066 88.7859 95.5801 89.5551C105.153 91.0102 94.7477 62.7384 74.1043 54.735" fill="#212356"/>
<path d="M96.246 88.7236C102.343 94.7313 126.171 66.0853 127.565 62.7384C125.755 61.3456 127.503 59.5371 125.276 59.1005C121.821 62.3643 99.8669 75.2529 98.9096 81.5101" fill="#F5A99C"/>
<path d="M133.184 54.5064C134.141 54.2569 138.74 52.5107 138.449 54.0698C138.178 55.5665 134.432 56.7515 133.204 57.3127C134.453 56.1902 135.015 58.2066 133.642 58.955C134.266 58.6848 134.828 59.2253 134.599 59.9113C134.495 60.2439 133.621 60.5349 133.329 60.7012C135.827 61.1378 132.476 63.0918 131.561 63.3205C128.938 63.9649 124.631 65.6488 123.923 61.7822C123.195 58.0403 130.416 55.2339 133.184 54.5064Z" fill="#F5A99C"/>
<path d="M2.62199 87.8505C-1.81053 97.3506 26.3037 120.509 29.6541 121.881C31.0484 120.072 32.0056 119.677 32.4634 117.453C28.3431 114.48 20.4561 96.4151 11.1124 92.6941" fill="#F5A99C"/>
<path d="M38.6857 257.627C35.9179 258.999 36.0844 262.387 36.1468 262.574C36.2925 263.032 36.563 261.743 37.0625 261.93C37.5411 262.117 38.4984 261.93 39.0186 261.93C39.9551 261.93 40.9123 261.93 41.8488 261.93C43.3471 261.93 44.8454 261.93 46.3021 261.867C47.0721 261.847 48.5704 261.784 49.2363 262.179C49.0906 261.244 48.279 260.308 47.6964 259.581C47.3218 259.123 46.9472 258.708 46.4686 258.334C45.6362 257.71 44.4916 257.71 43.4719 257.627" fill="#0E1026"/>
<path d="M60.5153 53.9035L49.0698 54.1738L50.6306 40.0378L58.9754 39.9131L60.5153 53.9035Z" fill="#F5A99C"/>
<path d="M49.382 51.305L50.6097 40.0379L60.7234 39.8923C60.432 39.8923 59.6829 42.1583 59.6829 42.4285C59.7245 49.6212 49.382 51.305 49.382 51.305Z" fill="#CE7E74"/>
<path d="M47.8005 25.8188C46.2605 30.6001 45.7195 44.5697 54.8342 45.5675C62.5131 46.399 63.3663 29.727 61.7223 25.6941" fill="#F5A99C"/>
<path d="M47.1136 31.6602C44.3667 30.5585 44.2003 35.6516 47.1345 35.0279L47.1136 31.6602Z" fill="#F5A99C"/>
<path d="M61.3685 31.1197C64.1154 30.018 64.2818 35.1111 61.3477 34.4874L61.3685 31.1197Z" fill="#F5A99C"/>
<path d="M47.2385 26.6711C48.7369 27.2948 47.1345 30.3506 47.0096 32.5334C46.531 32.18 46.1772 31.4732 45.9067 30.995C45.5113 30.309 45.2824 29.6854 45.3656 28.9578C45.4281 28.1471 45.9483 26.7751 47.2385 26.6711Z" fill="#0E1026"/>
<path d="M63.2205 22.9293C63.9281 23.74 64.2819 24.6962 64.2402 25.798C64.1362 28.0016 61.8263 29.5607 59.7661 29.7685C57.8932 29.9556 56.2284 28.9162 54.4388 28.6876C52.878 28.4797 51.2756 29.041 49.7357 28.6668C48.4039 28.355 47.1553 26.9622 47.1553 26.9622C47.5299 25.6941 47.9877 23.9271 49.1114 23.0956C50.4432 22.1393 51.671 21.7028 53.3358 21.7028C54.7509 21.7028 56.166 21.682 57.477 22.0977C58.4967 22.4303 59.4331 23.0332 60.4736 23.3658C61.1396 23.5529 63.0541 24.0934 63.2205 22.9293Z" fill="#0E1026"/>
<path d="M84.1138 256.941C86.7359 256.671 88.8585 259.227 91.3973 259.435C96.2252 259.809 95.809 261.285 95.809 262.699C95.809 262.699 81.6582 262.678 79.8062 262.678C78.4327 262.678 76.4766 263.115 76.2685 260.911C76.1644 259.747 76.3933 258.479 76.1228 257.398" fill="#0E1026"/>
<path d="M95.8922 262.429C95.8922 262.741 95.6425 263.011 95.3096 263.011H76.6222C76.3101 263.011 76.0396 262.761 76.0396 262.429C76.0396 262.117 76.2893 261.847 76.6222 261.847H95.3096C95.6425 261.847 95.8922 262.096 95.8922 262.429Z" fill="#212356"/>
<path d="M49.4236 262.429C49.4236 262.741 49.1739 263.011 48.841 263.011H36.5839C36.2718 263.011 36.0012 262.761 36.0012 262.429C36.0012 262.117 36.2509 261.847 36.5839 261.847H48.841C49.1739 261.847 49.4236 262.096 49.4236 262.429Z" fill="#212356"/>
<path d="M73.3967 110.821C77.6211 126.828 83.1774 218.129 86.7983 257.024C86.1116 257.419 76.2268 259.56 75.6442 257.855C61.0564 214.866 69.2763 204.056 63.9074 186.635C53.8353 153.957 52.9405 129.822 55.0423 114.064" fill="#1C2044"/>
<path d="M34.9815 53.4254C31.5271 53.4254 2.78856 83.9007 2.0394 88.8691C0.582703 98.4316 23.5985 93.588 30.8404 75.9389" fill="#212356"/>
<path d="M55.8332 111.778C57.6229 128.283 56.4783 152.709 50.6099 182.603C44.6583 213.036 53.0239 223.077 47.3636 258.375C46.6144 258.645 36.48 259.477 36.1678 257.71C28.1352 212.849 37.9159 203.183 35.1897 185.097C30.0913 151.15 32.7966 127.182 37.2083 111.965" fill="#212356"/>
<path d="M75.8523 123.315C77.5171 131.422 32.422 132.025 33.8162 122.483C36.3759 105.042 28.8843 77.9345 28.8427 62.6761C28.8219 50.0369 45.4906 51.0555 55.958 51.2426C60.9108 51.3258 78.1831 50.8684 78.7449 62.6761C79.0363 68.1018 70.4626 97.1012 75.8523 123.315Z" fill="#0E1026"/>
<path d="M50.3601 50.7437L54.0435 58.8511L58.0806 50.7021L50.3601 50.7437Z" fill="#F5A99C"/>
<path d="M48.7992 43.5926C47.8004 42.179 47.2801 37.0651 47.0304 36.0881C46.8015 35.1526 46.635 32.7412 46.635 31.5147C46.968 31.5147 46.8223 31.7226 47.1136 31.6602C47.2177 33.1986 47.5298 35.215 48.8201 36.3791C49.5692 37.0651 50.4432 37.4393 51.4837 37.6472C52.5034 37.8343 54.4179 37.5848 54.3139 38.6866C54.189 37.7096 55.5625 37.7512 56.2908 37.8343C57.4354 37.9382 58.5591 38.0006 59.5372 37.3354C61.4309 36.0465 62.0136 34.3835 61.9095 32.2423C61.8471 31.0158 61.5349 29.8309 61.5974 28.6044C61.8471 28.5836 62.1176 28.5836 62.3673 28.6044C62.513 31.6395 62.2425 34.6122 62.1384 37.6472C62.0552 39.6429 61.8471 41.8464 60.432 43.4679C57.8308 46.5029 51.3381 47.1889 48.7992 43.5926Z" fill="#0E1026"/>
<path d="M60.2448 27.4195C60.2448 27.3779 62.6171 27.3779 62.8044 27.3987C62.7419 28.1263 62.9709 28.7915 62.8668 29.5399C62.8044 29.9141 62.1801 32.6165 62.076 32.2631C61.6598 30.6832 60.2448 30.2882 60.2448 27.4195Z" fill="#0E1026"/>
<path d="M32.4843 116.039C32.7756 115.332 33.2126 113.96 34.045 113.586C34.5028 113.399 34.4196 113.981 34.4404 114.438C34.4612 114.729 34.2739 115.54 34.4404 115.79C34.6277 116.06 35.7722 116.455 36.1052 116.6C36.6254 116.829 37.1665 117.037 37.6868 117.266C38.7064 117.744 39.7678 118.222 40.7458 118.825C41.3909 119.22 42.3274 119.677 42.7644 120.321C42.9101 120.55 43.0765 120.862 43.0141 121.153C42.9309 121.506 42.8684 121.444 42.4939 121.444C41.7447 121.465 41.1204 121.049 40.4337 120.82C39.8926 120.633 39.4348 120.488 38.9354 120.217C38.5816 120.01 38.0613 119.615 37.6451 119.698C38.1862 120.488 39.3724 121.028 40.1215 121.589C40.621 121.964 41.0996 122.379 41.5158 122.858C41.8071 123.211 42.2233 123.606 42.2441 124.084C42.2858 125.227 41.058 124.812 40.4129 124.5C39.7261 124.167 39.0186 123.835 38.3319 123.46C37.5411 123.045 36.7711 122.608 35.9803 122.192C36.5214 122.733 37.2497 123.045 37.8324 123.523C38.3319 123.918 38.7689 124.354 39.2475 124.791C39.6637 125.165 40.3296 125.414 40.4337 125.997C40.5585 126.641 40.2048 126.786 39.6429 126.828C37.4578 127.015 36.2301 125.207 34.7317 124.001C35.0647 124.895 36.3549 125.726 36.4798 126.724C36.6671 128.325 34.8566 127.015 34.3364 126.683C33.3167 126.038 32.2554 125.02 31.4438 124.105C31.1108 123.731 30.7987 123.356 30.4241 123.003C30.1119 122.691 29.9455 122.275 29.6749 121.943" fill="#F5A99C"/>
<path d="M56.2493 39.2271C56.2285 40.0378 55.0839 40.3497 54.4388 40.3912C53.6689 40.4536 52.5451 40.0378 52.2122 39.2895" fill="white"/>
<path d="M58.0806 33.3441C58.3679 33.3441 58.6008 33.1114 58.6008 32.8244C58.6008 32.5374 58.3679 32.3047 58.0806 32.3047C57.7932 32.3047 57.5603 32.5374 57.5603 32.8244C57.5603 33.1114 57.7932 33.3441 58.0806 33.3441Z" fill="#0E1026"/>
<path d="M56.7279 31.6395C57.8516 31.4524 58.6216 31.4524 59.6829 31.681" stroke="#0E1026" stroke-miterlimit="10"/>
<path d="M50.8804 33.3441C51.1677 33.3441 51.4006 33.1114 51.4006 32.8244C51.4006 32.5374 51.1677 32.3047 50.8804 32.3047C50.593 32.3047 50.3601 32.5374 50.3601 32.8244C50.3601 33.1114 50.593 33.3441 50.8804 33.3441Z" fill="#0E1026"/>
<path d="M49.5277 31.6395C50.6514 31.4524 51.4214 31.4524 52.4827 31.681" stroke="#0E1026" stroke-miterlimit="10"/>
<path d="M55.1879 36.2128C54.7926 35.1734 53.3151 35.506 53.2318 36.2336L55.1879 36.2128Z" fill="#CE7E74"/>
<path d="M98.2854 90.345L93.0413 89.7213L96.4125 73.1948L102.739 76.0012L98.2854 90.345Z" fill="#212356"/>
<path d="M1.43589 98.6395L0 89.5551L17.8966 91.4676L16.8769 96.5399L1.43589 98.6395Z" fill="#212356"/>
<path d="M51.6087 47.9789L54.0435 58.8511L50.3601 52.6147" fill="#1C2044"/>
<path d="M56.4782 47.9789L54.0435 58.8511L57.7268 52.6147" fill="#1C2044"/>
<path d="M51.6086 47.9789H47.9252L46.3645 51.2634L51.6086 53.4254V47.9789Z" fill="#212356"/>
<path d="M56.4783 47.9789H60.3489L61.5559 51.3674L56.5615 53.5293L56.4783 47.9789Z" fill="#212356"/>
</g>
<defs>
<clipPath id="clip0">
<rect width="241" height="268" fill="white"/>
</clipPath>
</defs>
</svg>
