<svg width="251" height="241" viewBox="0 0 251 241" fill="none" xmlns="http://www.w3.org/2000/svg">
<path d="M170.704 101.631C170.704 102.737 169.801 103.641 168.697 103.641H141.371C140.267 103.641 139.364 102.737 139.364 101.631L139.464 46.2302C139.464 45.1247 140.367 44.2202 141.471 44.2202H168.797C169.901 44.2202 170.804 45.1247 170.804 46.2302L170.704 101.631Z" fill="#1C2044"/>
<path d="M198.707 83.943C198.707 85.0485 197.804 85.953 196.7 85.953H108.174C107.069 85.953 106.166 85.0485 106.141 83.943L105.765 28.5421C105.765 27.4366 106.643 26.5321 107.747 26.5321H196.549C197.653 26.5321 198.557 27.4366 198.557 28.5421L198.707 83.943Z" fill="#1C2044"/>
<path d="M193.839 83.943C193.839 85.0485 192.936 85.953 191.832 85.953H106.819C105.715 85.953 104.811 85.0485 104.811 83.943L104.786 28.5421C104.786 27.4366 105.689 26.5321 106.794 26.5321H191.807C192.911 26.5321 193.814 27.4366 193.814 28.5421L193.839 83.943Z" fill="#0E1026"/>
<g opacity="0.3">
<path opacity="0.3" d="M104.786 28.5421C104.786 27.4366 105.689 26.5321 106.794 26.5321H191.807C192.911 26.5321 193.814 27.4366 193.814 28.5421L193.839 83.943C193.839 85.0485 192.936 85.953 191.832 85.953" fill="url(#paint0_linear)"/>
</g>
<path d="M178.357 103.817C178.357 102.636 177.404 101.681 176.224 101.681H136.428C135.248 101.681 134.295 102.636 134.295 103.817" fill="#1C2044"/>
<path d="M151.057 105.551C151.057 103.666 149.526 102.108 147.619 102.108H131.184C129.302 102.108 127.746 103.641 127.746 105.551" fill="#6F367B"/>
<path d="M251 103.792H7.30176V113.214H251V103.792Z" fill="#D8D6D6"/>
<path d="M122.803 240.347C122.702 240.07 122.627 239.744 122.602 239.342L122.677 233.186L130.28 233.06C133.241 236.025 137.507 236.377 140.518 236.628C144.834 237.005 145.436 238.965 145.536 240.347H122.803Z" fill="#0E1026"/>
<path d="M145.737 239.995C145.737 240.397 145.411 240.724 145.01 240.724H123.028C122.627 240.724 122.301 240.397 122.301 239.995C122.301 239.593 122.627 239.266 123.028 239.266H145.01C145.411 239.266 145.737 239.593 145.737 239.995Z" fill="#1C2044"/>
<path d="M60.4478 240.347C60.3474 240.07 60.2722 239.744 60.2471 239.342L60.3223 233.186L67.9003 233.06C70.8612 236.025 75.1269 236.377 78.138 236.628C82.4539 237.005 83.0561 238.965 83.1565 240.347H60.4478Z" fill="#0E1026"/>
<path d="M83.3824 239.995C83.3824 240.397 83.0562 240.724 82.6547 240.724H60.6737C60.2722 240.724 59.946 240.397 59.946 239.995C59.946 239.593 60.2722 239.266 60.6737 239.266H82.6547C83.0562 239.266 83.3824 239.593 83.3824 239.995Z" fill="#1C2044"/>
<path d="M21.0276 123.791L99.8179 127.811L71.9653 233.588H60.2973C57.5371 202.182 73.7218 159.469 72.7181 147.409H22.0313" fill="#0E1026"/>
<path d="M67.0473 18.9443C66.4952 23.2659 66.0436 26.8085 65.5417 31.4818C64.9395 37.16 64.5129 43.3157 59.7203 42.9388C55.0782 42.5619 56.0568 47.8633 54.1999 53.2904C51.9165 59.8983 47.2995 52.1597 41.2522 51.8331C41.2522 51.8331 44.8153 32.2606 46.5969 21.4317" fill="#F5A99C"/>
<path d="M47.6507 19.2961C47.8264 19.07 48.0271 18.869 48.253 18.7182C49.3319 17.864 51.239 17.864 52.5438 17.7383C54.0744 17.5876 55.3039 16.9594 56.408 15.8791C57.2612 15.0248 58.1143 14.0449 59.3438 13.7434C60.7992 13.3666 62.3549 13.5173 63.8354 13.0902C66.4952 12.3113 70.9867 12.8389 72.3167 15.9293C73.3705 18.3665 71.865 23.09 69.6568 24.5724C67.3232 26.105 64.4878 25.7784 61.8531 25.8286C59.6199 25.8789 57.4368 26.0296 55.2538 26.507C53.6478 26.8587 53.9239 27.914 52.8951 28.9944C52.0419 29.8989 50.988 30.1753 49.7585 30.1753C48.3784 30.1753 46.1703 30.2004 45.2921 28.8939C44.0876 27.1351 45.7437 23.8437 46.3459 22.1352C46.622 21.1805 46.9983 20.1001 47.6507 19.2961Z" fill="#1C2044"/>
<path d="M65.4162 28.3914L66.7461 33.743L64.3623 34.4968" fill="#F5A99C"/>
<path d="M62.6058 28.8939C61.6272 28.6175 60.6235 28.5421 60.0464 29.924C59.4693 31.3059 60.3475 31.9843 61.5519 32.2858" fill="#F5A99C"/>
<path d="M35.481 52.411H57.6125L58.3904 45.2001H37.5887L35.481 52.411Z" fill="#6F367B"/>
<path d="M61.5269 25.0497C61.3262 27.1603 61.1506 29.0698 61.6273 31.2054C61.8281 32.135 62.2797 32.8385 62.8819 33.542C63.5845 34.3712 64.4628 34.2958 65.4414 34.1702C65.3661 34.7983 64.9897 38.7932 64.9646 39.2957C64.9144 39.9741 64.7137 40.6273 64.3875 41.2303C63.3336 43.2906 59.8959 44.0443 58.2147 42.3107C56.3579 40.4012 57.5121 37.0595 58.1395 34.8737C58.566 33.3913 59.9712 27.0598 59.9461 25.3512" fill="#1C2044"/>
<path d="M28.3295 141.706C24.6409 135.826 24.8667 97.4352 21.7803 83.0887C20.1995 75.7019 18.5183 50.7527 27.8025 50.9286C39.345 51.1296 73.9726 50.9788 73.9726 50.9788C91.6628 50.6522 78.4893 99.6713 80.9985 142.786" fill="#6F367B"/>
<path d="M87.2718 93.9679C88.0497 98.9929 76.733 112.234 73.2201 95.802L65.1654 61.7575C64.3875 56.7325 67.8001 52.0341 72.8186 51.2301C77.8371 50.4512 82.5294 53.8682 83.3323 58.8932L87.2718 93.9679Z" fill="#0E1026"/>
<path d="M52.1423 124.043C52.1423 124.043 117.759 123.791 117.885 123.791C128.674 123.54 134.621 129.143 134.621 136.957L134.697 233.839H119.892C105.966 186.855 116.881 154.57 111.862 147.409H53.146" fill="#0E1026"/>
<path d="M76.984 241C76.984 235.447 72.4924 230.95 66.947 230.95H18.7694C13.224 230.95 8.73242 235.447 8.73242 241" fill="#8C8C8C"/>
<path d="M46.3712 156.957H36.3342V235.347H46.3712V156.957Z" fill="#8C8C8C"/>
<path d="M94.9751 161.605H9.73596C5.64589 161.605 5.89681 157.208 5.82153 153.942L6.87542 148.716C7.32708 146.002 9.96179 143.766 12.722 143.766H94.95C105.012 143.741 106.141 161.605 94.9751 161.605Z" fill="#1C2044"/>
<path d="M125.312 103.792L128.699 98.9929C111.034 92.1086 73.9226 81.2295 79.443 103.792H125.312Z" fill="#0E1026"/>
<path d="M143.479 103.792C143.73 101.581 139.038 97.9628 137.181 97.41C135.5 96.9075 130.757 97.008 127.771 98.6663L125.061 103.817H143.479V103.792Z" fill="#F5A99C"/>
<path d="M5.82159 153.942L5.62085 85.0987L6.02233 71.0287C6.02233 68.2649 8.28065 66.0037 11.0408 66.0037H56.8848C59.6449 66.0037 57.3866 60.6269 57.3866 63.3907L60.0464 77.7371L69.5816 153.942" fill="#1C2044"/>
<path d="M65.6419 81.3048C65.6419 87.0585 60.9747 91.7317 55.2285 91.7317H10.4134C4.6672 91.7569 0 87.0836 0 81.3048V71.4055C0 65.6519 4.6672 60.9786 10.4134 60.9786H55.2285C60.9747 60.9786 65.6419 65.6519 65.6419 71.4055V81.3048Z" fill="#1C2044"/>
<path d="M65.2656 35.9289C64.7889 36.0043 63.9608 35.4264 63.7852 35.0998C64.1866 35.0746 64.9143 35.0495 65.3409 35.0495" fill="white"/>
<path d="M186.663 7.21091C186.663 3.24114 183.451 0 179.461 0H105.514C101.549 0 98.3123 3.21601 98.3123 7.21091" fill="#6F367B"/>
<path d="M235.847 5.10803L221.292 100.588L222.284 100.74L236.839 5.25969L235.847 5.10803Z" fill="#6F367B"/>
<path d="M236.321 10.2259C238.815 10.2259 240.838 8.20112 240.838 5.7034C240.838 3.20568 238.815 1.18088 236.321 1.18088C233.826 1.18088 231.804 3.20568 231.804 5.7034C231.804 8.20112 233.826 10.2259 236.321 10.2259Z" fill="#6F367B"/>
<path d="M233.812 4.19588H168.069V5.20089H233.812V4.19588Z" fill="#6F367B"/>
<path d="M250.9 103.691C250.9 99.7215 247.688 96.4804 243.698 96.4804H209.171C205.206 96.4804 201.969 99.6964 201.969 103.691" fill="#1C2044"/>
<path d="M165.661 79.9481V84.9731H163.929C162.123 84.9731 160.667 86.4304 160.667 88.2394V93.5156C160.667 95.3246 162.123 96.7819 163.929 96.7819H165.661V101.33C165.661 102.686 166.765 103.817 168.145 103.817H180.29C181.645 103.817 182.774 102.711 182.774 101.33V79.9481H165.661ZM163.929 95.7769C162.675 95.7769 161.671 94.7719 161.671 93.5156V88.2394C161.671 86.9831 162.675 85.9781 163.929 85.9781H165.661V95.7769H163.929Z" fill="#8F57AD"/>
<path d="M116.981 36.4063H113.794V37.16H116.981V36.4063Z" fill="white"/>
<path d="M116.981 39.6725H113.794V40.4263H116.981V39.6725Z" fill="white"/>
<path d="M116.981 42.9388H113.794V43.6926H116.981V42.9388Z" fill="white"/>
<path d="M116.981 46.2051H113.794V46.9588H116.981V46.2051Z" fill="white"/>
<path d="M116.981 49.4713H113.794V50.2251H116.981V49.4713Z" fill="white"/>
<path d="M116.981 52.7376H113.794V53.4913H116.981V52.7376Z" fill="white"/>
<path d="M116.981 56.0038H113.794V56.7576H116.981V56.0038Z" fill="white"/>
<path d="M116.981 59.2701H113.794V60.0239H116.981V59.2701Z" fill="white"/>
<path d="M116.981 62.5364H113.794V63.2901H116.981V62.5364Z" fill="white"/>
<path d="M116.981 65.8026H113.794V66.5564H116.981V65.8026Z" fill="white"/>
<path d="M116.981 69.0689H113.794V69.8227H116.981V69.0689Z" fill="white"/>
<path d="M116.981 72.3352H113.794V73.0889H116.981V72.3352Z" fill="white"/>
<path d="M116.981 75.6014H113.794V76.3552H116.981V75.6014Z" fill="white"/>
<path d="M172.335 36.4063H118.888V37.16H172.335V36.4063Z" fill="#8F4F9E"/>
<path d="M150.881 39.6725H118.888V40.4263H150.881V39.6725Z" fill="#8F4F9E"/>
<path d="M138.586 42.9388H118.888V43.6926H138.586V42.9388Z" fill="#4C3089"/>
<path d="M165.937 46.2051H118.888V46.9588H165.937V46.2051Z" fill="#8F4F9E"/>
<path d="M172.335 49.4713H118.888V50.2251H172.335V49.4713Z" fill="#8F4F9E"/>
<path d="M145.486 52.7376H118.888V53.4913H145.486V52.7376Z" fill="#4C3089"/>
<path d="M132.187 56.0038H118.888V56.7576H132.187V56.0038Z" fill="#4C3089"/>
<path d="M140.468 59.2701H118.888V60.0239H140.468V59.2701Z" fill="#4C3089"/>
<path d="M153.516 62.5364H118.888V63.2901H153.516V62.5364Z" fill="#8F4F9E"/>
<path d="M172.335 65.8026H118.888V66.5564H172.335V65.8026Z" fill="#8F4F9E"/>
<path d="M149.25 69.0689H118.888V69.8227H149.25V69.0689Z" fill="#8F4F9E"/>
<path d="M138.711 72.3352H118.888V73.0889H138.711V72.3352Z" fill="#4C3089"/>
<path d="M155.523 75.6014H118.888V76.3552H155.523V75.6014Z" fill="#8F4F9E"/>
<path d="M223.173 113.239H174.242V240.799H223.173V113.239Z" fill="#D8D6D6"/>
<defs>
<linearGradient id="paint0_linear" x1="125.844" y1="80.177" x2="165.415" y2="39.9046" gradientUnits="userSpaceOnUse">
<stop stop-color="white"/>
<stop offset="1" stop-color="#0E1026"/>
</linearGradient>
</defs>
</svg>
