<svg width="242" height="204" viewBox="0 0 242 204" fill="none" xmlns="http://www.w3.org/2000/svg">
<g clip-path="url(#clip0)">
<path d="M97.1788 86.0279C97.1788 86.9637 97.9452 87.7294 98.8819 87.7294H122.064C123.001 87.7294 123.767 86.9637 123.767 86.0279L123.682 39.1326C123.682 38.1968 122.916 37.4312 121.979 37.4312H98.7967C97.86 37.4312 97.0937 38.1968 97.0937 39.1326L97.1788 86.0279Z" fill="#1C2044"/>
<path d="M73.4216 71.0555C73.4216 71.9912 74.188 72.7569 75.1246 72.7569H150.228C151.165 72.7569 151.931 71.9912 151.952 71.0555L152.272 24.1601C152.272 23.2243 151.527 22.4587 150.59 22.4587H75.2524C74.3157 22.4587 73.5493 23.2243 73.5493 24.1601L73.4216 71.0555Z" fill="#1C2044"/>
<path d="M77.5515 71.0555C77.5515 71.9912 78.3179 72.7569 79.2546 72.7569H151.378C152.314 72.7569 153.081 71.9912 153.081 71.0555L153.102 24.1601C153.102 23.2243 152.336 22.4587 151.399 22.4587H79.2758C78.3392 22.4587 77.5728 23.2243 77.5728 24.1601L77.5515 71.0555Z" fill="#0E1026"/>
<g opacity="0.3">
<path opacity="0.3" d="M153.102 24.1601C153.102 23.2243 152.336 22.4587 151.399 22.4587H79.2758C78.3392 22.4587 77.5728 23.2243 77.5728 24.1601L77.5515 71.0555C77.5515 71.9912 78.3179 72.7569 79.2546 72.7569" fill="url(#paint0_linear)"/>
</g>
<path d="M90.6862 87.8782C90.6862 86.8787 91.4951 86.0705 92.4957 86.0705H126.258C127.259 86.0705 128.068 86.8787 128.068 87.8782" fill="#1C2044"/>
<path d="M29.0578 87.857H235.805V203.809H29.0578V87.857Z" fill="#D8D6D6"/>
<path d="M-7.62939e-05 150.001C-7.62939e-05 156.573 5.34317 161.911 11.9211 161.911H149.632C156.21 161.911 161.553 156.573 161.553 150.001V120.035C161.553 113.463 156.21 108.125 149.632 108.125H11.9211C5.34317 108.125 -7.62939e-05 113.463 -7.62939e-05 120.035V150.001Z" fill="white"/>
<path d="M138.669 203.447C138.754 203.213 138.818 202.937 138.839 202.596L138.775 197.386L132.325 197.279C129.813 199.789 126.194 200.087 123.64 200.299C119.978 200.618 119.467 202.277 119.382 203.447H138.669Z" fill="#0E1026"/>
<path d="M119.212 203.149C119.212 203.49 119.488 203.766 119.829 203.766H138.477C138.818 203.766 139.094 203.49 139.094 203.149C139.094 202.809 138.818 202.533 138.477 202.533H119.829C119.488 202.533 119.212 202.809 119.212 203.149Z" fill="#1C2044"/>
<path d="M190.718 203.447C190.803 203.213 190.867 202.937 190.888 202.596L190.824 197.386L184.395 197.279C181.883 199.789 178.264 200.087 175.71 200.299C172.048 200.618 171.537 202.277 171.452 203.447H190.718Z" fill="#0E1026"/>
<path d="M171.26 203.149C171.26 203.49 171.537 203.766 171.878 203.766H190.526C190.867 203.766 191.143 203.49 191.143 203.149C191.143 202.809 190.867 202.533 190.526 202.533H171.878C171.537 202.533 171.26 202.809 171.26 203.149Z" fill="#1C2044"/>
<path d="M224.161 104.786L157.317 108.189L180.946 197.726H190.845C193.187 171.141 179.456 134.986 180.308 124.778H223.309" fill="#0E1026"/>
<path d="M185.119 16.0359C185.587 19.6939 185.97 22.6927 186.396 26.6485C186.907 31.455 187.269 36.6656 191.335 36.3465C195.273 36.0275 194.443 40.515 196.018 45.1088C197.955 50.7022 201.872 44.1518 207.003 43.8753C207.003 43.8753 203.98 27.3078 202.468 18.1414" fill="#F5A99C"/>
<path d="M201.574 16.3336C201.425 16.1422 201.255 15.9721 201.063 15.8445C200.148 15.1214 198.53 15.1214 197.423 15.015C196.125 14.8874 195.082 14.3557 194.145 13.4412C193.421 12.7181 192.697 11.8887 191.654 11.6335C190.42 11.3144 189.1 11.442 187.844 11.0805C185.587 10.4212 181.777 10.8678 180.648 13.4837C179.754 15.5467 181.032 19.545 182.905 20.7998C184.885 22.0972 187.29 21.8207 189.525 21.8632C191.42 21.9058 193.272 22.0334 195.124 22.4375C196.487 22.7352 196.252 23.6285 197.125 24.543C197.849 25.3086 198.743 25.5425 199.786 25.5425C200.957 25.5425 202.83 25.5638 203.575 24.4579C204.597 22.9692 203.192 20.1831 202.681 18.7369C202.447 17.9287 202.128 17.0142 201.574 16.3336Z" fill="#1C2044"/>
<path d="M186.502 24.0325L185.374 28.5626L187.396 29.2006" fill="#F5A99C"/>
<path d="M188.887 24.4579C189.717 24.2239 190.568 24.1601 191.058 25.3299C191.548 26.4996 190.803 27.0738 189.781 27.329" fill="#F5A99C"/>
<path d="M211.899 44.3645H193.123L192.463 38.2607H210.111L211.899 44.3645Z" fill="#6F367B"/>
<path d="M189.802 21.2039C189.972 22.9904 190.121 24.6068 189.717 26.4145C189.547 27.2014 189.164 27.7969 188.653 28.3924C188.057 29.0943 187.311 29.0305 186.481 28.9241C186.545 29.4558 186.864 32.8374 186.886 33.2627C186.928 33.837 187.099 34.3899 187.375 34.9003C188.269 36.6443 191.186 37.2823 192.612 35.8149C194.187 34.1985 193.208 31.3699 192.676 29.5196C192.314 28.2648 191.122 22.9054 191.143 21.4591" fill="#1C2044"/>
<path d="M217.966 119.95C221.095 114.973 220.904 82.4762 223.522 70.3324C224.863 64.0797 226.289 42.9608 218.413 43.1097C208.621 43.2798 179.243 43.1522 179.243 43.1522C164.235 42.8757 175.412 84.3691 173.283 120.864" fill="#6F367B"/>
<path d="M167.961 79.5413C167.301 83.7948 176.902 95.0029 179.882 81.0938L186.715 52.2761C187.375 48.0225 184.48 44.0455 180.223 43.3649C175.965 42.7056 171.984 45.598 171.303 49.8516L167.961 79.5413Z" fill="#0E1026"/>
<path d="M197.764 104.999C197.764 104.999 142.096 104.786 141.99 104.786C132.836 104.573 130.068 109.252 127.791 115.93L129.43 197.939H140.287C152.101 158.168 142.841 130.839 147.099 124.778H196.912" fill="#0E1026"/>
<path d="M176.689 204C176.689 199.3 180.499 195.493 185.204 195.493H226.077C230.781 195.493 234.592 199.3 234.592 204" fill="#8C8C8C"/>
<path d="M202.66 132.859H211.175V199.215H202.66V132.859Z" fill="#8C8C8C"/>
<path d="M161.425 136.794H233.74C237.21 136.794 236.997 133.072 237.061 130.307L236.167 125.884C235.784 123.587 233.549 121.694 231.207 121.694H161.447C152.91 121.673 151.952 136.794 161.425 136.794Z" fill="#1C2044"/>
<path d="M135.688 87.857L132.814 83.7948C147.801 77.9675 179.286 68.7585 174.603 87.857H135.688Z" fill="#0E1026"/>
<path d="M120.276 87.857C120.063 85.9854 124.044 82.9229 125.619 82.455C127.046 82.0296 131.346 82.2848 133.9 84.1564L135.901 87.8782H120.276V87.857Z" fill="#F5A99C"/>
<path d="M237.061 130.307L237.231 72.0338L236.891 60.1239C236.891 57.7844 234.975 55.8703 232.633 55.8703H193.74C191.399 55.8703 193.315 51.319 193.315 53.6585L191.058 65.8023L182.969 130.307" fill="#1C2044"/>
<path d="M186.311 68.8223C186.311 73.6927 190.271 77.6485 195.145 77.6485H233.166C238.04 77.6697 242 73.7139 242 68.8223V60.4429C242 55.5726 238.04 51.6168 233.166 51.6168H195.145C190.271 51.6168 186.311 55.5726 186.311 60.4429V68.8223Z" fill="#1C2044"/>
<path d="M186.63 30.4128C187.035 30.4766 187.737 29.9875 187.886 29.711C187.546 29.6897 186.928 29.6685 186.566 29.6685" fill="white"/>
<path d="M83.6398 6.10384C83.6398 2.74354 86.3646 0 89.7494 0H152.485C155.848 0 158.594 2.72227 158.594 6.10384" fill="#6F367B"/>
<path d="M41.9135 4.32381L54.2617 85.145L53.4199 85.2733L41.0717 4.45218L41.9135 4.32381Z" fill="#6F367B"/>
<path d="M41.5112 8.65596C39.395 8.65596 37.6794 6.94202 37.6794 4.82777C37.6794 2.71352 39.395 0.99958 41.5112 0.99958C43.6275 0.99958 45.343 2.71352 45.343 4.82777C45.343 6.94202 43.6275 8.65596 41.5112 8.65596Z" fill="#6F367B"/>
<path d="M43.6402 3.55171H99.4143V4.40242H43.6402V3.55171Z" fill="#6F367B"/>
<path d="M29.143 87.7719C29.143 84.4116 31.8679 81.6681 35.2526 81.6681H64.5447C67.9082 81.6681 70.6543 84.3903 70.6543 87.7719" fill="#1C2044"/>
<path d="M101.458 67.6739V71.9274H102.927C104.459 71.9274 105.694 73.161 105.694 74.6922V79.1585C105.694 80.6897 104.459 81.9233 102.927 81.9233H101.458V85.7727C101.458 86.9212 100.521 87.8782 99.3503 87.8782H89.047C87.8975 87.8782 86.9395 86.9424 86.9395 85.7727V67.6739H101.458ZM102.927 81.0726C103.991 81.0726 104.843 80.2219 104.843 79.1585V74.6922C104.843 73.6289 103.991 72.7782 102.927 72.7782H101.458V81.0726H102.927Z" fill="#BFA5C5"/>
<path d="M142.756 30.8169H145.46V31.455H142.756V30.8169Z" fill="white"/>
<path d="M142.756 33.5817H145.46V34.2198H142.756V33.5817Z" fill="white"/>
<path d="M142.756 36.3465H145.46V36.9846H142.756V36.3465Z" fill="white"/>
<path d="M142.756 39.1113H145.46V39.7494H142.756V39.1113Z" fill="white"/>
<path d="M142.756 41.8761H145.46V42.5142H142.756V41.8761Z" fill="white"/>
<path d="M142.756 44.641H145.46V45.279H142.756V44.641Z" fill="white"/>
<path d="M142.756 47.4058H145.46V48.0438H142.756V47.4058Z" fill="white"/>
<path d="M142.756 50.1706H145.46V50.8086H142.756V50.1706Z" fill="white"/>
<path d="M142.756 52.9354H145.46V53.5734H142.756V52.9354Z" fill="white"/>
<path d="M142.756 55.7002H145.46V56.3382H142.756V55.7002Z" fill="white"/>
<path d="M142.756 58.465H145.46V59.103H142.756V58.465Z" fill="white"/>
<path d="M142.756 61.2298H145.46V61.8678H142.756V61.2298Z" fill="white"/>
<path d="M142.756 63.9946H145.46V64.6326H142.756V63.9946Z" fill="white"/>
<path d="M95.7953 30.8169H141.138V31.455H95.7953V30.8169Z" fill="#8F4F9E"/>
<path d="M113.996 33.5817H141.138V34.2198H113.996V33.5817Z" fill="#8F4F9E"/>
<path d="M124.427 36.3465H141.138V36.9846H124.427V36.3465Z" fill="#4C3089"/>
<path d="M101.224 39.1113H141.138V39.7494H101.224V39.1113Z" fill="#8F4F9E"/>
<path d="M95.7953 41.8761H141.138V42.5142H95.7953V41.8761Z" fill="#8F4F9E"/>
<path d="M118.573 44.641H141.138V45.279H118.573V44.641Z" fill="#4C3089"/>
<path d="M129.856 47.4058H141.138V48.0438H129.856V47.4058Z" fill="#4C3089"/>
<path d="M122.831 50.1706H141.138V50.8086H122.831V50.1706Z" fill="#4C3089"/>
<path d="M111.761 52.9354H141.138V53.5734H111.761V52.9354Z" fill="#8F4F9E"/>
<path d="M95.7953 55.7002H141.138V56.3382H95.7953V55.7002Z" fill="#8F4F9E"/>
<path d="M115.38 58.465H141.138V59.103H115.38V58.465Z" fill="#8F4F9E"/>
<path d="M124.321 61.2298H141.138V61.8678H124.321V61.2298Z" fill="#4C3089"/>
<path d="M110.058 63.9946H141.138V64.6326H110.058V63.9946Z" fill="#8F4F9E"/>
</g>
<defs>
<linearGradient id="paint0_linear" x1="135.237" y1="67.8676" x2="101.742" y2="33.703" gradientUnits="userSpaceOnUse">
<stop stop-color="white"/>
<stop offset="1" stop-color="#0E1026"/>
</linearGradient>
<clipPath id="clip0">
<rect width="242" height="204" transform="matrix(-1 0 0 1 242 0)" fill="white"/>
</clipPath>
</defs>
</svg>
