<svg width="136" height="289" viewBox="0 0 136 289" fill="none" xmlns="http://www.w3.org/2000/svg">
<g clip-path="url(#clip0)">
<path d="M32.2144 283.484C32.2144 277.438 37.1187 272.533 43.1627 272.533H125.052C131.096 272.533 136 277.438 136 283.484" fill="#D8D6D6"/>
<path d="M124.4 173.811H45.1772V283.484H124.4V173.811Z" fill="#D8D6D6"/>
<g opacity="0.1">
<path opacity="0.1" d="M83.7613 289C108.768 289 129.04 286.539 129.04 283.504C129.04 280.469 108.768 278.008 83.7613 278.008C58.7543 278.008 38.4822 280.469 38.4822 283.504C38.4822 286.539 58.7543 289 83.7613 289Z" fill="#0E1026"/>
</g>
<path d="M28.47 175.704C28.47 178.086 30.4032 179.999 32.7639 179.999H131.706C134.087 179.999 136 178.065 136 175.704V4.2949C136 1.91337 134.067 0 131.706 0H32.7639C30.3829 0 28.47 1.93372 28.47 4.2949V175.704Z" fill="#6F367B"/>
<path opacity="0.3" d="M131.706 179.999C134.087 179.999 136 178.065 136 175.704V4.2949C136 1.91337 134.067 0 131.706 0H32.7637" fill="url(#paint0_linear)"/>
<g opacity="0.3">
<path opacity="0.3" d="M130.139 37.1478C130.139 37.9213 129.508 38.5523 128.735 38.5523H107.225C106.452 38.5523 105.821 37.9213 105.821 37.1478V24.3853C105.821 23.6118 106.452 22.9808 107.225 22.9808H128.735C129.508 22.9808 130.139 23.6118 130.139 24.3853V37.1478Z" fill="white"/>
</g>
<g opacity="0.3">
<path opacity="0.3" d="M69.0684 41.5038C69.0684 42.5215 68.2544 43.3357 67.2369 43.3357H39.113C38.0955 43.3357 37.2815 42.5215 37.2815 41.5038V24.8127C37.2815 23.795 38.0955 22.9808 39.113 22.9808H67.2369C68.2544 22.9808 69.0684 23.795 69.0684 24.8127V41.5038Z" fill="white"/>
</g>
<g opacity="0.3">
<path opacity="0.3" d="M58.7915 25.1588H47.5378V39.6108H58.7915V25.1588Z" fill="white"/>
</g>
<g opacity="0.5">
<path opacity="0.5" d="M44.0581 32.3033L47.538 29.9422V25.1588L44.0581 27.4996V32.3033Z" fill="white"/>
</g>
<g opacity="0.5">
<path opacity="0.5" d="M62.2919 32.3033L58.812 29.9422V25.1588L62.2919 27.4996V32.3033Z" fill="white"/>
</g>
<g opacity="0.5">
<path opacity="0.5" d="M121.144 26.0341H113.818V35.438H121.144V26.0341Z" fill="white"/>
</g>
<g opacity="0.3">
<path opacity="0.3" d="M111.539 30.675L113.818 29.1484V26.0341L111.539 27.5607V30.675Z" fill="white"/>
</g>
<g opacity="0.3">
<path opacity="0.3" d="M123.424 30.675L121.144 29.1484V26.0341L123.424 27.5607V30.675Z" fill="white"/>
</g>
<g opacity="0.3">
<path opacity="0.3" d="M100.021 37.1478C100.021 37.9213 99.3902 38.5523 98.6169 38.5523H77.1068C76.3335 38.5523 75.7026 37.9213 75.7026 37.1478V24.3853C75.7026 23.6118 76.3335 22.9808 77.1068 22.9808H98.6169C99.3902 22.9808 100.021 23.6118 100.021 24.3853V37.1478Z" fill="white"/>
</g>
<g opacity="0.3">
<path opacity="0.3" d="M130.139 95.5666C130.139 96.3401 129.508 96.9711 128.735 96.9711H107.225C106.452 96.9711 105.821 96.3401 105.821 95.5666V82.8041C105.821 82.0306 106.452 81.3996 107.225 81.3996H128.735C129.508 81.3996 130.139 82.0306 130.139 82.8041V95.5666Z" fill="white"/>
</g>
<g opacity="0.3">
<path opacity="0.3" d="M69.0684 97.5207C69.0684 98.5385 68.2544 99.3527 67.2369 99.3527H39.113C38.0955 99.3527 37.2815 98.5385 37.2815 97.5207V80.8296C37.2815 79.8119 38.0955 78.9977 39.113 78.9977H67.2369C68.2544 78.9977 69.0684 79.8119 69.0684 80.8296V97.5207Z" fill="white"/>
</g>
<g opacity="0.3">
<path opacity="0.3" d="M49.3695 81.7659L46.3577 96.6048H49.8579L52.6255 84.7581L55.5966 96.6048H59.1579L55.9629 81.7659H49.3695Z" fill="white"/>
</g>
<g opacity="0.3">
<path opacity="0.3" d="M56.0646 81.9898C56.0646 82.1323 55.9628 82.2341 55.8203 82.2341H49.4507C49.3083 82.2341 49.2065 82.1323 49.2065 81.9898C49.2065 81.8474 49.3083 81.7456 49.4507 81.7456H55.8203C55.9628 81.766 56.0646 81.8677 56.0646 81.9898Z" fill="white"/>
</g>
<g opacity="0.3">
<path opacity="0.3" d="M49.9189 96.4826C49.9189 96.4215 49.8578 96.3605 49.7968 96.3605H46.5C46.439 96.3605 46.3779 96.4215 46.3779 96.4826C46.3779 96.5437 46.439 96.6048 46.5 96.6048H49.7968C49.8578 96.6048 49.9189 96.5437 49.9189 96.4826Z" fill="white"/>
</g>
<g opacity="0.3">
<path opacity="0.3" d="M59.1579 96.4826C59.1579 96.4215 59.0968 96.3605 59.0358 96.3605H55.739C55.678 96.3605 55.6169 96.4215 55.6169 96.4826C55.6169 96.5437 55.678 96.6048 55.739 96.6048H59.0358C59.0968 96.6048 59.1579 96.5437 59.1579 96.4826Z" fill="white"/>
</g>
<g opacity="0.3">
<path opacity="0.3" d="M69.0684 148.266C69.0684 149.283 68.2544 150.098 67.2369 150.098H39.113C38.0955 150.098 37.2815 149.283 37.2815 148.266V131.575C37.2815 130.557 38.0955 129.743 39.113 129.743H67.2369C68.2544 129.743 69.0684 130.557 69.0684 131.575V148.266Z" fill="white"/>
</g>
<path d="M99.3901 277.357C100.347 278.741 99.675 282.364 100.611 283.199C100.937 283.504 111.621 283.748 114.856 283.626C114.185 281.896 110.908 280.471 109.362 279.169C107.591 277.683 105.617 275.383 105.923 272.859" fill="#0E1026"/>
<path d="M56.6548 276.746C56.5734 279.128 56.6548 280.492 56.6548 282.853C56.6548 283.667 65.385 283.667 68.0102 283.687C69.0684 281.55 63.2686 279.82 64.8152 273.713" fill="#0E1026"/>
<path d="M78.5924 35.5195C80.0983 38.2877 80.3628 41.341 80.4646 44.5164C80.5867 48.6891 80.4646 53.5133 77.005 54.185C73.6473 54.8364 76.5777 58.0728 76.3131 62.2659C76.0079 67.375 66.4637 65.6448 62.1291 66.6015C61.6407 59.6401 60.9284 51.1114 63.5739 44.5164" fill="#F5A99C"/>
<path d="M101.995 85.0635C109.158 85.1042 114.47 45.8394 113.757 42.603C111.661 42.5012 111.275 42.5216 109.179 42.5826C109.097 47.2439 93.2241 75.1506 101.975 77.6543" fill="#0E1026"/>
<path d="M80.8716 59.8029C85.2672 59.8029 93.9974 68.1078 96.2359 70.5097C98.9425 73.4204 104.803 78.1224 104.111 82.6616C102.768 91.4346 84.616 75.5577 82.6217 71.5681" fill="#0E1026"/>
<path d="M38.0547 209.778L4.94507 212.974L16.5039 153.273L52.137 151.93L38.0547 209.778Z" fill="#1C2044"/>
<path d="M0 208.639L4.94508 212.974L17.4197 153.273L14.4486 149.487L0 208.639Z" fill="#272F59"/>
<path d="M47.2326 148.225L50.224 152.011L17.44 153.273L14.4485 149.507L47.2326 148.225Z" fill="#0E1026"/>
<path d="M4.94508 212.974L4.11073 206.562L0 208.639L4.94508 212.974Z" fill="#1C2044"/>
<path d="M59.1783 194.98L26.1093 205.768L23.8911 156.713L58.1608 145.579L59.1783 194.98Z" fill="#ADADAD"/>
<path d="M20.167 202.939L26.1092 205.768L25.0917 156.347L21.1845 153.538L20.167 202.939Z" fill="#D3D3D3"/>
<path d="M52.3811 143.36L56.2883 146.189L25.0916 156.347L21.1843 153.538L52.3811 143.36Z" fill="#8C8C8C"/>
<path d="M38.95 138.292C38.95 140.47 38.95 142.648 38.8686 144.826C38.8483 145.558 38.5634 146.169 38.889 146.882C39.2146 147.594 39.9065 148.123 40.6798 148.245C41.331 148.327 42.0229 148.388 42.6945 148.327C43.4271 148.266 44.6074 147.594 45.1365 147.105C46.0726 146.189 45.5028 144.276 45.0551 143.238C44.3632 141.63 43.3864 140.083 43.0201 138.414C42.9997 138.292 42.959 138.149 42.9387 138.027" fill="#F5A99C"/>
<path d="M45.4826 145.436C44.5261 144.683 43.0406 144.439 40.8835 144.642C38.1565 144.907 36.2029 146.373 35.3279 148.734L34.3511 149.039C35.1854 146.027 37.4646 144.134 40.7817 143.828C42.7353 143.645 44.9331 143.706 46.317 145.151L45.4826 145.436Z" fill="#0E1026"/>
<path d="M35.3481 152.276H36.1622C36.1622 148.103 38.421 145.396 42.2265 145.05C46.1134 144.683 47.8024 145.721 48.2094 148.734L49.0234 148.632C48.4129 144.235 45.0348 143.971 42.1451 144.256C37.8919 144.643 35.3481 147.635 35.3481 152.276Z" fill="#8C8C8C"/>
<path d="M36.1624 153.558H36.9764C36.9764 149.792 38.8282 145.803 42.9797 145.416C46.7037 145.07 48.5149 148.367 48.9219 151.299L49.7359 151.197C49.2475 147.635 46.9479 144.235 42.9186 144.602C38.2584 145.029 36.1624 149.406 36.1624 153.558Z" fill="#ADADAD"/>
<path d="M60.9285 59.1109C41.4941 62.9173 38.1363 70.5097 38.2177 101.103C38.238 110.385 38.177 131.066 38.2177 135.157C38.2584 139.859 39.4591 137.539 44.3024 136.399C45.1367 136.195 46.9886 107.332 47.3549 101.103C48.0061 89.8469 51.3842 79.018 56.4107 68.983" fill="#0E1026"/>
<path d="M36.4065 138.577L44.7297 139.35L45.4419 133.59L37.1187 132.837L36.4065 138.577Z" fill="white"/>
<path d="M81.0952 90.946C83.3947 110.955 80.0776 131.005 72.6091 167.257C65.0185 204.16 71.7137 233.899 64.5098 276.706C63.5533 277.031 56.4715 278.049 56.0645 275.891C45.8487 221.503 58.2826 201.799 54.8231 179.857C48.3111 138.699 48.7995 106.599 57.3872 91.1903" fill="#1C2044"/>
<path d="M81.8482 92.6762C90.2935 104.971 98.1283 152.784 97.701 192.741C97.4567 214.888 104.722 246.682 106.268 274.039C106.39 276.237 99.8581 277.683 98.9627 277.459C80.7086 243.425 91.6977 218.043 79.9963 182.36C68.5189 147.309 69.1904 114.293 68.6206 94.1825" fill="#1C2044"/>
<path d="M93.5088 136.521C93.5495 136.48 93.6106 136.439 93.6513 136.399C93.1629 132.633 92.6541 127.28 92.0233 123.819C87.5259 121.173 82.3569 121.316 79.162 121.112C72.4871 120.705 64.7134 120.196 58.3031 122.048C55.7389 122.781 52.8899 123.616 50.4479 125.041C50.3665 128.664 50.163 132.837 50.3665 136.908C52.2998 138.109 53.3173 138.943 54.4365 139.472C58.6694 141.467 64.2657 142.098 68.9462 142.322C78.1241 142.77 86.3456 142.302 93.5088 136.521Z" fill="white"/>
<path d="M91.2297 125.896C87.4446 133.651 50.509 137.6 50.3869 125.488C50.2241 109.815 52.6865 101.571 52.829 89.8673C52.89 85.0838 51.4655 80.3208 51.1602 75.5374C50.916 71.7717 49.2473 66.5608 50.9974 63.1005C52.9918 59.1312 66.9723 59.864 72.0395 59.864C78.5719 59.864 87.4853 57.971 86.1015 66.6015C85.5724 69.9194 85.1857 73.3187 85.4096 76.6569C87.4446 108.94 93.9159 120.379 91.2297 125.896Z" fill="#0E1026"/>
<path d="M61.437 36.6186C62.597 36.1912 63.7773 35.7434 64.632 34.8681C65.914 33.545 65.853 31.5095 68.0305 31.0821C69.3939 30.8175 78.8364 32.3644 78.348 29.7386C80.9324 30.5528 82.7436 33.199 83.0489 35.8248C83.4152 39.0409 81.3395 40.8728 78.9992 42.6844C75.8653 45.1474 76.0281 49.6865 76.0281 53.7982C75.9874 62.1234 80.444 69.8583 79.4469 78.2853C78.8974 82.9262 76.0484 88.5035 71.5917 90.254C66.8094 92.147 60.5416 91.3124 55.2709 91.4549C57.2652 90.315 59.4224 87.9335 60.3381 85.837C61.8847 82.2952 60.1753 81.1146 58.3438 78.2242C54.3959 71.9956 53.8057 65.2174 54.3145 58.0728C54.6197 53.8186 54.8639 49.5237 55.8407 45.3306C56.553 42.2162 56.8786 38.4709 60.2364 37.0868C60.623 36.924 61.03 36.7815 61.437 36.6186Z" fill="#1C2044"/>
<path d="M78.7347 45.7173C77.7375 45.6155 76.3741 45.3102 75.8653 46.389C75.2344 47.6917 76.6793 48.2006 77.6358 48.5873" fill="#F5A99C"/>
<path d="M109.626 42.8269C109.178 39.9975 108.832 36.6186 109.484 33.8096C109.687 32.9344 110.196 28.5173 111.336 29.413C112.434 30.2679 111.804 33.7486 111.722 34.9902C111.336 33.5043 113.208 33.9114 113.228 35.3363C113.289 34.7256 113.94 34.5017 114.388 34.9699C114.612 35.1938 114.49 36.0283 114.49 36.3336C115.894 34.5221 116.057 38.0231 115.853 38.8577C115.426 40.6285 114.571 42.1552 114.225 43.9668" fill="#F5A99C"/>
<path d="M106.838 46.4094L114.225 48.2413L115.711 43.0304L108.303 41.1985L106.838 46.4094Z" fill="white"/>
<path d="M26.1092 205.768L23.5451 199.825L20.167 202.939L26.1092 205.768Z" fill="#BFBFBF"/>
<path d="M39.8252 147.92C41.3311 148.775 43.8749 148.53 45.1366 147.329C45.7471 146.759 46.6425 144.846 46.2762 143.971C45.7064 142.627 42.3283 143.706 41.4736 144.317C40.1304 145.253 41.2497 146.515 40.7206 147.716" fill="#F5A99C"/>
<path d="M45.8286 283.199C45.8286 283.525 46.0932 283.789 46.4188 283.789H60.379C60.7046 283.789 60.9691 283.525 60.9691 283.199C60.9691 282.873 60.7046 282.609 60.379 282.609H46.4188C46.0932 282.609 45.8286 282.873 45.8286 283.199Z" fill="#6F367B"/>
<path d="M92.6746 283.199C92.6746 283.525 92.9391 283.789 93.2647 283.789H104.152C104.478 283.789 104.742 283.525 104.742 283.199C104.742 282.873 104.478 282.609 104.152 282.609H93.2647C92.9391 282.609 92.6746 282.873 92.6746 283.199Z" fill="#6F367B"/>
<g opacity="0.3">
<path opacity="0.3" d="M61.3557 142.485C61.3557 142.465 61.3557 142.444 61.3557 142.424C61.4574 141.141 61.2539 135.34 61.2539 135.34H54.3552C53.1342 138.902 49.0235 140.531 46.5204 140.755C43.8749 140.999 42.837 141.61 42.43 142.383C42.1858 142.465 42.0027 142.688 42.0027 142.973C42.0027 143.319 42.2876 143.584 42.6132 143.584H60.9894C61.3353 143.584 61.5999 143.299 61.5999 142.973C61.6202 142.77 61.5185 142.587 61.3557 142.485Z" fill="white"/>
</g>
<g opacity="0.3">
<path opacity="0.3" d="M42.0027 142.973C42.0027 143.319 42.2876 143.584 42.6132 143.584H60.9894C61.3353 143.584 61.5999 143.299 61.5999 142.973C61.5999 142.627 61.315 142.363 60.9894 142.363H42.6132C42.2672 142.363 42.0027 142.627 42.0027 142.973Z" fill="white"/>
</g>
</g>
<defs>
<linearGradient id="paint0_linear" x1="46.3303" y1="114.842" x2="112.275" y2="70.0754" gradientUnits="userSpaceOnUse">
<stop stop-color="white"/>
<stop offset="1" stop-color="#6F367B"/>
</linearGradient>
<clipPath id="clip0">
<rect width="136" height="289" fill="white"/>
</clipPath>
</defs>
</svg>
