<svg width="526" height="442" viewBox="0 0 526 442" fill="none" xmlns="http://www.w3.org/2000/svg">
<g clip-path="url(#clip0)">
<path opacity="0.2" d="M212.715 442C330.195 442 425.431 424.505 425.431 402.923C425.431 381.342 330.195 363.847 212.715 363.847C95.2359 363.847 0 381.342 0 402.923C0 424.505 95.2359 442 212.715 442Z" fill="#0E1026"/>
<path d="M358.288 179.608C342.226 170.924 321.388 196.251 338.463 212.172C352.21 225.052 370.588 221.868 393.885 218.54C414.867 215.645 450.465 200.883 481.576 193.067C489.824 191.041 484.615 188.291 477.235 188.581C474.63 188.581 473.038 185.252 472.025 182.792L469.276 181.055C453.359 182.068 382.019 192.344 358.288 179.608Z" fill="#F5A99C"/>
<path d="M465.948 181.634C469.421 180.91 473.907 177.871 476.945 176.134C478.826 174.976 480.563 173.819 482.444 172.661C483.891 171.792 488.811 168.464 490.692 170.345C493.007 172.805 486.93 178.45 485.483 179.897C484.036 181.344 482.589 182.647 481.142 184.094C479.984 185.252 476.511 186.844 476.366 188.581" fill="#C97E79"/>
<path d="M488.522 194.37C500.532 189.304 528.894 185.976 525.855 181.923C524.408 180.187 522.238 180.187 520.357 180.331C515.726 180.766 483.312 186.41 478.682 184.239C475.932 182.936 471.447 183.081 471.447 183.081C469.131 185.252 466.961 189.883 466.237 193.067" fill="#F5A99C"/>
<path d="M277.543 135.176C293.171 139.807 307.063 148.491 321.244 156.162C329.926 160.793 338.898 164.845 347.435 169.911C362.05 178.595 373.337 189.015 367.838 207.251C365.957 213.474 365.089 222.303 357.998 225.052C349.895 228.092 339.766 223.605 332.096 221C322.546 217.816 281.884 201.896 272.912 193.357" fill="#131535"/>
<path d="M122.275 139.663C108.239 150.373 64.9724 208.264 59.6183 219.987C53.1066 234.315 67.7217 233.302 76.9828 241.696C80.8898 245.17 78.2851 248.498 83.9286 249.367C93.4791 250.814 99.412 246.472 106.213 240.972C114.027 234.604 122.709 211.737 128.063 200.593" fill="#131535"/>
<path d="M282.463 251.538C280.871 229.394 295.486 173.095 278.99 136.479C275.662 129.098 239.63 130.979 231.382 130.979H164.818C151.94 131.558 131.536 130.111 122.42 140.097C116.342 146.61 116.921 194.659 120.105 218.395C125.748 262.248 126.182 261.958 112.001 304.798C104.911 326.217 101.582 345.177 101.727 367.32C127.629 373.544 162.069 368.189 188.694 369.202C220.529 370.36 252.509 370.36 284.344 371.517C290.422 371.807 311.982 374.991 315.889 369.781C320.375 363.992 312.272 349.953 310.97 343.874C308.654 333.02 295.052 336.783 292.737 325.783C286.804 298.719 284.489 280.194 282.463 251.538Z" fill="#6F367B"/>
<path d="M59.9076 339.532C67.8663 351.979 41.096 323.757 50.7912 335.191C54.4088 339.388 71.918 363.847 75.825 367.61C85.9543 377.451 144.704 415.804 144.704 415.804C152.808 410.449 172.632 390.332 165.542 378.898C162.503 373.833 156.425 369.781 151.65 366.452C141.955 359.65 132.983 353.716 122.13 348.506C112.29 343.729 99.7012 336.059 88.559 335.191" fill="#0E1026"/>
<path d="M174.079 390.043C166.844 390.622 158.596 396.99 151.65 399.595C145.283 402.055 139.206 404.081 133.562 408.134C121.407 416.962 127.919 428.685 140.508 431.869C154.255 435.343 168.87 429.409 182.038 426.08C187.826 424.633 197.232 420.58 199.837 420.725" fill="#0E1026"/>
<path d="M177.697 387.148C170.462 387.727 162.214 394.095 155.268 396.7C148.901 399.16 142.823 401.187 137.18 405.239C125.025 414.067 131.536 425.79 144.126 428.974C157.872 432.448 172.488 426.514 185.656 423.185C191.444 421.738 203.454 417.83 203.454 417.83" fill="#6F367B"/>
<path d="M275.517 406.831C270.308 399.16 259.31 398.437 250.772 399.16C245.563 399.595 244.261 404.805 241.945 409.291C240.209 412.765 235.144 422.317 236.302 426.369C237.026 428.974 259.744 432.737 269.295 431.145" fill="#F5A99C"/>
<path d="M324.138 428.83C333.688 424.343 330.36 412.62 321.533 406.976C314.008 402.2 275.517 398.437 262.494 399.305C265.388 402.489 268.571 409.726 269.295 414.068C269.729 416.962 269.439 430.567 264.23 430.277C278.556 431.29 317.192 432.159 324.138 428.83Z" fill="#0E1026"/>
<path d="M321.244 430.277C330.794 425.79 327.466 414.067 318.639 408.423C311.114 403.647 269.295 400.174 262.494 399.305C265.388 402.489 265.677 411.173 266.401 415.515C266.835 418.409 266.545 432.014 261.336 431.724C275.662 432.737 314.298 433.606 321.244 430.277Z" fill="#6F367B"/>
<path d="M162.503 377.307C162.648 377.596 162.648 377.885 162.648 378.03C164.963 388.306 172.488 389.898 181.459 394.674C186.524 397.424 192.746 399.595 198.39 401.187C210.689 404.66 222.121 404.371 234.421 401.621C244.116 399.45 254.68 398.147 264.664 396.845C275.372 395.398 286.225 392.214 296.933 389.608C316.613 384.832 336.727 381.214 355.973 374.412C369.575 369.636 386.216 363.847 397.069 354.005C418.485 334.612 407.343 295.39 377.244 294.522C363.208 294.088 352.066 300.89 338.608 304.219C324.282 307.692 309.812 311.455 296.21 316.665C272.768 325.783 248.602 336.059 223.858 342.138C208.374 346.045 192.457 348.361 176.829 351.979C172.198 352.992 162.214 352.992 159.03 357.479C155.557 362.399 161.056 371.807 162.503 377.307Z" fill="#1C2044"/>
<path d="M104.187 301.903C109.975 301.903 117.645 308.561 123.288 310.587C130.668 313.192 194.193 347.058 196.219 348.071L203.744 346.624C209.677 344.598 248.168 368.912 254.246 375.714C257.863 379.767 263.941 386.135 264.085 392.069C264.375 401.187 252.364 398.582 246.432 397.424C226.318 393.661 209.387 381.069 191.01 372.965C174.224 365.583 158.596 356.755 142.823 347.348C134.43 342.427 126.472 337.217 118.658 331.138C111.712 325.639 102.161 321.441 96.6626 314.494" fill="#0E1026"/>
<path d="M244.84 429.409C240.933 435.921 237.17 433.895 230.08 433.027C201.863 430.132 84.5074 373.399 67.4323 362.255C55.2771 354.295 40.662 344.743 32.4138 332.73C16.207 308.85 36.4656 273.392 65.9852 279.615C79.7321 282.509 88.9932 291.917 101.148 298.14C114.172 304.942 127.34 312.034 139.35 320.428C159.898 334.901 259.455 392.069 261.481 397.134C263.217 402.055 249.326 421.883 244.84 429.409Z" fill="#1C2044"/>
<path d="M231.382 130.979H164.963C178.71 147.623 198.1 254.866 231.382 130.979Z" fill="#131535"/>
<path d="M220.529 130.979L214.452 92.0471L179.578 92.6261L179.289 130.979C187.971 142.268 206.638 149.649 220.529 130.979Z" fill="#F5A99C"/>
<path d="M214.452 92.0471L179.578 92.6261L179.433 109.559C183.774 121.716 206.638 129.821 219.951 127.506L216.188 103.336L214.452 92.0471Z" fill="#C97E79"/>
<path d="M161.2 38.4977C155.702 59.628 170.751 133.729 206.493 113.467C219.372 106.231 224.002 91.3235 226.173 77.4296C227.909 65.8513 231.093 45.0105 222.555 35.1689" fill="#F5A99C"/>
<path d="M189.997 81.7714C193.036 78.7321 196.219 77.8638 198.968 81.482L189.997 81.7714Z" fill="#C97E79"/>
<path d="M180.88 71.4958C181.999 71.4958 182.906 70.5886 182.906 69.4696C182.906 68.3505 181.999 67.4434 180.88 67.4434C179.762 67.4434 178.854 68.3505 178.854 69.4696C178.854 70.5886 179.762 71.4958 180.88 71.4958Z" fill="#0E1026"/>
<path d="M209.387 71.6405C210.506 71.6405 211.413 70.7333 211.413 69.6143C211.413 68.4952 210.506 67.5881 209.387 67.5881C208.268 67.5881 207.361 68.4952 207.361 69.6143C207.361 70.7333 208.268 71.6405 209.387 71.6405Z" fill="#0E1026"/>
<path d="M162.503 65.5619C150.348 63.8251 154.689 84.5213 165.976 79.1663L162.503 65.5619Z" fill="#F5A99C"/>
<path d="M226.462 64.6935C234.855 60.0622 241.512 85.1002 223.713 81.1925L226.462 64.6935Z" fill="#F5A99C"/>
<path d="M200.126 59.7728L199.547 58.6149C206.638 55.2862 212.426 56.1545 218.938 58.3255L218.503 59.628C212.136 57.3124 206.782 56.5887 200.126 59.7728Z" fill="#0E1026"/>
<path d="M171.619 59.7728L171.041 58.6149C178.131 55.2862 183.919 56.1545 190.431 58.3255L189.997 59.628C183.63 57.3124 178.276 56.5887 171.619 59.7728Z" fill="#0E1026"/>
<path d="M181.025 79.89C180.157 79.89 179.289 79.7453 178.421 79.6005C173.211 78.1532 168.581 72.943 169.883 66.4303C170.317 63.9699 172.922 63.5357 173.79 63.5357C174.369 63.391 175.816 63.391 178.131 63.391C181.749 63.391 186.379 63.5357 187.971 63.6804C189.997 63.8251 191.444 65.4172 192.023 67.7328C192.602 70.3379 190.72 73.9561 189.563 75.6929C187.682 78.298 184.353 79.89 181.025 79.89ZM177.986 64.6935C175.816 64.6935 174.369 64.6935 173.935 64.8382C172.198 65.1277 171.33 65.7066 171.185 66.7197C170.028 72.3641 174.224 76.9954 178.71 78.298C179.433 78.4427 180.157 78.5874 181.025 78.5874C184.064 78.5874 186.813 77.1401 188.26 74.9692C189.418 73.2325 190.865 70.0485 190.576 68.0223C190.286 66.7197 189.418 65.1277 187.826 65.1277C186.09 64.8382 181.604 64.6935 177.986 64.6935Z" fill="#0E1026"/>
<path d="M209.098 79.89C205.625 79.89 202.441 78.298 200.705 75.6929C199.547 73.9561 197.666 70.3379 198.245 67.7328C198.679 65.4172 200.271 63.8251 202.296 63.6804C203.888 63.5357 208.519 63.391 212.136 63.391C214.452 63.391 215.899 63.391 216.478 63.5357C217.346 63.6804 219.806 64.1146 220.385 66.4303C221.687 72.7983 217.056 78.1532 211.847 79.6005C210.834 79.7453 209.966 79.89 209.098 79.89ZM211.992 64.6935C208.374 64.6935 203.888 64.8382 202.296 64.983C200.705 65.1277 199.692 66.7197 199.547 67.8775C199.113 69.9037 200.705 73.0878 201.862 74.8245C203.309 76.9954 206.059 78.4427 209.098 78.4427C209.821 78.4427 210.689 78.298 211.413 78.1532C215.899 76.9954 220.095 72.2194 218.937 66.575C218.648 65.4172 217.925 64.983 216.188 64.6935C215.609 64.6935 214.162 64.6935 211.992 64.6935Z" fill="#0E1026"/>
<path d="M184.932 90.3104C186.669 93.0602 189.563 94.6523 192.312 95.2312C198.968 96.8232 202.586 93.9286 205.914 90.1657" fill="white"/>
<path d="M161.201 38.4977C167.712 41.6817 165.686 67.1539 162.358 71.351C160.332 69.4695 158.451 65.5619 157.149 63.1015C155.268 59.3386 154.11 56.0098 154.11 51.8127C154.11 47.3261 155.847 39.5108 161.201 38.4977Z" fill="#0E1026"/>
<path d="M227.475 67.0092C220.24 66.4303 221.253 41.3923 212.86 37.1952C214.307 35.169 217.925 30.3929 220.674 30.2482C224.002 29.9587 227.475 40.0897 228.199 42.9843C230.225 50.3654 230.225 59.628 227.475 67.0092Z" fill="#0E1026"/>
<path d="M217.78 2.74983C222.41 5.49966 227.186 9.2626 228.922 14.4728C232.106 24.0249 223.423 34.59 215.031 37.4846C207.651 40.0897 199.837 37.4846 192.312 38.353C185.8 39.0766 179.867 42.8395 173.211 42.8395C167.568 42.8395 161.056 38.353 161.056 38.353C161.345 33.8664 162.069 25.038 164.674 21.4198C166.41 19.1041 168.436 16.499 170.896 15.0517C174.948 12.5913 179.867 12.8808 184.064 10.5652C187.826 8.39423 191.299 5.78912 194.917 3.18401C201.428 -0.868378 210.979 -1.15783 217.78 2.74983Z" fill="#0E1026"/>
<path d="M199.402 67.4434H191.154V68.7459H199.402V67.4434Z" fill="#0E1026"/>
<path d="M161.355 63.8686L161.058 65.1369L170.358 67.3109L170.654 66.0426L161.355 63.8686Z" fill="#0E1026"/>
<path d="M218.938 66.4302L218.648 65.1277L227.475 63.391L227.765 64.6935L218.938 66.4302Z" fill="#0E1026"/>
<path d="M96.5177 224.908C83.2049 211.882 61.2098 203.343 57.5922 226.789C54.6981 245.749 67.8662 259.498 83.9284 277.299C98.3988 293.364 144.27 328.388 160.043 340.401C166.844 345.611 159.464 319.994 159.464 319.994C149.335 307.258 110.12 238.223 96.5177 224.908Z" fill="#F5A99C"/>
<path d="M155.702 315.942C168.146 326.073 184.353 351.255 186.813 367.465C181.893 370.36 173.645 348.216 169.883 346.335C170.606 349.663 178.276 361.097 179.144 367.899C173.645 370.36 163.661 348.361 160.911 345.466C161.201 347.348 170.896 365.005 171.185 366.886C165.686 369.346 153.821 348.795 151.216 344.887C152.374 348.071 154.834 352.558 156.136 360.518C156.425 362.11 153.676 364.86 142.244 344.308C140.363 340.98 132.839 318.547 129.655 310.732" fill="#F5A99C"/>
</g>
<defs>
<clipPath id="clip0">
<rect width="526" height="442" fill="white"/>
</clipPath>
</defs>
</svg>
