<svg width="707" height="679" viewBox="0 0 707 679" fill="none" xmlns="http://www.w3.org/2000/svg">
<g clip-path="url(#clip0)">
<path opacity="0.1" d="M296.535 590.4C340.493 590.4 376.127 578.482 376.127 563.781C376.127 549.079 340.493 537.161 296.535 537.161C252.578 537.161 216.943 549.079 216.943 563.781C216.943 578.482 252.578 590.4 296.535 590.4Z" fill="#28296B"/>
<path d="M243.143 63.5693H242.548V81.0509H243.143V63.5693Z" fill="#D8D8D8"/>
<path d="M220.715 61.7814C220.715 63.5693 220.715 65.3572 220.715 67.1451C220.715 70.1249 221.112 72.7074 222.302 75.4886C224.883 81.4482 230.242 84.0307 235.998 86.4145C239.571 87.8051 245.922 88.2024 249.098 85.8186C251.48 83.832 251.281 81.8455 250.884 79.0643C249.892 84.0307 243.937 81.0509 230.639 74.6939C226.074 72.5087 227.86 64.5626 227.265 60.1922C226.868 57.411 222.898 56.6164 220.715 55.8218C220.119 57.8083 220.715 59.5962 220.715 61.7814Z" fill="#C97E79"/>
<path d="M217.89 53.9435L217.136 55.7812L257.715 72.4511L258.469 70.6133L217.89 53.9435Z" fill="white"/>
<path d="M274.107 76.8792C276.885 78.0711 284.626 81.8455 287.207 83.6334C293.36 88.2024 292.764 118.994 292.764 118.994C292.764 118.994 278.87 115.617 276.687 114.623C274.107 113.432 273.71 105.088 271.923 101.314" fill="#E2978D"/>
<path d="M292.764 119.138C292.919 118.611 289.292 117.083 284.664 115.723C280.036 114.364 276.159 113.689 276.005 114.215C275.851 114.741 279.477 116.27 284.105 117.629C288.733 118.989 292.61 119.664 292.764 119.138Z" fill="#C97E79"/>
<path d="M250.884 67.3436C250.09 67.3436 250.09 68.3369 250.09 69.1315V79.2629C250.09 83.0373 247.113 85.0239 243.54 83.6333L230.043 78.071C226.471 76.6804 223.493 72.31 223.493 68.3369V58.2055C223.493 57.8082 223.295 56.6163 224.287 56.4177L199.278 46.0876V174.021C199.278 195.078 273.908 224.479 273.908 201.833V76.879L250.884 67.3436Z" fill="#E2978D"/>
<path d="M200.469 46.485C195.706 44.1012 183.797 43.1079 183.797 50.8554C183.797 56.6164 182.01 78.667 182.01 78.667L198.683 83.6334C199.278 81.4482 199.278 71.7141 201.859 70.3235" fill="#E2978D"/>
<path d="M241.357 98.3336H240.761V65.357C240.761 64.3637 240.96 63.5691 241.158 63.1718C241.555 62.5759 241.952 62.3772 242.349 62.3772C242.746 62.3772 243.342 62.7745 243.342 63.7678H242.746C242.746 63.3705 242.548 62.9732 242.349 62.9732C242.151 62.9732 241.952 63.1718 241.754 63.5691C241.555 63.9664 241.357 64.5624 241.357 65.5557V98.3336Z" fill="#D8D8D8"/>
<path d="M246.319 128.33L235.601 124.357V95.5525L246.319 99.7242V128.33Z" fill="white"/>
<path d="M245.724 117.802L236.196 114.425V112.637L245.724 116.014V117.802Z" fill="#D8D8D8"/>
<path d="M243.937 120.583L238.181 118.398V116.61L243.937 118.795V120.583Z" fill="#D8D8D8"/>
<path d="M242.801 110.44C244.473 109.617 245.005 107.273 243.989 105.206C242.973 103.138 240.794 102.13 239.121 102.953C237.449 103.776 236.917 106.12 237.934 108.187C238.95 110.255 241.129 111.263 242.801 110.44Z" fill="#D8D8D8"/>
<path d="M198.728 83.5603C198.882 83.034 195.256 81.5053 190.628 80.1459C186 78.7865 182.123 78.1112 181.969 78.6375C181.815 79.1639 185.441 80.6926 190.069 82.052C194.697 83.4114 198.574 84.0867 198.728 83.5603Z" fill="#C97E79"/>
<path d="M185.186 88.4009H184.59V105.882H185.186V88.4009Z" fill="#D8D8D8"/>
<path d="M162.559 86.8119C162.559 88.5998 162.559 90.3877 162.559 92.1756C162.559 95.1554 162.956 97.7379 164.146 100.519C166.727 106.479 172.086 109.061 177.842 111.445C181.415 112.836 187.766 113.233 190.942 110.849C193.324 108.863 193.125 106.876 192.728 104.095C191.736 109.061 185.781 106.081 172.483 99.7244C167.918 97.5393 169.704 89.5931 169.109 85.2227C168.712 82.4415 164.742 81.6469 162.559 80.8523C161.963 82.6402 162.559 84.6267 162.559 86.8119Z" fill="#212356"/>
<path d="M159.928 78.8729L159.175 80.7107L199.754 97.3805L200.508 95.5428L159.928 78.8729Z" fill="white"/>
<path d="M211.386 100.122C214.164 101.314 222.699 103.697 223.89 106.479C243.342 155.943 225.081 217.924 225.081 217.924C225.081 217.924 214.164 215.341 212.378 213.752C204.836 206.6 210.79 138.66 210.195 133.297" fill="#212356"/>
<path d="M225.114 217.851C225.268 217.324 221.642 215.796 217.014 214.436C212.386 213.077 208.509 212.401 208.355 212.928C208.2 213.454 211.827 214.983 216.455 216.342C221.083 217.702 224.96 218.377 225.114 217.851Z" fill="#212356"/>
<path d="M145.688 72.906C140.924 70.5221 135.168 67.9396 132.786 75.2898C127.427 91.9768 132.786 190.509 132.786 190.509L148.466 196.27C151.047 195.078 146.878 99.1283 149.26 97.7378" fill="#212356"/>
<path d="M192.927 92.3742C192.133 92.3742 192.133 93.3674 192.133 94.1621V104.293C192.133 108.068 189.155 110.054 185.583 108.664L172.086 103.101C168.513 101.711 165.536 97.3405 165.536 93.3674V83.2361C165.536 82.8388 165.337 81.6468 166.33 81.4482L141.321 71.1182C142.115 71.5155 149.26 147.203 141.321 199.051C138.145 219.711 219.127 249.311 215.951 226.863C207.217 166.075 216.348 102.108 215.951 101.91C216.149 101.91 192.927 92.3742 192.927 92.3742Z" fill="#131535"/>
<path d="M187.195 184.702C199.827 180.307 204.642 161.119 197.948 141.842C191.254 122.566 175.587 110.502 162.954 114.896C150.322 119.291 145.507 138.479 152.201 157.756C158.895 177.032 174.562 189.096 187.195 184.702Z" fill="#212356"/>
<path d="M183.201 155.546H182.606V90.3875C182.606 89.3943 182.804 88.5996 183.003 88.2023C183.4 87.6064 183.797 87.4077 184.194 87.4077C184.591 87.4077 185.186 87.805 185.186 88.7983H184.591C184.591 88.401 184.392 88.0037 184.194 88.0037C183.995 88.0037 183.797 88.2023 183.598 88.5996C183.4 88.9969 183.201 89.5929 183.201 90.5862V155.546Z" fill="#D8D8D8"/>
<path d="M188.362 185.543L177.445 181.57V152.765L188.362 156.937V185.543Z" fill="white"/>
<path d="M187.766 175.014L178.239 171.637V169.849L187.766 173.226V175.014Z" fill="#D8D8D8"/>
<path d="M185.781 177.795L180.025 175.61V173.822L185.781 176.007V177.795Z" fill="#D8D8D8"/>
<path d="M184.833 167.617C186.505 166.793 187.037 164.45 186.021 162.383C185.005 160.315 182.826 159.307 181.153 160.13C179.481 160.953 178.949 163.297 179.966 165.364C180.982 167.431 183.161 168.44 184.833 167.617Z" fill="#D8D8D8"/>
<path d="M308.643 332.547C308.643 356.783 308.643 381.019 308.643 405.056C308.643 411.413 318.567 411.413 318.567 405.056C318.567 380.82 318.567 356.584 318.567 332.547C318.567 326.19 308.643 326.19 308.643 332.547Z" fill="#EE4574"/>
<path d="M51.0104 521.865C51.0104 488.689 51.0104 455.713 51.0104 422.537C51.0104 419.359 46.2468 419.359 46.2468 422.537C46.2468 455.713 46.2468 488.689 46.2468 521.865C46.2468 525.043 51.0104 525.043 51.0104 521.865Z" fill="#BABABA"/>
<path d="M531.342 60.5894L395.976 1.19182C392.403 -0.397411 389.029 -0.198757 386.449 0.993168L374.738 6.15818L389.227 53.8352L390.815 54.0338L398.953 350.426C398.953 359.167 405.503 369.298 413.641 372.675L512.089 422.935L528.166 445.383L539.281 440.416C543.45 439.224 546.228 435.45 546.228 429.689V82.8387C546.228 73.8993 539.48 63.9665 531.342 60.5894Z" fill="#131535"/>
<path d="M534.319 434.854C534.319 443.595 527.769 448.164 519.631 444.787L384.265 385.389C376.128 382.012 369.578 372.079 369.578 363.14V16.0909C369.578 7.35014 376.128 2.78109 384.265 6.15821L519.631 65.5558C527.769 68.9329 534.319 78.8657 534.319 87.8051V434.854Z" fill="#6F367B"/>
<path d="M421.382 251.099C410.068 248.715 373.746 234.412 360.844 233.22C353.5 232.624 353.699 249.311 361.837 251.297C367.99 252.887 409.076 257.654 424.161 258.648C434.482 259.244 430.711 253.085 421.382 251.099Z" fill="#F5A99C"/>
<path d="M510.104 97.1416C510.104 98.7309 508.516 99.3268 506.531 98.5322L384.861 45.0942C382.876 44.2996 381.288 42.1144 381.288 40.5252C381.288 38.936 382.876 38.34 384.861 39.1346L506.531 92.5726C508.516 93.5659 510.104 95.5524 510.104 97.1416Z" fill="white"/>
<path d="M54.7818 456.11C58.7514 457.898 65.1029 457.898 68.8741 456.11L354.294 329.766C358.264 327.978 358.264 325.197 354.294 323.409L302.887 300.166C298.917 298.378 292.566 298.378 288.794 300.166L2.58048 422.339C-1.3892 424.127 -0.396785 431.079 3.37441 432.867L54.7818 456.11Z" fill="#402C61"/>
<path d="M54.7818 451.541C58.7515 453.329 65.103 453.329 68.8742 451.541L354.294 325.197C358.264 323.409 358.264 320.628 354.294 318.84L302.887 295.598C298.917 293.81 292.566 293.81 288.794 295.598L3.37448 421.942C-0.595203 423.729 -0.595203 426.511 3.37448 428.299L54.7818 451.541Z" fill="#6F367B"/>
<path d="M48.8273 429.888C52.5544 429.888 55.5758 428.909 55.5758 427.703C55.5758 426.496 52.5544 425.517 48.8273 425.517C45.1002 425.517 42.0789 426.496 42.0789 427.703C42.0789 428.909 45.1002 429.888 48.8273 429.888Z" fill="#BABABA"/>
<path d="M472.59 100.122C472.59 101.711 471.003 102.307 469.018 101.512L384.662 64.5625C382.677 63.7679 381.089 61.5827 381.089 59.9935C381.089 58.4042 382.677 57.8083 384.662 58.6029L469.018 95.5525C471.003 96.5458 472.59 98.5324 472.59 100.122Z" fill="white"/>
<path d="M512.089 372.079C512.089 373.669 510.501 374.264 508.516 373.47L386.846 320.23C384.861 319.436 383.273 317.251 383.273 315.661C383.273 314.072 384.861 313.476 386.846 314.271L508.516 367.51C510.303 368.503 512.089 370.49 512.089 372.079Z" fill="white"/>
<path d="M475.171 373.867C475.171 375.456 473.583 376.052 471.598 375.258L386.647 337.911C384.662 337.116 383.074 334.931 383.074 333.342C383.074 331.752 384.662 331.156 386.647 331.951L471.598 369.298C473.583 370.291 475.171 372.278 475.171 373.867Z" fill="white"/>
<path d="M458.498 256.462C458.498 254.675 458.697 252.887 458.498 251.099C458.3 249.112 457.506 247.126 456.911 245.338C455.918 242.954 454.529 241.961 452.147 241.166C449.765 240.371 447.582 241.563 446.986 243.947C446.589 245.735 446.788 248.516 447.185 250.105C447.582 252.092 451.552 263.217 454.926 260.436" fill="#D8D8D8"/>
<path d="M457.308 257.257C458.895 251.893 458.498 244.146 452.147 242.557L534.319 203.223V221.897L457.308 257.257Z" fill="white"/>
<path d="M467.43 254.675C469.018 249.311 468.621 236.796 462.468 235.207L449.17 241.166C455.521 242.755 455.918 255.469 454.33 260.833L467.43 254.675Z" fill="white"/>
<path d="M452.147 301.159L412.252 279.308V251.099L452.147 268.382V301.159Z" fill="#131535"/>
<path d="M491.645 250.304L451.551 233.418L412.252 251.099L452.147 268.382L491.645 250.304Z" fill="#212356"/>
<path d="M452.147 301.159L491.645 282.883V250.304L452.147 268.381V301.159Z" fill="#1C2044"/>
<path d="M502.165 278.712C502.165 277.123 502.363 275.533 502.165 273.944C501.966 272.156 501.371 270.368 500.775 268.779C499.981 266.793 498.592 265.601 496.409 265.005C494.424 264.409 492.241 265.402 491.844 267.587C491.447 269.177 491.645 271.56 492.042 273.15C492.439 274.938 496.012 284.87 498.989 282.486" fill="#D8D8D8"/>
<path d="M520.624 261.826C522.212 265.402 520.624 269.772 517.051 271.362L481.523 287.453C477.553 289.241 476.56 288.843 476.362 288.049C476.163 287.055 482.515 284.076 482.713 283.678C482.713 283.678 471.4 289.042 470.804 287.055C470.209 284.87 481.126 281.096 481.92 280.5C481.92 280.5 468.82 286.062 468.224 283.678C467.629 281.692 480.927 276.725 480.927 276.725C480.133 276.725 468.026 281.493 467.43 280.102C466.636 278.116 482.316 272.355 482.316 272.355C480.729 271.958 476.56 269.971 475.965 268.978C474.973 267.587 475.37 266.197 476.56 266.594C478.148 266.991 481.324 267.389 482.912 267.985C483.309 268.183 483.706 268.183 484.103 268.382C484.897 268.581 489.263 270.766 490.454 271.163L514.471 260.237C518.044 258.449 518.838 258.25 520.624 261.826Z" fill="#F5A99C"/>
<path d="M500.974 280.301C502.562 274.937 502.165 267.19 495.813 265.601L534.319 248.119V265.799L500.974 280.301Z" fill="white"/>
<path d="M510.104 277.123C511.494 272.355 511.295 261.23 505.539 259.641L493.63 265.005C499.386 266.594 499.585 277.719 498.195 282.486L510.104 277.123Z" fill="white"/>
<path opacity="0.5" d="M534.319 199.052C523.403 197.661 511.295 198.853 500.775 198.853C487.874 198.853 474.774 198.654 461.873 198.853C453.536 199.052 441.826 201.237 436.467 208.388C431.108 215.739 426.741 232.624 432.1 240.57L472.591 259.442C472.591 259.442 472.194 286.658 472.194 294.803C472.194 304.14 471.995 313.476 472.392 322.813C472.392 321.82 486.882 324.8 487.874 324.998C495.813 325.396 495.615 325.793 501.966 320.032C502.959 319.237 503.753 318.244 504.547 317.251C512.883 307.914 521.815 300.365 529.953 291.823C531.342 290.432 532.731 288.843 534.121 287.254V199.052H534.319Z" fill="#6F367B"/>
<path d="M126.435 114.822H125.839V132.304H126.435V114.822Z" fill="#D8D8D8"/>
<path d="M103.807 113.233C103.807 115.02 103.807 116.808 103.807 118.596C103.807 121.576 104.204 124.159 105.395 126.94C107.975 132.899 113.334 135.482 119.09 137.866C122.663 139.256 129.015 139.654 132.19 137.27C134.572 135.283 134.374 133.297 133.977 130.515C132.984 135.482 127.03 132.502 113.731 126.145C109.166 123.96 110.953 116.014 110.357 111.643C109.96 108.862 105.99 108.068 103.807 107.273C103.212 109.061 103.807 111.047 103.807 113.233Z" fill="#C97E79"/>
<path d="M101.195 105.181L100.441 107.018L141.021 123.688L141.774 121.85L101.195 105.181Z" fill="white"/>
<path d="M133.977 118.596C133.183 118.596 133.183 119.59 133.183 120.384V130.516C133.183 134.29 130.206 136.277 126.633 134.886L113.136 129.324C109.563 127.933 106.586 123.563 106.586 119.59V109.458C106.586 109.061 106.388 107.869 107.38 107.67C102.616 105.684 93.6846 99.7243 88.5241 102.903C82.768 106.28 79.7908 114.425 79.7908 120.186C79.7908 131.31 82.3711 142.038 82.3711 153.162C82.3711 174.22 82.3711 195.277 82.3711 216.533C82.3711 219.513 82.3711 222.493 82.3711 225.472C82.3711 246.53 157.001 275.93 157.001 253.284C157.001 246.728 157.001 240.173 157.001 233.617C157.001 219.314 156.604 204.812 156.604 190.509C156.604 176.206 161.963 168.26 161.963 147.6C161.963 141.044 162.559 129.721 155.215 126.145C149.856 123.165 139.931 120.98 133.977 118.596Z" fill="#F5A99C"/>
<path d="M115.518 253.88C116.312 254.277 117.106 254.476 117.9 254.873C117.9 247.722 117.9 240.769 117.9 233.617C117.9 218.519 117.9 203.223 117.9 188.125C117.9 173.822 117.9 159.718 117.9 145.415C117.9 142.038 117.701 138.66 119.289 135.681C119.884 134.29 120.678 133.098 121.869 132.105C121.075 130.913 118.694 130.118 117.503 129.522C115.915 128.728 113.731 127.536 111.945 127.337C116.312 132.304 115.518 139.058 115.518 145.216C115.518 151.374 115.518 157.533 115.518 163.89C115.518 178.987 115.518 194.085 115.518 209.183C115.518 221.301 115.518 233.617 115.518 245.735C115.518 246.331 114.922 253.681 115.518 253.88Z" fill="#C97E79"/>
<path d="M124.45 149.785H123.854V116.808C123.854 115.815 124.053 115.021 124.251 114.623C124.648 114.027 125.045 113.829 125.442 113.829C125.839 113.829 126.435 114.226 126.435 115.219H125.839C125.839 114.822 125.641 114.425 125.442 114.425C125.244 114.425 125.045 114.623 124.847 115.021C124.648 115.418 124.45 116.014 124.45 117.007V149.785Z" fill="#D8D8D8"/>
<path d="M129.61 179.583L118.694 175.61V147.004L129.61 150.977V179.583Z" fill="white"/>
<path d="M128.816 169.253L119.289 165.677V163.889L128.816 167.465V169.253Z" fill="#D8D8D8"/>
<path d="M127.03 171.836L121.274 169.849V168.061L127.03 170.048V171.836Z" fill="#D8D8D8"/>
<path d="M125.859 161.717C127.532 160.894 128.063 158.551 127.047 156.483C126.031 154.416 123.852 153.407 122.18 154.231C120.508 155.054 119.976 157.397 120.992 159.464C122.008 161.532 124.187 162.54 125.859 161.717Z" fill="#D8D8D8"/>
<path d="M200.469 390.355L149.657 368.305V326.985L200.469 349.035V390.355Z" fill="#28296B"/>
<path d="M250.487 325.991L199.675 304.537L149.657 326.985L200.469 349.035L250.487 325.991Z" fill="#212356"/>
<path d="M223.295 314.271H222.104L172.086 336.718L173.277 337.314L223.295 314.271Z" fill="#28296B"/>
<path d="M200.469 390.355L250.487 367.311V325.991L200.469 349.035V390.355Z" fill="#212356"/>
<path d="M46.2469 318.641L51.0105 316.655C51.0105 312.086 51.0105 307.715 51.0105 303.146C51.0105 251.496 51.0105 200.045 51.0105 148.395C51.0105 140.25 51.8045 133.495 58.156 126.94C61.5302 123.563 67.2862 121.775 71.6529 119.788C92.4937 110.65 113.335 101.313 134.175 92.1754C185.583 69.5288 236.99 46.8822 288.397 24.2357C292.566 22.4478 296.932 20.4612 301.1 18.6733C310.231 14.7003 311.025 23.6397 311.025 29.798C311.025 48.2728 311.025 66.9463 311.025 85.4211C311.025 140.051 311.025 194.681 311.025 249.311L315.788 251.297C315.788 237.59 315.788 224.082 315.788 210.375C315.788 154.553 315.788 98.731 315.788 42.9092C315.788 37.5455 315.788 31.9832 315.788 26.6195C315.788 16.6868 308.643 10.1312 298.719 14.5016C285.222 20.4612 271.725 26.4209 258.029 32.3805C203.843 56.219 149.459 80.2561 95.2725 104.095C86.7376 107.869 78.0044 111.643 69.4695 115.418C65.3014 117.206 60.9347 118.795 57.1635 121.378C42.4757 131.31 46.0484 151.772 46.0484 166.869C46.2469 217.725 46.2469 268.183 46.2469 318.641Z" fill="#BABABA"/>
<path d="M51.0104 426.511C51.0104 389.958 51.0104 353.406 51.0104 316.655L46.2468 318.641C46.2468 326.19 46.2468 333.938 46.2468 341.487C46.2468 369.695 46.2468 398.103 46.2468 426.312C46.2468 429.689 51.0104 429.689 51.0104 426.511Z" fill="#BABABA"/>
<path d="M311.223 249.51C311.223 255.866 311.223 262.025 311.223 268.382C311.223 288.644 311.223 309.106 311.223 329.369C311.223 332.547 315.986 332.547 315.986 329.369C315.986 303.345 315.986 277.52 315.986 251.496L311.223 249.51Z" fill="#6F367B"/>
<path d="M178.437 66.5491C175.063 65.1585 171.887 66.5491 171.49 70.7208L172.88 70.1248C173.078 67.741 175.659 66.7477 178.437 67.9396C181.216 69.1316 184.193 72.1114 184.392 75.2898C184.59 79.0643 181.812 80.0575 179.033 80.8522C178.636 81.0508 178.239 81.0508 177.842 81.2495L177.643 81.4481V87.6064L179.231 88.2024V82.8387C179.628 82.64 179.827 82.64 180.224 82.4414C183.201 81.4481 186.178 80.4548 185.98 75.8858C185.781 71.9127 181.812 68.1383 178.437 66.5491Z" fill="white"/>
<path d="M236.395 40.9226C233.02 39.532 229.845 40.9226 229.448 45.0943L230.837 44.4984C231.036 42.1145 233.616 41.1212 236.395 42.3132C239.173 43.5051 242.151 46.4849 242.349 49.6634C242.548 53.4378 239.769 54.4311 236.99 55.2257C236.593 55.4243 236.196 55.4243 235.799 55.623L235.601 55.8217V61.9799L237.189 62.5759V57.2122C237.586 57.0136 237.784 57.0136 238.181 56.8149C241.158 55.8217 244.136 54.8284 243.937 50.2593C243.739 46.2863 239.967 42.5118 236.395 40.9226Z" fill="white"/>
<path d="M119.686 92.5727C116.312 91.1822 113.136 92.5727 112.739 96.7445L114.128 96.1485C114.327 93.7647 116.907 92.7714 119.686 93.9633C122.465 95.1552 125.442 98.1351 125.64 101.314C125.839 105.088 123.06 106.081 120.281 106.876C119.884 107.074 119.487 107.074 119.09 107.273L118.892 107.472V113.63L120.48 114.226V108.862C120.877 108.664 121.075 108.664 121.472 108.465C124.45 107.472 127.427 106.479 127.228 101.909C127.03 97.9364 123.259 94.162 119.686 92.5727Z" fill="white"/>
<path d="M149.459 410.817L109.365 393.335V360.756L149.459 378.039V410.817Z" fill="#E2978D"/>
<path d="M189.156 359.961L149.062 342.877L109.365 360.756L149.459 378.039L189.156 359.961Z" fill="#F5A99C"/>
<path d="M167.322 358.968L149.062 351.419L131.397 359.365L149.459 367.311L167.322 358.968Z" fill="#C97E79"/>
<path d="M149.459 410.817L189.156 392.54V359.961L149.459 378.039V410.817Z" fill="#C97E79"/>
<path d="M215.554 338.308L175.261 320.826V287.85L215.554 305.331V338.308Z" fill="#F5A99C"/>
<path d="M255.449 287.055L214.958 269.971L175.261 287.85L215.554 305.331L255.449 287.055Z" fill="#C97E79"/>
<path d="M220.317 264.011L214.958 269.971L175.261 287.85L180.422 282.288L220.317 264.011Z" fill="#C97E79"/>
<path d="M215.554 338.308L255.449 320.032V287.055L215.554 305.331V338.308Z" fill="#C97E79"/>
<path d="M435.673 285.664C437.261 285.068 440.238 285.267 442.024 285.466C445.2 285.664 448.177 287.254 451.353 288.048C452.345 288.247 457.308 289.042 455.72 291.227C455.124 292.22 454.132 291.823 453.338 291.624C452.345 291.425 451.949 291.425 450.758 291.425C452.941 293.015 455.72 293.809 458.101 295.398C458.895 295.994 461.079 297.186 460.682 298.378C460.285 300.166 458.3 298.974 457.506 298.18C458.697 298.974 458.101 300.166 456.712 300.365C455.918 300.563 454.926 299.57 454.132 299.57C455.323 302.153 451.353 300.563 450.758 300.563C450.956 300.762 450.758 301.159 450.956 301.557C443.017 302.947 436.665 295.398 433.291 289.042" fill="#F5A99C"/>
<path d="M443.811 287.452C433.092 282.883 400.343 261.627 388.037 258.052C380.891 256.065 377.914 272.355 385.456 275.93C391.212 278.712 430.512 291.425 445.2 295.399C454.926 298.18 452.544 291.227 443.811 287.452Z" fill="#F5A99C"/>
<path d="M243.143 516.302C241.754 514.713 239.769 512.528 241.555 510.541C242.548 509.349 245.724 507.959 247.113 508.555C249.296 509.349 251.678 511.137 252.671 513.124C253.465 514.912 253.464 518.487 251.083 519.481C248.899 520.474 244.533 517.891 243.143 516.302Z" fill="#0E1026"/>
<path d="M246.914 526.831C245.327 529.215 242.151 529.811 239.769 528.221C237.387 526.632 236.792 523.454 238.38 521.07L250.289 503.588C251.877 501.204 249.892 507.959 252.273 509.349C254.655 510.938 255.251 514.117 253.663 516.501L246.914 526.831Z" fill="white"/>
<path d="M246.12 535.174C246.12 530.804 247.113 527.625 248.701 524.248C245.326 524.05 242.945 520.871 240.761 517.891C238.181 518.885 235.799 520.673 235.799 520.673C235.005 522.46 236.395 526.036 235.799 527.824" fill="#212356"/>
<path d="M245.724 530.208C247.113 540.339 245.525 549.279 242.349 549.279C240.761 549.279 236.99 542.127 235.799 531.996C234.41 521.864 234.609 520.275 237.784 519.878C240.762 519.481 244.334 520.076 245.724 530.208Z" fill="#212356"/>
<path d="M243.143 532.195C244.731 542.326 245.525 549.08 242.349 549.477C239.174 549.875 235.601 541.929 234.211 531.797C232.822 521.666 234.41 521.07 236.196 520.474C237.983 519.679 242.151 525.242 243.143 532.195Z" fill="#0E1026"/>
<path d="M308.841 304.537C295.345 329.964 287.604 378.436 301.299 424.722C301.299 424.722 258.625 462.467 241.158 511.137C245.724 507.76 253.861 514.713 251.678 519.679C251.877 519.48 327.697 432.073 327.697 432.073L353.103 303.146" fill="#131535"/>
<path d="M354.294 567.158C354.294 567.555 354.294 567.753 354.294 568.151C354.294 568.548 354.294 568.747 354.096 569.144C353.699 570.137 352.905 570.932 352.31 571.727C350.92 573.117 349.332 574.11 347.546 575.104C344.767 576.693 341.988 578.083 339.011 579.275C332.064 582.255 329.881 581.262 328.888 579.474C328.491 578.878 328.491 577.487 328.888 576.892C329.087 576.693 329.285 576.693 329.484 576.494C329.682 576.296 330.079 575.898 330.278 575.7C330.873 575.104 331.27 574.706 331.866 574.309C333.057 573.316 334.248 572.521 335.637 571.727C336.232 571.329 336.828 571.131 337.423 570.733C337.622 570.733 337.82 570.535 338.019 570.535C340.797 569.144 343.973 568.151 346.95 567.356C348.141 566.959 349.531 566.76 350.722 566.562C351.317 566.562 351.714 566.562 352.31 566.562C352.706 566.562 353.5 566.76 353.699 566.164C353.897 565.966 353.699 565.568 353.699 565.37C354.096 565.767 354.294 566.562 354.294 567.158Z" fill="#0E1026"/>
<path d="M353.699 565.568C354.691 567.356 353.5 571.528 339.011 577.686C332.064 580.666 329.881 579.673 328.888 577.885C327.896 576.097 330.476 572.521 337.225 569.144C344.172 565.767 352.905 563.582 353.699 565.568Z" fill="#212356"/>
<path d="M339.408 567.555C339.408 570.336 337.026 572.72 334.247 572.72C331.469 572.72 329.087 570.336 329.087 567.555V555.238C329.087 552.457 331.469 550.073 334.247 550.073C337.026 550.073 339.408 552.457 339.408 555.238V567.555Z" fill="white"/>
<path d="M330.873 306.921C318.964 316.059 303.879 339.103 319.758 372.278C330.675 395.123 330.873 418.366 329.285 435.251C324.72 483.524 317.376 502.794 326.903 561.595C327.697 566.164 339.408 561.198 339.606 560.602C344.172 526.632 355.684 443.197 359.455 413.995C363.822 380.621 361.241 334.931 356.875 308.709" fill="#1C2044"/>
<path d="M301.895 329.369C302.292 328.177 302.887 327.183 303.681 326.389C308.444 321.621 317.972 323.21 323.728 324.204C327.499 324.8 331.072 325.594 334.843 326.587C336.232 326.985 337.622 327.581 339.209 327.779C340.202 327.978 341.194 327.779 342.187 327.779C343.576 327.978 344.767 328.971 345.958 329.369C348.34 329.965 350.523 330.56 352.706 331.752C355.088 332.944 358.462 333.54 360.249 336.321C357.47 335.328 354.096 335.924 351.317 336.123C347.546 336.321 343.973 337.116 340.4 338.308C333.652 340.295 327.102 342.877 319.957 343.87C317.972 344.069 315.987 344.268 313.804 344.268C310.231 344.069 307.055 341.884 304.078 339.5C300.902 336.719 300.902 332.746 301.895 329.369Z" fill="#131535"/>
<path d="M337.82 182.166L326.507 182.563L322.934 199.25L337.82 204.614V182.166Z" fill="#F5A99C"/>
<path d="M302.688 216.93C301.696 221.499 298.322 226.068 296.932 230.637C295.345 235.405 295.742 240.967 295.94 246.132C296.535 261.429 302.093 273.944 302.887 297.981C303.085 302.153 294.154 312.88 294.352 324.799C294.551 343.274 317.178 339.699 329.484 338.109C341.591 336.52 347.744 332.547 360.249 336.123C360.844 332.547 361.241 324.799 361.44 323.409C362.234 315.661 361.44 307.715 358.462 300.564C355.684 293.611 351.119 287.452 350.126 279.904C348.737 269.574 353.699 263.018 355.882 253.88C358.264 244.543 359.653 232.425 359.852 222.691C360.05 217.129 357.272 212.162 353.103 208.388C350.92 206.402 348.538 205.011 345.958 203.819C343.973 202.826 341.79 202.23 339.606 201.634C337.82 201.237 336.034 200.045 334.247 199.647C332.064 199.051 329.682 199.25 327.499 198.853C323.728 198.257 319.56 197.462 315.788 198.257C312.811 198.853 310.628 202.627 309.834 205.408" fill="#212356"/>
<path d="M345.363 165.081C345.363 176.405 344.966 187.529 337.82 187.529C330.675 187.529 319.361 176.405 319.163 165.081C319.163 153.758 325.514 152.169 332.66 152.169C340.004 151.97 345.363 153.758 345.363 165.081Z" fill="#F5A99C"/>
<path d="M331.072 165.28C335.637 165.876 344.767 166.075 348.141 162.102C351.714 158.129 349.531 152.169 345.362 147.997C341.393 144.024 333.652 143.23 328.491 145.812C324.72 147.6 316.979 153.162 317.972 158.327C318.964 162.698 327.3 164.684 331.072 165.28Z" fill="#131535"/>
<path d="M358.462 252.489C362.234 256.264 365.806 260.237 369.776 263.813C370.768 264.806 379.303 273.547 380.693 272.752C378.708 273.944 376.921 274.54 374.738 274.739C379.303 277.52 384.265 279.904 390.021 278.91C397.167 277.52 400.144 268.779 397.365 262.621C394.785 256.86 390.815 251.496 385.853 246.331C378.906 238.981 350.126 189.913 338.614 216.93C336.629 221.499 338.614 225.472 340.797 229.644C345.164 237.988 351.714 245.735 358.462 252.489Z" fill="#131535"/>
<path d="M296.138 159.718C293.161 164.088 290.978 168.856 289.39 173.624C286.611 182.166 287.008 191.701 287.802 200.839C288.596 209.58 289.191 219.314 288.199 228.253C287.604 234.61 282.443 246.728 276.092 248.516C285.817 252.291 297.726 253.88 307.65 249.907C321.743 244.146 328.69 225.274 330.079 211.368C331.072 202.23 327.3 193.29 333.255 185.741C345.759 170.048 345.759 147.203 320.949 145.812C310.231 145.017 301.894 151.374 296.138 159.718Z" fill="#131535"/>
<path d="M328.888 577.289C328.888 574.706 329.087 570.336 329.087 567.555C330.675 568.945 332.858 569.541 334.644 568.945C336.232 568.349 338.812 567.158 339.408 565.37C340.4 566.959 342.584 566.562 344.172 566.363C344.569 566.363 345.164 566.164 345.561 566.164C346.156 566.363 346.156 566.164 346.156 566.959C346.156 567.952 345.164 569.144 344.767 569.939C343.973 570.932 343.179 571.727 342.187 572.521C341.194 573.316 340.599 574.11 339.805 575.302C339.209 576.097 338.416 577.289 337.423 577.686" fill="#212356"/>
<path d="M49.0257 529.413C55.6029 529.413 60.9348 527.723 60.9348 525.639C60.9348 523.554 55.6029 521.865 49.0257 521.865C42.4486 521.865 37.1167 523.554 37.1167 525.639C37.1167 527.723 42.4486 529.413 49.0257 529.413Z" fill="#BABABA"/>
<path d="M521.021 193.29C521.021 195.476 519.433 196.469 517.448 195.674L457.506 169.452C455.521 168.657 453.933 166.075 453.933 163.89V122.768C453.933 120.583 455.521 119.59 457.506 120.384L517.448 146.607C519.433 147.401 521.021 149.984 521.021 152.169V193.29Z" fill="white"/>
<path d="M510.104 152.963V182.364L463.262 163.492C463.262 160.512 465.445 156.936 467.827 155.347C469.613 154.155 473.98 154.553 476.362 154.751C482.912 155.347 489.462 155.745 493.431 148.593" fill="#C4C4C4"/>
<path d="M509.31 181.371C510.104 181.57 510.501 182.364 510.303 182.96C510.104 183.556 509.31 183.755 508.516 183.358C501.768 180.775 495.019 178.193 488.271 175.411C483.309 173.425 478.148 171.438 473.186 169.452C470.209 168.26 466.835 167.465 464.056 165.876C462.269 164.883 461.277 160.314 464.254 160.314C465.644 160.314 465.842 161.903 466.239 162.896C467.43 165.479 470.407 166.075 472.988 167.068C475.766 168.061 478.545 169.253 481.324 170.246C487.278 172.63 493.233 174.815 499.187 177.199C502.165 178.789 505.737 180.179 509.31 181.371Z" fill="#212356"/>
<path d="M510.245 153.186C510.578 152.026 507.09 150.006 502.455 148.673C497.819 147.34 493.791 147.2 493.458 148.36C493.125 149.519 496.613 151.54 501.249 152.873C505.885 154.206 509.913 154.346 510.245 153.186Z" fill="#212356"/>
<path d="M157.001 166.671C158.974 166.671 160.574 158.577 160.574 148.593C160.574 138.609 158.974 130.516 157.001 130.516C155.028 130.516 153.428 138.609 153.428 148.593C153.428 158.577 155.028 166.671 157.001 166.671Z" fill="#C97E79"/>
<path opacity="0.1" d="M695.304 665.828C699.017 651.263 666.635 630.42 622.978 619.273C579.321 608.126 540.921 610.897 537.208 625.462C533.496 640.026 565.877 660.87 609.534 672.017C653.191 683.163 691.592 680.393 695.304 665.828Z" fill="#28296B"/>
<path d="M612.125 240.967C629.591 245.139 607.163 273.944 604.979 285.466C602.597 297.981 602.994 340.295 586.719 337.712C564.489 334.136 566.076 293.611 566.275 289.042C566.473 282.089 571.038 285.665 578.184 286.857C584.535 287.85 586.123 293.809 587.711 298.776C588.307 300.762 589.498 302.749 590.291 299.769C591.284 295.597 588.307 292.22 585.726 289.638C583.146 286.857 579.97 283.877 578.184 280.301C576.398 276.328 579.176 271.163 580.367 267.19C584.535 255.072 598.032 237.59 612.125 240.967Z" fill="#131535"/>
<path d="M569.848 644.633C571.435 646.619 575.207 645.427 577.191 645.03C580.367 644.236 583.146 643.242 586.123 641.852C588.307 640.858 590.291 639.468 592.276 638.077C593.467 637.283 594.658 636.488 595.849 635.495C597.04 634.501 597.635 634.303 597.238 631.522C597.04 629.734 596.841 628.939 596.643 627.35C596.047 623.377 592.673 624.171 590.688 624.171C589.497 624.171 588.505 624.171 587.513 623.973C585.726 623.575 584.535 623.377 583.344 625.165C582.749 626.158 582.352 627.35 581.757 628.343C579.97 631.124 576.596 633.508 574.214 635.892C572.428 637.481 568.061 638.673 569.252 643.441C569.252 643.838 569.649 644.236 569.848 644.633Z" fill="#0E1026"/>
<path d="M569.848 641.852C571.435 643.838 575.207 642.646 577.191 642.249C580.367 641.454 583.146 640.461 586.123 639.07C588.307 638.077 590.291 636.687 592.276 635.296C593.467 634.501 594.658 633.707 595.849 632.713C597.04 631.72 597.437 630.528 597.238 629.138C597.04 627.548 596.841 626.158 596.643 624.37C596.048 620.397 592.673 621.192 590.688 621.192C589.498 621.192 588.505 621.192 587.513 620.993C585.726 620.596 584.535 620.397 583.345 622.185C582.749 623.178 582.352 624.37 581.757 625.363C579.97 628.144 576.596 630.528 574.214 632.912C572.428 634.501 568.458 637.68 569.252 640.461C569.451 641.256 569.649 641.653 569.848 641.852Z" fill="#212356"/>
<path d="M596.048 615.232L585.528 614.239C585.528 614.239 584.734 621.986 584.734 622.582C584.932 623.973 585.726 624.966 587.116 625.562C589.101 626.555 591.681 626.953 593.666 626.158C595.452 625.363 595.651 623.178 595.849 621.39C595.849 620.993 596.246 615.232 596.048 615.232Z" fill="#131535"/>
<path d="M597.635 360.955C597.635 360.955 638.721 351.816 638.92 351.816C643.684 351.419 640.508 409.625 624.828 499.417C618.675 534.976 634.355 574.905 606.567 625.959C602.2 633.111 580.963 628.343 581.161 620.794C581.757 611.259 586.917 555.437 597.635 360.955Z" fill="#131535"/>
<path d="M631.973 668.471C633.561 670.458 637.332 669.266 639.317 668.869C642.493 668.074 645.271 667.081 648.249 665.69C650.432 664.697 652.417 663.306 654.402 661.916C655.593 661.121 656.784 660.326 657.974 659.333C659.165 658.34 659.761 658.141 659.364 655.36C659.165 653.572 658.967 652.778 658.768 651.188C658.173 647.215 654.799 648.01 652.814 648.01C651.623 648.01 650.631 648.01 649.638 647.811C647.852 647.414 646.661 647.215 645.47 649.003C644.875 649.996 644.478 651.188 643.882 652.182C642.096 654.963 638.722 657.347 636.34 659.73C634.553 661.32 630.187 662.512 631.378 667.279C631.378 667.677 631.576 668.074 631.973 668.471Z" fill="#0E1026"/>
<path d="M631.973 665.889C633.561 667.875 637.332 666.683 639.317 666.286C642.493 665.491 645.271 664.498 648.249 663.107C650.432 662.114 652.417 660.724 654.402 659.333C655.593 658.538 656.783 657.744 657.974 656.75C659.165 655.757 659.562 654.565 659.364 653.175C659.165 651.585 658.967 650.195 658.768 648.407C658.173 644.434 654.799 645.228 652.814 645.228C651.623 645.228 650.63 645.229 649.638 645.03C647.852 644.633 646.661 644.434 645.47 646.222C644.875 647.215 644.477 648.407 643.882 649.4C642.096 652.181 638.721 654.565 636.34 656.949C634.553 658.538 630.584 661.717 631.378 664.498C631.378 665.094 631.576 665.491 631.973 665.889Z" fill="#212356"/>
<path d="M658.173 639.269L647.653 638.276C647.653 638.276 646.859 646.023 646.859 646.619C647.058 648.01 647.852 649.003 649.241 649.599C651.226 650.592 653.806 650.99 655.791 650.195C657.578 649.4 657.776 647.215 657.975 645.427C657.975 644.831 658.371 639.269 658.173 639.269Z" fill="#131535"/>
<path d="M619.667 352.214L678.815 384.197C678.815 384.197 660.753 445.581 671.074 519.679C682.983 604.703 665.517 642.646 663.929 647.215C661.15 655.161 639.912 655.36 638.722 644.633C623.24 489.682 619.667 369.695 619.667 352.214Z" fill="#1C2044"/>
<path d="M617.087 383.998C621.454 385.588 625.423 385.389 629.988 385.389C637.134 385.389 643.882 385.389 651.028 384.396C657.181 383.601 663.334 382.806 669.487 383.005C672.067 383.204 678.22 382.608 678.021 386.382C677.823 388.369 676.83 390.554 675.64 392.342C672.662 396.514 667.105 397.904 662.54 399.295C658.371 400.685 652.814 399.891 648.447 399.891C644.081 399.891 639.913 399.692 635.546 399.096C630.782 398.5 624.034 398.302 619.866 395.52C618.278 394.527 616.888 392.143 615.896 390.554C614.904 388.965 614.11 387.574 613.713 385.786C613.514 384.793 613.316 383.204 612.919 382.409" fill="#131535"/>
<path d="M693.702 271.958C696.679 251.893 601.01 227.26 596.643 247.324C595.452 253.085 596.445 260.237 596.445 266.197C596.643 278.712 602.399 323.21 602.399 336.321C602.399 342.281 597.635 354.796 597.437 360.756C597.04 373.867 600.216 383.204 611.926 389.163C623.835 395.123 637.531 397.308 650.829 398.103C661.547 398.898 675.64 397.706 679.014 384.396C680.205 379.628 680.403 371.285 679.014 366.716C676.831 359.167 673.853 354.002 675.044 346.453C676.037 339.897 685.762 297.981 688.541 283.877C688.938 280.301 692.908 275.335 693.702 271.958Z" fill="#6F367B"/>
<path d="M667.105 299.372L647.058 292.22V273.547L667.105 280.698V299.372Z" fill="#F3F3F3"/>
<path d="M631.973 237.392C631.775 232.624 634.156 233.816 638.126 233.617C642.096 233.419 644.875 233.021 648.447 234.412C651.822 235.802 652.218 235.604 654.203 238.981C657.379 244.742 637.928 247.92 633.164 243.351C632.965 243.153 632.965 243.153 632.767 242.954" fill="#131535"/>
<path d="M651.623 219.116C651.822 217.129 629.194 230.638 630.782 236.398L635.347 253.681L637.928 252.489L650.631 249.311L651.623 219.116Z" fill="#F5A99C"/>
<path d="M651.822 201.237C654.402 211.368 646.86 240.769 628.797 236.398C621.851 234.809 619.667 201.435 624.828 194.482" fill="#F5A99C"/>
<path d="M634.355 221.102C632.966 219.711 631.378 219.115 629.988 220.903L634.355 221.102Z" fill="#C97E79"/>
<path d="M636.737 216.135C637.285 216.135 637.729 215.691 637.729 215.142C637.729 214.594 637.285 214.149 636.737 214.149C636.189 214.149 635.744 214.594 635.744 215.142C635.744 215.691 636.189 216.135 636.737 216.135Z" fill="#0E1026"/>
<path d="M623.438 216.334C623.986 216.334 624.431 215.889 624.431 215.341C624.431 214.792 623.986 214.348 623.438 214.348C622.89 214.348 622.446 214.792 622.446 215.341C622.446 215.889 622.89 216.334 623.438 216.334Z" fill="#0E1026"/>
<path d="M651.425 213.156C657.181 212.361 655.196 222.294 649.837 219.711L651.425 213.156Z" fill="#F5A99C"/>
<path d="M622.049 209.183C622.049 209.382 622.049 209.58 622.049 209.779C623.835 209.58 625.225 209.779 627.408 210.176L627.607 209.58C625.423 209.183 623.835 208.984 622.049 209.183Z" fill="#0E1026"/>
<path d="M641.302 210.176L641.5 209.58C638.126 208.785 635.347 208.984 632.172 209.58L632.37 210.176C635.546 209.779 637.928 209.58 641.302 210.176Z" fill="#0E1026"/>
<path d="M633.164 218.122C632.569 217.327 631.775 215.539 631.973 214.348C632.172 213.156 632.966 212.56 633.958 212.361C634.752 212.361 636.935 212.162 638.722 212.162C639.714 212.162 640.508 212.162 640.706 212.162C641.103 212.162 642.294 212.361 642.493 213.553C643.088 216.731 640.905 219.115 638.325 219.91C637.928 220.109 637.531 220.109 637.134 220.109C635.546 220.307 633.958 219.513 633.164 218.122ZM633.958 213.156C633.164 213.156 632.767 213.95 632.569 214.546C632.37 215.539 633.164 217.129 633.561 217.923C634.355 218.917 635.546 219.711 637.134 219.711C637.531 219.711 637.928 219.711 638.126 219.513C640.31 218.917 642.294 216.731 641.699 213.95C641.5 213.354 641.302 213.156 640.31 212.957C640.111 212.957 639.317 212.957 638.325 212.957C636.935 212.957 634.752 212.957 633.958 213.156Z" fill="#0E1026"/>
<path d="M623.24 220.109C620.66 219.513 618.476 216.93 619.072 213.752C619.27 212.56 620.461 212.361 620.858 212.361C621.056 212.361 621.85 212.361 622.843 212.361C624.629 212.361 626.813 212.361 627.607 212.56C628.599 212.56 629.393 213.355 629.591 214.547C629.79 215.738 628.996 217.526 628.4 218.321C627.606 219.513 626.019 220.307 624.431 220.307C624.034 220.307 623.637 220.109 623.24 220.109ZM621.056 212.957C620.263 213.156 619.866 213.355 619.667 213.951C619.072 216.533 621.056 218.917 623.24 219.513C623.637 219.513 624.034 219.712 624.232 219.712C625.622 219.712 627.011 219.116 627.805 217.924C628.4 217.129 628.996 215.54 628.797 214.547C628.599 213.951 628.202 213.156 627.408 213.156C626.614 213.156 624.431 212.957 622.843 212.957C622.049 212.957 621.255 212.957 621.056 212.957Z" fill="#0E1026"/>
<path d="M635.943 224.082C631.973 228.055 629.79 225.87 628.599 223.883L635.943 224.082Z" fill="white"/>
<path d="M652.616 203.223C637.134 202.826 648.05 216.334 649.44 218.718C650.631 218.122 651.822 216.334 652.616 215.142C653.806 213.553 654.6 211.964 654.997 209.977C655.196 207.792 654.997 204.018 652.616 203.223Z" fill="#0E1026"/>
<path d="M625.423 186.536C623.24 187.927 620.858 189.715 620.064 192.098C618.476 196.667 619.866 201.832 624.034 203.422C627.607 204.614 633.958 203.223 637.729 203.62C640.905 204.018 643.684 205.806 646.86 205.806C649.638 205.806 652.616 203.62 652.616 203.62C652.417 201.435 652.219 197.263 650.829 195.476C650.035 194.284 649.043 193.092 647.852 192.496C645.867 191.304 643.485 191.502 641.501 190.311C639.714 189.317 637.928 187.927 636.34 186.735C633.363 184.748 628.798 184.55 625.423 186.536Z" fill="#0E1026"/>
<path d="M632.172 214.149H629.194V214.745H632.172V214.149Z" fill="#0E1026"/>
<path d="M642.096 213.553H649.043L648.844 212.957H641.5L642.096 213.553Z" fill="#0E1026"/>
<path d="M630.385 236.796L642.294 234.61L632.37 240.769" fill="#CE7E74"/>
<path d="M635.149 253.88L655.791 247.721L654.203 238.981C652.615 241.961 645.073 243.947 641.302 243.947L635.149 253.88Z" fill="#131535"/>
<path d="M632.965 240.57C631.378 239.378 630.584 238.385 630.584 236.597L630.385 244.344L635.347 253.681L632.965 240.57Z" fill="#131535"/>
<path d="M705.611 331.951C705.611 331.951 693.702 337.911 672.464 334.335C658.57 331.951 622.049 310.695 639.913 294.008C652.219 282.486 669.487 294.604 680.006 302.351C688.541 308.51 703.824 312.88 706.603 324.601C707.199 326.786 705.611 331.951 705.611 331.951Z" fill="#131535"/>
<path d="M649.362 305.769C651.16 300.471 650.092 295.318 646.978 294.26C643.864 293.201 639.883 296.639 638.086 301.937C636.288 307.235 637.355 312.388 640.469 313.446C643.583 314.504 647.565 311.067 649.362 305.769Z" fill="#0E1026"/>
<path d="M622.645 295.597V295.796C623.041 297.186 623.637 297.186 625.026 297.385C625.026 298.974 625.423 300.166 626.813 300.762C627.408 300.961 628.004 300.762 628.599 301.159C628.599 301.159 628.599 301.954 628.797 302.153C630.584 303.543 632.767 303.543 634.95 304.139C637.134 304.735 639.516 305.729 641.699 304.338C643.485 303.345 644.478 300.961 644.676 298.974C645.073 295.796 643.287 295.2 640.706 293.809C636.141 291.624 631.179 291.028 626.614 289.439C624.629 288.843 622.247 287.254 619.866 287.452C618.476 287.452 616.095 288.644 617.484 290.234C617.881 290.631 619.27 290.829 619.866 291.028C620.858 291.425 621.652 291.823 622.645 292.22C622.645 293.213 622.446 294.604 622.645 295.597Z" fill="#F5A99C"/>
<path d="M705.809 306.722C706.603 313.277 708.191 325.594 705.611 331.951C705.611 331.951 685.961 325.395 684.174 321.82C677.426 308.51 673.853 292.419 673.258 277.321C673.059 270.765 681.991 263.415 687.152 263.415C691.717 263.415 693.9 268.58 695.686 272.156C701.046 282.883 704.221 294.803 705.809 306.722Z" fill="#131535"/>
<path d="M642.294 326.389C643.088 328.971 641.5 331.156 638.722 331.156L580.963 313.675C577.589 312.682 575.405 311.49 574.611 308.907L562.305 268.183C561.511 265.6 563.099 263.415 565.878 263.415L623.637 280.897C626.614 281.691 629.194 283.082 629.988 285.665L642.294 326.389Z" fill="#BABABA"/>
<path d="M568.458 294.405C564.488 291.028 561.511 281.89 564.687 276.924C565.878 280.897 566.076 281.89 567.267 285.069C568.855 284.473 574.214 283.281 575.802 283.678C580.169 284.473 578.779 287.85 574.81 287.651C576.398 287.651 578.382 287.254 579.573 288.644C581.558 290.83 577.787 291.028 576.596 290.83C579.573 290.035 584.138 292.816 579.176 294.405C580.169 294.405 581.161 294.207 581.558 295.2C582.352 297.385 576.993 297.187 575.802 297.187C573.023 296.789 570.641 296.193 568.458 294.405Z" fill="#F5A99C"/>
<path d="M647.256 294.207C646.859 294.207 646.264 294.008 646.066 294.008C643.485 293.412 636.737 292.419 636.737 292.419C636.538 292.618 640.905 295.001 640.706 295.2L639.119 297.783C638.722 298.379 638.523 299.173 638.126 299.968C637.729 300.961 637.531 301.756 637.531 302.55C638.92 304.537 637.729 304.934 640.31 304.934C641.302 304.934 642.89 304.14 643.882 304.537C644.478 304.736 649.44 305.729 649.44 305.729C651.226 300.564 650.432 295.2 647.256 294.207Z" fill="#F5A99C"/>
<path d="M144.894 361.352C146.319 361.352 147.474 360.907 147.474 360.358C147.474 359.81 146.319 359.365 144.894 359.365C143.468 359.365 142.313 359.81 142.313 360.358C142.313 360.907 143.468 361.352 144.894 361.352Z" fill="white"/>
<path d="M148.466 359.763C149.891 359.763 151.046 359.318 151.046 358.769C151.046 358.221 149.891 357.776 148.466 357.776C147.041 357.776 145.886 358.221 145.886 358.769C145.886 359.318 147.041 359.763 148.466 359.763Z" fill="white"/>
<path d="M151.841 358.173C153.266 358.173 154.421 357.729 154.421 357.18C154.421 356.631 153.266 356.187 151.841 356.187C150.415 356.187 149.26 356.631 149.26 357.18C149.26 357.729 150.415 358.173 151.841 358.173Z" fill="white"/>
<path d="M122.136 386.178C123.827 385.395 124.264 382.741 123.112 380.253C121.96 377.764 119.656 376.382 117.965 377.166C116.274 377.949 115.837 380.603 116.988 383.091C118.14 385.58 120.445 386.962 122.136 386.178Z" fill="white"/>
<path d="M129.719 389.714C131.409 388.93 131.847 386.277 130.695 383.789C129.543 381.3 127.238 379.918 125.547 380.701C123.856 381.485 123.419 384.138 124.571 386.627C125.723 389.116 128.028 390.498 129.719 389.714Z" fill="white"/>
<path d="M137.288 392.856C138.979 392.072 139.416 389.419 138.264 386.93C137.112 384.441 134.807 383.059 133.116 383.843C131.425 384.627 130.988 387.28 132.14 389.769C133.292 392.258 135.597 393.64 137.288 392.856Z" fill="white"/>
<path d="M407.091 170.048L395.976 165.479V154.95L407.091 159.519V170.048Z" fill="white"/>
<path d="M391.212 162.896L380.097 158.327V147.799L391.212 152.368V162.896Z" fill="#F5A99C"/>
<path d="M227.86 324.402V322.813C227.661 318.641 228.654 314.867 229.845 311.291C229.051 312.483 228.058 313.874 227.264 315.662L226.073 315.066C227.661 311.887 229.448 309.503 231.234 307.517L233.417 305.332L232.425 308.113C230.837 312.284 229.448 316.257 229.249 320.628C230.242 319.039 231.036 317.052 231.83 315.066C233.02 312.284 234.211 309.503 235.799 307.715L237.387 305.927L236.99 308.311C236.792 309.503 236.593 311.093 236.395 312.483C236.395 312.284 236.395 312.284 236.593 312.086C237.586 309.901 238.578 307.517 239.769 305.332L240.96 303.345L241.158 305.53C241.158 306.722 241.158 307.715 241.158 308.907C241.158 309.503 241.158 310.099 241.158 310.894C241.555 310.099 241.952 309.305 242.548 308.51L243.54 307.119L243.739 308.709C243.937 310.099 244.136 310.298 244.136 310.298C244.136 310.298 244.532 310.497 246.12 308.51L246.716 307.715L247.113 308.51C247.311 308.907 247.708 309.106 248.105 309.305C248.304 309.305 248.502 309.503 248.502 309.503L247.907 310.695C247.708 310.695 247.708 310.497 247.51 310.497C247.311 310.298 246.914 310.099 246.517 309.901C245.525 310.894 244.532 311.887 243.54 311.49C242.945 311.291 242.746 310.894 242.548 310.497C242.349 310.695 242.349 311.092 242.151 311.291C241.754 312.086 241.357 312.682 240.96 313.476L239.967 314.867L239.769 313.079C239.57 311.688 239.57 310.099 239.57 308.709C239.57 308.51 239.57 308.311 239.57 308.113C238.975 309.503 238.379 310.894 237.784 312.284C237.387 313.476 236.792 314.668 236.196 315.662L235.204 318.045L235.005 315.463C234.807 313.874 235.005 312.284 235.204 310.695C234.41 312.086 233.814 313.675 233.219 315.066C232.028 317.847 230.837 320.628 229.249 322.416L227.86 324.402Z" fill="white"/>
<path d="M240.96 302.947L239.769 302.351C239.769 302.153 239.967 302.153 239.967 301.954C240.166 301.557 240.364 301.16 240.364 300.762H241.754C241.754 301.557 241.357 302.153 241.158 302.749C241.158 302.55 240.96 302.749 240.96 302.947Z" fill="white"/>
<path d="M448.177 161.903C448.177 164.088 446.589 165.081 444.604 164.287L384.662 138.064C382.677 137.27 381.089 134.687 381.089 132.502V91.3808C381.089 89.1956 382.677 88.2023 384.662 88.9969L444.604 115.219C446.589 116.014 448.177 118.596 448.177 120.782V161.903Z" fill="white"/>
<path d="M437.261 121.775V151.176L390.418 132.304C390.418 129.324 392.602 125.748 394.983 124.159C396.77 122.967 401.136 123.364 403.518 123.563C410.068 124.159 416.618 124.556 420.588 117.405" fill="#28296B"/>
<path d="M436.467 150.183C437.26 150.381 437.657 151.176 437.459 151.772C437.26 152.368 436.467 152.566 435.673 152.169C428.924 149.587 422.176 147.004 415.427 144.223C410.465 142.236 405.304 140.25 400.342 138.263C397.365 137.071 393.991 136.277 391.212 134.688C389.426 133.694 388.433 129.125 391.411 129.125C392.8 129.125 392.998 130.714 393.395 131.708C394.586 134.29 397.564 134.886 400.144 135.879C402.923 136.873 405.701 138.065 408.48 139.058C414.435 141.442 420.389 143.627 426.344 146.011C429.321 147.401 432.894 148.792 436.467 150.183Z" fill="#C4C4C4"/>
<path d="M437.296 121.808C437.629 120.648 434.14 118.627 429.505 117.294C424.869 115.961 420.841 115.821 420.508 116.981C420.176 118.141 423.664 120.162 428.299 121.494C432.935 122.827 436.963 122.967 437.296 121.808Z" fill="#C4C4C4"/>
<path d="M341.988 171.836C340.003 171.836 337.82 168.26 336.828 172.233C336.232 174.617 338.614 177.2 340.797 177.597" fill="#F5A99C"/>
</g>
<defs>
<clipPath id="clip0">
<rect width="707" height="679" fill="white"/>
</clipPath>
</defs>
</svg>
