<svg width="871" height="826" viewBox="0 0 871 826" fill="none" xmlns="http://www.w3.org/2000/svg">
<g clip-path="url(#clip0)">
<path d="M565.094 371.311H660.487" stroke="#854C93" stroke-miterlimit="10"/>
<path d="M555.296 479.517L621.295 541.032" stroke="#854C93" stroke-miterlimit="10"/>
<path d="M424.038 511.572L366.728 606.437" stroke="#854C93" stroke-miterlimit="10"/>
<path d="M351.199 383.91H231.588" stroke="#854C93" stroke-miterlimit="10"/>
<path d="M462.306 295.9V231.977" stroke="#854C93" stroke-miterlimit="10"/>
<path d="M462.306 518.242C523.567 518.242 573.228 468.469 573.228 407.071C573.228 345.673 523.567 295.9 462.306 295.9C401.046 295.9 351.384 345.673 351.384 407.071C351.384 468.469 401.046 518.242 462.306 518.242Z" stroke="#854C93" stroke-miterlimit="10"/>
<path opacity="0.5" d="M145.623 503.048C223.016 503.048 285.755 498.984 285.755 493.97C285.755 488.955 223.016 484.891 145.623 484.891C68.2306 484.891 5.49146 488.955 5.49146 493.97C5.49146 498.984 68.2306 503.048 145.623 503.048Z" fill="#BCBCBC"/>
<path d="M308.679 773.379L179.639 798.763V532.138L308.679 506.754V773.379Z" fill="#BCBCBC"/>
<path opacity="0.5" d="M372.089 826C429.164 826 475.432 820.525 475.432 813.771C475.432 807.018 429.164 801.542 372.089 801.542C315.015 801.542 268.747 807.018 268.747 813.771C268.747 820.525 315.015 826 372.089 826Z" fill="#BCBCBC"/>
<path d="M277.251 819.145L179.639 798.578V531.953L277.251 552.705V819.145Z" fill="#6F367B"/>
<path d="M269.671 673.881C270.041 671.843 267.268 669.99 265.419 669.805C263.201 669.62 261.167 671.472 259.503 672.399C258.024 673.325 255.066 673.696 254.512 671.102C253.957 671.102 252.108 670.731 251.923 671.287C251.739 671.658 252.478 672.584 252.848 672.769C253.402 673.325 254.142 673.696 254.697 674.066C255.991 674.808 257.839 674.993 259.133 674.622C259.688 674.437 260.243 674.066 260.797 673.881C261.722 673.511 262.461 673.14 263.385 672.955C265.049 672.584 267.083 672.955 268.377 674.437" fill="#9B9B9B"/>
<path d="M268.747 676.105C270.38 676.105 271.705 674.777 271.705 673.14C271.705 671.503 270.38 670.176 268.747 670.176C267.113 670.176 265.789 671.503 265.789 673.14C265.789 674.777 267.113 676.105 268.747 676.105Z" fill="#9B9B9B"/>
<path d="M236.21 584.389L220.68 581.424V570.677L236.21 573.642V584.389Z" fill="white"/>
<path d="M270.226 688.704L267.268 687.963V680.366L270.226 681.107V688.704Z" fill="#0C0E21"/>
<path d="M328.829 555.114C328.829 562.525 323.283 568.639 316.258 568.639C304.426 568.639 300.729 556.966 306.46 547.702C312.93 537.326 328.829 544.738 328.829 555.114Z" fill="#131535"/>
<path d="M331.972 803.581C331.972 804.507 332.342 805.248 332.712 805.804C333.082 806.36 333.821 807.286 334.376 807.657C335.115 808.398 335.67 808.954 336.409 809.695C335.115 810.436 333.451 810.436 331.972 810.251C330.678 810.251 329.014 810.251 327.72 809.695C327.35 809.509 327.72 810.065 327.535 809.695C327.166 809.324 326.241 809.695 326.241 809.139C326.241 807.101 327.35 805.804 327.166 803.951C327.166 802.654 330.124 804.322 331.233 804.136" fill="#D88C82"/>
<path d="M321.435 617.74C325.687 624.41 360.442 617.555 363.585 615.702C362.846 613.478 362.846 614.219 362.106 612.181C357.3 613.478 328.645 608.105 325.687 612.737" fill="#D88C82"/>
<path d="M418.122 597.544C414.424 596.617 409.988 598.841 408.324 602.732C407.954 603.658 405.736 612.181 406.29 612.367C404.996 611.811 388.173 613.108 380.039 616.258L380.963 624.41C382.442 624.781 394.643 625.707 399.635 625.707C407.399 625.707 414.055 626.263 417.197 621.26C419.971 616.999 424.592 607.92 422.928 602.732C422.189 599.582 420.34 598.1 418.122 597.544Z" fill="#53285E"/>
<path d="M388.728 605.696H356.375V630.524H388.728V605.696Z" fill="#3A1E6B"/>
<path d="M388.727 605.696H379.484V630.524H388.727V605.696Z" fill="#5533A0"/>
<path d="M367.837 618.11L356.375 605.696H379.484L367.837 618.11Z" fill="#5533A0"/>
<path d="M382.812 632.377C378.19 632.377 373.568 632.377 368.946 632.192C367.837 632.192 366.728 632.192 365.619 632.192C364.51 632.192 361.921 632.563 361.921 630.895C361.921 630.339 362.106 630.339 362.661 630.339C363.585 630.339 364.325 630.154 365.249 630.154C366.358 630.154 367.468 630.154 368.577 629.969C369.131 629.969 372.459 629.783 371.72 628.672C371.165 627.931 369.686 627.56 368.946 626.819C368.577 626.634 367.652 625.892 368.022 625.337C368.392 624.781 369.686 625.151 370.241 625.337C370.98 625.522 371.72 626.263 372.459 626.263C373.014 626.263 373.383 626.263 373.938 626.263C374.493 626.263 374.862 626.634 375.417 626.819C377.081 627.931 379.669 627.189 381.518 627.189" fill="#F5A99C"/>
<path d="M427.365 547.517C425.332 551.408 424.407 554.002 424.223 558.449C424.038 564.192 424.038 571.048 429.029 571.974C433.651 572.901 429.584 577.348 429.954 583.277C430.323 590.503 440.491 585.315 446.592 586.612C445.852 575.31 446.407 565.489 446.407 554.002" fill="#F5A99C"/>
<path d="M446.222 564.193C445.668 564.193 441.97 564.007 441.415 564.007C440.861 564.007 439.937 564.007 439.382 563.822C438.088 563.451 438.088 561.413 437.718 560.301C437.533 559.375 436.979 558.263 435.869 557.893C434.76 557.522 434.206 558.449 433.651 559.19C433.281 559.746 432.172 559.56 431.617 559.375C431.617 559.19 431.432 556.225 431.617 555.855C431.617 555.484 431.432 554.928 431.617 554.743C431.802 554.558 432.727 554.558 433.096 554.558C434.021 554.372 435.13 554.558 436.239 554.558C437.718 554.558 439.012 554.928 440.491 554.928C441.6 554.928 445.298 554.372 446.407 554.372" fill="#131535"/>
<path d="M424.407 556.596L422.928 561.969L425.332 562.895" fill="#F5A99C"/>
<path d="M446.962 584.203H429.399L428.659 577.163H446.962V584.203Z" fill="#6F367B"/>
<path d="M465.633 806.36C464.709 807.842 465.264 811.548 464.339 812.289C463.97 812.659 453.062 812.845 449.735 812.659C450.104 810.251 453.802 810.621 455.466 809.324C457.314 807.842 459.163 804.322 458.978 801.728" fill="#0E1026"/>
<path d="M449.365 812.474C449.365 812.845 449.55 813.03 449.92 813.03H464.155C464.524 813.03 464.709 812.845 464.709 812.474C464.709 812.104 464.524 811.918 464.155 811.918H449.92C449.735 811.733 449.365 812.104 449.365 812.474Z" fill="#6F367B"/>
<path d="M451.583 642.753C460.087 653.87 459.163 692.78 458.423 727.058C458.054 745.401 469.516 760.78 466.188 806.36C465.818 810.436 456.944 810.065 456.39 805.619C447.146 769.303 434.021 687.777 428.844 658.873" fill="#131535"/>
<path d="M417.197 812.659C417.197 812.474 417.382 812.104 417.382 811.733C417.567 810.436 417.382 808.583 417.567 807.286L410.357 807.101C407.954 809.51 404.996 809.88 402.593 810.065C399.08 810.436 398.341 811.362 398.341 812.474H417.197V812.659Z" fill="#0E1026"/>
<path d="M398.341 812.474C398.341 812.845 398.525 813.03 398.895 813.03H417.197C417.567 813.03 417.752 812.845 417.752 812.474C417.752 812.104 417.567 811.918 417.197 811.918H398.895C398.525 811.733 398.341 812.104 398.341 812.474Z" fill="#6F367B"/>
<path d="M438.643 657.576C444.189 671.287 438.273 697.783 429.769 730.208C425.147 747.624 430.508 763.374 419.601 806.545C418.676 810.436 409.803 810.251 409.618 805.619C409.063 767.635 415.164 683.887 417.013 654.426" fill="#1C2044"/>
<path d="M456.205 584.388C450.844 579.571 422.374 580.312 419.046 581.609C417.567 582.165 417.382 586.056 417.198 587.168C416.458 591.615 416.273 596.061 416.088 600.508C415.903 604.77 417.198 608.105 417.382 612.366C417.752 617.74 417.198 623.113 416.643 628.301C415.719 638.121 417.013 649.794 416.828 659.799C424.038 660.541 429.584 661.096 436.794 661.652C446.962 662.579 456.945 664.061 457.684 651.091C458.239 641.456 455.835 634.415 456.575 626.078C457.314 616.628 457.314 606.993 458.054 597.358C458.239 593.838 458.978 588.835 457.13 585.5C456.945 585.315 456.575 584.759 456.205 584.388Z" fill="#3A1E6B"/>
<path d="M424.223 556.781C422.928 545.849 431.433 543.44 434.39 543.44C438.458 543.44 443.449 543.996 445.483 548.073C446.407 549.925 446.777 552.149 446.592 554.372C446.407 556.04 446.037 556.781 444.558 556.781C441.785 556.781 424.223 556.781 424.223 556.781Z" fill="#6F367B"/>
<path d="M419.786 582.165C414.609 579.571 410.542 590.688 409.063 594.023C406.105 600.508 402.962 619.037 402.593 621.26C401.299 620.704 384.475 622.001 376.341 625.151L377.265 633.304C378.744 633.674 390.946 634.601 395.937 634.601C403.702 634.601 410.357 635.157 413.5 630.154C416.643 625.151 424.222 602.176 424.592 595.876C425.147 589.021 423.298 583.833 419.786 582.165Z" fill="#6F367B"/>
<path d="M416.088 555.669C416.088 555.114 416.643 554.558 417.197 554.558H428.29C428.844 554.558 429.399 555.114 429.399 555.669C429.399 556.225 428.844 556.781 428.29 556.781H417.197C416.643 556.781 416.088 556.225 416.088 555.669Z" fill="#6F367B"/>
<path d="M424.222 563.822C424.962 563.822 425.332 563.637 426.071 563.822C425.886 564.192 424.962 565.119 424.407 565.304" fill="white"/>
<path d="M337.518 639.604C341.031 657.947 333.266 765.227 331.972 806.36C331.048 806.73 327.905 807.842 327.535 805.804C317.922 754.295 322.359 746.883 320.51 724.279C317.368 684.072 307.754 657.02 314.779 641.642" fill="#D88C82"/>
<path d="M326.056 644.235C329.939 657.576 318.661 702.785 308.863 740.769C302.763 764.485 298.511 781.346 291.301 807.101C290.746 809.139 287.788 806.36 287.049 805.804C285.939 769.303 295.368 762.818 295.922 726.872C296.477 691.668 307.569 661.096 313.485 642.383" fill="#F5A99C"/>
<path d="M329.754 586.056C329.569 586.056 303.132 586.056 303.132 586.056C302.393 592.726 302.763 600.138 304.057 606.808C306.09 617.74 310.712 628.301 304.981 639.048C300.544 647.571 297.032 656.464 295.368 665.914C294.443 671.102 291.855 684.998 294.443 690.001C302.578 705.935 331.787 700.006 336.779 696.115C339.552 694.077 340.106 690.001 340.661 686.851C341.401 682.034 341.585 677.031 341.955 672.028C342.695 660.911 343.249 651.647 339.922 640.9C337.149 631.636 334.93 620.334 339.367 611.255C341.77 606.252 340.846 602.547 339.552 597.359C338.812 594.765 336.039 589.577 334.375 587.353C333.821 586.797 331.602 586.056 329.754 586.056Z" fill="#1C2044"/>
<path d="M313.67 627.374C317.922 634.045 352.678 627.189 355.821 625.336C355.081 623.113 355.081 623.854 354.342 621.816C349.535 623.113 320.88 617.74 317.922 622.372" fill="#F5A99C"/>
<path d="M317.922 612.366C319.401 616.443 322.914 626.078 320.88 628.116C315.519 633.489 309.418 621.445 307.939 618.666C304.427 612.366 297.956 601.805 299.62 595.505C300.544 591.614 306.46 588.835 308.863 592.356C313.67 599.952 315.519 606.437 317.922 612.366Z" fill="#F5A99C"/>
<path d="M302.208 586.242C297.956 586.797 296.662 590.318 297.402 594.394C297.956 598.1 300.359 603.658 301.838 607.549C306.09 607.92 315.334 603.102 315.334 603.102C313.67 596.803 309.788 585.13 302.208 586.242Z" fill="#3A1E6B"/>
<path d="M353.417 622.001C354.526 621.816 355.451 621.631 356.19 621.075C356.56 620.704 356.745 620.334 357.115 620.148C357.854 619.778 358.779 619.592 359.518 619.222C359.888 619.037 360.257 618.666 360.627 618.666C360.997 618.666 361.552 618.666 361.367 619.222C361.182 619.592 360.627 619.963 360.257 620.148C359.888 620.519 359.518 620.704 358.963 621.075C359.333 621.075 359.518 621.075 359.888 621.075C360.442 621.075 360.997 620.89 361.367 620.89C362.476 620.704 363.4 620.519 364.51 620.519C365.249 620.519 366.173 620.334 366.728 620.519C366.913 620.519 367.283 620.704 367.283 620.89C367.283 621.075 367.283 621.075 366.913 621.26C366.358 621.631 365.619 621.631 364.879 621.631C364.325 621.816 362.846 622.001 362.106 622.186C362.846 622.372 364.14 622.372 364.879 622.372C365.434 622.372 365.988 622.372 366.543 622.372C366.913 622.372 367.467 622.372 367.652 622.557C368.207 623.113 366.913 623.298 366.358 623.484C365.619 623.484 364.879 623.669 364.14 623.669C363.4 623.669 362.476 623.854 361.736 623.854C362.476 623.854 363.215 623.854 363.77 623.854C364.325 623.854 364.879 623.854 365.434 623.854C365.988 623.854 366.543 623.854 366.913 624.039C367.283 624.225 367.098 624.595 366.543 624.781C364.694 625.336 363.031 625.151 361.367 625.151C361.921 625.522 363.4 625.336 363.955 625.892C364.694 626.633 362.661 626.633 362.106 626.633C360.997 626.633 359.703 626.633 358.779 626.448C357.3 626.263 356.005 626.263 354.526 625.892" fill="#F5A99C"/>
<path d="M310.897 586.056C314.595 589.947 319.956 592.726 322.914 592.726C325.872 592.726 328.645 589.577 329.569 586.056" fill="#F5A99C"/>
<path d="M325.317 587.538C325.317 585.685 324.023 581.424 325.871 580.127C326.611 579.571 328.46 579.756 329.384 579.386C332.896 577.718 332.896 574.939 333.081 570.677C333.266 568.269 332.896 564.007 332.896 562.154C332.896 560.672 333.451 561.784 332.896 560.301C331.972 558.263 331.233 556.596 329.199 555.484C326.796 554.002 323.283 555.855 320.51 556.596C316.813 557.522 319.031 555.299 318.107 558.634C315.888 568.083 316.443 578.274 313.855 587.909" fill="#F5A99C"/>
<path d="M327.35 812.474C326.611 812.474 326.426 811.918 326.426 811.548C326.426 810.621 325.871 808.213 327.35 808.213C328.459 808.213 329.384 808.768 330.308 809.139C331.602 809.51 333.636 809.324 334.375 808.027C335.854 809.324 338.073 809.695 339.921 809.88C343.249 810.251 343.989 812.659 342.14 812.659H327.35V812.474Z" fill="#0E1026"/>
<path d="M291.67 803.581C291.67 804.507 291.855 805.248 292.225 805.804C292.595 806.36 293.334 807.286 293.889 807.657C294.628 808.398 295.183 808.954 295.923 809.695C294.628 810.436 292.965 810.436 291.486 810.251C290.192 810.251 288.528 810.251 287.234 809.695C286.864 809.509 287.234 810.065 287.049 809.695C286.679 809.324 285.755 809.695 285.755 809.139C285.755 807.101 286.864 805.804 286.679 803.951C286.679 802.654 289.637 804.322 290.746 804.136" fill="#F5A99C"/>
<path d="M286.864 812.474C286.124 812.474 285.94 811.918 285.94 811.548C285.94 810.621 285.385 808.213 286.864 808.213C287.973 808.213 288.897 808.768 289.822 809.139C291.116 809.51 293.149 809.324 293.889 808.027C295.368 809.324 297.586 809.695 299.435 809.88C302.763 810.251 303.502 812.659 301.653 812.659H286.864V812.474Z" fill="#0E1026"/>
<path d="M315.334 560.672C314.964 561.599 315.519 562.34 315.888 563.266C316.443 564.563 316.813 566.231 316.998 567.528C317.552 566.231 318.662 565.49 319.586 566.416C319.956 566.787 320.695 568.084 320.695 568.454C321.435 566.046 322.544 565.304 324.947 565.49C326.981 565.675 329.754 565.86 331.787 565.119C333.451 564.563 334.93 562.71 335.854 561.228C336.964 559.375 336.964 557.337 336.409 555.484C335.67 558.264 332.527 555.855 331.048 554.928C328.09 553.261 322.729 552.89 319.956 554.743C318.107 556.04 316.813 557.893 315.704 559.931C315.334 560.487 315.334 560.487 315.334 560.672Z" fill="#131535"/>
<path d="M323.283 568.083C325.132 568.269 326.611 569.01 327.72 567.342L323.283 568.083Z" fill="#131535"/>
<path d="M330.124 567.527C331.972 567.713 333.451 568.454 334.56 566.786L330.124 567.527Z" fill="#131535"/>
<path d="M331.233 573.271C330.308 574.198 330.308 574.198 329.384 574.198C328.645 574.198 327.535 574.012 326.981 573.271" fill="white"/>
<path d="M329.199 569.751C329.384 570.492 329.754 571.048 330.308 571.789C329.938 571.974 329.384 572.16 329.014 572.345" fill="#D88C82"/>
<path opacity="0.5" d="M753.662 438.755C792.154 438.755 823.358 435.022 823.358 430.417C823.358 425.812 792.154 422.079 753.662 422.079C715.17 422.079 683.966 425.812 683.966 430.417C683.966 435.022 715.17 438.755 753.662 438.755Z" fill="#BCBCBC"/>
<path d="M839.072 354.821C840.736 349.818 856.265 284.412 851.458 274.592C846.282 264.216 826.871 268.293 817.257 268.293C815.778 268.293 811.711 267.552 810.417 268.293C808.199 269.59 808.199 275.519 807.829 278.298C806.72 286.821 804.501 295.159 804.316 303.682C804.316 309.611 802.653 340.368 800.804 345.927" fill="#6F367B"/>
<path d="M803.392 265.143L816.703 265.513L814.114 245.688L804.131 249.394L803.392 265.143Z" fill="#F5A99C"/>
<path d="M803.392 265.143L805.795 263.475L814.484 249.208L804.131 249.394L803.392 265.143Z" fill="#CE7E74"/>
<path d="M817.442 233.274C819.106 239.574 817.073 256.064 802.468 254.952C795.812 254.396 796.552 233.459 799.88 229.198" fill="#F5A99C"/>
<path d="M804.871 242.723C804.501 242.167 803.947 241.056 804.131 240.129C804.316 239.388 804.686 238.832 805.426 238.832C805.98 238.832 807.274 238.832 808.568 238.832C809.308 238.832 809.677 238.832 809.862 238.832C810.232 238.832 810.972 239.018 811.156 239.759C811.526 241.797 810.047 243.464 808.568 243.835C808.383 243.835 808.014 244.02 807.829 244.02C806.35 244.02 805.426 243.464 804.871 242.723ZM805.426 239.388C804.871 239.388 804.686 239.944 804.501 240.315C804.316 240.87 804.871 241.982 805.241 242.538C805.795 243.279 806.535 243.65 807.459 243.65C807.644 243.65 808.014 243.65 808.199 243.65C809.677 243.279 810.972 241.797 810.602 239.944C810.602 239.573 810.232 239.388 809.678 239.388C809.493 239.388 809.123 239.388 808.383 239.388C807.274 239.203 805.795 239.203 805.426 239.388Z" fill="#0E1026"/>
<path d="M798.401 243.835C796.737 243.464 795.258 241.797 795.812 239.759C795.997 239.018 796.737 238.832 797.107 238.832C797.291 238.832 797.661 238.832 798.401 238.832C799.51 238.832 800.989 238.832 801.543 238.832C802.098 238.832 802.653 239.388 802.837 240.129C803.022 240.87 802.468 242.167 802.098 242.723C801.543 243.464 800.619 244.02 799.51 244.02C798.77 244.02 798.585 244.02 798.401 243.835ZM796.922 239.203C796.367 239.203 796.182 239.388 795.997 239.759C795.628 241.426 796.922 242.909 798.401 243.464C798.585 243.464 798.955 243.464 799.14 243.464C800.064 243.464 800.989 243.094 801.359 242.353C801.728 241.797 802.098 240.87 802.098 240.129C802.098 239.759 801.728 239.203 801.174 239.203C800.619 239.203 799.325 239.203 798.216 239.203C797.476 239.203 797.107 239.203 796.922 239.203Z" fill="#0E1026"/>
<path d="M804.316 240.129H802.283V240.5H804.316V240.129Z" fill="#0E1026"/>
<path d="M810.602 239.573H815.224L815.039 239.203H810.232L810.602 239.573Z" fill="#0E1026"/>
<path d="M816.703 236.794C821.139 237.535 819.476 241.982 815.778 241.982L816.703 236.794Z" fill="#F5A99C"/>
<path d="M792.3 263.475C784.535 269.034 774.182 306.461 770.485 315.355L780.098 316.467L794.148 293.491" fill="#0E1026"/>
<path d="M824.652 341.665C827.055 337.774 828.534 292.38 830.568 282.93C831.677 278.113 831.123 266.996 826.501 263.105C824.837 261.622 794.888 262.363 794.888 262.363C783.241 262.178 782.871 324.619 780.098 337.218" fill="#1C2044"/>
<path d="M826.686 263.104C842.215 274.221 847.021 296.085 846.097 314.614C836.484 318.134 835.744 311.649 832.602 304.423C828.904 295.344 828.349 287.562 823.913 279.039" fill="#1C2044"/>
<path d="M800.064 312.946C815.963 314.058 849.24 299.791 846.282 317.578C829.829 318.134 813.375 317.578 796.922 317.578" fill="#F5A99C"/>
<path d="M801.913 313.317C801.543 311.464 795.443 311.835 793.964 312.205C792.3 312.761 788.233 315.911 788.602 317.764C794.148 317.949 798.955 318.134 804.686 318.134" fill="#F5A99C"/>
<path d="M753.107 313.317C752.738 311.464 746.637 311.835 745.158 312.205C743.494 312.761 739.427 315.911 739.797 317.764C745.343 317.949 751.074 318.134 756.62 318.134" fill="#F5A99C"/>
<path d="M745.713 313.317C758.653 313.317 781.947 301.088 780.098 317.763C768.082 318.505 755.88 317.763 743.679 317.763" fill="#F5A99C"/>
<path d="M705.411 316.096C705.411 316.652 705.78 317.208 706.335 317.208H730.738C731.292 317.208 732.032 316.652 732.032 316.096L738.318 267.551C738.318 266.996 737.948 266.44 737.393 266.44H712.99C712.436 266.44 711.696 266.996 711.696 267.551L705.411 316.096Z" fill="#3A1E6B"/>
<path d="M683.411 300.903C683.411 301.459 683.966 302.014 684.705 302.014H761.611C762.166 302.014 762.72 301.459 762.72 300.903L757.729 252.358C757.729 251.802 757.174 251.246 756.435 251.246H679.529C678.974 251.246 678.42 251.802 678.42 252.358L683.411 300.903Z" fill="#3A1E6B"/>
<path d="M683.411 300.903C683.411 301.459 683.966 302.014 684.705 302.014H758.468C759.023 302.014 759.578 301.459 759.578 300.903L754.586 252.358C754.586 251.802 754.032 251.246 753.292 251.246H679.529C678.974 251.246 678.42 251.802 678.42 252.358L683.411 300.903Z" fill="#6F367B"/>
<path d="M724.134 283.913C727.698 281.714 728.418 276.399 725.741 272.042C723.065 267.685 718.005 265.937 714.441 268.136C710.876 270.336 710.157 275.651 712.833 280.008C715.51 284.365 720.569 286.113 724.134 283.913Z" fill="#3A1E6B"/>
<path d="M700.419 317.393C700.419 316.467 701.158 315.54 702.268 315.54H736.284C737.208 315.54 738.132 316.281 738.132 317.393" fill="#3A1E6B"/>
<path d="M738.502 317.393H737.763C737.763 316.467 739.242 315.54 740.166 315.54H798.585C799.51 315.54 800.434 316.281 800.434 317.393" fill="#3A1E6B"/>
<path d="M870.5 317.393H662.521V328.51H870.5V317.393Z" fill="#9E9E9E"/>
<path d="M806.905 262.363H817.997L816.518 257.917H811.896L806.905 262.363Z" fill="#0E1026"/>
<path d="M802.098 262.363H808.198L805.056 257.917H803.392L802.098 262.363Z" fill="#0E1026"/>
<path d="M811.896 257.917L806.165 267.366L805.056 257.917" fill="#CE7E74"/>
<path d="M818.182 237.165C818.182 235.497 818.367 232.718 817.257 231.421C816.333 230.309 815.778 229.939 815.409 228.642C814.854 226.974 813.19 226.418 811.711 226.233C809.678 225.862 807.459 225.307 805.426 225.307C803.762 225.307 801.913 225.307 800.249 225.862C799.14 226.233 798.031 226.418 796.922 226.974C796.552 227.159 795.073 227.345 795.258 226.604C794.518 227.53 794.888 229.383 794.888 230.495C795.073 232.718 795.997 235.868 798.216 236.979C799.325 237.535 800.619 237.535 801.728 237.535C803.577 237.535 805.241 237.535 806.905 236.979C807.644 236.794 808.568 236.424 809.123 235.868C809.863 235.312 810.232 234.571 810.972 234.015C810.972 234.941 810.047 235.312 810.232 236.424C810.417 237.35 812.451 237.35 813.19 237.721C814.669 238.276 814.669 239.573 814.669 241.056C815.039 241.241 815.594 241.056 816.148 241.056C815.963 241.056 816.333 238.462 816.518 238.276C816.703 237.35 817.257 237.165 818.182 237.165Z" fill="#0E1026"/>
<path d="M803.207 241.056C803.022 241.982 801.543 244.391 801.728 244.761C801.913 245.132 802.837 245.317 803.392 245.317" fill="#CE7E74"/>
<path d="M805.425 246.985C803.946 247.726 802.283 249.208 801.173 247.17L805.425 246.985Z" fill="white"/>
<path d="M807.829 241.426C808.237 241.426 808.568 241.094 808.568 240.685C808.568 240.276 808.237 239.944 807.829 239.944C807.42 239.944 807.089 240.276 807.089 240.685C807.089 241.094 807.42 241.426 807.829 241.426Z" fill="#0E1026"/>
<path d="M798.955 241.426C799.363 241.426 799.694 241.094 799.694 240.685C799.694 240.276 799.363 239.944 798.955 239.944C798.546 239.944 798.215 240.276 798.215 240.685C798.215 241.094 798.546 241.426 798.955 241.426Z" fill="#0E1026"/>
<path d="M797.661 357.971H791.191V421.523H797.661V357.971Z" fill="#9E9E9E"/>
<path d="M839.072 353.524C839.072 357.97 835.19 361.676 830.383 361.676H753.292C748.486 361.676 744.604 357.97 744.604 353.524C744.604 349.077 748.486 345.371 753.292 345.371H830.568C835.19 345.371 839.072 349.077 839.072 353.524Z" fill="#6F367B"/>
<path d="M697.276 430.417C698.016 428.008 702.453 427.823 704.856 427.823C709.478 427.637 713.175 426.711 713.175 421.708C714.1 421.708 722.604 422.449 722.604 421.894C722.789 424.673 722.974 427.637 722.789 430.417H697.276Z" fill="#0E1026"/>
<path d="M724.083 430.417C724.822 428.008 729.259 427.823 731.663 427.823C736.284 427.637 739.982 426.711 739.982 421.708C740.906 421.708 749.41 422.449 749.41 421.894C749.595 424.673 749.78 427.637 749.595 430.417H724.083Z" fill="#0E1026"/>
<path d="M749.595 430.417H724.083V431.899H749.595V430.417Z" fill="#6F367B"/>
<path d="M722.789 430.417H697.276V431.899H722.789V430.417Z" fill="#6F367B"/>
<path d="M708.923 423.005L723.898 341.48C724.822 334.81 732.217 331.845 735.73 331.845H790.636C794.149 331.845 794.703 337.96 795.997 341.109L797.291 344.445C798.585 347.78 796.737 350.93 793.224 350.374C772.888 347.039 760.687 351.856 745.897 351.115C742.385 350.93 741.83 353.153 741.46 356.673C739.057 376.499 735.73 398.733 724.083 423.191" fill="#131535"/>
<path d="M735.729 423.005L750.704 341.48C751.628 335.736 756.62 331.845 760.132 331.845H823.728C823.728 331.845 822.803 348.15 814.854 350.374C796.552 355.191 786.014 353.894 772.704 350.744C769.376 350.003 768.636 353.153 768.267 356.488C765.863 376.314 763.275 398.548 751.628 423.005" fill="#1C2044"/>
<path d="M825.946 424.858C825.946 428.193 823.173 430.973 819.846 430.973H767.712C764.384 430.973 761.611 428.193 761.611 424.858C761.611 421.523 764.384 418.744 767.712 418.744H819.661C823.173 418.744 825.946 421.523 825.946 424.858Z" fill="#9E9E9E"/>
<path d="M679.529 431.714H644.958L662.521 328.51H697.276L679.529 431.714Z" fill="#C6C6C6"/>
<path d="M870.5 328.51H861.441V430.417H870.5V328.51Z" fill="#C6C6C6"/>
<path d="M478.759 318.69H466.003V385.763H478.759V318.69Z" fill="#CCCCCC"/>
<path d="M564.909 318.69H478.575V385.763H564.909V318.69Z" fill="#E2E2E2"/>
<path d="M475.802 322.025H468.592V324.619H475.802V322.025Z" fill="#854C93"/>
<path d="M363.585 343.518H347.871V426.155H363.585V343.518Z" fill="#CCCCCC"/>
<path d="M469.701 343.518H363.4V426.155H469.701V343.518Z" fill="#E2E2E2"/>
<path d="M360.073 347.595H351.199V350.744H360.073V347.595Z" fill="#854C93"/>
<path d="M366.728 409.85L392.055 387.801L402.778 400.216L423.853 376.87L435.5 389.098L460.642 364.27" stroke="#854C93" stroke-width="3" stroke-miterlimit="10"/>
<path d="M438.458 404.662H419.601V504.16H438.458V404.662Z" fill="#CCCCCC"/>
<path d="M566.388 404.662H438.273V504.16H566.388V404.662Z" fill="#E2E2E2"/>
<path d="M434.206 409.665H423.483V413.556H434.206V409.665Z" fill="#854C93"/>
<path d="M479.314 447.833H466.188V478.961H479.314V447.833Z" fill="#854C93"/>
<path d="M499.28 428.935H486.154V478.961H499.28V428.935Z" fill="#854C93"/>
<path d="M522.019 417.447H508.894V479.147H522.019V417.447Z" fill="#854C93"/>
<path d="M522.025 371.675C532.326 371.182 540.27 362.248 539.769 351.719C539.267 341.191 530.51 333.055 520.209 333.548C509.908 334.041 501.964 342.976 502.466 353.504C502.967 364.032 511.725 372.168 522.025 371.675Z" fill="#854C93"/>
<path d="M521.095 352.597L539.767 351.671C539.397 343.889 534.59 337.589 527.935 334.995L521.095 352.597Z" fill="white"/>
<path opacity="0.2" d="M676.571 738.546C736.284 738.546 784.535 690.001 784.535 630.339C784.535 570.677 736.099 522.133 676.571 522.133H653.093" fill="#3A1E6B"/>
<path opacity="0.5" d="M681.932 755.406C721.241 755.406 753.107 751.591 753.107 746.883C753.107 742.176 721.241 738.36 681.932 738.36C642.623 738.36 610.757 742.176 610.757 746.883C610.757 751.591 642.623 755.406 681.932 755.406Z" fill="#BCBCBC"/>
<path d="M630.538 746.698C654.571 725.946 663.63 722.426 666.588 659.614L677.495 659.429C678.235 683.516 681.008 728.54 712.805 746.698H630.538Z" fill="#BCBCBC"/>
<path d="M710.587 608.476C714.285 608.476 718.537 609.773 720.201 613.478C720.385 613.849 721.125 615.517 720.57 615.887C720.201 616.258 717.612 614.59 717.058 614.405C715.579 613.849 714.1 613.478 712.621 612.923" fill="#CC887F"/>
<path d="M723.713 616.999C723.159 616.628 722.789 616.257 722.234 615.887C719.646 614.219 716.873 613.478 713.915 612.737C707.26 611.069 700.974 606.252 694.134 606.252C687.294 606.252 680.639 609.587 673.798 609.958C663.261 610.699 662.521 614.775 663.815 624.966C665.479 637.565 672.319 651.832 683.781 658.317C690.067 662.023 698.201 660.726 705.596 660.726C719.092 660.726 723.713 660.54 737.209 660.54C727.965 660.54 732.402 648.126 731.293 641.086C729.999 632.192 730.923 623.113 723.713 616.999Z" fill="#854C93"/>
<path d="M678.05 654.426C661.966 654.426 634.236 656.464 624.438 641.086C618.707 632.007 617.967 618.481 616.304 607.735C614.64 596.988 608.354 550.852 611.682 543.255C616.673 532.138 634.791 532.138 645.513 532.138C652.908 532.138 660.303 531.953 667.697 532.138C673.059 532.324 681.378 530.841 685.815 534.362C690.437 537.882 690.806 546.776 692.1 551.964C696.168 567.157 704.302 630.154 704.302 630.154" fill="#6F367B"/>
<path d="M753.662 648.868C753.662 642.197 748.116 636.639 741.461 636.639H686.924C680.269 636.639 674.723 642.197 674.723 648.868C674.723 655.538 680.269 661.096 686.924 661.096H741.461C748.116 661.096 753.662 655.723 753.662 648.868Z" fill="#6F367B"/>
<path d="M700.974 710.382C700.42 715.014 698.201 749.107 690.621 746.698C687.479 745.587 687.109 735.766 687.479 732.802C688.218 727.614 691.176 720.017 694.134 715.385" fill="#0E1026"/>
<path d="M694.504 717.608C693.764 721.314 689.142 732.06 693.764 734.284C700.05 737.434 700.05 723.352 700.05 720.202" fill="#F5A99C"/>
<path d="M715.394 716.682C712.436 721.314 709.478 727.614 708.738 732.802C708.369 735.766 708.554 745.587 711.881 746.698C719.646 749.107 721.679 715.014 722.234 710.382" fill="#0E1026"/>
<path d="M716.503 648.497C712.251 657.761 717.428 697.227 714.1 722.24C713.915 723.537 718.907 724.093 720.755 723.908C720.755 723.908 728.15 688.704 730.553 678.698C736.284 655.723 738.318 648.312 729.814 636.268C724.083 628.116 685.26 629.598 676.201 629.413C670.47 629.413 682.487 630.339 683.966 638.121C685.815 648.868 708.739 648.126 716.503 648.497Z" fill="#CC887F"/>
<path d="M715.579 717.608C714.839 721.314 710.218 732.06 714.839 734.284C721.125 737.434 721.125 723.352 721.125 720.202" fill="#CC887F"/>
<path d="M632.942 628.857C634.421 637.565 637.379 647.2 645.328 652.203C653.092 657.205 671.21 655.167 679.899 655.353C692.1 655.538 696.907 654.426 703.747 650.35C689.142 672.399 695.058 711.864 692.84 727.243C692.655 728.54 697.092 727.243 698.756 727.243C698.756 727.243 709.663 689.63 712.066 679.44C717.797 656.464 724.637 649.423 716.133 637.565C705.781 622.928 677.126 631.636 662.151 628.116" fill="#F5A99C"/>
<path d="M665.848 546.405C671.949 545.849 674.168 555.484 676.201 559.746C677.495 562.34 678.789 565.119 679.529 567.713C680.268 570.492 680.268 573.457 680.823 576.421C681.378 579.2 682.117 581.98 683.041 584.574C683.966 587.538 684.335 590.688 684.89 593.653C685.445 596.432 708.923 607.92 711.142 608.661C713.175 609.402 713.175 608.105 713.73 610.514C713.915 611.625 714.1 611.811 713.915 612.737C710.772 612.181 683.781 604.955 681.747 602.732C680.638 601.62 672.319 589.391 670.84 587.538C669.176 585.315 668.437 582.721 667.143 580.312" fill="#CC887F"/>
<path d="M663.815 547.887C661.782 545.664 659.563 540.476 658.824 537.697C660.303 537.697 661.782 538.253 663.261 537.882C664.924 537.326 665.849 534.917 666.218 533.435C668.252 527.877 667.512 520.095 663.815 515.277C661.782 512.498 658.084 511.757 655.866 514.536C653.462 517.501 651.983 521.577 651.799 525.468C651.429 533.435 650.32 540.661 647.731 548.073" fill="#F5A99C"/>
<path d="M654.941 516.76C656.236 517.871 656.605 519.909 657.899 521.021C658.639 521.762 660.118 522.689 661.042 523.059C663.076 523.986 666.958 523.986 668.807 522.133C670.655 520.28 671.58 515.833 670.286 513.424C668.437 510.46 659.193 508.978 657.53 512.498" fill="#1C2044"/>
<path d="M660.672 518.983C656.79 519.909 656.235 524.727 655.866 528.062C655.496 532.323 656.051 536.956 653.278 540.661C650.504 544.367 648.101 545.479 643.479 545.479C639.227 545.479 635.345 544.923 632.757 541.032C629.244 535.844 627.765 528.432 630.908 523.059C632.387 520.651 635.9 520.095 638.303 519.168C640.706 518.242 641.816 516.204 643.479 514.351C646.622 510.83 651.429 508.422 656.051 509.163C658.084 509.348 660.857 511.016 662.336 512.683C663.815 514.351 664.185 518.798 663.445 520.836C663.261 521.206 662.706 521.762 662.521 521.948" fill="#1C2044"/>
<path d="M658.269 525.468C659.748 526.209 660.857 526.95 662.151 526.024L658.269 525.468Z" fill="#131535"/>
<path d="M664 526.579C665.479 527.135 666.588 528.062 667.882 526.95L664 526.579Z" fill="#131535"/>
<path d="M664.185 531.582C664.185 532.138 663.815 532.694 663.076 532.509C662.336 532.509 661.042 531.582 660.672 531.027" fill="white"/>
<path d="M662.891 527.877C662.891 528.618 663.261 528.988 663.63 529.73C663.261 529.915 662.891 529.915 662.521 529.915" fill="#D88C82"/>
<path d="M646.437 546.59C639.782 546.405 637.009 550.111 635.715 552.89C633.866 556.781 638.673 569.566 639.412 573.457C640.706 581.239 642 588.835 643.294 596.617C644.958 606.993 638.303 616.999 639.782 627.189C640.891 634.786 649.025 645.347 655.496 649.423C659.748 652.203 670.84 656.65 676.201 655.167C684.521 652.759 687.294 643.309 693.949 638.306C697.277 635.898 701.898 633.86 705.596 632.933C708.554 632.192 711.327 630.895 715.764 630.895C700.789 627.189 683.966 624.039 675.462 619.222C671.949 617.369 671.58 614.219 671.58 610.328C671.764 599.952 677.126 584.944 679.899 575.124C683.411 563.266 668.806 557.707 665.849 546.22" fill="#1C2044"/>
<path d="M665.294 617.555C664.739 617.184 664.37 616.813 663.815 616.443C661.227 614.775 658.454 614.034 655.496 613.293C648.84 611.626 622.219 610.143 615.379 610.514C604.841 611.255 604.102 615.331 605.396 625.522C607.06 638.121 613.9 652.388 625.362 658.873C631.648 662.579 639.782 661.282 647.177 661.282C660.672 661.282 673.983 661.096 687.478 661.096C678.235 661.096 674.168 648.682 673.059 641.642C671.58 632.748 672.504 623.484 665.294 617.555Z" fill="#854C93"/>
<path d="M639.782 548.999C645.513 547.887 645.513 558.449 646.067 561.969C647.177 569.566 646.622 584.203 644.219 591.615C644.219 590.503 661.412 576.792 667.512 573.086C671.949 570.307 669.916 569.566 671.21 571.048C672.504 572.53 672.504 574.198 670.101 576.792C667.882 579.201 652.908 597.544 647.177 600.508C639.782 604.399 639.412 600.694 637.009 593.097C635.16 587.538 634.051 567.342 634.236 561.228C634.42 554.372 636.084 549.926 639.782 548.999Z" fill="#F5A99C"/>
<path d="M671.025 578.274C670.84 578.83 671.025 579.756 671.765 579.756H678.605C679.714 579.756 679.899 579.571 680.084 579.015L685.26 564.748C685.445 564.192 685.26 563.266 684.521 563.266H677.68C676.941 563.266 676.386 563.451 676.202 564.007L671.025 578.274Z" fill="white"/>
<path d="M671.58 568.824C673.059 566.972 674.353 566.045 676.017 564.192C675.462 565.489 675.462 565.675 675.092 566.972C674.538 568.824 674.722 569.01 677.311 570.121C679.529 571.048 682.487 570.307 682.487 570.863C682.672 573.086 676.941 571.604 676.017 571.418C677.68 572.16 682.117 572.16 681.748 573.271C681.563 574.198 676.571 573.457 675.277 572.901C676.756 573.457 677.126 573.642 678.79 573.827C679.899 574.012 680.823 573.642 681.008 574.383C681.008 575.124 679.714 575.124 678.79 574.939C677.496 574.753 676.201 574.754 674.907 574.383C675.832 574.754 676.756 574.939 677.68 575.309C678.42 575.68 678.235 576.606 677.311 576.606C674.353 576.051 672.134 574.383 669.731 577.347C669.176 577.162 668.622 576.236 668.252 575.865C668.067 575.68 667.512 575.309 667.328 575.124C666.958 574.198 668.067 573.086 668.622 572.53C669.731 571.233 670.655 570.121 671.58 568.824Z" fill="#F5A99C"/>
<path d="M121.405 494.711C121.405 487.299 127.321 481.37 134.716 481.37H233.621C241.016 481.37 246.932 487.299 246.932 494.711" fill="#D8D6D6"/>
<path d="M231.403 361.861H135.64V489.708H231.403V361.861Z" fill="#D8D6D6"/>
<path d="M37.1045 234.756C47.4572 231.606 49.306 245.503 49.306 255.137C49.306 263.29 47.0875 273.11 50.4152 280.521C43.0204 282.374 32.8525 279.039 30.634 271.257C28.9702 265.143 30.0794 260.14 32.8525 254.767C33.9617 252.543 35.9953 250.876 37.1045 248.652C38.3986 245.873 38.0289 242.167 38.0289 239.203" fill="#0E1026"/>
<path d="M50.4151 314.243C51.3394 313.687 51.5243 312.39 52.0789 311.279C53.0032 309.24 53.9276 307.202 55.0368 305.164C56.146 303.126 70.9357 283.856 70.9357 283.856C72.9692 284.968 74.4482 284.968 74.2633 287.006C74.0785 290.897 55.2217 317.393 52.8184 319.431C51.5243 320.358 50.4151 322.025 48.7512 322.396" fill="#F5A99C"/>
<path d="M47.0873 268.848C58.919 268.478 60.9526 299.606 59.1039 303.867C57.44 307.944 56.8854 315.17 51.3393 315.911C45.9781 316.652 43.5747 307.758 42.6504 303.867" fill="#F5A99C"/>
<path d="M31.7433 485.632C31.7433 486.558 32.2979 490.449 32.4828 491.005C32.8525 491.746 33.0374 492.117 34.1466 493.043C34.8861 493.784 33.9618 494.155 34.7013 494.896C33.4072 495.637 33.2223 496.008 31.9282 495.823C30.6341 495.823 28.9703 495.823 27.861 495.081C27.4913 494.896 27.861 495.452 27.6762 495.267C27.3064 494.896 26.3821 495.081 26.3821 494.711C26.7518 492.487 27.4913 490.079 27.4913 488.041C27.4913 486.744 30.0795 486.188 31.1887 485.817" fill="#F5A99C"/>
<path d="M25.4574 496.193C25.4574 496.193 25.6423 496.193 25.4574 496.193C25.8272 495.822 27.491 495.822 28.0456 496.008C28.7851 496.193 29.5246 496.193 30.2641 496.193C31.9279 496.193 33.7766 496.193 35.4404 496.193C35.4404 496.193 35.4404 495.452 35.4404 495.267C35.4404 494.896 35.2556 494.711 35.0707 494.34C34.7009 493.784 34.3312 493.228 33.9615 492.858C33.7766 492.673 33.222 491.932 33.0371 491.932C33.0371 491.932 32.6674 492.117 32.4825 492.117C31.9279 492.302 31.1884 492.487 30.4489 492.487C29.3397 492.487 27.491 492.858 26.5666 492.117C26.012 493.043 25.2725 495.081 25.4574 496.193Z" fill="#0E1026"/>
<path d="M35.8103 496.008C35.8103 496.378 35.6255 496.563 35.2557 496.563H25.8273C25.6424 496.563 25.2727 496.378 25.2727 496.008C25.2727 495.637 25.4576 495.452 25.8273 495.452H35.2557C35.6255 495.452 35.8103 495.822 35.8103 496.008Z" fill="#6F367B"/>
<path d="M69.8265 483.964C69.8265 484.891 70.3812 488.782 70.7509 489.338C71.1206 490.079 71.4904 490.449 72.4147 491.376C73.3391 492.117 73.8937 492.858 74.4483 493.599C72.9693 494.34 71.3055 494.34 69.8265 494.34C68.3476 494.34 66.6837 494.34 65.3897 493.599C65.0199 493.414 65.3897 493.97 65.2048 493.784C64.835 493.414 63.7258 493.599 63.7258 493.229C63.7258 491.005 64.835 489.708 64.835 487.67C64.835 486.373 67.793 484.705 68.9022 484.52" fill="#F5A99C"/>
<path d="M65.0197 496.378C64.0953 496.378 64.0953 495.822 64.0953 495.452C64.0953 494.34 63.5407 491.932 65.2046 491.932C66.3138 491.932 67.2381 492.487 68.3474 492.858C69.8263 493.228 71.8599 493.043 72.5994 491.561C74.0783 493.043 76.6665 493.228 78.5152 493.599C82.0278 493.97 82.7673 496.564 80.9185 496.564H65.0197V496.378Z" fill="#0E1026"/>
<path d="M53.9275 314.799C58.3644 333.883 66.3138 440.052 70.1961 486.558C69.4566 487.114 65.3895 490.264 64.8348 488.226C49.3057 436.902 54.4821 426.34 48.7511 405.589C38.0286 366.679 34.3312 335.18 36.5497 316.467" fill="#F5A99C"/>
<path d="M46.9025 313.873C48.3815 333.698 46.7177 364.455 39.6926 400.03C32.4826 436.161 39.138 446.907 32.1129 488.967C31.3734 489.337 27.4911 491.005 27.3063 488.967C20.0963 435.234 26.3819 422.45 23.9786 400.771C19.5417 360.194 21.945 331.845 27.1214 313.873" fill="#F5A99C"/>
<path d="M62.4317 384.652C67.9778 380.205 61.3225 340.183 59.6586 334.625C55.4066 320.172 54.1125 318.134 55.4066 304.423C55.9612 298.679 58.5494 287.562 56.1461 281.633C55.2218 279.225 49.3059 269.59 47.2723 268.849C45.0539 268.107 24.1635 267.366 15.8444 268.663C15.1049 276.445 14.92 286.636 15.8444 294.418C16.7687 301.088 19.3569 307.202 20.0964 313.873C21.0207 321.469 20.4661 328.51 17.8779 335.736C16.2141 340.368 11.0377 387.431 17.6931 390.395C20.651 391.507 54.6671 390.766 62.4317 384.652Z" fill="#1C2044"/>
<path d="M82.0279 496.008C82.0279 496.378 81.843 496.563 81.4733 496.563H64.6501C64.2803 496.563 64.0955 496.378 64.0955 496.008C64.0955 495.637 64.2803 495.452 64.6501 495.452H81.4733C81.6581 495.452 82.0279 495.637 82.0279 496.008Z" fill="#6F367B"/>
<path d="M40.9868 305.72C41.5414 306.091 43.3901 304.794 43.9447 304.608C44.6842 304.238 45.4237 303.867 46.1632 303.311C47.4573 302.57 49.1211 302.385 50.6001 302.385C50.9698 302.385 50.9698 302.2 51.1547 302.57C51.1547 302.756 51.1547 303.126 51.1547 303.311C50.9698 304.053 50.0455 304.423 49.306 304.608C48.3816 304.794 47.6421 305.164 46.7178 305.535C46.9027 305.905 47.827 305.72 48.1968 305.72C49.1211 305.72 50.2303 305.72 51.1547 305.72C53.0034 305.72 54.8521 305.72 56.7008 305.72C57.2554 305.72 58.7344 305.35 58.5495 306.276C58.3646 306.832 57.6251 307.202 57.0705 307.388C56.1462 307.758 55.2218 307.573 54.2975 307.758C53.7429 307.758 53.0034 307.944 52.8185 308.499C52.6336 309.241 52.2639 309.241 51.7093 309.611C51.3396 309.982 51.7093 310.538 51.1547 310.908C50.7849 311.279 50.7849 311.093 50.7849 311.649C50.6001 312.946 48.7514 312.576 47.827 312.576C47.2724 312.576 46.5329 312.576 45.9783 312.576C45.4237 312.576 44.8691 312.761 44.3145 312.576C43.2053 312.39 42.2809 311.649 41.1717 311.835" fill="#F5A99C"/>
<path d="M2.53364 297.197C1.60929 302.015 -2.45786 312.391 4.0126 314.243C6.60079 314.985 40.0623 312.02 42.6505 311.464C45.2387 310.908 45.4236 305.164 41.911 305.535C30.2642 306.647 19.172 304.053 11.4074 304.238C15.4746 297.753 18.4325 288.489 19.3568 280.892C19.5417 278.298 20.2812 272.74 18.9871 270.516C13.9956 262.919 3.27312 293.491 2.53364 297.197Z" fill="#F5A99C"/>
<path d="M75.927 276.816C77.5909 274.407 78.1455 273.48 80.7337 271.813C81.2883 274.592 85.3554 279.41 84.6159 282.189C83.8765 284.783 78.885 284.412 77.0363 286.08C74.0783 288.489 71.3053 288.489 70.5658 285.895C69.8263 283.115 74.2632 279.039 75.927 276.816Z" fill="#F5A99C"/>
<path d="M23.9785 267.737C28.7851 272.554 38.2135 274.407 42.2807 267.922L23.9785 267.737Z" fill="#F5A99C"/>
<path d="M25.2727 268.849C28.7852 268.293 28.4155 261.252 28.4155 258.658C28.4155 253.655 28.7852 248.838 28.7852 243.835C28.7852 241.982 28.4155 239.944 29.3399 238.277C30.4491 236.424 35.4406 235.497 37.659 235.497C40.6169 235.497 45.4236 236.238 45.4236 239.574C45.4236 243.465 45.6084 249.394 45.2387 251.988C45.0538 253.841 44.3144 256.064 42.4657 256.99C40.9867 257.732 37.4742 256.805 37.2893 259.214C36.9195 261.993 38.7682 266.81 39.5077 269.404" fill="#F5A99C"/>
<path d="M30.4492 234.015C33.4071 233.459 35.9953 233.459 38.7684 234.385C41.1717 235.127 43.9447 235.127 45.6086 237.535C46.3481 238.832 46.7178 241.797 46.9027 243.094C44.3145 243.835 40.6171 241.982 39.8776 239.203C39.8776 240.685 40.2473 241.612 39.1381 242.723C38.0289 243.835 35.8104 243.65 35.4407 245.317C35.2558 245.873 35.6256 247.17 35.4407 247.726C35.4407 248.838 35.2558 249.949 34.8861 250.876C34.1466 252.914 31.9282 253.84 31.0038 255.878C30.0795 258.102 30.2643 260.511 30.2643 263.105C30.2643 268.293 30.0795 274.222 24.5333 276.816C19.9116 279.039 14.1806 277.927 9.00424 277.557C7.89501 277.557 6.60092 277.557 5.4917 277.557C10.1135 275.333 9.00424 267.737 9.55885 263.846C10.4832 258.287 12.3319 256.434 16.5839 252.543C19.357 249.949 18.9872 246.058 19.5418 242.723C20.0965 239.203 21.9452 237.165 25.2728 235.497C27.1215 234.941 28.7854 234.2 30.4492 234.015Z" fill="#0E1026"/>
<path d="M43.2053 251.617C42.8356 254.026 40.6172 253.84 39.1382 251.802L43.2053 251.617Z" fill="white"/>
<path d="M40.6169 246.985C41.1716 247.911 41.3564 248.652 42.0959 249.579C41.911 249.949 41.3564 250.135 41.1716 250.32" fill="#D88C82"/>
<path d="M35.9951 246.429C36.3649 247.541 38.5833 247.355 38.5833 246.058L35.9951 246.429Z" fill="#0E1026"/>
<path d="M42.6504 246.429C43.0201 247.541 45.2386 247.355 45.2386 246.058L42.6504 246.429Z" fill="#0E1026"/>
<path d="M292.41 364.454C292.41 370.754 288.158 375.757 282.797 375.757H85.7253C80.3641 375.757 76.1121 370.754 76.1121 364.454V232.902C76.1121 226.603 80.3641 221.6 85.7253 221.6H282.797C288.158 221.6 292.41 226.603 292.41 232.902V364.454Z" fill="#6F367B"/>
<path d="M180.009 275.889H146.917V302.57H180.009V275.889Z" fill="#0E1026"/>
<path d="M251.924 274.222L259.873 284.598V297.938H226.781L251.924 274.222Z" fill="#0E1026"/>
<path d="M161.522 310.538C167.75 310.538 172.799 303.984 172.799 295.9C172.799 287.816 167.75 281.262 161.522 281.262C155.294 281.262 150.245 287.816 150.245 295.9C150.245 303.984 155.294 310.538 161.522 310.538Z" fill="#0E1026"/>
<path d="M164.295 310.538C170.217 310.538 175.018 303.984 175.018 295.9C175.018 287.816 170.217 281.262 164.295 281.262C158.373 281.262 153.573 287.816 153.573 295.9C153.573 303.984 158.373 310.538 164.295 310.538Z" fill="#0E1026"/>
<path d="M164.295 308.5C169.4 308.5 173.539 302.859 173.539 295.9C173.539 288.942 169.4 283.301 164.295 283.301C159.19 283.301 155.052 288.942 155.052 295.9C155.052 302.859 159.19 308.5 164.295 308.5Z" fill="#9B9B9B"/>
<path d="M163.556 298.679C164.679 298.679 165.589 297.435 165.589 295.9C165.589 294.365 164.679 293.121 163.556 293.121C162.432 293.121 161.522 294.365 161.522 295.9C161.522 297.435 162.432 298.679 163.556 298.679Z" fill="#0E1026"/>
<path d="M247.857 310.538C254.085 310.538 259.134 303.984 259.134 295.9C259.134 287.816 254.085 281.262 247.857 281.262C241.629 281.262 236.58 287.816 236.58 295.9C236.58 303.984 241.629 310.538 247.857 310.538Z" fill="#0E1026"/>
<path d="M250.63 310.538C256.552 310.538 261.352 303.984 261.352 295.9C261.352 287.816 256.552 281.262 250.63 281.262C244.708 281.262 239.907 287.816 239.907 295.9C239.907 303.984 244.708 310.538 250.63 310.538Z" fill="#0E1026"/>
<path d="M250.63 308.5C255.735 308.5 259.873 302.859 259.873 295.9C259.873 288.942 255.735 283.301 250.63 283.301C245.525 283.301 241.386 288.942 241.386 295.9C241.386 302.859 245.525 308.5 250.63 308.5Z" fill="#9B9B9B"/>
<path d="M249.89 298.679C251.013 298.679 251.924 297.435 251.924 295.9C251.924 294.365 251.013 293.121 249.89 293.121C248.767 293.121 247.857 294.365 247.857 295.9C247.857 297.435 248.767 298.679 249.89 298.679Z" fill="#0E1026"/>
<path d="M219.571 256.064C199.975 256.249 200.9 256.064 200.9 256.064L167.993 270.145H144.514C144.514 270.145 97.9268 276.26 97.9268 288.674C98.1116 307.573 97.9268 305.535 97.9268 305.535H153.203L154.867 305.35C153.018 302.57 151.909 298.865 151.909 294.974C151.909 285.895 158.01 278.483 165.404 278.483C172.799 278.483 178.9 285.895 178.9 294.974C178.9 297.938 178.345 300.532 177.236 302.941H177.976H238.613C236.58 293.121 245.823 272.184 259.873 284.783C259.873 284.598 257.285 255.693 219.571 256.064Z" fill="white"/>
<path d="M128.985 301.644L126.767 292.936C126.767 292.38 126.212 291.824 125.657 291.824H97.9268C97.9268 297.568 97.9268 300.903 97.9268 302.941H127.876C128.43 302.756 128.985 302.2 128.985 301.644Z" fill="#3A1E6B"/>
<path d="M135.455 276.445C133.052 277.557 130.649 279.224 128.985 281.263C128.245 282.189 127.136 283.301 128.615 284.042C129.54 284.598 130.834 284.412 131.943 284.412C134.161 284.227 136.565 284.598 138.413 283.671C140.262 282.745 141.741 281.077 143.22 279.595C144.699 278.113 150.06 274.592 145.069 274.222C141.741 274.036 138.413 275.333 135.455 276.445Z" fill="#3A1E6B"/>
<path d="M186.665 267.181C184.261 268.849 182.043 269.775 178.9 269.96C175.757 270.331 146.363 269.96 144.514 270.146C146.548 267.552 170.581 255.879 180.379 255.879C183.707 255.879 201.454 256.064 201.454 256.064C199.79 256.805 198.311 258.102 196.832 259.214C195.169 260.511 193.32 261.808 191.656 263.105C190.177 264.402 188.513 265.884 186.665 267.181Z" fill="#3A1E6B"/>
<path d="M189.253 269.59C197.387 269.59 205.521 269.59 213.656 269.59C221.975 269.59 247.857 269.59 247.857 269.59C247.672 266.625 237.689 258.658 225.487 257.546C221.79 257.175 207 257.361 203.488 257.361" fill="#3A1E6B"/>
<path d="M187.404 271.442C189.622 268.663 192.396 264.587 196.093 264.587C198.681 264.587 201.269 264.402 203.858 264.587C206.076 264.587 206.261 265.699 205.521 267.737C205.336 268.478 204.967 269.034 204.227 269.404C202.933 269.96 201.084 269.775 199.606 269.775C197.202 269.775 194.984 269.96 192.58 269.96C192.58 270.516 192.396 271.072 192.026 271.628" fill="#0E1026"/>
<path d="M222.899 257.175C225.487 260.881 227.89 267.551 228.815 271.813C230.109 271.813 230.294 271.813 231.588 271.628C232.327 271.628 226.411 257.176 224.933 256.805" fill="white"/>
<path d="M131.573 347.78C131.573 349.633 130.094 351.3 128.061 351.3H101.439C99.5906 351.3 97.9268 349.818 97.9268 347.78V335.366C97.9268 333.513 99.4057 331.845 101.439 331.845H128.061C129.909 331.845 131.573 333.328 131.573 335.366V347.78Z" fill="white"/>
<path d="M172.06 347.78C172.06 349.633 170.581 351.3 168.547 351.3H141.926C140.077 351.3 138.413 349.818 138.413 347.78V335.366C138.413 333.513 139.892 331.845 141.926 331.845H168.547C170.396 331.845 172.06 333.328 172.06 335.366V347.78Z" fill="#F5A99C"/>
<path d="M211.807 347.78C211.807 349.633 210.328 351.3 208.294 351.3H181.673C179.824 351.3 178.16 349.818 178.16 347.78V335.366C178.16 333.513 179.639 331.845 181.673 331.845H208.294C210.143 331.845 211.807 333.328 211.807 335.366V347.78Z" fill="#0E1026"/>
<path d="M277.066 334.625C277.066 335.181 276.696 335.551 276.142 335.551H223.823C223.269 335.551 222.899 335.181 222.899 334.625C222.899 334.069 223.269 333.698 223.823 333.698H276.142C276.696 333.698 277.066 334.254 277.066 334.625Z" fill="white"/>
<path d="M248.781 341.48C248.781 342.036 248.596 342.407 248.227 342.407H223.269C223.084 342.407 222.714 342.036 222.714 341.48C222.714 340.924 222.899 340.554 223.269 340.554H248.227C248.596 340.554 248.781 340.924 248.781 341.48Z" fill="white"/>
<path opacity="0.3" d="M85.7251 221.416H282.797C288.158 221.416 292.41 226.418 292.41 232.718V364.27C292.41 370.57 288.158 375.573 282.797 375.573" fill="url(#paint0_linear)"/>
<path d="M416.643 17.6021H409.249V75.4109H416.643V17.6021Z" fill="#828282"/>
<path opacity="0.5" d="M454.727 231.976C538.041 231.976 605.581 227.912 605.581 222.898C605.581 217.883 538.041 213.819 454.727 213.819C371.412 213.819 303.872 217.883 303.872 222.898C303.872 227.912 371.412 231.976 454.727 231.976Z" fill="#BCBCBC"/>
<path d="M406.373 118.985L405.141 123.257L442.083 133.955L443.315 129.683L406.373 118.985Z" fill="#1C2044"/>
<path d="M464.155 133.22L461.567 143.04L424.593 132.293L427.181 122.473L464.155 133.22Z" fill="#1C2044"/>
<path d="M523.868 21.6782C522.389 24.4575 521.834 26.3103 521.65 29.4602C521.465 33.5365 521.65 38.3539 524.977 39.095C528.305 39.8361 525.347 42.986 525.532 47.0623C525.717 52.065 533.112 48.5445 537.364 49.471C536.809 41.3184 537.179 34.4629 537.179 26.4956" fill="#F5A99C"/>
<path d="M537.363 26.3103C537.548 27.0514 537.179 31.313 537.179 31.8688C536.439 31.8688 535.7 31.8688 534.96 31.8688C534.221 31.8688 533.666 31.6836 532.927 31.313C532.002 30.7571 531.078 30.016 530.523 28.9043C530.154 28.1631 529.599 26.3103 530.338 25.7544C530.893 25.3839 532.187 25.5691 532.742 25.5691C533.666 25.5691 534.59 25.5691 535.7 25.5691C536.069 25.5691 536.439 25.5691 536.624 25.5691C537.363 25.5691 537.363 25.7544 537.363 26.3103Z" fill="#131535"/>
<path d="M521.834 28.719L520.54 32.4247H522.574" fill="#F5A99C"/>
<path d="M521.649 26.8663C520.725 19.2696 526.826 17.4167 528.859 17.4167C531.817 17.4167 535.33 17.7873 536.809 20.7519C537.548 22.0489 537.733 23.7164 537.548 25.1987C537.363 26.4957 537.178 26.8663 536.069 26.8663C534.221 26.8663 521.649 26.8663 521.649 26.8663Z" fill="#3A1E6B"/>
<path d="M515.918 26.1252C515.918 25.7546 516.288 25.384 516.658 25.384H524.423C524.792 25.384 525.162 25.7546 525.162 26.1252C525.162 26.4957 524.792 26.8663 524.423 26.8663H516.658C516.288 26.8663 515.918 26.681 515.918 26.1252Z" fill="#3A1E6B"/>
<path d="M584.69 10.0054H576.556V122.288H584.69V10.0054Z" fill="#9E9E9E"/>
<path d="M541.061 130.441C541.061 132.479 542.725 134.146 544.758 134.146H553.632C555.666 134.146 557.329 132.479 557.329 130.441V78.9314C557.329 76.8933 555.666 75.2257 553.632 75.2257H544.758C542.725 75.2257 541.061 76.8933 541.061 78.9314V130.441Z" fill="#0E1026"/>
<path d="M500.205 134.887C500.205 136.926 501.868 138.593 503.902 138.593H545.498C547.531 138.593 549.195 136.926 549.195 134.887V114.691C549.195 112.653 547.531 110.986 545.498 110.986H503.902C501.868 110.986 500.205 112.653 500.205 114.691V134.887Z" fill="#0E1026"/>
<path d="M476.726 74.8551L480.978 76.5227L475.247 93.7541L470.625 92.8277L476.726 74.8551Z" fill="#0E1026"/>
<path d="M488.188 78.0049C488.743 78.1901 489.112 78.9313 488.928 79.4871C488.743 80.043 488.003 80.4136 487.449 80.2283L470.071 73.9286C469.516 73.7433 469.146 73.0022 469.331 72.4463C469.516 71.8905 470.256 71.5199 470.81 71.7052L488.188 78.0049Z" fill="#0E1026"/>
<path d="M460.642 81.3401L480.978 87.8251L457.315 163.792L435.315 159.716L460.642 81.3401Z" fill="#828282"/>
<path d="M432.912 200.108H404.072L407.4 142.669H448.441L432.912 200.108Z" fill="#828282"/>
<path d="M409.248 93.754H392.795V200.108H409.248V93.754Z" fill="#828282"/>
<path d="M392.795 188.805H310.158V200.108H392.795V188.805Z" fill="#9E9E9E"/>
<path d="M493.919 187.138C493.919 187.138 500.02 187.138 507.415 187.138H566.943C574.522 187.138 580.438 181.023 580.438 173.612V132.849C580.438 125.253 591.9 119.323 584.505 119.323H507.415C499.835 119.323 493.919 125.438 493.919 132.849V187.138Z" fill="#9E9E9E"/>
<path d="M481.902 217.71H436.054L416.273 169.906L420.34 168.053L481.902 161.568V217.71Z" fill="#50245B"/>
<path d="M493.919 197.514L479.129 193.808L436.054 169.536V160.642H493.919V197.514Z" fill="#402C61"/>
<path d="M590.421 217.71H540.876V150.451L602.807 171.018L590.421 217.71Z" fill="#50245B"/>
<path d="M593.01 10.0053H504.272C504.272 10.0053 482.642 12.9699 476.356 34.6482L436.055 168.609L429.584 166.571L469.886 32.9806C469.886 32.9806 479.869 5.3732 504.457 3.14978H593.195V10.0053H593.01Z" fill="#9E9E9E"/>
<path d="M411.467 0H400.744V200.108H411.467V0Z" fill="#9E9E9E"/>
<path d="M406.106 45.3949C408.25 45.3949 409.988 43.6528 409.988 41.5039C409.988 39.355 408.25 37.6129 406.106 37.6129C403.962 37.6129 402.223 39.355 402.223 41.5039C402.223 43.6528 403.962 45.3949 406.106 45.3949Z" fill="#1C2044"/>
<path d="M406.106 124.882C408.25 124.882 409.988 123.14 409.988 120.991C409.988 118.842 408.25 117.1 406.106 117.1C403.962 117.1 402.223 118.842 402.223 120.991C402.223 123.14 403.962 124.882 406.106 124.882Z" fill="#1C2044"/>
<path d="M406.106 154.713C408.454 154.713 410.358 152.805 410.358 150.451C410.358 148.098 408.454 146.19 406.106 146.19C403.757 146.19 401.854 148.098 401.854 150.451C401.854 152.805 403.757 154.713 406.106 154.713Z" fill="#9B9B9B"/>
<path d="M430.878 227.345C445.581 227.345 457.499 215.399 457.499 200.664C457.499 185.928 445.581 173.983 430.878 173.983C416.175 173.983 404.257 185.928 404.257 200.664C404.257 215.399 416.175 227.345 430.878 227.345Z" fill="#0E1026"/>
<path d="M430.878 214.931C438.74 214.931 445.113 208.543 445.113 200.664C445.113 192.784 438.74 186.397 430.878 186.397C423.017 186.397 416.643 192.784 416.643 200.664C416.643 208.543 423.017 214.931 430.878 214.931Z" fill="#D8D8D8"/>
<path d="M430.878 209.001C435.473 209.001 439.197 205.268 439.197 200.664C439.197 196.059 435.473 192.326 430.878 192.326C426.283 192.326 422.559 196.059 422.559 200.664C422.559 205.268 426.283 209.001 430.878 209.001Z" fill="#1C2044"/>
<path d="M430.693 203.443C432.225 203.443 433.466 202.199 433.466 200.664C433.466 199.129 432.225 197.884 430.693 197.884C429.161 197.884 427.92 199.129 427.92 200.664C427.92 202.199 429.161 203.443 430.693 203.443Z" fill="#D8D8D8"/>
<path d="M576.186 227.345C590.889 227.345 602.808 215.399 602.808 200.664C602.808 185.928 590.889 173.983 576.186 173.983C561.484 173.983 549.565 185.928 549.565 200.664C549.565 215.399 561.484 227.345 576.186 227.345Z" fill="#0E1026"/>
<path d="M576.186 214.931C584.048 214.931 590.421 208.543 590.421 200.664C590.421 192.784 584.048 186.397 576.186 186.397C568.324 186.397 561.951 192.784 561.951 200.664C561.951 208.543 568.324 214.931 576.186 214.931Z" fill="#D8D8D8"/>
<path d="M576.186 209.001C580.781 209.001 584.505 205.268 584.505 200.664C584.505 196.059 580.781 192.326 576.186 192.326C571.592 192.326 567.867 196.059 567.867 200.664C567.867 205.268 571.592 209.001 576.186 209.001Z" fill="#1C2044"/>
<path d="M576.186 203.443C577.718 203.443 578.959 202.199 578.959 200.664C578.959 199.129 577.718 197.884 576.186 197.884C574.655 197.884 573.413 199.129 573.413 200.664C573.413 202.199 574.655 203.443 576.186 203.443Z" fill="#D8D8D8"/>
<path d="M465.079 217.71H549.565C549.565 185.655 552.153 172.13 602.993 171.018V136.184C602.993 125.808 598.925 119.323 584.875 119.323C576.741 119.323 494.104 182.876 494.104 182.876H460.827C460.827 182.876 452.693 163.607 416.458 166.386V169.906C416.273 169.906 464.709 160.827 465.079 217.71Z" fill="#6F367B"/>
<path d="M494.104 182.691C493.919 182.691 493.919 182.876 494.104 182.691L460.642 182.876C460.642 182.876 460.642 182.876 460.642 182.691H454.726C460.642 189.917 464.894 201.034 465.079 217.71H549.565C549.565 201.59 550.304 190.102 557.329 182.691H494.104Z" fill="#854C93"/>
<path d="M392.61 124.882H289.083V188.991H392.61V124.882Z" fill="#E2978D"/>
<path d="M392.61 14.4523H317.183V61.1441H392.61V14.4523Z" fill="#C97E79"/>
<path d="M392.61 61.1439H281.503V125.252H392.61V61.1439Z" fill="#C97E79"/>
<path d="M392.61 61.1439H281.503V77.449H392.61V61.1439Z" fill="#E2978D"/>
<path d="M469.331 155.639C467.113 155.454 465.449 157.492 463.23 157.678C459.163 158.048 459.533 159.16 459.533 160.457C459.533 160.457 471.18 160.457 472.844 160.457C473.953 160.457 475.617 160.827 475.802 158.975C475.802 158.048 475.617 156.936 475.986 156.01" fill="#0E1026"/>
<path d="M459.533 160.086C459.533 160.272 459.718 160.642 460.087 160.642H475.616C475.801 160.642 476.171 160.457 476.171 160.086C476.171 159.901 475.986 159.531 475.616 159.531H460.087C459.902 159.716 459.533 159.901 459.533 160.086Z" fill="#212356"/>
<path d="M540.876 95.0513C540.876 103.574 540.876 111.356 531.078 111.356C530.893 111.356 507.23 111.356 506.86 111.356C496.322 111.356 496.692 111.912 495.213 119.694C491.331 138.593 489.297 144.522 483.381 156.381C482.642 157.678 468.592 156.01 468.037 155.825C468.037 155.825 477.281 130.255 482.827 106.354C485.785 93.9396 489.297 95.4218 499.65 95.2366H535.145" fill="#1C2044"/>
<path d="M541.061 98.9421C534.591 101.351 516.103 107.465 517.028 100.054C521.28 63.3674 517.952 71.3346 520.171 53.1767C520.91 40.5774 540.876 38.5392 541.061 52.4356C541.246 78.0049 541.061 81.8959 541.061 98.9421Z" fill="#1C2044"/>
<path d="M538.473 67.9996C538.473 72.2611 535.145 75.5962 530.893 75.5962C526.641 75.5962 523.313 72.2611 523.313 67.9996V51.8798C523.313 47.6182 526.641 44.2831 530.893 44.2831C535.145 44.2831 538.473 47.6182 538.473 51.8798V67.9996Z" fill="#828282"/>
<path d="M519.986 81.3401C514.44 84.49 514.994 78.005 514.994 75.9669C514.81 69.1113 524.238 51.324 527.566 47.0624C529.969 44.0979 533.112 45.0243 534.406 48.9153C537.364 58.5501 521.835 80.4137 519.986 81.3401Z" fill="#F5A99C"/>
<path d="M521.649 55.956C521.465 54.2885 524.792 47.9888 525.902 46.6918C528.305 43.7272 534.036 43.5419 535.515 47.2476C536.439 49.6563 536.069 52.6209 535.33 55.2149C534.96 56.8825 533.851 58.7353 533.112 60.2176C532.557 61.3293 521.834 57.4383 521.649 55.956Z" fill="#D8D8D8"/>
<path d="M488.558 80.7841C486.709 80.5989 483.936 80.5989 483.382 80.5989C483.012 80.5989 482.827 80.5989 482.457 80.7841C481.903 80.9694 481.163 81.5253 480.608 81.1547C480.424 80.9694 480.424 80.5989 480.239 80.4136C480.054 80.2283 479.869 80.2283 479.684 80.043C479.684 79.8577 479.684 79.6724 479.499 79.6724C479.314 79.4872 479.129 79.4872 479.129 79.3019C478.945 79.1166 478.945 78.9313 478.945 78.746C478.945 78.5607 479.129 78.5607 478.945 78.3754C478.945 78.1902 478.76 78.1902 478.76 78.0049C478.575 77.6343 478.76 77.2637 479.129 77.0785C479.499 76.8932 479.869 76.5226 480.239 76.3373C480.608 76.152 480.978 75.9667 481.348 75.5962C481.163 75.4109 480.978 75.4109 480.793 75.4109C480.608 75.4109 480.239 75.2256 480.054 75.0403C479.499 74.855 479.13 74.6698 478.575 74.4845C478.02 74.2992 478.02 73.558 478.575 73.3728C479.13 73.1875 479.869 73.558 480.424 73.7433C482.457 74.4845 484.491 75.0403 486.524 75.5962C486.894 75.7815 487.079 75.7815 487.449 75.9667" fill="#F5A99C"/>
<path d="M521.095 79.6725C520.54 86.3428 493.179 81.1548 485.785 80.7842C486.154 79.1166 484.491 77.0785 485.6 75.7815C489.482 76.7079 518.692 70.5935 518.876 78.1902" fill="#F5A99C"/>
<path d="M580.993 146.19C580.993 147.487 579.884 148.598 578.59 148.598H559.363C558.069 148.598 556.96 147.487 556.96 146.19C556.96 144.893 558.069 143.781 559.363 143.781H578.59C579.884 143.781 580.993 144.893 580.993 146.19Z" fill="#D8D8D8"/>
<path d="M580.993 155.639C580.993 156.936 579.884 158.048 578.59 158.048H559.363C558.069 158.048 556.96 156.936 556.96 155.639C556.96 154.342 558.069 153.231 559.363 153.231H578.59C579.884 153.231 580.993 154.342 580.993 155.639Z" fill="#D8D8D8"/>
<path d="M602.808 161.383C593.934 162.495 590.606 149.34 591.715 142.669C595.413 142.484 599.295 143.225 602.993 142.855" fill="#E2978D"/>
<g opacity="0.7">
<path opacity="0.7" d="M378.93 47.6182C378.745 47.6182 378.745 47.6182 378.93 47.6182C378.745 47.6182 378.745 47.8034 378.93 47.6182C378.19 48.9152 377.451 50.2121 376.711 51.3239V51.5091C377.451 52.8061 378.006 53.9178 378.745 55.0296C378.745 55.0296 378.745 55.0296 378.745 55.2148C378.745 54.659 378.745 54.1031 378.745 53.7326H378.93C379.854 53.7326 380.594 53.7326 381.518 53.7326C381.888 53.7326 382.073 53.5473 382.258 53.362C383.182 51.8797 383.921 50.3974 384.846 48.9152C384.846 48.9152 384.846 48.9152 384.846 48.7299C384.476 49.1004 384.106 49.1004 383.737 49.1004C382.258 49.1004 380.594 49.1004 379.115 49.1004H378.93C378.93 48.7299 378.93 48.174 378.93 47.6182ZM376.527 42.2449C378.006 42.2449 379.485 42.2449 380.963 42.2449C380.963 42.2449 381.148 42.2449 381.148 42.0596C381.888 40.7626 382.627 39.6509 383.182 38.3539C383.182 38.3539 383.182 38.3539 383.182 38.1686C382.627 38.5392 382.258 38.7245 381.703 38.9098C381.333 38.1686 380.779 37.4275 380.409 36.5011C380.224 36.1305 380.039 36.1305 379.669 36.1305C378.93 36.1305 378.19 36.1305 377.636 36.1305C376.527 36.1305 375.602 36.1305 374.493 36.1305C375.048 36.3158 375.232 36.6863 375.417 37.2422C376.157 38.5392 376.896 39.8362 377.636 41.1332C377.636 41.1332 377.636 41.3185 377.821 41.3185C377.266 41.689 376.896 41.8743 376.527 42.2449ZM368.762 51.6944C368.762 51.3239 368.762 50.9533 368.947 50.5827C369.686 49.1004 370.611 47.8034 371.35 46.3212C371.35 46.3212 371.35 46.1359 371.535 46.1359C371.905 46.3212 372.459 46.6917 372.829 46.877C372.09 45.58 371.35 44.283 370.611 42.986L370.426 42.8008C369.132 42.8008 367.653 42.8008 366.359 42.8008H366.174C366.728 43.1713 367.098 43.3566 367.468 43.5419C366.913 44.283 366.544 45.2095 366.174 45.9506C365.989 46.3212 365.989 46.5064 366.174 46.877C367.098 48.3593 367.838 49.8416 368.762 51.1386C368.762 51.5091 368.762 51.6944 368.762 51.6944ZM375.417 49.2857C375.232 49.2857 375.232 49.2857 375.417 49.2857C373.754 49.2857 372.09 49.2857 370.426 49.2857C370.426 49.2857 370.241 49.2857 370.241 49.471C370.056 49.8416 369.686 50.3974 369.501 50.768C369.317 51.1386 369.132 51.5091 369.317 52.065C369.501 53.1767 370.426 53.9178 371.72 53.9178C372.829 53.9178 373.938 53.9178 375.232 53.9178H375.417C375.417 52.2503 375.417 50.768 375.417 49.2857ZM379.485 44.4683C379.669 44.4683 379.669 44.4683 379.485 44.4683C380.224 45.9506 381.148 47.4329 381.888 48.7299L382.073 48.9152C382.627 48.9152 383.182 48.9152 383.737 48.9152C384.106 48.9152 384.476 48.7299 384.846 48.5446C385.77 47.8034 386.14 46.5064 385.4 45.3947C384.846 44.4683 384.291 43.3566 383.552 42.4302C383.552 42.4302 383.552 42.2449 383.367 42.2449C382.258 42.8007 380.963 43.5419 379.485 44.4683ZM373.199 43.1713C373.384 43.1713 373.384 43.1713 373.199 43.1713C374.123 41.689 374.863 40.392 375.602 38.9098V38.7245C375.417 38.1686 375.048 37.7981 374.678 37.2422C374.493 37.0569 374.308 36.8716 374.123 36.6863C373.014 35.9452 371.535 36.5011 370.98 37.6128C370.611 38.1686 370.426 38.5392 370.056 39.0951C369.686 39.6509 369.317 40.2068 369.132 40.9479C370.611 41.689 371.905 42.4302 373.199 43.1713Z" fill="#1C2044"/>
<path opacity="0.7" d="M378.93 47.618C378.93 48.1739 378.93 48.5445 378.93 49.1003C379.115 49.1003 379.115 49.1003 379.115 49.1003C380.594 49.1003 382.258 49.1003 383.736 49.1003C384.106 49.1003 384.476 49.1003 384.846 48.7297C384.846 48.7297 384.846 48.7297 384.846 48.915C383.921 50.3973 383.182 51.8796 382.258 53.3619C382.073 53.7324 381.888 53.7324 381.518 53.7324C380.594 53.7324 379.854 53.7324 378.93 53.7324H378.745C378.745 54.2883 378.745 54.8441 378.745 55.2147C378.745 55.2147 378.745 55.2147 378.745 55.0294C378.006 53.9177 377.451 52.6207 376.711 51.509V51.3237C377.266 50.212 378.006 48.915 378.93 47.618C378.745 47.8033 378.745 47.618 378.93 47.618C378.745 47.618 378.745 47.618 378.93 47.618Z" fill="#1C2044"/>
<path opacity="0.7" d="M376.526 42.2448C376.896 42.0595 377.451 41.6889 377.821 41.5036C377.821 41.5036 377.821 41.3184 377.636 41.3184C376.896 40.0214 376.157 38.7244 375.417 37.4274C375.232 37.0568 375.048 36.501 374.493 36.3157C375.602 36.3157 376.526 36.3157 377.636 36.3157C378.375 36.3157 379.115 36.3157 379.669 36.3157C380.039 36.3157 380.224 36.501 380.409 36.6862C380.779 37.4274 381.333 38.1685 381.703 39.0949C382.073 38.9097 382.627 38.5391 383.182 38.3538V38.5391C382.442 39.8361 381.888 40.9478 381.148 42.2448L380.963 42.4301C379.484 42.2448 378.005 42.2448 376.526 42.2448Z" fill="#1C2044"/>
<path opacity="0.7" d="M368.762 51.6945C368.762 51.6945 368.762 51.5092 368.577 51.5092C367.653 50.0269 366.913 48.5447 365.989 47.2477C365.804 46.8771 365.804 46.6918 365.989 46.3212C366.358 45.5801 366.913 44.839 367.283 43.9125C366.913 43.7272 366.358 43.3567 365.989 43.1714C366.174 43.1714 366.174 43.1714 366.174 43.1714C367.468 43.1714 368.947 43.1714 370.241 43.1714C370.241 43.1714 370.426 43.1714 370.426 43.3567C371.165 44.6537 371.905 45.9507 372.644 47.2477C372.274 47.0624 371.72 46.6918 371.35 46.5065C371.35 46.5065 371.35 46.6918 371.165 46.6918C370.426 48.1741 369.501 49.4711 368.762 50.9534C368.762 50.9534 368.762 51.3239 368.762 51.6945Z" fill="#1C2044"/>
<path opacity="0.7" d="M375.417 49.2858C375.417 50.768 375.417 52.4356 375.417 53.9179H375.232C374.123 53.9179 373.014 53.9179 371.72 53.9179C370.426 53.9179 369.501 53.1767 369.316 52.065C369.131 51.6945 369.316 51.1386 369.501 50.768C369.686 50.3975 370.056 49.8416 370.241 49.4711L370.426 49.2858C372.089 49.2858 373.568 49.2858 375.417 49.2858C375.232 49.2858 375.232 49.2858 375.417 49.2858Z" fill="#1C2044"/>
<path opacity="0.7" d="M379.484 44.4683C380.778 43.7271 382.072 42.986 383.551 42.0596C383.551 42.0596 383.551 42.2449 383.736 42.2449C384.291 43.1713 384.845 44.283 385.585 45.2094C386.14 46.3211 385.955 47.6181 385.03 48.3593C384.661 48.5445 384.476 48.7298 383.921 48.7298C383.366 48.7298 382.812 48.7298 382.257 48.7298C382.257 48.7298 382.072 48.7298 382.072 48.5445C381.148 47.2475 380.408 45.9505 379.484 44.4683C379.669 44.4683 379.669 44.4683 379.484 44.4683Z" fill="#1C2044"/>
<path opacity="0.7" d="M373.199 43.1714C371.904 42.4302 370.61 41.6891 369.131 40.7627C369.501 40.2068 369.871 39.6509 370.056 38.9098C370.425 38.354 370.61 37.9834 370.98 37.4275C371.72 36.3158 373.014 35.9452 374.123 36.5011C374.308 36.6864 374.493 36.8717 374.677 37.057C375.047 37.6128 375.232 37.9834 375.602 38.5392V38.7245C374.862 40.3921 374.123 41.6891 373.199 43.1714C373.383 43.1714 373.383 43.1714 373.199 43.1714Z" fill="#1C2044"/>
</g>
<g opacity="0.7">
<path opacity="0.7" d="M376.341 168.98C375.787 167.683 375.232 166.386 374.862 165.089C374.308 166.386 373.938 167.683 373.383 169.165C373.568 169.165 373.938 169.165 374.123 169.165C374.123 169.35 374.123 176.021 374.123 176.391C374.123 176.391 374.123 176.577 374.308 176.577C374.677 176.577 375.047 176.577 375.602 176.577C375.602 176.577 375.602 176.577 375.787 176.577C375.787 172.686 375.787 173.056 375.787 169.165C375.787 168.98 376.156 168.98 376.341 168.98Z" fill="#1C2044"/>
<path opacity="0.7" d="M380.039 164.904C379.854 165.459 379.484 166.201 379.299 166.756C379.114 167.312 378.93 167.683 378.745 168.239C378.745 168.424 378.56 168.609 378.56 168.795V168.98C378.745 168.98 378.93 168.98 379.114 168.98H379.299C379.299 172.871 379.299 172.5 379.299 176.391C379.669 176.391 380.224 176.391 380.593 176.391V176.206C380.593 172.5 380.593 172.871 380.593 169.165C380.593 168.98 380.593 168.98 380.778 168.98C380.963 168.98 381.148 168.98 381.518 168.98C381.148 167.498 380.593 166.201 380.039 164.904Z" fill="#1C2044"/>
<path opacity="0.7" d="M382.812 177.318C379.299 177.318 375.602 177.318 372.089 177.318C372.089 177.688 372.089 178.244 372.089 178.615C372.644 178.615 373.383 178.615 373.938 178.615C374.678 178.615 375.602 178.615 376.341 178.615C378.375 178.615 380.224 178.615 382.257 178.615C382.442 178.615 382.627 178.615 382.627 178.615C382.627 178.615 382.812 178.615 382.812 178.429C382.812 178.244 382.812 177.874 382.812 177.318Z" fill="#1C2044"/>
</g>
<g opacity="0.7">
<path opacity="0.7" d="M317.923 109.874C317.183 109.874 316.259 109.874 315.519 109.874C315.519 106.539 315.519 103.204 315.519 99.8686C314.595 99.8686 313.855 99.8686 313.116 99.8686C313.116 103.204 313.116 106.539 313.116 109.874C312.192 109.874 311.452 109.874 310.713 109.874C310.713 102.463 310.713 94.8659 310.713 87.4545C313.116 87.4545 315.704 87.4545 318.107 87.4545C317.923 94.8659 317.923 102.463 317.923 109.874ZM315.334 97.4598C315.334 94.8659 315.334 92.4572 315.334 90.0485C314.41 90.0485 313.671 90.0485 312.931 90.0485C312.931 92.4572 312.931 95.0511 312.931 97.4598C313.855 97.4598 314.595 97.4598 315.334 97.4598Z" fill="#1C2044"/>
<path opacity="0.7" d="M305.536 97.4598C306.276 97.4598 307.2 97.4598 307.94 97.4598C307.94 98.201 307.94 99.1274 307.94 99.8686C307.2 99.8686 306.276 99.8686 305.536 99.8686C305.536 102.463 305.536 104.871 305.536 107.465C306.276 107.465 307.2 107.465 307.94 107.465C307.94 108.392 307.94 109.133 307.94 109.874C306.276 109.874 304.612 109.874 302.948 109.874C302.948 102.463 302.948 94.8659 302.948 87.4545C304.612 87.4545 306.276 87.4545 307.94 87.4545C307.94 88.1956 307.94 89.122 307.94 89.8632C307.2 89.8632 306.276 89.8632 305.536 89.8632C305.536 92.4572 305.536 94.8659 305.536 97.4598Z" fill="#1C2044"/>
<path opacity="0.7" d="M320.511 87.4545C322.175 87.4545 323.838 87.4545 325.502 87.4545C325.502 88.1956 325.502 89.122 325.502 89.8632C324.763 89.8632 323.838 89.8632 323.099 89.8632C323.099 95.7923 323.099 101.536 323.099 107.28C323.838 107.28 324.763 107.28 325.502 107.28C325.502 107.651 325.502 108.206 325.502 108.577C325.502 108.948 325.502 109.318 325.502 109.874C323.838 109.874 322.175 109.874 320.511 109.874C320.511 102.463 320.511 95.0511 320.511 87.4545Z" fill="#1C2044"/>
</g>
<path opacity="0.7" d="M333.266 165.83C333.266 165.645 333.266 165.274 333.266 165.089C332.897 165.089 332.712 165.089 332.342 165.089C332.342 165.274 332.342 165.459 332.342 165.645C332.342 165.83 332.342 165.83 332.157 165.83C331.603 165.83 331.048 166.015 330.493 166.201C329.754 166.386 329.014 166.756 328.46 167.312C328.09 167.683 327.72 167.868 327.351 168.239C327.166 168.424 326.981 168.795 326.796 169.165C326.796 169.165 326.796 169.35 326.611 169.35C326.981 168.98 327.351 168.795 327.905 168.98C328.46 168.98 328.83 169.165 329.014 169.721C329.384 169.165 329.754 168.98 330.309 168.98C330.863 168.98 331.233 169.165 331.603 169.721C331.788 169.35 331.972 169.165 332.342 168.98V169.165C332.342 171.389 332.342 176.021 332.342 176.391C332.527 177.132 332.897 177.688 333.451 177.874C333.821 178.059 334.191 178.244 334.561 178.244C334.93 178.244 335.3 178.244 335.67 178.059C336.409 177.688 336.779 177.132 336.964 176.206V176.021C336.779 176.021 336.409 176.021 336.224 176.021V176.206C336.224 176.762 335.855 176.947 335.485 177.318C335.115 177.503 334.561 177.503 334.191 177.318C333.636 177.132 333.451 176.762 333.451 176.206C333.451 175.835 333.451 170.647 333.451 169.536C333.451 169.35 333.451 169.165 333.451 168.98C333.821 169.165 334.191 169.35 334.376 169.721C334.745 168.795 336.594 168.795 336.964 169.721C337.149 169.165 337.703 168.98 338.073 168.98C338.628 168.98 338.997 169.165 339.367 169.536C338.997 168.795 338.443 168.053 337.703 167.498C336.224 166.386 334.93 165.83 333.266 165.83Z" fill="#1C2044"/>
<path opacity="0.7" d="M358.963 178.429C358.594 178.429 358.039 178.244 357.669 178.244C357.485 178.244 357.115 178.059 356.93 178.059C356.56 178.059 356.375 178.059 356.006 178.059C355.821 178.059 355.821 178.059 355.821 177.873C355.821 177.688 355.821 177.503 355.821 177.318C355.821 176.762 355.821 176.021 355.821 175.465C355.821 174.909 355.821 174.353 355.821 173.797C355.821 173.427 355.821 173.797 355.821 173.427C355.821 173.241 355.821 173.241 356.006 173.241C356.375 173.241 359.148 171.944 359.148 170.462V164.718C358.594 164.718 358.039 164.718 357.485 164.718C356.93 164.718 356.375 164.718 355.636 164.718C354.157 164.718 352.863 164.718 351.384 164.718C351.384 164.718 351.384 164.718 351.199 164.718V170.277C351.199 172.13 353.787 173.241 354.527 173.241C354.712 173.241 354.712 173.241 354.712 173.427C354.712 174.168 354.712 173.982 354.712 174.538C354.712 175.65 354.712 176.762 354.712 177.873C354.712 178.059 354.712 178.059 354.527 178.059C354.157 178.059 353.972 178.059 353.602 178.059C353.417 178.059 353.233 178.059 353.233 178.059C352.678 178.244 352.123 178.244 351.569 178.429C351.199 178.429 351.199 178.429 351.199 178.615C351.199 178.615 351.199 178.8 351.384 178.8C352.863 178.8 354.342 178.8 355.821 178.8C356.745 178.8 357.669 178.8 358.594 178.8C358.779 178.8 359.148 178.8 359.333 178.8C359.333 178.429 359.333 178.429 358.963 178.429Z" fill="#1C2044"/>
<path opacity="0.7" d="M364.51 161.939H345.838V180.653H364.51V161.939Z" stroke="#1C2044" stroke-width="0.5" stroke-miterlimit="10"/>
<path opacity="0.7" d="M386.325 161.939H367.653V180.653H386.325V161.939Z" stroke="#1C2044" stroke-width="0.5" stroke-miterlimit="10"/>
<path opacity="0.7" d="M342.141 161.939H323.469V180.653H342.141V161.939Z" stroke="#1C2044" stroke-width="0.5" stroke-miterlimit="10"/>
<path opacity="0.5" d="M324.947 138.593H295.368V148.784H324.947V138.593Z" fill="white"/>
<path opacity="0.5" d="M392.425 94.8657H362.846V105.056H392.425V94.8657Z" fill="white"/>
<path opacity="0.5" d="M322.359 24.4575H317.183V54.1031H322.359V24.4575Z" fill="white"/>
</g>
<defs>
<linearGradient id="paint0_linear" x1="182.553" y1="304.087" x2="256.51" y2="200.778" gradientUnits="userSpaceOnUse">
<stop stop-color="white"/>
<stop offset="1" stop-color="#6F367B"/>
</linearGradient>
<clipPath id="clip0">
<rect x="0.5" width="870" height="826" fill="white"/>
</clipPath>
</defs>
</svg>
